<svg width="610" height="185" viewBox="0 0 610 185" fill="none" xmlns="http://www.w3.org/2000/svg">
<path d="M344.386 90.3568V112.829H338.697V90.929C338.697 85.454 335.388 81.7067 330.485 81.7067C324.864 81.7067 320.612 86.6096 320.466 93.5207V112.829H314.699V91.2207C314.699 85.8915 311.311 81.7067 306.419 81.7067C300.507 81.7067 296.412 86.6096 296.266 93.5207V112.829H290.499V76.8151H295.402L295.907 83.154C297.713 78.9019 302.178 75.9512 307.575 75.9512C312.971 75.9512 317.224 79.1936 319.243 84.0179C320.758 79.2609 325.941 75.9512 331.921 75.9512C339.27 75.9512 344.386 81.9984 344.386 90.3568Z" fill="black"/>
<path d="M375.789 112.83L375.284 106.637C373.264 110.743 369.091 113.413 363.683 113.413C356.772 113.413 351.297 109.094 351.297 102.463C351.297 97.2797 354.898 93.5324 360.373 92.949L372.759 91.5129C374.195 91.3671 375.059 90.649 375.059 89.4934V88.9213C375.059 84.3101 371.604 81.1462 366.847 81.1462C362.09 81.1462 358.634 84.4559 358.488 89.6505L352.149 88.7866C352.867 81.1462 359.061 75.9629 366.993 75.9629C374.925 75.9629 380.826 81.2921 380.826 88.7866V105.638L381.118 112.841H375.789V112.83ZM375.07 98.1324V95.6865C374.857 95.8997 373.848 96.1241 372.625 96.2587L362.112 97.4143C358.948 97.8519 357.209 99.5796 357.209 102.171C357.209 105.346 360.239 107.646 364.266 107.646C370.605 107.646 375.07 103.607 375.07 98.1324Z" fill="black"/>
<path d="M409.211 77.2396L409.065 84.1507C407.91 83.2868 406.328 82.7146 404.028 82.7146C399.125 82.7146 395.669 87.1799 395.523 93.2272V112.816H389.757V76.802H394.514L395.164 83.859C396.679 79.1805 400.135 76.084 404.6 76.084C406.619 76.084 408.347 76.5215 409.211 77.2396Z" fill="black"/>
<path d="M415.258 63.8438H421.025V94.5287L438.022 76.8133H446.089L432.48 91.0731L448.109 112.827H440.906L428.228 95.1794L421.025 102.595V112.827H415.258V63.8438Z" fill="black"/>
<path d="M467.406 113.693C457.32 113.693 449.825 105.772 449.825 94.8221C449.825 83.872 457.174 75.9512 467.114 75.9512C477.054 75.9512 483.752 83.7262 483.752 94.5416C483.752 95.3382 483.752 96.2694 483.685 97.066H456.164C456.602 103.551 461.067 108.162 467.114 108.162C472.297 108.162 476.336 105.065 476.909 100.454L483.102 102.754C481.654 109.093 474.889 113.704 467.395 113.704M477.851 91.5012C477.559 85.5886 472.814 81.3477 467.047 81.3477C461.28 81.3477 456.534 85.5998 456.097 91.5012H477.851Z" fill="black"/>
<path d="M487.791 77.0286H490.091C492.537 77.0286 493.985 75.2223 493.985 72.3501V67.4473H499.46V76.8154H507.526V82.4363H499.46V103.327C499.46 106.21 501.479 107.792 504.362 107.792C506.09 107.792 506.954 107.646 508.11 107.366L508.256 112.841C506.808 113.413 505.372 113.705 503.072 113.705C497.597 113.705 493.704 109.957 493.704 104.191V82.5036H487.803V77.0286H487.791Z" fill="black"/>
<path d="M522.65 67.5916C522.65 70.116 520.709 72.2028 518.185 72.2028C515.66 72.2028 513.719 70.116 513.719 67.5916C513.719 65.0673 515.66 62.9805 518.185 62.9805C520.709 62.9805 522.65 65.0673 522.65 67.5916ZM515.312 76.8139H521.079V112.828H515.312V76.8139Z" fill="black"/>
<path d="M562.277 90.9285V112.829H556.51V91.2202C556.51 85.7452 552.909 81.7062 547.725 81.7062C541.095 81.7062 536.629 86.6091 536.483 93.2285V112.817H530.717V76.8033H535.62L536.124 82.9964C537.852 78.5985 542.755 75.9395 548.297 75.9395C556.364 75.9395 562.277 82.2784 562.277 90.9285Z" fill="black"/>
<path d="M604.989 76.813V111.963C604.989 121.904 597.932 129.106 588.137 129.106C578.915 129.106 572.004 123.486 570.848 115.71L576.896 113.983C577.333 119.312 581.798 123.351 588.137 123.351C594.476 123.351 599.379 118.886 599.379 112.838V106.432C596.642 110.325 592.389 112.704 587.273 112.704C576.896 112.704 569.48 105.063 569.48 94.1132C569.48 83.1631 576.896 75.8145 586.982 75.8145C592.457 75.8145 596.855 78.3388 599.66 82.5124L600.097 76.8242H605L604.989 76.813ZM599.368 94.2366C599.368 86.6075 594.33 81.267 587.262 81.267C580.194 81.267 575.448 86.5963 575.448 94.2366C575.448 101.877 580.486 107.06 587.554 107.06C594.622 107.06 599.368 101.731 599.368 94.2366Z" fill="black"/>
<path d="M296.782 163.239C297.074 167.906 301.012 171.193 306.273 171.193C310.806 171.193 313.286 168.635 313.286 165.718C313.286 163.384 312.04 161.343 308.54 160.535L302.481 159.144C296.647 157.831 292.26 154.33 292.26 149.069C292.26 143.156 298.173 138.41 305.107 138.41C312.04 138.41 317.807 142.056 318.682 148.339L312.545 149.944C312.399 146.443 309.258 143.739 304.95 143.739C301.079 143.739 298.532 146.073 298.532 148.777C298.532 151.11 300.069 152.793 303.861 153.747L309.404 155.138C315.249 156.597 319.557 159.592 319.557 165.426C319.557 171.631 314.161 176.668 305.982 176.668C297.803 176.668 291.374 172.584 290.51 164.989L296.793 163.239H296.782Z" fill="black"/>
<path d="M343.208 176.668C332.549 176.668 325.099 168.635 325.099 157.539C325.099 146.443 332.762 138.41 343.062 138.41C351.095 138.41 357.95 143.818 359.128 151.256L352.845 153.444C352.262 148.036 348.178 144.031 342.916 144.031C336.195 144.031 331.237 149.73 331.237 157.461C331.237 165.191 336.207 170.89 343.208 170.89C348.469 170.89 352.991 166.728 353.428 161.185L359.857 163.227C358.399 171.115 351.386 176.657 343.219 176.657" fill="black"/>
<path d="M398.541 153.6V175.792H392.707V153.892C392.707 148.338 389.061 144.255 383.799 144.255C377.079 144.255 372.557 149.225 372.411 155.934V175.792H366.566V126.146H372.411V144.759C374.386 140.821 379.053 138.409 384.383 138.409C392.562 138.409 398.541 144.838 398.541 153.6Z" fill="black"/>
<path d="M405.834 157.551C405.834 146.455 413.429 138.422 424.088 138.422C434.746 138.422 442.342 146.455 442.342 157.551C442.342 168.647 434.746 176.68 424.088 176.68C413.429 176.68 405.834 168.647 405.834 157.551ZM436.283 157.551C436.283 149.888 431.1 144.043 424.088 144.043C417.076 144.043 411.892 149.888 411.892 157.551C411.892 165.214 417.076 170.913 424.088 170.913C431.1 170.913 436.283 165.146 436.283 157.551Z" fill="black"/>
<path d="M448.176 157.551C448.176 146.455 455.771 138.422 466.43 138.422C477.088 138.422 484.684 146.455 484.684 157.551C484.684 168.647 477.088 176.68 466.43 176.68C455.771 176.68 448.176 168.647 448.176 157.551ZM478.614 157.551C478.614 149.888 473.431 144.043 466.419 144.043C459.406 144.043 454.223 149.888 454.223 157.551C454.223 165.214 459.406 170.913 466.419 170.913C473.431 170.913 478.614 165.146 478.614 157.551Z" fill="black"/>
<path d="M498.405 126.146H492.56V175.792H498.405V126.146Z" fill="black"/>
<path d="M85.5887 180.034H5V129.67H31.444L33.7103 149.809L57.3832 151.323L56.8783 101.958L27.6631 98.6934L30.6811 75.0205L56.6203 76.2771L56.3734 30.446L31.444 31.4557L30.6811 55.9476L5 59.9754V11.059L83.0643 5.01172L86.3964 89.1232L83.5131 99.1982L85.5887 180.034Z" fill="#625DF5"/>
<path d="M174.985 90.8842V140.238L175.534 180.022H95.9105L99.6914 5H174.48V58.8866H148.036V31.4328L125.373 34.7089L122.354 81.5497L174.985 90.873V90.8842ZM148.54 153.589L149.292 117.07L122.343 108.252L125.619 149.55L148.54 153.578V153.589Z" fill="#625DF5"/>
<path d="M264.133 12.5624V180.034H186.069L185.822 91.6364L186.069 84.0858V5.01172L264.133 12.5624ZM213.007 147.038L237.689 153.59L236.68 34.7206L212.502 31.4445L213.007 147.038Z" fill="#625DF5"/>
</svg>
