<?xml version="1.0" encoding="UTF-8"?>
<svg id="Layer_1" xmlns="http://www.w3.org/2000/svg" version="1.1" viewBox="0 0 1387 342">
  <!-- Generator: Adobe Illustrator 29.0.1, SVG Export Plug-In . SVG Version: 2.1.0 Build 192)  -->
  <defs>
    <style>
      .st0 {
        fill: #757575;
      }
    </style>
  </defs>
  <path d="M380.8,171.1c0,18.6-15,33.6-34.3,33.6h-14.7v30.8h-22.4v-98h37.1c19.3,0,34.3,15,34.3,33.6ZM358.4,171.1c0-7.1-5-12.6-11.9-12.6h-14.7v25.2h14.7c6.9,0,11.9-5.5,11.9-12.6Z"/>
  <path d="M457.7,203.4h-10.7v32.2h-22.4v-98h39.2c18.5,0,33.5,14.9,33.6,33.4,0,0,0,.1,0,.2,0,12-7.3,23-18,28.4l20.9,36h-24.1l-18.5-32.2ZM447,183.8h16.8c6.2,0,11.2-5.5,11.2-12.6s-5-12.6-11.2-12.6h-16.8v25.2Z"/>
  <path d="M537.8,186.6c0-28.2,22.8-51,50.9-51,28.2,0,51,22.8,51,50.9,0,28.2-22.8,51-50.9,51,0,0,0,0,0,0-27.9.3-50.7-22.1-51-50,0-.3,0-.6,0-.9ZM617.3,186.6c0-17.5-12.6-29.1-28.5-29.1s-28.6,11.6-28.6,29.1,12.6,29.1,28.6,29.1,28.5-11.7,28.5-29.1Z"/>
  <path d="M676.5,213.3l19.3-11.2c3.5,8.1,9.5,13.6,20.6,13.6s13.3-4.2,13.3-8c0-6-5.6-8.4-20.3-12.4-14.5-4.1-28.8-11.1-28.8-29.8s16-29.8,32.9-29.8,28.7,7.7,35.8,22.1l-18.9,11.1c-3.4-7-8-11.3-16.9-11.3s-10.5,3.5-10.5,7.4,2.4,7.6,17.6,12.2c14.8,4.5,31.5,9.7,31.5,30.4s-15.1,30.1-36.4,30.1c-20.6,0-33.7-9.8-39.2-24.2Z"/>
  <path d="M866.6,171.1c0,18.6-15,33.6-34.3,33.6h-14.7v30.8h-22.4v-98h37.1c19.3,0,34.3,15,34.3,33.6ZM844.2,171.1c0-7.1-5-12.6-11.9-12.6h-14.7v25.2h14.7c6.9,0,11.9-5.5,11.9-12.6Z"/>
  <path d="M972,214v21.6h-61.6v-98h60.9v21.6h-38.5v16.2h35v21.3h-35v17.4h39.2Z"/>
  <path d="M1074.6,214v21.6h-57.4v-98h22.4v76.4h35Z"/>
  <path d="M1174.4,214v21.6h-57.4v-98h22.4v76.4h35Z"/>
  <path d="M1207.1,186.6c0-28.2,22.8-51,50.9-51,28.2,0,51,22.8,51.1,50.9,0,28.2-22.8,51-51,51,0,0,0,0,0,0-27.9.3-50.7-22.1-51-50,0-.3,0-.6,0-.9ZM1286.6,186.6c0-17.5-12.6-29.1-28.6-29.1s-28.6,11.6-28.6,29.1,12.6,29.1,28.6,29.1,28.6-11.7,28.6-29.1Z"/>
  <path d="M33.2,164.1c1.8-7.6,6.9-12.6,13.5-15.8,19-9.4,38.2-18.4,57.4-27.5,10.9-5.2,21.8-10.5,32.8-15.8,21.8-10.4,43.6-20.8,65.3-31.2l35.3-16.8c9.2-4.4,18.2-9.3,27.6-13,20.1-7.9,41.7,2.6,45.5,25,2.1,12.1-1.8,23-11.4,31.3-1.3,1.1-2.4,2.3-3.6,3.5-5,1.3-9,4.6-13.5,6.7-10.6,5-21.1,10-31.8,15-6.5,3-12.8,6.4-19.4,9.2-6.1,2.6-11.9,5.9-17.9,8.8-1.9.7-3.6,1.7-5.2,3-.4-1.7-1.3-1-2.2-.6-9.9,4.8-19.8,9.5-29.7,14.2-8.2,3.9-16.5,7.6-24.6,11.7-4.6,2.3-9.5,3.9-13.6,6.9-6.4-1.5-11.8-5.1-17.8-7.7-5.4-2.3-10.6-5.1-15.9-7.6-7.7-3.7-15.3-7.4-23-10.9-5.2-2.4-10.3-5.3-16.2-5.5-11.7-.4-20.9,4.4-28,13.6-1,1.3-1.4,3.3-3.6,3.4Z"/>
  <path d="M33.2,164.1c2.1-.1,2.6-2.2,3.6-3.4,7.1-9.2,16.3-14,28-13.6,5.9.2,11,3.1,16.2,5.5,7.7,3.5,15.3,7.2,23,10.9,5.3,2.5,10.5,5.2,15.9,7.6,5.9,2.6,11.4,6.2,17.8,7.7,5.7,2.6,11.3,5.2,17,7.9,13.6,6.5,27.2,13.2,41,19.5,4.6,2.1,8.8,5,13.7,6.2.5,1.4,1.1,2.8,1.5,4.3,1.6,5.7,2.9,11.6,4.8,17.2,5.5,16.7,13.1,32.7,22.6,47.6,6.1,9.6,11.5,19.8,20.5,27.3.3.2.3.7.4,1.1-4.2-1.2-7.9-3.6-11.8-5.4-10.8-5-21.5-10.3-32.2-15.4-18.7-8.9-37.3-17.9-56-26.8-11.2-5.3-22.4-10.7-33.7-16-19.9-9.4-39.8-18.7-59.6-28.4-8.1-3.9-16.8-6.8-23.9-12.5-7.2-5.6-11.6-14.1-11.8-23.2-.2-5.8-.2-11.6,2.5-16.9.2-.3.3-.6.4-.9v-.2c0,0,.1-.1.1-.1Z"/>
  <path class="st0" d="M259,309.9c-.1-.4-.1-.9-.4-1.1-8.9-7.5-14.4-17.7-20.5-27.3-9.5-14.9-17.1-30.9-22.6-47.6-1.9-5.6-3.2-11.5-4.8-17.2-.4-1.4-1-2.9-1.5-4.3-3.6-15.9-4.1-32.1-3.6-48.4,0-5.9.8-11.8,2.1-17.6,1.6-1.3,3.3-2.3,5.2-3,6-2.8,11.8-6.1,17.9-8.8,6.6-2.8,12.9-6.2,19.4-9.2,10.6-4.9,21.2-9.9,31.8-15,4.5-2.2,8.6-5.4,13.5-6.7-3.1,4.7-6.4,9.3-9.2,14.2-7.4,13-12.6,26.8-14.2,41.8-.6,4.6-1,9.2-1.1,13.8.1,16.8,3.6,33.3,10.2,48.7,5.9,14.1,13.6,27.3,22.9,39.5,12.7,16.8,7.7,43.3-14.2,51.7-8.7,3.4-18.5,3-26.8-1.3-1.4-.7-2.8-1.4-4.2-2.2Z"/>
</svg>