<svg width="3390" height="492" viewBox="0 0 3390 492" fill="none" xmlns="http://www.w3.org/2000/svg">
<g filter="url(#filter0_dd_784_2)">
<path d="M272.797 316.981L293.911 147.112H321.093L300.221 316.981H272.797ZM183 278.154V251.703H339.781V278.154H183ZM209.939 316.981L231.053 147.112H258.235L237.121 316.981H209.939ZM191.252 212.39V185.939H347.789L348.032 212.39H191.252Z" fill="white"/>
<path d="M409.367 223.553H490.913V255.1H409.367V223.553ZM412.28 316.981H372.963V147.112H501.349V178.659H412.28V316.981Z" fill="white"/>
<path d="M577.306 318.922C566.466 318.922 556.758 316.819 548.183 312.613C539.77 308.406 533.217 302.016 528.525 293.442C523.833 284.706 521.487 273.624 521.487 260.196V186.425H559.347V254.615C559.347 265.454 561.612 273.462 566.142 278.639C570.834 283.654 577.387 286.162 585.801 286.162C591.625 286.162 596.803 284.948 601.333 282.522C605.863 279.933 609.423 276.051 612.012 270.874C614.6 265.535 615.895 258.902 615.895 250.975V186.425H653.755V316.981H617.836V281.066L624.389 291.501C620.02 300.56 613.549 307.436 604.973 312.127C596.56 316.657 587.338 318.922 577.306 318.922Z" fill="white"/>
<path d="M742.223 318.922C726.852 318.922 714.879 315.039 706.304 307.274C697.729 299.347 693.441 287.618 693.441 272.087V157.547H731.302V271.602C731.302 277.102 732.758 281.389 735.67 284.463C738.582 287.375 742.546 288.831 747.562 288.831C753.548 288.831 758.645 287.213 762.852 283.978L773.045 310.671C769.162 313.422 764.47 315.525 758.969 316.981C753.629 318.275 748.047 318.922 742.223 318.922ZM673.298 218.457V189.337H763.823V218.457H673.298Z" fill="white"/>
<path d="M849.389 318.922C838.549 318.922 828.841 316.819 820.266 312.613C811.853 308.406 805.3 302.016 800.608 293.442C795.916 284.706 793.57 273.624 793.57 260.196V186.425H831.43V254.615C831.43 265.454 833.695 273.462 838.225 278.639C842.918 283.654 849.47 286.162 857.884 286.162C863.708 286.162 868.886 284.948 873.416 282.522C877.946 279.933 881.506 276.051 884.095 270.874C886.683 265.535 887.978 258.902 887.978 250.975V186.425H925.838V316.981H889.919V281.066L896.472 291.501C892.104 300.56 885.632 307.436 877.057 312.127C868.643 316.657 859.421 318.922 849.389 318.922Z" fill="white"/>
<path d="M960.913 316.981V186.425H997.075V223.31L991.978 212.633C995.861 203.412 1002.09 196.455 1010.67 191.763C1019.24 186.91 1029.68 184.483 1041.97 184.483V219.428C1040.36 219.266 1038.9 219.185 1037.6 219.185C1036.31 219.023 1034.93 218.942 1033.48 218.942C1023.12 218.942 1014.71 221.935 1008.24 227.921C1001.93 233.745 998.773 242.886 998.773 255.343V316.981H960.913Z" fill="white"/>
<path d="M1128.34 318.922C1113.45 318.922 1100.35 316.01 1089.02 310.186C1077.86 304.362 1069.2 296.435 1063.05 286.404C1056.9 276.212 1053.83 264.645 1053.83 251.703C1053.83 238.599 1056.82 227.031 1062.81 217.001C1068.96 206.809 1077.29 198.882 1087.81 193.219C1098.32 187.395 1110.22 184.483 1123.48 184.483C1136.26 184.483 1147.75 187.234 1157.94 192.734C1168.3 198.073 1176.47 205.838 1182.46 216.03C1188.44 226.061 1191.44 238.113 1191.44 252.188C1191.44 253.644 1191.36 255.343 1191.19 257.284C1191.03 259.064 1190.87 260.762 1190.71 262.38H1084.65V240.297H1170.81L1156.25 246.849C1156.25 240.055 1154.87 234.15 1152.12 229.134C1149.37 224.119 1145.57 220.237 1140.71 217.486C1135.86 214.574 1130.2 213.118 1123.73 213.118C1117.25 213.118 1111.51 214.574 1106.49 217.486C1101.64 220.237 1097.84 224.2 1095.09 229.377C1092.34 234.392 1090.96 240.378 1090.96 247.335V253.159C1090.96 260.277 1092.5 266.586 1095.57 272.087C1098.81 277.426 1103.26 281.551 1108.92 284.463C1114.75 287.213 1121.54 288.588 1129.31 288.588C1136.26 288.588 1142.33 287.537 1147.51 285.434C1152.85 283.331 1157.7 280.176 1162.07 275.97L1182.21 297.81C1176.23 304.605 1168.7 309.862 1159.64 313.583C1150.58 317.143 1140.15 318.922 1128.34 318.922Z" fill="white"/>
<path d="M1219.31 316.981V147.112H1292.85C1308.06 147.112 1321.16 149.62 1332.17 154.635C1343.17 159.488 1351.66 166.526 1357.65 175.747C1363.63 184.969 1366.63 195.97 1366.63 208.75C1366.63 221.369 1363.63 232.289 1357.65 241.511C1351.66 250.57 1343.17 257.527 1332.17 262.38C1321.16 267.234 1308.06 269.66 1292.85 269.66H1241.15L1258.63 252.431V316.981H1219.31ZM1327.31 316.981L1284.84 255.343H1326.83L1369.78 316.981H1327.31ZM1258.63 256.799L1241.15 238.356H1290.66C1302.8 238.356 1311.86 235.767 1317.85 230.591C1323.83 225.252 1326.83 217.972 1326.83 208.75C1326.83 199.367 1323.83 192.087 1317.85 186.91C1311.86 181.733 1302.8 179.145 1290.66 179.145H1241.15L1258.63 160.459V256.799Z" fill="white"/>
<path d="M1459.91 318.922C1445.02 318.922 1431.92 316.01 1420.59 310.186C1409.43 304.362 1400.77 296.435 1394.62 286.404C1388.47 276.212 1385.4 264.645 1385.4 251.703C1385.4 238.599 1388.39 227.031 1394.38 217.001C1400.53 206.809 1408.86 198.882 1419.38 193.219C1429.89 187.395 1441.79 184.483 1455.05 184.483C1467.84 184.483 1479.32 187.234 1489.52 192.734C1499.87 198.073 1508.04 205.838 1514.03 216.03C1520.02 226.061 1523.01 238.113 1523.01 252.188C1523.01 253.644 1522.93 255.343 1522.77 257.284C1522.6 259.064 1522.44 260.762 1522.28 262.38H1416.22V240.297H1502.38L1487.82 246.849C1487.82 240.055 1486.44 234.15 1483.69 229.134C1480.94 224.119 1477.14 220.237 1472.29 217.486C1467.43 214.574 1461.77 213.118 1455.3 213.118C1448.82 213.118 1443.08 214.574 1438.07 217.486C1433.21 220.237 1429.41 224.2 1426.66 229.377C1423.91 234.392 1422.53 240.378 1422.53 247.335V253.159C1422.53 260.277 1424.07 266.586 1427.14 272.087C1430.38 277.426 1434.83 281.551 1440.49 284.463C1446.32 287.213 1453.11 288.588 1460.88 288.588C1467.84 288.588 1473.9 287.537 1479.08 285.434C1484.42 283.331 1489.27 280.176 1493.64 275.97L1513.79 297.81C1507.8 304.605 1500.28 309.862 1491.22 313.583C1482.15 317.143 1471.72 318.922 1459.91 318.922Z" fill="white"/>
<path d="M1624.75 316.981V291.501L1622.32 285.919V240.297C1622.32 232.208 1619.81 225.899 1614.8 221.369C1609.94 216.839 1602.42 214.574 1592.23 214.574C1585.27 214.574 1578.39 215.707 1571.6 217.972C1564.96 220.075 1559.3 222.987 1554.61 226.708L1541.02 200.257C1548.14 195.242 1556.71 191.359 1566.74 188.609C1576.78 185.858 1586.97 184.483 1597.32 184.483C1617.23 184.483 1632.68 189.175 1643.68 198.558C1654.68 207.941 1660.18 222.582 1660.18 242.481V316.981H1624.75ZM1584.95 318.922C1574.75 318.922 1566.02 317.223 1558.74 313.826C1551.45 310.267 1545.87 305.494 1541.99 299.509C1538.11 293.523 1536.17 286.809 1536.17 279.367C1536.17 271.602 1538.03 264.807 1541.75 258.983C1545.63 253.159 1551.7 248.629 1559.95 245.393C1568.2 241.996 1578.96 240.297 1592.23 240.297H1626.93V262.38H1596.35C1587.45 262.38 1581.31 263.836 1577.91 266.748C1574.67 269.66 1573.05 273.3 1573.05 277.668C1573.05 282.522 1574.92 286.404 1578.64 289.316C1582.52 292.067 1587.78 293.442 1594.41 293.442C1600.72 293.442 1606.38 291.986 1611.4 289.074C1616.42 286 1620.06 281.551 1622.32 275.727L1628.15 293.199C1625.4 301.612 1620.38 308.002 1613.1 312.37C1605.82 316.738 1596.43 318.922 1584.95 318.922Z" fill="white"/>
<path d="M1751.46 318.922C1739.16 318.922 1728.08 316.172 1718.21 310.671C1708.34 305.009 1700.49 297.163 1694.67 287.132C1689 277.102 1686.17 265.292 1686.17 251.703C1686.17 237.951 1689 226.061 1694.67 216.03C1700.49 206 1708.34 198.235 1718.21 192.734C1728.08 187.234 1739.16 184.483 1751.46 184.483C1762.46 184.483 1772.09 186.91 1780.34 191.763C1788.59 196.617 1794.98 203.978 1799.51 213.846C1804.04 223.715 1806.31 236.334 1806.31 251.703C1806.31 266.91 1804.12 279.529 1799.75 289.559C1795.39 299.428 1789.08 306.789 1780.82 311.642C1772.73 316.495 1762.95 318.922 1751.46 318.922ZM1758.01 287.86C1764.16 287.86 1769.74 286.404 1774.76 283.492C1779.77 280.58 1783.74 276.455 1786.65 271.116C1789.72 265.616 1791.26 259.145 1791.26 251.703C1791.26 244.099 1789.72 237.628 1786.65 232.289C1783.74 226.95 1779.77 222.825 1774.76 219.913C1769.74 217.001 1764.16 215.545 1758.01 215.545C1751.7 215.545 1746.04 217.001 1741.02 219.913C1736.01 222.825 1731.96 226.95 1728.89 232.289C1725.97 237.628 1724.52 244.099 1724.52 251.703C1724.52 259.145 1725.97 265.616 1728.89 271.116C1731.96 276.455 1736.01 280.58 1741.02 283.492C1746.04 286.404 1751.7 287.86 1758.01 287.86ZM1792.23 316.981V290.287L1792.96 251.46L1790.53 212.876V136.92H1828.39V316.981H1792.23Z" fill="white"/>
<path d="M1879.94 366C1873.14 366 1866.43 364.948 1859.79 362.845C1853.16 360.742 1847.74 357.83 1843.53 354.109L1857.37 327.173C1860.28 329.761 1863.59 331.784 1867.32 333.24C1871.2 334.696 1875 335.424 1878.72 335.424C1884.06 335.424 1888.27 334.129 1891.34 331.541C1894.58 329.114 1897.49 324.989 1900.08 319.165L1906.88 303.149L1909.79 299.023L1956.63 186.425H1993.03L1934.06 324.989C1929.85 335.505 1925 343.755 1919.5 349.741C1914.16 355.727 1908.17 359.933 1901.54 362.36C1895.06 364.787 1887.86 366 1879.94 366ZM1902.26 322.077L1844.02 186.425H1883.09L1928.23 295.626L1902.26 322.077Z" fill="white"/>
<path d="M2051.92 316.981L1996.35 147.112H2037.12L2085.41 297.567H2065.03L2115.51 147.112H2151.91L2200.45 297.567H2180.79L2230.3 147.112H2267.92L2212.34 316.981H2170.11L2127.16 184.969H2138.32L2094.15 316.981H2051.92Z" fill="white"/>
<path d="M2289.33 316.981V186.425H2327.19V316.981H2289.33ZM2308.26 168.224C2301.31 168.224 2295.64 166.202 2291.27 162.158C2286.91 158.113 2284.72 153.098 2284.72 147.112C2284.72 141.126 2286.91 136.111 2291.27 132.067C2295.64 128.022 2301.31 126 2308.26 126C2315.22 126 2320.88 127.941 2325.25 131.824C2329.62 135.545 2331.8 140.398 2331.8 146.384C2331.8 152.694 2329.62 157.951 2325.25 162.158C2321.04 166.202 2315.38 168.224 2308.26 168.224Z" fill="white"/>
<path d="M2415.72 318.922C2400.35 318.922 2388.38 315.039 2379.8 307.274C2371.23 299.347 2366.94 287.618 2366.94 272.087V157.547H2404.8V271.602C2404.8 277.102 2406.26 281.389 2409.17 284.463C2412.08 287.375 2416.05 288.831 2421.06 288.831C2427.05 288.831 2432.15 287.213 2436.35 283.978L2446.55 310.671C2442.66 313.422 2437.97 315.525 2432.47 316.981C2427.13 318.275 2421.55 318.922 2415.72 318.922ZM2346.8 218.457V189.337H2437.32V218.457H2346.8Z" fill="white"/>
<path d="M2547.16 184.483C2557.51 184.483 2566.74 186.586 2574.83 190.793C2583.08 194.837 2589.55 201.147 2594.24 209.721C2598.93 218.133 2601.28 228.973 2601.28 242.239V316.981H2563.42V248.063C2563.42 237.547 2561.07 229.782 2556.38 224.766C2551.85 219.751 2545.38 217.244 2536.97 217.244C2530.98 217.244 2525.56 218.538 2520.71 221.126C2516.01 223.553 2512.29 227.355 2509.54 232.532C2506.95 237.709 2505.66 244.342 2505.66 252.431V316.981H2467.8V136.92H2505.66V222.582L2497.16 211.662C2501.86 202.926 2508.57 196.212 2517.31 191.521C2526.05 186.829 2536 184.483 2547.16 184.483Z" fill="white"/>
<path d="M2638.27 316.981V147.112H2711.8C2727.01 147.112 2740.12 149.62 2751.12 154.635C2762.12 159.488 2770.62 166.526 2776.6 175.747C2782.59 184.969 2785.58 195.97 2785.58 208.75C2785.58 221.369 2782.59 232.289 2776.6 241.511C2770.62 250.732 2762.12 257.85 2751.12 262.866C2740.12 267.719 2727.01 270.146 2711.8 270.146H2660.11L2677.59 252.431V316.981H2638.27ZM2677.59 256.799L2660.11 238.113H2709.62C2721.76 238.113 2730.82 235.525 2736.8 230.348C2742.79 225.171 2745.78 217.972 2745.78 208.75C2745.78 199.367 2742.79 192.087 2736.8 186.91C2730.82 181.733 2721.76 179.145 2709.62 179.145H2660.11L2677.59 160.459V256.799Z" fill="white"/>
<path d="M2813.65 316.981V147.112H2852.97V316.981H2813.65Z" fill="white"/>
<path d="M2870.96 316.981L2946.68 147.112H2985.51L3061.47 316.981H3020.22L2958.09 167.011H2973.62L2911.25 316.981H2870.96ZM2908.82 280.58L2919.26 250.732H3006.63L3017.3 280.58H2908.82Z" fill="white"/>
<path d="M3134.92 319.893C3121.33 319.893 3108.3 318.113 3095.85 314.554C3083.39 310.833 3073.36 306.061 3065.75 300.237L3079.1 270.631C3086.38 275.808 3094.96 280.095 3104.83 283.492C3114.86 286.728 3124.97 288.346 3135.16 288.346C3142.93 288.346 3149.16 287.618 3153.85 286.162C3158.7 284.544 3162.26 282.36 3164.53 279.61C3166.79 276.859 3167.93 273.705 3167.93 270.146C3167.93 265.616 3166.15 262.057 3162.59 259.468C3159.03 256.718 3154.34 254.534 3148.51 252.916C3142.69 251.137 3136.21 249.519 3129.1 248.063C3122.14 246.445 3115.1 244.504 3107.98 242.239C3101.02 239.974 3094.63 237.062 3088.81 233.503C3082.98 229.943 3078.21 225.252 3074.49 219.428C3070.93 213.604 3069.15 206.162 3069.15 197.102C3069.15 187.395 3071.74 178.578 3076.92 170.651C3082.26 162.562 3090.18 156.172 3100.7 151.48C3111.38 146.627 3124.73 144.2 3140.74 144.2C3151.42 144.2 3161.94 145.494 3172.29 148.083C3182.65 150.51 3191.79 154.231 3199.72 159.246L3187.58 189.094C3179.66 184.564 3171.73 181.248 3163.8 179.145C3155.87 176.88 3148.11 175.747 3140.5 175.747C3132.9 175.747 3126.67 176.637 3121.81 178.417C3116.96 180.196 3113.48 182.542 3111.38 185.454C3109.28 188.204 3108.22 191.44 3108.22 195.161C3108.22 199.529 3110 203.088 3113.56 205.838C3117.12 208.427 3121.81 210.53 3127.64 212.148C3133.46 213.765 3139.85 215.383 3146.81 217.001C3153.93 218.619 3160.97 220.479 3167.93 222.582C3175.05 224.686 3181.52 227.517 3187.34 231.076C3193.17 234.635 3197.86 239.327 3201.42 245.151C3205.14 250.975 3207 258.336 3207 267.234C3207 276.779 3204.33 285.515 3198.99 293.442C3193.65 301.369 3185.64 307.759 3174.96 312.613C3164.45 317.466 3151.1 319.893 3134.92 319.893Z" fill="white"/>
</g>
<defs>
<filter id="filter0_dd_784_2" x="179" y="126" width="3032" height="248" filterUnits="userSpaceOnUse" color-interpolation-filters="sRGB">
<feFlood flood-opacity="0" result="BackgroundImageFix"/>
<feColorMatrix in="SourceAlpha" type="matrix" values="0 0 0 0 0 0 0 0 0 0 0 0 0 0 0 0 0 0 127 0" result="hardAlpha"/>
<feOffset dy="4"/>
<feGaussianBlur stdDeviation="2"/>
<feComposite in2="hardAlpha" operator="out"/>
<feColorMatrix type="matrix" values="0 0 0 0 0 0 0 0 0 0 0 0 0 0 0 0 0 0 0.25 0"/>
<feBlend mode="normal" in2="BackgroundImageFix" result="effect1_dropShadow_784_2"/>
<feColorMatrix in="SourceAlpha" type="matrix" values="0 0 0 0 0 0 0 0 0 0 0 0 0 0 0 0 0 0 127 0" result="hardAlpha"/>
<feOffset dy="4"/>
<feGaussianBlur stdDeviation="2"/>
<feComposite in2="hardAlpha" operator="out"/>
<feColorMatrix type="matrix" values="0 0 0 0 0 0 0 0 0 0 0 0 0 0 0 0 0 0 0.25 0"/>
<feBlend mode="normal" in2="effect1_dropShadow_784_2" result="effect2_dropShadow_784_2"/>
<feBlend mode="normal" in="SourceGraphic" in2="effect2_dropShadow_784_2" result="shape"/>
</filter>
</defs>
</svg>
