<svg width="32" height="32" viewBox="0 0 32 32" fill="none" xmlns="http://www.w3.org/2000/svg">
<rect width="32" height="32" fill="#FFFAF3"/>
<path d="M6.17768 12.3652C6.48481 12.3652 6.77186 12.4226 7.03881 12.5375C7.30658 12.6515 7.54318 12.8097 7.74903 13.0131C7.95447 13.2157 8.11563 13.4507 8.23291 13.7184C8.34977 13.9866 8.40841 14.2737 8.40841 14.5796C8.40841 14.8814 8.351 15.1664 8.23619 15.4341C8.12219 15.7023 7.96391 15.9377 7.76052 16.1411C7.55794 16.3437 7.32421 16.5019 7.05849 16.6168C6.79359 16.7307 6.50778 16.7873 6.20064 16.7873V17.824H3.56641V12.3652H6.17768Z" fill="black"/>
<path d="M9.5 12.3652H12.3376V17.824H9.5V12.3652Z" fill="black"/>
<path d="M13.1172 17.8233L16.5633 11.9824L20.0095 17.8233H13.1172Z" fill="#FF0048"/>
<path d="M21.9268 12.3652H26.0208V15.111H25.0695V15.1651C25.3295 15.2221 25.5403 15.3275 25.701 15.4817C25.8617 15.6351 25.9741 15.8114 26.0389 16.0115C26.1045 16.2116 26.1242 16.4183 26.0979 16.6315C26.0725 16.8447 26.0053 17.0424 25.8962 17.2236C25.7867 17.4053 25.6387 17.5525 25.4517 17.6649C25.2647 17.7764 25.0383 17.8322 24.7726 17.8322H20.7097V15.111H21.8103V15.0552C21.4306 14.9831 21.1288 14.8318 20.9049 14.6009C20.6818 14.3692 20.5703 14.076 20.5703 13.7217C20.5703 13.488 20.631 13.267 20.7524 13.0591C20.8746 12.8516 21.0386 12.6843 21.2445 12.5571C21.4499 12.4292 21.6775 12.3652 21.9268 12.3652Z" fill="black"/>
<mask id="mask0_724_15" style="mask-type:luminance" maskUnits="userSpaceOnUse" x="26" y="16" width="3" height="2">
<path d="M26.9043 16.7344H28.1316V17.9617H26.9043V16.7344Z" fill="white"/>
</mask>
<g mask="url(#mask0_724_15)">
<path d="M26.9043 16.7344H28.1316V17.9617H26.9043V16.7344Z" fill="black"/>
</g>
<path d="M4.04388 18.8425C4.1181 18.8503 4.17838 18.8786 4.22431 18.9278C4.27023 18.977 4.2932 19.0426 4.2932 19.1246C4.2932 19.2066 4.269 19.2722 4.22103 19.3215C4.17387 19.3698 4.11482 19.3981 4.04388 19.4067C4.00451 19.4113 3.95941 19.4133 3.90938 19.4133H3.77324V19.7627H3.58789V18.8359H3.90938C3.96064 18.8359 4.00533 18.8384 4.04388 18.8425ZM3.98811 19.2624C4.0611 19.2526 4.09801 19.2066 4.09801 19.1246C4.09801 19.0426 4.0611 18.9967 3.98811 18.9868C3.9672 18.9836 3.93972 18.9819 3.9061 18.9819H3.77324V19.2673H3.9061C3.93972 19.2673 3.9672 19.2657 3.98811 19.2624Z" fill="black"/>
<path d="M4.75476 19.0312C4.77444 19.0312 4.79126 19.0329 4.80561 19.0362V19.1854C4.72688 19.1801 4.66865 19.1969 4.63174 19.2363C4.59443 19.2748 4.57597 19.3408 4.57597 19.4348V19.7628H4.39062V19.0477H4.57597V19.1789L4.63174 19.0788C4.6666 19.0472 4.7076 19.0312 4.75476 19.0312Z" fill="black"/>
<path d="M4.94998 19.1343C5.01559 19.0646 5.10621 19.0293 5.22226 19.0293C5.33913 19.0293 5.42975 19.0646 5.49454 19.1343C5.56015 19.2032 5.59295 19.2934 5.59295 19.4049C5.59295 19.5164 5.56015 19.6075 5.49454 19.6772C5.42975 19.7461 5.33913 19.7805 5.22226 19.7805C5.10621 19.7805 5.01559 19.7461 4.94998 19.6772C4.88437 19.6075 4.85156 19.5164 4.85156 19.4049C4.85156 19.2934 4.88437 19.2032 4.94998 19.1343ZM5.09104 19.587C5.12261 19.6296 5.16649 19.651 5.22226 19.651C5.27803 19.651 5.32149 19.6296 5.35348 19.587C5.38505 19.5435 5.40104 19.4832 5.40104 19.4066C5.40104 19.3291 5.38505 19.2684 5.35348 19.2245C5.32149 19.181 5.27803 19.1589 5.22226 19.1589C5.16649 19.1589 5.12261 19.181 5.09104 19.2245C5.05905 19.2684 5.04347 19.3291 5.04347 19.4066C5.04347 19.4832 5.05905 19.5435 5.09104 19.587Z" fill="black"/>
<path d="M5.9679 19.0293C6.05073 19.0293 6.11716 19.0502 6.16637 19.0916C6.21557 19.1322 6.24387 19.1864 6.25166 19.254H6.06631C6.05401 19.1851 6.01751 19.1507 5.95641 19.1507C5.92894 19.1507 5.90762 19.1581 5.89245 19.172C5.87809 19.1864 5.87112 19.2048 5.87112 19.2278C5.87112 19.2552 5.88301 19.277 5.90721 19.2934C5.93099 19.309 5.97323 19.3241 6.03351 19.3393C6.11224 19.359 6.17047 19.3865 6.20901 19.4213C6.24715 19.4566 6.26642 19.505 6.26642 19.5673C6.26642 19.6362 6.23854 19.6895 6.18277 19.7264C6.12782 19.7625 6.05811 19.7805 5.97282 19.7805C5.88301 19.7805 5.81043 19.7608 5.75466 19.7215C5.6989 19.6821 5.66609 19.6231 5.65625 19.5443H5.8416C5.84898 19.5829 5.86456 19.6116 5.88752 19.6313C5.91131 19.6501 5.94042 19.6592 5.97446 19.6592C6.00603 19.6592 6.03105 19.6526 6.04991 19.6395C6.06959 19.6255 6.07943 19.6058 6.07943 19.5804C6.07943 19.5534 6.06631 19.5308 6.04007 19.5132C6.01464 19.4959 5.97118 19.4795 5.90885 19.464C5.83668 19.4467 5.78091 19.4209 5.74154 19.3869C5.703 19.3532 5.68413 19.3073 5.68413 19.2491C5.68413 19.1814 5.70956 19.1277 5.76123 19.0883C5.81371 19.049 5.8826 19.0293 5.9679 19.0293Z" fill="black"/>
<path d="M6.80404 19.0293C6.90246 19.0293 6.97996 19.0633 7.03696 19.131C7.09478 19.1978 7.12389 19.2848 7.12389 19.3918C7.12389 19.5156 7.09109 19.6112 7.02548 19.6788C6.95987 19.7469 6.87826 19.7805 6.78108 19.7805C6.70768 19.7805 6.6515 19.7674 6.61213 19.7412L6.56621 19.6674V20.0266H6.38086V19.0473H6.56621V19.1572L6.6187 19.0785C6.66011 19.0457 6.72203 19.0293 6.80404 19.0293ZM6.74499 19.6509C6.79953 19.6509 6.84382 19.6296 6.87785 19.587C6.91271 19.5443 6.93034 19.4832 6.93034 19.4033C6.93034 19.3303 6.91394 19.2712 6.88113 19.2261C6.84915 19.1814 6.80609 19.1589 6.75155 19.1589C6.69579 19.1589 6.65068 19.1781 6.61705 19.2163C6.58302 19.2548 6.56621 19.3147 6.56621 19.3967V19.4312C6.56621 19.5066 6.58343 19.5624 6.6187 19.5985C6.65355 19.6337 6.69579 19.6509 6.74499 19.6509Z" fill="black"/>
<path d="M7.89242 19.3902C7.89242 19.4164 7.8916 19.4377 7.89078 19.4541H7.3823C7.39296 19.5853 7.44832 19.651 7.54797 19.651C7.58815 19.651 7.62178 19.6407 7.64802 19.6198C7.67426 19.5981 7.69067 19.5681 7.69723 19.5296H7.88258C7.86371 19.6116 7.82435 19.6739 7.76448 19.7166C7.7042 19.7592 7.63039 19.7805 7.54304 19.7805C7.44012 19.7805 7.35647 19.749 7.29209 19.6854C7.2273 19.621 7.19531 19.5288 7.19531 19.4082C7.19531 19.2967 7.22853 19.206 7.29537 19.1359C7.3618 19.065 7.44955 19.0293 7.55781 19.0293C7.66278 19.0293 7.74479 19.0637 7.80384 19.1326C7.86289 19.2015 7.89242 19.2876 7.89242 19.3902ZM7.54961 19.1589C7.45775 19.1589 7.40362 19.2171 7.38722 19.3327H7.70215C7.68903 19.2171 7.63818 19.1589 7.54961 19.1589Z" fill="black"/>
<path d="M8.19902 18.7734V19.5263C8.19902 19.5583 8.19943 19.5804 8.20066 19.5936C8.20271 19.6124 8.20927 19.6247 8.22034 19.6313C8.23223 19.637 8.25356 19.6391 8.28431 19.6378V19.7641C8.25151 19.7682 8.21296 19.7707 8.1695 19.7707C8.07108 19.7707 8.02023 19.7289 8.01695 19.6444C8.01449 19.6227 8.01367 19.5849 8.01367 19.5312V18.7734H8.19902Z" fill="black"/>
<path d="M8.57207 18.7734V19.5263C8.57207 19.5583 8.57248 19.5804 8.57371 19.5936C8.57576 19.6124 8.58232 19.6247 8.59339 19.6313C8.60528 19.637 8.6266 19.6391 8.65736 19.6378V19.7641C8.62455 19.7682 8.58601 19.7707 8.54254 19.7707C8.44413 19.7707 8.39328 19.7289 8.39 19.6444C8.38754 19.6227 8.38672 19.5849 8.38672 19.5312V18.7734H8.57207Z" fill="black"/>
<path d="M8.81716 19.1343C8.88277 19.0646 8.9734 19.0293 9.08945 19.0293C9.20631 19.0293 9.29694 19.0646 9.36173 19.1343C9.42734 19.2032 9.46014 19.2934 9.46014 19.4049C9.46014 19.5164 9.42734 19.6075 9.36173 19.6772C9.29694 19.7461 9.20631 19.7805 9.08945 19.7805C8.9734 19.7805 8.88277 19.7461 8.81716 19.6772C8.75155 19.6075 8.71875 19.5164 8.71875 19.4049C8.71875 19.2934 8.75155 19.2032 8.81716 19.1343ZM8.95823 19.587C8.9898 19.6296 9.03368 19.651 9.08945 19.651C9.14521 19.651 9.18868 19.6296 9.22067 19.587C9.25224 19.5435 9.26823 19.4832 9.26823 19.4066C9.26823 19.3291 9.25224 19.2684 9.22067 19.2245C9.18868 19.181 9.14521 19.1589 9.08945 19.1589C9.03368 19.1589 8.9898 19.181 8.95823 19.2245C8.92624 19.2684 8.91066 19.3291 8.91066 19.4066C8.91066 19.4832 8.92624 19.5435 8.95823 19.587Z" fill="black"/>
<path d="M10.0623 19.7627H9.87695V18.8359H10.0623V19.7627Z" fill="black"/>
<path d="M10.9003 19.2294C10.9036 19.2614 10.9052 19.3044 10.9052 19.359V19.7625H10.7199V19.3852C10.7199 19.3426 10.7187 19.3094 10.7166 19.2852C10.7109 19.2011 10.6658 19.1589 10.5805 19.1589C10.5321 19.1589 10.4935 19.1818 10.464 19.2278C10.4345 19.2729 10.4197 19.3422 10.4197 19.4361V19.7625H10.2344V19.0473H10.4197V19.1638L10.4739 19.0785C10.5206 19.0457 10.578 19.0293 10.6461 19.0293C10.7215 19.0293 10.7806 19.0469 10.8232 19.0818C10.8667 19.117 10.8925 19.1663 10.9003 19.2294Z" fill="black"/>
<path d="M11.3214 19.0293C11.4042 19.0293 11.4707 19.0502 11.5199 19.0916C11.5691 19.1322 11.5974 19.1864 11.6052 19.254H11.4198C11.4075 19.1851 11.371 19.1507 11.3099 19.1507C11.2825 19.1507 11.2611 19.1581 11.246 19.172C11.2316 19.1864 11.2246 19.2048 11.2246 19.2278C11.2246 19.2552 11.2365 19.277 11.2607 19.2934C11.2845 19.309 11.3267 19.3241 11.387 19.3393C11.4658 19.359 11.524 19.3865 11.5625 19.4213C11.6007 19.4566 11.6199 19.505 11.6199 19.5673C11.6199 19.6362 11.5921 19.6895 11.5363 19.7264C11.4813 19.7625 11.4116 19.7805 11.3263 19.7805C11.2365 19.7805 11.1639 19.7608 11.1082 19.7215C11.0524 19.6821 11.0196 19.6231 11.0098 19.5443H11.1951C11.2025 19.5829 11.2181 19.6116 11.241 19.6313C11.2648 19.6501 11.2939 19.6592 11.328 19.6592C11.3595 19.6592 11.3846 19.6526 11.4034 19.6395C11.4231 19.6255 11.4329 19.6058 11.4329 19.5804C11.4329 19.5534 11.4198 19.5308 11.3936 19.5132C11.3682 19.4959 11.3247 19.4795 11.2624 19.464C11.1902 19.4467 11.1344 19.4209 11.0951 19.3869C11.0565 19.3532 11.0376 19.3073 11.0376 19.2491C11.0376 19.1814 11.0631 19.1277 11.1147 19.0883C11.1672 19.049 11.2361 19.0293 11.3214 19.0293Z" fill="black"/>
<path d="M11.9563 19.1755V19.5068C11.9563 19.5363 11.9567 19.5572 11.958 19.5691C11.96 19.6044 11.9699 19.6274 11.9875 19.638C12.006 19.6479 12.0404 19.6511 12.0908 19.6479V19.7676C12.0523 19.7742 12.0121 19.7774 11.9695 19.7774C11.9014 19.7774 11.853 19.766 11.8235 19.743C11.794 19.72 11.7767 19.6831 11.7726 19.6315C11.7714 19.6097 11.771 19.5753 11.771 19.5281V19.1755H11.666V19.0541H11.771V18.877H11.9563V19.0541H12.104V19.1755H11.9563Z" fill="black"/>
<path d="M12.2369 18.8091C12.2553 18.7907 12.2799 18.7812 12.3107 18.7812C12.341 18.7812 12.3656 18.7907 12.3845 18.8091C12.4029 18.828 12.4124 18.8514 12.4124 18.8797C12.4124 18.9092 12.4029 18.9334 12.3845 18.9518C12.3656 18.9695 12.341 18.9781 12.3107 18.9781C12.2799 18.9781 12.2553 18.9695 12.2369 18.9518C12.218 18.9334 12.209 18.9092 12.209 18.8797C12.209 18.8514 12.218 18.828 12.2369 18.8091ZM12.4042 19.7621H12.2188V19.047H12.4042V19.7621Z" fill="black"/>
<path d="M12.7981 19.1755V19.5068C12.7981 19.5363 12.7985 19.5572 12.7998 19.5691C12.8018 19.6044 12.8117 19.6274 12.8293 19.638C12.8478 19.6479 12.8822 19.6511 12.9326 19.6479V19.7676C12.8941 19.7742 12.8539 19.7774 12.8113 19.7774C12.7432 19.7774 12.6948 19.766 12.6653 19.743C12.6358 19.72 12.6185 19.6831 12.6144 19.6315C12.6132 19.6097 12.6128 19.5753 12.6128 19.5281V19.1755H12.5078V19.0541H12.6128V18.877H12.7981V19.0541H12.9458V19.1755H12.7981Z" fill="black"/>
<path d="M13.7194 19.0469V19.762H13.534V19.6406L13.4783 19.7325C13.4299 19.7641 13.3725 19.7801 13.306 19.7801C13.2359 19.7801 13.1785 19.7628 13.1338 19.7292C13.0899 19.6944 13.0633 19.6513 13.0534 19.5996C13.0489 19.5693 13.0469 19.5254 13.0469 19.4684V19.0469H13.2322V19.4307C13.2322 19.4635 13.2343 19.4959 13.2388 19.5275C13.2486 19.6087 13.2946 19.6488 13.3766 19.6488C13.4245 19.6488 13.4627 19.6288 13.4914 19.5882C13.5197 19.548 13.534 19.4889 13.534 19.411V19.0469H13.7194Z" fill="black"/>
<path d="M14.1126 19.1755V19.5068C14.1126 19.5363 14.113 19.5572 14.1142 19.5691C14.1163 19.6044 14.1261 19.6274 14.1438 19.638C14.1622 19.6479 14.1967 19.6511 14.2471 19.6479V19.7676C14.2085 19.7742 14.1684 19.7774 14.1257 19.7774C14.0576 19.7774 14.0093 19.766 13.9797 19.743C13.9502 19.72 13.933 19.6831 13.9289 19.6315C13.9277 19.6097 13.9272 19.5753 13.9272 19.5281V19.1755H13.8223V19.0541H13.9272V18.877H14.1126V19.0541H14.2602V19.1755H14.1126Z" fill="black"/>
<path d="M15.0233 19.3902C15.0233 19.4164 15.0225 19.4377 15.0216 19.4541H14.5132C14.5238 19.5853 14.5792 19.651 14.6788 19.651C14.719 19.651 14.7526 19.6407 14.7789 19.6198C14.8051 19.5981 14.8215 19.5681 14.8281 19.5296H15.0134C14.9946 19.6116 14.9552 19.6739 14.8953 19.7166C14.8351 19.7592 14.7612 19.7805 14.6739 19.7805C14.571 19.7805 14.4873 19.749 14.4229 19.6854C14.3582 19.621 14.3262 19.5288 14.3262 19.4082C14.3262 19.2967 14.3594 19.206 14.4262 19.1359C14.4927 19.065 14.5804 19.0293 14.6887 19.0293C14.7936 19.0293 14.8757 19.0637 14.9347 19.1326C14.9938 19.2015 15.0233 19.2876 15.0233 19.3902ZM14.6805 19.1589C14.5886 19.1589 14.5345 19.2171 14.5181 19.3327H14.833C14.8199 19.2171 14.769 19.1589 14.6805 19.1589Z" fill="black"/>
<path d="M15.4597 19.1343C15.5254 19.0646 15.616 19.0293 15.732 19.0293C15.8489 19.0293 15.9395 19.0646 16.0043 19.1343C16.0699 19.2032 16.1027 19.2934 16.1027 19.4049C16.1027 19.5164 16.0699 19.6075 16.0043 19.6772C15.9395 19.7461 15.8489 19.7805 15.732 19.7805C15.616 19.7805 15.5254 19.7461 15.4597 19.6772C15.3941 19.6075 15.3613 19.5164 15.3613 19.4049C15.3613 19.2934 15.3941 19.2032 15.4597 19.1343ZM15.6008 19.587C15.6324 19.6296 15.6763 19.651 15.732 19.651C15.7878 19.651 15.8313 19.6296 15.8632 19.587C15.8948 19.5435 15.9108 19.4832 15.9108 19.4066C15.9108 19.3291 15.8948 19.2684 15.8632 19.2245C15.8313 19.181 15.7878 19.1589 15.732 19.1589C15.6763 19.1589 15.6324 19.181 15.6008 19.2245C15.5688 19.2684 15.5532 19.3291 15.5532 19.4066C15.5532 19.4832 15.5688 19.5435 15.6008 19.587Z" fill="black"/>
<path d="M16.4317 18.9564C16.4293 18.9687 16.4285 18.9888 16.4285 19.017V19.0531H16.5744V19.1745H16.4285V19.7617H16.2431V19.1745H16.166V19.0531H16.2431V19.0236C16.2431 18.9842 16.2439 18.9572 16.2464 18.9416C16.257 18.8128 16.3436 18.748 16.5055 18.748C16.5318 18.748 16.5589 18.7513 16.5876 18.7579V18.8875C16.5437 18.8789 16.5076 18.8809 16.4793 18.894C16.4506 18.9063 16.435 18.9268 16.4317 18.9564Z" fill="black"/>
<path d="M17.475 19.4838H17.1634L17.0715 19.7627H16.873L17.2077 18.8359H17.4406L17.7686 19.7627H17.5669L17.475 19.4838ZM17.3208 18.995L17.2109 19.3362H17.4291L17.3208 18.995Z" fill="black"/>
<path d="M18.5399 18.7734V19.7609H18.3546V19.651L18.3004 19.7297C18.2578 19.7625 18.1959 19.7789 18.1151 19.7789C18.0167 19.7789 17.9388 19.7457 17.8822 19.6789C17.8252 19.6124 17.7969 19.5247 17.7969 19.4164C17.7969 19.293 17.8297 19.1974 17.8953 19.1294C17.9609 19.0617 18.0421 19.0277 18.1397 19.0277C18.2127 19.0277 18.2684 19.0408 18.307 19.067L18.3546 19.1409V18.7734H18.5399ZM18.1692 19.6493C18.225 19.6493 18.2697 19.6305 18.3037 19.5919C18.3373 19.5538 18.3546 19.4935 18.3546 19.4115V19.377C18.3546 19.3028 18.3369 19.2475 18.3021 19.2114C18.2668 19.1753 18.225 19.1573 18.1758 19.1573C18.12 19.1573 18.0745 19.1786 18.0396 19.2212C18.0056 19.2639 17.9888 19.3254 17.9888 19.4049C17.9888 19.4783 18.0052 19.5374 18.038 19.5821C18.0708 19.6272 18.1143 19.6493 18.1692 19.6493Z" fill="black"/>
<path d="M19.388 19.0469L19.1125 19.762H18.9058L18.627 19.0469H18.832L19.0124 19.6226L19.1879 19.0469H19.388Z" fill="black"/>
<path d="M19.8876 19.7625L19.8729 19.6575L19.8384 19.7346C19.7925 19.7649 19.7334 19.7805 19.6613 19.7805C19.5957 19.7805 19.5407 19.7625 19.4973 19.7264C19.4534 19.6895 19.4316 19.6386 19.4316 19.5739C19.4316 19.4943 19.4649 19.4336 19.5317 19.3918C19.5981 19.3491 19.6961 19.3278 19.8253 19.3278H19.8712V19.3131C19.8712 19.2835 19.87 19.2614 19.8679 19.2458C19.8614 19.188 19.8245 19.1589 19.758 19.1589C19.6834 19.1589 19.6436 19.1995 19.6383 19.2803L19.4579 19.2819C19.4612 19.2032 19.4911 19.1417 19.5481 19.0965C19.6047 19.0519 19.6769 19.0293 19.7646 19.0293C19.9426 19.0293 20.0385 19.0994 20.0517 19.2392C20.0537 19.2745 20.0549 19.3114 20.0549 19.3508V19.5804C20.0549 19.6354 20.059 19.6961 20.0681 19.7625H19.8876ZM19.7318 19.651C19.772 19.651 19.8056 19.6378 19.8319 19.6116C19.8581 19.5845 19.8712 19.5468 19.8712 19.4984V19.441C19.706 19.4303 19.6235 19.4697 19.6235 19.5591C19.6235 19.6206 19.6596 19.651 19.7318 19.651Z" fill="black"/>
<path d="M20.8925 19.2294C20.8958 19.2614 20.8974 19.3044 20.8974 19.359V19.7625H20.7121V19.3852C20.7121 19.3426 20.7108 19.3094 20.7088 19.2852C20.7031 19.2011 20.6579 19.1589 20.5727 19.1589C20.5243 19.1589 20.4857 19.1818 20.4562 19.2278C20.4267 19.2729 20.4119 19.3422 20.4119 19.4361V19.7625H20.2266V19.0473H20.4119V19.1638L20.466 19.0785C20.5128 19.0457 20.5702 19.0293 20.6383 19.0293C20.7137 19.0293 20.7728 19.0469 20.8154 19.0818C20.8589 19.117 20.8847 19.1663 20.8925 19.2294Z" fill="black"/>
<path d="M21.3673 19.0293C21.4612 19.0293 21.5371 19.0551 21.5953 19.1064C21.6532 19.1581 21.686 19.2245 21.6937 19.3065H21.5117C21.4953 19.2081 21.4461 19.1589 21.3641 19.1589C21.3136 19.1589 21.2738 19.1794 21.2443 19.2196C21.2156 19.2602 21.2017 19.3196 21.2017 19.3984C21.2017 19.4836 21.2156 19.5472 21.2443 19.5886C21.2738 19.6304 21.3132 19.651 21.3624 19.651C21.3985 19.651 21.4288 19.6395 21.4543 19.6165C21.4805 19.5927 21.4977 19.5587 21.5068 19.5148H21.6921C21.6765 19.6013 21.6388 19.6674 21.5789 19.7133C21.5187 19.7584 21.4428 19.7805 21.3509 19.7805C21.2501 19.7805 21.168 19.749 21.1049 19.6854C21.0413 19.621 21.0098 19.5292 21.0098 19.4098C21.0098 19.2917 21.0434 19.1991 21.1115 19.131C21.1804 19.0633 21.2656 19.0293 21.3673 19.0293Z" fill="black"/>
<path d="M22.4608 19.3902C22.4608 19.4164 22.46 19.4377 22.4591 19.4541H21.9507C21.9613 19.5853 22.0167 19.651 22.1163 19.651C22.1565 19.651 22.1901 19.6407 22.2164 19.6198C22.2426 19.5981 22.259 19.5681 22.2656 19.5296H22.4509C22.4321 19.6116 22.3927 19.6739 22.3328 19.7166C22.2726 19.7592 22.1987 19.7805 22.1114 19.7805C22.0085 19.7805 21.9248 19.749 21.8604 19.6854C21.7957 19.621 21.7637 19.5288 21.7637 19.4082C21.7637 19.2967 21.7969 19.206 21.8637 19.1359C21.9302 19.065 22.0179 19.0293 22.1262 19.0293C22.2311 19.0293 22.3132 19.0637 22.3722 19.1326C22.4313 19.2015 22.4608 19.2876 22.4608 19.3902ZM22.118 19.1589C22.0261 19.1589 21.972 19.2171 21.9556 19.3327H22.2705C22.2574 19.2171 22.2065 19.1589 22.118 19.1589Z" fill="black"/>
<path d="M23.2821 18.7734V19.7609H23.0967V19.651L23.0426 19.7297C23 19.7625 22.9381 19.7789 22.8573 19.7789C22.7589 19.7789 22.6809 19.7457 22.6244 19.6789C22.5674 19.6124 22.5391 19.5247 22.5391 19.4164C22.5391 19.293 22.5719 19.1974 22.6375 19.1294C22.7031 19.0617 22.7843 19.0277 22.8819 19.0277C22.9549 19.0277 23.0106 19.0408 23.0492 19.067L23.0967 19.1409V18.7734H23.2821ZM22.9114 19.6493C22.9672 19.6493 23.0119 19.6305 23.0459 19.5919C23.0795 19.5538 23.0967 19.4935 23.0967 19.4115V19.377C23.0967 19.3028 23.0791 19.2475 23.0443 19.2114C23.009 19.1753 22.9672 19.1573 22.918 19.1573C22.8622 19.1573 22.8167 19.1786 22.7818 19.2212C22.7478 19.2639 22.731 19.3254 22.731 19.4049C22.731 19.4783 22.7474 19.5374 22.7802 19.5821C22.813 19.6272 22.8565 19.6493 22.9114 19.6493Z" fill="black"/>
<path d="M24.0562 18.8164C24.162 18.8164 24.2432 18.8435 24.299 18.8968C24.3548 18.9493 24.388 19.0198 24.3991 19.1084H24.2104C24.2047 19.0604 24.1883 19.0231 24.1612 18.9968C24.135 18.9698 24.0977 18.9558 24.0497 18.9558C24.0111 18.9558 23.98 18.9653 23.9562 18.9837C23.932 19.0026 23.9201 19.0296 23.9201 19.0657C23.9201 19.1051 23.934 19.1363 23.9627 19.1592C23.9923 19.1814 24.0435 19.2002 24.1169 19.2166C24.2186 19.2408 24.2928 19.2769 24.34 19.3249C24.388 19.372 24.4122 19.4327 24.4122 19.5069C24.4122 19.5914 24.3786 19.6579 24.3121 19.7071C24.2465 19.7563 24.1661 19.7809 24.071 19.7809C23.957 19.7809 23.8668 19.7563 23.8004 19.7071C23.7335 19.6579 23.6954 19.5853 23.6855 19.4889H23.8758C23.8857 19.5381 23.9078 19.5767 23.9431 19.6037C23.9779 19.63 24.0193 19.6431 24.0677 19.6431C24.1104 19.6431 24.1465 19.6328 24.176 19.6119C24.2055 19.5902 24.2203 19.5619 24.2203 19.5266C24.2203 19.4873 24.2059 19.4557 24.1776 19.4315C24.1489 19.4077 24.1013 19.3872 24.0349 19.3708C23.9308 19.3458 23.8533 19.3126 23.802 19.2708C23.7503 19.2293 23.7249 19.1686 23.7249 19.0887C23.7249 19.0067 23.7569 18.9411 23.8217 18.8919C23.8861 18.8418 23.9644 18.8164 24.0562 18.8164Z" fill="black"/>
<path d="M24.7513 19.1755V19.5068C24.7513 19.5363 24.7517 19.5572 24.7529 19.5691C24.755 19.6044 24.7648 19.6274 24.7824 19.638C24.8009 19.6479 24.8353 19.6511 24.8858 19.6479V19.7676C24.8472 19.7742 24.807 19.7774 24.7644 19.7774C24.6963 19.7774 24.6479 19.766 24.6184 19.743C24.5889 19.72 24.5717 19.6831 24.5676 19.6315C24.5663 19.6097 24.5659 19.5753 24.5659 19.5281V19.1755H24.4609V19.0541H24.5659V18.877H24.7513V19.0541H24.8989V19.1755H24.7513Z" fill="black"/>
<path d="M25.6745 19.0469V19.762H25.4891V19.6406L25.4333 19.7325C25.385 19.7641 25.3275 19.7801 25.2611 19.7801C25.191 19.7801 25.1336 19.7628 25.0889 19.7292C25.045 19.6944 25.0184 19.6513 25.0085 19.5996C25.004 19.5693 25.002 19.5254 25.002 19.4684V19.0469H25.1873V19.4307C25.1873 19.4635 25.1894 19.4959 25.1939 19.5275C25.2037 19.6087 25.2496 19.6488 25.3316 19.6488C25.3796 19.6488 25.4178 19.6288 25.4465 19.5882C25.4748 19.548 25.4891 19.4889 25.4891 19.411V19.0469H25.6745Z" fill="black"/>
<path d="M26.538 18.7734V19.7609H26.3526V19.651L26.2985 19.7297C26.2558 19.7625 26.1939 19.7789 26.1131 19.7789C26.0147 19.7789 25.9368 19.7457 25.8802 19.6789C25.8232 19.6124 25.7949 19.5247 25.7949 19.4164C25.7949 19.293 25.8277 19.1974 25.8933 19.1294C25.9589 19.0617 26.0401 19.0277 26.1377 19.0277C26.2107 19.0277 26.2665 19.0408 26.305 19.067L26.3526 19.1409V18.7734H26.538ZM26.1673 19.6493C26.223 19.6493 26.2677 19.6305 26.3018 19.5919C26.3354 19.5538 26.3526 19.4935 26.3526 19.4115V19.377C26.3526 19.3028 26.335 19.2475 26.3001 19.2114C26.2649 19.1753 26.223 19.1573 26.1738 19.1573C26.1181 19.1573 26.0725 19.1786 26.0377 19.2212C26.0036 19.2639 25.9868 19.3254 25.9868 19.4049C25.9868 19.4783 26.0032 19.5374 26.036 19.5821C26.0688 19.6272 26.1123 19.6493 26.1673 19.6493Z" fill="black"/>
<path d="M26.7291 18.8091C26.7475 18.7907 26.7721 18.7812 26.8029 18.7812C26.8332 18.7812 26.8578 18.7907 26.8767 18.8091C26.8951 18.828 26.9046 18.8514 26.9046 18.8797C26.9046 18.9092 26.8951 18.9334 26.8767 18.9518C26.8578 18.9695 26.8332 18.9781 26.8029 18.9781C26.7721 18.9781 26.7475 18.9695 26.7291 18.9518C26.7102 18.9334 26.7012 18.9092 26.7012 18.8797C26.7012 18.8514 26.7102 18.828 26.7291 18.8091ZM26.8964 19.7621H26.711V19.047H26.8964V19.7621Z" fill="black"/>
<path d="M27.7166 19.3902C27.7166 19.4164 27.7158 19.4377 27.715 19.4541H27.2065C27.2172 19.5853 27.2725 19.651 27.3722 19.651C27.4124 19.651 27.446 19.6407 27.4722 19.6198C27.4985 19.5981 27.5149 19.5681 27.5214 19.5296H27.7068C27.6879 19.6116 27.6486 19.6739 27.5887 19.7166C27.5284 19.7592 27.4546 19.7805 27.3673 19.7805C27.2643 19.7805 27.1807 19.749 27.1163 19.6854C27.0515 19.621 27.0195 19.5288 27.0195 19.4082C27.0195 19.2967 27.0527 19.206 27.1196 19.1359C27.186 19.065 27.2738 19.0293 27.382 19.0293C27.487 19.0293 27.569 19.0637 27.6281 19.1326C27.6871 19.2015 27.7166 19.2876 27.7166 19.3902ZM27.3738 19.1589C27.282 19.1589 27.2278 19.2171 27.2114 19.3327H27.5264C27.5132 19.2171 27.4624 19.1589 27.3738 19.1589Z" fill="black"/>
<path d="M28.0988 19.0293C28.1816 19.0293 28.248 19.0502 28.2972 19.0916C28.3464 19.1322 28.3747 19.1864 28.3825 19.254H28.1972C28.1849 19.1851 28.1484 19.1507 28.0873 19.1507C28.0598 19.1507 28.0385 19.1581 28.0233 19.172C28.009 19.1864 28.002 19.2048 28.002 19.2278C28.002 19.2552 28.0139 19.277 28.0381 19.2934C28.0619 19.309 28.1041 19.3241 28.1644 19.3393C28.2431 19.359 28.3013 19.3865 28.3399 19.4213C28.378 19.4566 28.3973 19.505 28.3973 19.5673C28.3973 19.6362 28.3694 19.6895 28.3136 19.7264C28.2587 19.7625 28.189 19.7805 28.1037 19.7805C28.0139 19.7805 27.9413 19.7608 27.8855 19.7215C27.8298 19.6821 27.797 19.6231 27.7871 19.5443H27.9725C27.9798 19.5829 27.9954 19.6116 28.0184 19.6313C28.0422 19.6501 28.0713 19.6592 28.1053 19.6592C28.1369 19.6592 28.1619 19.6526 28.1808 19.6395C28.2005 19.6255 28.2103 19.6058 28.2103 19.5804C28.2103 19.5534 28.1972 19.5308 28.1709 19.5132C28.1455 19.4959 28.102 19.4795 28.0397 19.464C27.9675 19.4467 27.9118 19.4209 27.8724 19.3869C27.8339 19.3532 27.815 19.3073 27.815 19.2491C27.815 19.1814 27.8404 19.1277 27.8921 19.0883C27.9446 19.049 28.0135 19.0293 28.0988 19.0293Z" fill="black"/>
</svg>
