<svg width="467" height="152" viewBox="0 0 467 152" fill="none" xmlns="http://www.w3.org/2000/svg">
<path d="M49.7436 7.88867C55.5015 7.88867 60.8829 8.96493 65.8875 11.1175C70.9075 13.2546 75.3432 16.222 79.2023 20.035C83.0538 23.8327 86.075 28.2377 88.2737 33.2577C90.4646 38.2854 91.564 43.6667 91.564 49.4016C91.564 55.0596 90.4877 60.4025 88.3352 65.4225C86.198 70.4502 83.2306 74.8628 79.4176 78.6759C75.6199 82.4735 71.238 85.4409 66.2565 87.5935C61.2903 89.7306 55.9321 90.7915 50.1741 90.7915V110.226H0.789062V7.88867H49.7436Z" fill="black"/>
<path d="M112.018 7.88867H165.216V110.226H112.018V7.88867Z" fill="black"/>
<path d="M179.84 110.225L244.446 0.722656L309.053 110.225H179.84Z" fill="#FF0048"/>
<path d="M345.013 7.88867H421.765V59.3647H403.93V60.3794C408.804 61.448 412.755 63.4237 415.769 66.3143C418.783 69.1894 420.889 72.4951 422.104 76.2466C423.334 79.9981 423.703 83.8727 423.211 87.8702C422.734 91.8678 421.473 95.5732 419.428 98.9711C417.376 102.377 414.6 105.137 411.095 107.243C407.589 109.334 403.346 110.379 398.364 110.379H322.196V59.3647H342.829V58.3192C335.711 56.9662 330.053 54.1294 325.855 49.8013C321.673 45.4579 319.582 39.9612 319.582 33.3192C319.582 28.9373 320.72 24.7937 322.995 20.8961C325.286 17.0061 328.361 13.8696 332.22 11.4865C336.072 9.08793 340.338 7.88867 345.013 7.88867Z" fill="black"/>
<mask id="mask0_721_5644" style="mask-type:luminance" maskUnits="userSpaceOnUse" x="438" y="89" width="24" height="24">
<path d="M438.307 89.8281H461.316V112.837H438.307V89.8281Z" fill="white"/>
</mask>
<g mask="url(#mask0_721_5644)">
<path d="M438.307 89.8281H461.316V112.837H438.307V89.8281Z" fill="black"/>
</g>
<path d="M9.73023 129.34C11.1217 129.486 12.2518 130.016 13.1128 130.939C13.9738 131.861 14.4043 133.091 14.4043 134.629C14.4043 136.166 13.9507 137.396 13.0513 138.319C12.1672 139.226 11.0602 139.756 9.73023 139.918C8.99222 140.002 8.14659 140.041 7.2087 140.041H4.65643V146.591H1.18164V129.217H7.2087C8.16965 129.217 9.0076 129.263 9.73023 129.34ZM8.68472 137.212C10.0531 137.027 10.745 136.166 10.745 134.629C10.745 133.091 10.0531 132.23 8.68472 132.046C8.29265 131.984 7.77758 131.954 7.1472 131.954H4.65643V137.304H7.1472C7.77758 137.304 8.29265 137.273 8.68472 137.212Z" fill="black"/>
<path d="M23.0395 132.875C23.4085 132.875 23.7237 132.906 23.9927 132.967V135.766C22.5167 135.666 21.4251 135.981 20.7332 136.719C20.0336 137.441 19.6877 138.679 19.6877 140.44V146.59H16.2129V133.183H19.6877V135.643L20.7332 133.767C21.3866 133.175 22.1554 132.875 23.0395 132.875Z" fill="black"/>
<path d="M26.6985 134.812C27.9285 133.505 29.6275 132.844 31.8031 132.844C33.994 132.844 35.693 133.505 36.9076 134.812C38.1376 136.103 38.7527 137.795 38.7527 139.886C38.7527 141.977 38.1376 143.683 36.9076 144.99C35.693 146.282 33.994 146.927 31.8031 146.927C29.6275 146.927 27.9285 146.282 26.6985 144.99C25.4685 143.683 24.8535 141.977 24.8535 139.886C24.8535 137.795 25.4685 136.103 26.6985 134.812ZM29.3431 143.299C29.935 144.098 30.7576 144.498 31.8031 144.498C32.8486 144.498 33.6635 144.098 34.2631 143.299C34.8551 142.484 35.1549 141.354 35.1549 139.916C35.1549 138.463 34.8551 137.326 34.2631 136.503C33.6635 135.688 32.8486 135.273 31.8031 135.273C30.7576 135.273 29.935 135.688 29.3431 136.503C28.7434 137.326 28.4513 138.463 28.4513 139.916C28.4513 141.354 28.7434 142.484 29.3431 143.299Z" fill="black"/>
<path d="M45.7918 132.844C47.3447 132.844 48.5901 133.236 49.5126 134.012C50.4351 134.773 50.9655 135.788 51.1116 137.057H47.6368C47.4062 135.765 46.722 135.119 45.5765 135.119C45.0615 135.119 44.6617 135.258 44.3773 135.519C44.1082 135.788 43.9775 136.134 43.9775 136.565C43.9775 137.08 44.2004 137.487 44.654 137.795C45.0999 138.087 45.8917 138.371 47.0218 138.656C48.4978 139.025 49.5894 139.54 50.3121 140.193C51.027 140.854 51.3883 141.761 51.3883 142.93C51.3883 144.221 50.8656 145.221 49.8201 145.913C48.7899 146.589 47.483 146.927 45.884 146.927C44.2004 146.927 42.8397 146.558 41.7942 145.82C40.7487 145.082 40.1337 143.975 39.9492 142.499H43.424C43.5624 143.222 43.8545 143.76 44.285 144.129C44.7309 144.483 45.2767 144.652 45.9148 144.652C46.5067 144.652 46.9757 144.529 47.3293 144.283C47.6983 144.021 47.8828 143.652 47.8828 143.176C47.8828 142.668 47.6368 142.246 47.1448 141.915C46.6682 141.592 45.8533 141.285 44.6848 140.993C43.3318 140.67 42.2862 140.185 41.5482 139.547C40.8256 138.917 40.472 138.056 40.472 136.964C40.472 135.696 40.9486 134.689 41.9172 133.951C42.9012 133.213 44.1928 132.844 45.7918 132.844Z" fill="black"/>
<path d="M61.4648 132.844C63.3098 132.844 64.7628 133.482 65.8314 134.75C66.9153 136.003 67.4611 137.633 67.4611 139.64C67.4611 141.961 66.8461 143.752 65.6161 145.021C64.3861 146.297 62.8563 146.927 61.0343 146.927C59.6582 146.927 58.6051 146.681 57.867 146.189L57.006 144.806V151.54H53.5312V133.182H57.006V135.242L57.99 133.766C58.7665 133.151 59.9273 132.844 61.4648 132.844ZM60.3578 144.498C61.3803 144.498 62.2105 144.098 62.8486 143.299C63.502 142.499 63.8326 141.354 63.8326 139.855C63.8326 138.486 63.5251 137.379 62.9101 136.534C62.3105 135.696 61.5033 135.273 60.4808 135.273C59.4353 135.273 58.5897 135.634 57.9593 136.349C57.3212 137.072 57.006 138.194 57.006 139.732V140.378C57.006 141.792 57.3289 142.838 57.99 143.514C58.6435 144.175 59.4353 144.498 60.3578 144.498Z" fill="black"/>
<path d="M81.8579 139.609C81.8579 140.101 81.8426 140.501 81.8272 140.808H72.2946C72.4945 143.268 73.5323 144.498 75.4004 144.498C76.1538 144.498 76.7841 144.306 77.2761 143.914C77.7682 143.506 78.0757 142.945 78.1987 142.223H81.6734C81.3198 143.76 80.5818 144.929 79.4594 145.728C78.3293 146.528 76.9456 146.927 75.3081 146.927C73.3785 146.927 71.8103 146.335 70.6033 145.144C69.3887 143.937 68.7891 142.207 68.7891 139.947C68.7891 137.856 69.4118 136.157 70.6648 134.843C71.9102 133.513 73.5554 132.844 75.5849 132.844C77.5529 132.844 79.0904 133.49 80.1974 134.781C81.3044 136.073 81.8579 137.687 81.8579 139.609ZM75.4311 135.273C73.7091 135.273 72.6944 136.365 72.3868 138.533H78.2909C78.0449 136.365 77.0916 135.273 75.4311 135.273Z" fill="black"/>
<path d="M87.6096 128.078V142.193C87.6096 142.792 87.6172 143.207 87.6403 143.453C87.6787 143.807 87.8017 144.038 88.0093 144.161C88.2322 144.268 88.632 144.307 89.2086 144.284V146.651C88.5936 146.728 87.8709 146.774 87.056 146.774C85.211 146.774 84.2578 145.99 84.1963 144.407C84.1501 143.999 84.1348 143.292 84.1348 142.285V128.078H87.6096Z" fill="black"/>
<path d="M94.6291 128.078V142.193C94.6291 142.792 94.6368 143.207 94.6598 143.453C94.6983 143.807 94.8213 144.038 95.0288 144.161C95.2518 144.268 95.6515 144.307 96.2281 144.284V146.651C95.6131 146.728 94.8905 146.774 94.0756 146.774C92.2306 146.774 91.2773 145.99 91.2158 144.407C91.1697 143.999 91.1543 143.292 91.1543 142.285V128.078H94.6291Z" fill="black"/>
<path d="M99.222 134.812C100.452 133.505 102.151 132.844 104.327 132.844C106.517 132.844 108.216 133.505 109.431 134.812C110.661 136.103 111.276 137.795 111.276 139.886C111.276 141.977 110.661 143.683 109.431 144.99C108.216 146.282 106.517 146.927 104.327 146.927C102.151 146.927 100.452 146.282 99.222 144.99C97.992 143.683 97.377 141.977 97.377 139.886C97.377 137.795 97.992 136.103 99.222 134.812ZM101.866 143.299C102.458 144.098 103.281 144.498 104.327 144.498C105.372 144.498 106.187 144.098 106.787 143.299C107.378 142.484 107.678 141.354 107.678 139.916C107.678 138.463 107.378 137.326 106.787 136.503C106.187 135.688 105.372 135.273 104.327 135.273C103.281 135.273 102.458 135.688 101.866 136.503C101.267 137.326 100.975 138.463 100.975 139.916C100.975 141.354 101.267 142.484 101.866 143.299Z" fill="black"/>
<path d="M122.553 146.591H119.078V129.217H122.553V146.591Z" fill="black"/>
<path d="M138.262 136.595C138.323 137.195 138.354 138.002 138.354 139.025V146.589H134.879V139.517C134.879 138.717 134.856 138.094 134.818 137.641C134.71 136.065 133.865 135.273 132.266 135.273C131.359 135.273 130.636 135.704 130.082 136.565C129.529 137.41 129.252 138.709 129.252 140.47V146.589H125.777V133.182H129.252V135.365L130.267 133.766C131.143 133.151 132.22 132.844 133.496 132.844C134.91 132.844 136.017 133.174 136.817 133.828C137.632 134.489 138.116 135.411 138.262 136.595Z" fill="black"/>
<path d="M146.173 132.844C147.726 132.844 148.971 133.236 149.893 134.012C150.816 134.773 151.346 135.788 151.492 137.057H148.018C147.787 135.765 147.103 135.119 145.957 135.119C145.442 135.119 145.043 135.258 144.758 135.519C144.489 135.788 144.358 136.134 144.358 136.565C144.358 137.08 144.581 137.487 145.035 137.795C145.481 138.087 146.273 138.371 147.403 138.656C148.879 139.025 149.97 139.54 150.693 140.193C151.408 140.854 151.769 141.761 151.769 142.93C151.769 144.221 151.246 145.221 150.201 145.913C149.171 146.589 147.864 146.927 146.265 146.927C144.581 146.927 143.221 146.558 142.175 145.82C141.13 145.082 140.515 143.975 140.33 142.499H143.805C143.943 143.222 144.235 143.76 144.666 144.129C145.112 144.483 145.658 144.652 146.296 144.652C146.888 144.652 147.357 144.529 147.71 144.283C148.079 144.021 148.264 143.652 148.264 143.176C148.264 142.668 148.018 142.246 147.526 141.915C147.049 141.592 146.234 141.285 145.066 140.993C143.713 140.67 142.667 140.185 141.929 139.547C141.206 138.917 140.853 138.056 140.853 136.964C140.853 135.696 141.329 134.689 142.298 133.951C143.282 133.213 144.574 132.844 146.173 132.844Z" fill="black"/>
<path d="M158.064 135.581V141.792C158.064 142.346 158.072 142.738 158.095 142.961C158.133 143.622 158.318 144.053 158.648 144.253C158.994 144.437 159.64 144.499 160.585 144.437V146.682C159.863 146.805 159.109 146.866 158.31 146.866C157.034 146.866 156.127 146.651 155.573 146.221C155.02 145.79 154.697 145.098 154.62 144.13C154.597 143.722 154.589 143.076 154.589 142.192V135.581H152.621V133.305H154.589V129.984H158.064V133.305H160.831V135.581H158.064Z" fill="black"/>
<path d="M163.337 128.726C163.683 128.38 164.144 128.203 164.721 128.203C165.29 128.203 165.751 128.38 166.105 128.726C166.451 129.08 166.627 129.518 166.627 130.048C166.627 130.602 166.451 131.055 166.105 131.401C165.751 131.732 165.29 131.893 164.721 131.893C164.144 131.893 163.683 131.732 163.337 131.401C162.984 131.055 162.814 130.602 162.814 130.048C162.814 129.518 162.984 129.08 163.337 128.726ZM166.474 146.592H162.999V133.185H166.474V146.592Z" fill="black"/>
<path d="M173.843 135.581V141.792C173.843 142.346 173.851 142.738 173.874 142.961C173.912 143.622 174.097 144.053 174.427 144.253C174.773 144.437 175.419 144.499 176.365 144.437V146.682C175.642 146.805 174.889 146.866 174.089 146.866C172.813 146.866 171.906 146.651 171.352 146.221C170.799 145.79 170.476 145.098 170.399 144.13C170.376 143.722 170.368 143.076 170.368 142.192V135.581H168.4V133.305H170.368V129.984H173.843V133.305H176.611V135.581H173.843Z" fill="black"/>
<path d="M191.135 133.184V146.591H187.66V144.315L186.615 146.037C185.708 146.629 184.631 146.929 183.386 146.929C182.071 146.929 180.995 146.606 180.157 145.976C179.335 145.322 178.835 144.515 178.65 143.546C178.566 142.978 178.527 142.155 178.527 141.086V133.184H182.002V140.379C182.002 140.994 182.041 141.601 182.125 142.193C182.31 143.716 183.171 144.469 184.708 144.469C185.608 144.469 186.323 144.092 186.861 143.331C187.391 142.578 187.66 141.471 187.66 140.01V133.184H191.135Z" fill="black"/>
<path d="M198.478 135.581V141.792C198.478 142.346 198.486 142.738 198.509 142.961C198.547 143.622 198.732 144.053 199.062 144.253C199.408 144.437 200.054 144.499 200.999 144.437V146.682C200.277 146.805 199.523 146.866 198.724 146.866C197.448 146.866 196.541 146.651 195.987 146.221C195.434 145.79 195.111 145.098 195.034 144.13C195.011 143.722 195.003 143.076 195.003 142.192V135.581H193.035V133.305H195.003V129.984H198.478V133.305H201.245V135.581H198.478Z" fill="black"/>
<path d="M215.559 139.609C215.559 140.101 215.544 140.501 215.528 140.808H205.996C206.196 143.268 207.233 144.498 209.102 144.498C209.855 144.498 210.485 144.306 210.977 143.914C211.469 143.506 211.777 142.945 211.9 142.223H215.375C215.021 143.76 214.283 144.929 213.161 145.728C212.031 146.528 210.647 146.927 209.009 146.927C207.08 146.927 205.511 146.335 204.305 145.144C203.09 143.937 202.49 142.207 202.49 139.947C202.49 137.856 203.113 136.157 204.366 134.843C205.611 133.513 207.257 132.844 209.286 132.844C211.254 132.844 212.792 133.49 213.899 134.781C215.006 136.073 215.559 137.687 215.559 139.609ZM209.132 135.273C207.41 135.273 206.396 136.365 206.088 138.533H211.992C211.746 136.365 210.793 135.273 209.132 135.273Z" fill="black"/>
<path d="M223.759 134.812C224.989 133.505 226.688 132.844 228.864 132.844C231.055 132.844 232.754 133.505 233.968 134.812C235.198 136.103 235.813 137.795 235.813 139.886C235.813 141.977 235.198 143.683 233.968 144.99C232.754 146.282 231.055 146.927 228.864 146.927C226.688 146.927 224.989 146.282 223.759 144.99C222.529 143.683 221.914 141.977 221.914 139.886C221.914 137.795 222.529 136.103 223.759 134.812ZM226.404 143.299C226.996 144.098 227.818 144.498 228.864 144.498C229.909 144.498 230.724 144.098 231.324 143.299C231.916 142.484 232.215 141.354 232.215 139.916C232.215 138.463 231.916 137.326 231.324 136.503C230.724 135.688 229.909 135.273 228.864 135.273C227.818 135.273 226.996 135.688 226.404 136.503C225.804 137.326 225.512 138.463 225.512 139.916C225.512 141.354 225.804 142.484 226.404 143.299Z" fill="black"/>
<path d="M241.962 131.491C241.916 131.722 241.901 132.099 241.901 132.629V133.305H244.637V135.581H241.901V146.59H238.426V135.581H236.98V133.305H238.426V132.752C238.426 132.014 238.441 131.507 238.487 131.214C238.687 128.801 240.309 127.586 243.346 127.586C243.838 127.586 244.345 127.647 244.883 127.77V130.2C244.061 130.038 243.384 130.077 242.854 130.323C242.316 130.553 242.024 130.938 241.962 131.491Z" fill="black"/>
<path d="M261.53 141.363H255.687L253.965 146.591H250.244L256.517 129.217H260.884L267.034 146.591H263.252L261.53 141.363ZM258.639 132.2L256.579 138.596H260.668L258.639 132.2Z" fill="black"/>
<path d="M281.494 128.078V146.59H278.02V144.53L277.005 146.006C276.205 146.621 275.044 146.928 273.53 146.928C271.685 146.928 270.224 146.305 269.163 145.052C268.095 143.807 267.564 142.162 267.564 140.132C267.564 137.818 268.179 136.027 269.409 134.751C270.639 133.482 272.162 132.844 273.991 132.844C275.36 132.844 276.405 133.09 277.128 133.582L278.02 134.966V128.078H281.494ZM274.545 144.499C275.59 144.499 276.428 144.145 277.066 143.423C277.697 142.708 278.02 141.578 278.02 140.04V139.394C278.02 138.003 277.689 136.965 277.036 136.288C276.374 135.612 275.59 135.274 274.668 135.274C273.622 135.274 272.769 135.673 272.115 136.473C271.477 137.272 271.162 138.426 271.162 139.917C271.162 141.293 271.47 142.4 272.085 143.238C272.7 144.084 273.515 144.499 274.545 144.499Z" fill="black"/>
<path d="M297.385 133.184L292.219 146.591H288.345L283.117 133.184H286.961L290.344 143.977L293.634 133.184H297.385Z" fill="black"/>
<path d="M306.74 146.589L306.463 144.621L305.817 146.066C304.956 146.635 303.849 146.927 302.496 146.927C301.266 146.927 300.236 146.589 299.421 145.913C298.599 145.221 298.191 144.267 298.191 143.053C298.191 141.561 298.814 140.424 300.067 139.64C301.313 138.84 303.15 138.44 305.571 138.44H306.432V138.164C306.432 137.61 306.409 137.195 306.371 136.903C306.248 135.819 305.556 135.273 304.311 135.273C302.912 135.273 302.166 136.034 302.066 137.549L298.683 137.579C298.745 136.103 299.306 134.95 300.375 134.105C301.436 133.267 302.789 132.844 304.434 132.844C307.77 132.844 309.569 134.158 309.815 136.78C309.853 137.441 309.877 138.133 309.877 138.871V143.176C309.877 144.206 309.953 145.344 310.123 146.589H306.74ZM303.819 144.498C304.572 144.498 305.202 144.252 305.694 143.76C306.186 143.253 306.432 142.545 306.432 141.638V140.562C303.334 140.362 301.789 141.1 301.789 142.776C301.789 143.929 302.466 144.498 303.819 144.498Z" fill="black"/>
<path d="M325.59 136.595C325.652 137.195 325.682 138.002 325.682 139.025V146.589H322.208V139.517C322.208 138.717 322.184 138.094 322.146 137.641C322.038 136.065 321.193 135.273 319.594 135.273C318.687 135.273 317.964 135.704 317.411 136.565C316.857 137.41 316.58 138.709 316.58 140.47V146.589H313.105V133.182H316.58V135.365L317.595 133.766C318.471 133.151 319.548 132.844 320.824 132.844C322.238 132.844 323.345 133.174 324.145 133.828C324.96 134.489 325.444 135.411 325.59 136.595Z" fill="black"/>
<path d="M334.51 132.844C336.271 132.844 337.693 133.328 338.785 134.289C339.868 135.258 340.483 136.503 340.63 138.041H337.216C336.909 136.196 335.986 135.273 334.449 135.273C333.503 135.273 332.757 135.657 332.204 136.411C331.666 137.172 331.404 138.287 331.404 139.763C331.404 141.362 331.666 142.553 332.204 143.33C332.757 144.114 333.495 144.498 334.418 144.498C335.094 144.498 335.663 144.283 336.14 143.852C336.632 143.406 336.955 142.768 337.124 141.946H340.599C340.307 143.568 339.599 144.806 338.477 145.667C337.347 146.512 335.925 146.927 334.203 146.927C332.312 146.927 330.774 146.335 329.59 145.144C328.399 143.937 327.807 142.215 327.807 139.978C327.807 137.764 328.437 136.026 329.713 134.75C331.005 133.482 332.604 132.844 334.51 132.844Z" fill="black"/>
<path d="M354.995 139.609C354.995 140.101 354.979 140.501 354.964 140.808H345.431C345.631 143.268 346.669 144.498 348.537 144.498C349.29 144.498 349.921 144.306 350.413 143.914C350.905 143.506 351.212 142.945 351.335 142.223H354.81C354.457 143.76 353.719 144.929 352.596 145.728C351.466 146.528 350.082 146.927 348.445 146.927C346.515 146.927 344.947 146.335 343.74 145.144C342.525 143.937 341.926 142.207 341.926 139.947C341.926 137.856 342.548 136.157 343.802 134.843C345.047 133.513 346.692 132.844 348.722 132.844C350.69 132.844 352.227 133.49 353.334 134.781C354.441 136.073 354.995 137.687 354.995 139.609ZM348.568 135.273C346.846 135.273 345.831 136.365 345.524 138.533H351.428C351.182 136.365 350.228 135.273 348.568 135.273Z" fill="black"/>
<path d="M370.401 128.078V146.59H366.926V144.53L365.911 146.006C365.112 146.621 363.951 146.928 362.436 146.928C360.591 146.928 359.131 146.305 358.07 145.052C357.001 143.807 356.471 142.162 356.471 140.132C356.471 137.818 357.086 136.027 358.316 134.751C359.546 133.482 361.068 132.844 362.898 132.844C364.266 132.844 365.311 133.09 366.034 133.582L366.926 134.966V128.078H370.401ZM363.451 144.499C364.497 144.499 365.334 144.145 365.973 143.423C366.603 142.708 366.926 141.578 366.926 140.04V139.394C366.926 138.003 366.595 136.965 365.942 136.288C365.281 135.612 364.497 135.274 363.574 135.274C362.529 135.274 361.675 135.673 361.022 136.473C360.384 137.272 360.068 138.426 360.068 139.917C360.068 141.293 360.376 142.4 360.991 143.238C361.606 144.084 362.421 144.499 363.451 144.499Z" fill="black"/>
<path d="M384.901 128.848C386.884 128.848 388.406 129.355 389.452 130.354C390.497 131.338 391.12 132.661 391.328 134.321H387.791C387.684 133.422 387.376 132.722 386.869 132.23C386.377 131.723 385.677 131.461 384.778 131.461C384.055 131.461 383.471 131.638 383.025 131.984C382.571 132.338 382.348 132.845 382.348 133.522C382.348 134.26 382.61 134.844 383.148 135.274C383.701 135.69 384.662 136.043 386.039 136.351C387.945 136.804 389.336 137.481 390.221 138.38C391.12 139.264 391.574 140.402 391.574 141.794C391.574 143.377 390.943 144.623 389.698 145.545C388.468 146.468 386.961 146.929 385.177 146.929C383.04 146.929 381.349 146.468 380.104 145.545C378.851 144.623 378.136 143.262 377.951 141.455H381.518C381.703 142.378 382.118 143.1 382.779 143.608C383.432 144.1 384.209 144.346 385.116 144.346C385.916 144.346 386.592 144.154 387.146 143.762C387.699 143.354 387.976 142.824 387.976 142.163C387.976 141.425 387.707 140.833 387.176 140.379C386.638 139.933 385.746 139.549 384.501 139.241C382.548 138.772 381.095 138.15 380.134 137.365C379.166 136.589 378.689 135.451 378.689 133.952C378.689 132.415 379.289 131.185 380.503 130.262C381.71 129.324 383.179 128.848 384.901 128.848Z" fill="black"/>
<path d="M397.958 135.581V141.792C397.958 142.346 397.966 142.738 397.989 142.961C398.028 143.622 398.212 144.053 398.543 144.253C398.889 144.437 399.534 144.499 400.48 144.437V146.682C399.757 146.805 399.004 146.866 398.204 146.866C396.928 146.866 396.021 146.651 395.468 146.221C394.914 145.79 394.591 145.098 394.514 144.13C394.491 143.722 394.484 143.076 394.484 142.192V135.581H392.516V133.305H394.484V129.984H397.958V133.305H400.726V135.581H397.958Z" fill="black"/>
<path d="M415.25 133.184V146.591H411.775V144.315L410.73 146.037C409.823 146.629 408.747 146.929 407.501 146.929C406.187 146.929 405.11 146.606 404.272 145.976C403.45 145.322 402.95 144.515 402.766 143.546C402.681 142.978 402.643 142.155 402.643 141.086V133.184H406.117V140.379C406.117 140.994 406.156 141.601 406.24 142.193C406.425 143.716 407.286 144.469 408.823 144.469C409.723 144.469 410.438 144.092 410.976 143.331C411.506 142.578 411.775 141.471 411.775 140.01V133.184H415.25Z" fill="black"/>
<path d="M431.449 128.078V146.59H427.975V144.53L426.96 146.006C426.16 146.621 425 146.928 423.485 146.928C421.64 146.928 420.179 146.305 419.119 145.052C418.05 143.807 417.52 142.162 417.52 140.132C417.52 137.818 418.135 136.027 419.365 134.751C420.595 133.482 422.117 132.844 423.946 132.844C425.315 132.844 426.36 133.09 427.083 133.582L427.975 134.966V128.078H431.449ZM424.5 144.499C425.545 144.499 426.383 144.145 427.021 143.423C427.652 142.708 427.975 141.578 427.975 140.04V139.394C427.975 138.003 427.644 136.965 426.991 136.288C426.329 135.612 425.545 135.274 424.623 135.274C423.577 135.274 422.724 135.673 422.071 136.473C421.433 137.272 421.117 138.426 421.117 139.917C421.117 141.293 421.425 142.4 422.04 143.238C422.655 144.084 423.47 144.499 424.5 144.499Z" fill="black"/>
<path d="M435.013 128.726C435.359 128.38 435.82 128.203 436.397 128.203C436.966 128.203 437.427 128.38 437.781 128.726C438.126 129.08 438.303 129.518 438.303 130.048C438.303 130.602 438.126 131.055 437.781 131.401C437.427 131.732 436.966 131.893 436.397 131.893C435.82 131.893 435.359 131.732 435.013 131.401C434.659 131.055 434.49 130.602 434.49 130.048C434.49 129.518 434.659 129.08 435.013 128.726ZM438.15 146.592H434.675V133.185H438.15V146.592Z" fill="black"/>
<path d="M453.514 139.609C453.514 140.101 453.499 140.501 453.483 140.808H443.951C444.151 143.268 445.189 144.498 447.057 144.498C447.81 144.498 448.44 144.306 448.932 143.914C449.424 143.506 449.732 142.945 449.855 142.223H453.33C452.976 143.76 452.238 144.929 451.116 145.728C449.986 146.528 448.602 146.927 446.964 146.927C445.035 146.927 443.467 146.335 442.26 145.144C441.045 143.937 440.445 142.207 440.445 139.947C440.445 137.856 441.068 136.157 442.321 134.843C443.566 133.513 445.212 132.844 447.241 132.844C449.209 132.844 450.747 133.49 451.854 134.781C452.961 136.073 453.514 137.687 453.514 139.609ZM447.087 135.273C445.365 135.273 444.351 136.365 444.043 138.533H449.947C449.701 136.365 448.748 135.273 447.087 135.273Z" fill="black"/>
<path d="M460.68 132.844C462.233 132.844 463.479 133.236 464.401 134.012C465.324 134.773 465.854 135.788 466 137.057H462.525C462.295 135.765 461.611 135.119 460.465 135.119C459.95 135.119 459.55 135.258 459.266 135.519C458.997 135.788 458.866 136.134 458.866 136.565C458.866 137.08 459.089 137.487 459.543 137.795C459.989 138.087 460.78 138.371 461.91 138.656C463.386 139.025 464.478 139.54 465.201 140.193C465.916 140.854 466.277 141.761 466.277 142.93C466.277 144.221 465.754 145.221 464.709 145.913C463.679 146.589 462.372 146.927 460.773 146.927C459.089 146.927 457.728 146.558 456.683 145.82C455.637 145.082 455.022 143.975 454.838 142.499H458.313C458.451 143.222 458.743 143.76 459.174 144.129C459.62 144.483 460.165 144.652 460.803 144.652C461.395 144.652 461.864 144.529 462.218 144.283C462.587 144.021 462.771 143.652 462.771 143.176C462.771 142.668 462.525 142.246 462.033 141.915C461.557 141.592 460.742 141.285 459.573 140.993C458.22 140.67 457.175 140.185 456.437 139.547C455.714 138.917 455.361 138.056 455.361 136.964C455.361 135.696 455.837 134.689 456.806 133.951C457.79 133.213 459.081 132.844 460.68 132.844Z" fill="black"/>
</svg>
