<svg xmlns="http://www.w3.org/2000/svg" width="1866" height="1527" fill="none" viewBox="0 0 1866 1527"><path fill="#000" d="M55.1736 1441.47L24.7678 1468.38V1522.82H0.0332031V1355.93H24.7678V1439.84L118.062 1355.93H153.154L73.8644 1425.1L157.573 1522.82H123.414L55.1736 1441.47Z"/><path fill="#000" d="M304.717 1355.93H329.531V1522.79H304.717V1355.93Z"/><path fill="#000" d="M539.065 1377.42H475.938V1355.91H626.955V1377.42H563.827V1522.83H539.065V1377.42Z"/><path fill="#000" d="M908.506 1415.99C904.779 1392.62 886.541 1373.21 851.449 1373.21C812.177 1373.21 786.963 1395.65 786.963 1441.47C786.963 1473.04 804.003 1505.49 850.064 1505.49C879.299 1505.49 901.264 1491.73 908.506 1459.01H933.267C929.54 1495.93 897.27 1527 849.825 1527C807.73 1527 762.148 1503.63 762.148 1438.89C762.148 1390.28 792.554 1351.7 849.585 1351.7C883.239 1351.7 928.848 1366.18 933.267 1415.99H908.506Z"/><path fill="#000" d="M1226.25 1444.26H1112.64V1522.82H1087.88V1355.91H1112.64V1422.75H1226.25V1355.91H1251.06V1522.82H1226.25V1444.26Z"/><path fill="#000" d="M1413.08 1355.92H1547.27V1377.43H1437.9V1425.8H1544V1447.31H1437.9V1501.32H1549.64V1522.78H1413.08V1355.92Z"/><path fill="#000" d="M1729.92 1390.05H1729.47V1522.81H1704.68V1355.9H1733.41L1840.73 1488.68H1841.19V1355.9H1866V1522.81H1837.22L1729.92 1390.05Z"/><path fill="#000" d="M673.638 629.244C720.525 415.931 755.191 168.145 755.191 168.145C788.685 488.899 770.82 314 793.078 630.788C754.685 631.16 705.375 630.096 673.638 629.244ZM468.652 1016.6C445.515 1053.95 421.766 1085.23 397.777 1108.63C383.213 1121.28 369.128 1131.45 354.617 1139.11C286.697 1171.88 214.33 1146.83 156.288 1063.72C136.079 1030.26 123.166 992.565 119.439 959.821C104.795 848.306 143.241 721.565 205.784 707.136C226.125 703.542 256.105 709.559 279.854 741.557C303.125 789.235 289.865 846.922 270.083 889.515C272.399 898.913 280.227 902.613 288.481 902.16C290.238 902.08 292.022 901.734 293.753 901.282C298.678 899.924 305.201 894.786 309.115 890.287C357.04 785.96 429.034 710.224 527.973 683.124C551.589 676.682 578.401 671.97 609.579 671.225C590.968 742.728 550.737 866.116 468.652 1016.6ZM1495.07 855.441C1493.53 868.645 1491.72 880.384 1489.56 890.66C1486.58 903.837 1481.44 919.996 1474.12 939.083C1466.77 958.144 1457.8 975.021 1447.15 989.716C1436.53 1004.41 1423.51 1011.7 1408.06 1011.7C1391.16 1011.7 1378.35 1003.27 1369.56 986.389C1360.75 969.538 1354.65 948.64 1351.4 923.67C1348.08 898.726 1346.43 873.729 1346.43 848.812C1346.43 829.033 1347.14 810.878 1348.64 794.346C1350.1 777.841 1351.14 765.596 1351.94 757.476C1352.68 750.155 1355.08 737.351 1359.07 718.956C1363.09 700.641 1368.84 681.154 1376.17 660.603C1383.49 640.105 1392.11 622.509 1402.05 607.841C1411.95 593.146 1423.11 585.799 1435.59 585.799C1448.8 585.799 1459.05 590.777 1466.42 600.653C1473.75 610.556 1479.63 620.991 1484.02 632.039C1476.65 635.686 1471.19 643.22 1467.54 654.587C1463.87 666.007 1462.01 678.998 1462.01 693.666C1462.01 714.936 1465.49 737.138 1472.5 760.245C1479.44 783.325 1488.07 799.324 1498.35 808.109C1497.58 826.424 1496.48 842.21 1495.07 855.441ZM1108.13 699.709C1108.45 692.761 1108.69 687.038 1108.69 682.618C1109.38 672.343 1110.66 655.678 1112.55 632.571C1114.28 609.465 1116.94 582.684 1120.22 552.23C1123.55 521.776 1127.54 490.949 1132.39 459.776C1137.1 428.603 1142.43 399.453 1148.26 372.273C1154.17 345.12 1160.61 323.291 1167.56 306.786C1174.53 290.308 1182.02 282.055 1190.14 282.055C1198.87 282.055 1205.02 289.003 1208.3 302.899C1211.62 316.902 1213.27 334.525 1213.27 355.795C1213.27 390.269 1208.3 428.789 1198.36 471.356C1188.51 513.843 1175.44 556.942 1159.31 600.653C1143.12 644.311 1125.52 685.6 1106.48 724.466C1107.17 714.936 1107.76 706.71 1108.13 699.709ZM1595.72 775.658C1593.75 806.405 1560.62 814.338 1534.69 800.389C1535.38 791.604 1535.94 782.819 1536.32 773.981C1536.69 765.17 1536.87 756.411 1536.87 747.573C1536.87 716.054 1533.92 686.106 1528.06 657.888C1522.18 629.616 1511.74 606.563 1496.7 588.541C1481.63 570.572 1460.22 561.6 1432.29 561.6C1392.67 561.6 1360.75 572.036 1336.49 592.96C1312.29 613.83 1293.95 639.892 1281.49 671.092C1269.03 702.291 1260.93 733.251 1257.29 764.078C1256.54 775.818 1255.45 789.581 1253.98 805.367C1252.47 821.153 1251.77 838.217 1251.77 856.479C1251.77 874.448 1252.97 892.763 1254.76 911.265C1252.81 913.314 1250.98 916.349 1249.56 920.369C1246.61 929.18 1243.89 937.619 1241.31 945.685C1238.75 953.751 1236.01 961.125 1233.06 967.701C1227.92 980.159 1220.41 993.23 1210.48 1006.75C1200.63 1020.36 1187.53 1027.14 1171.42 1027.14C1157.49 1027.14 1146.1 1020.52 1137.31 1007.31C1128.47 994.109 1121.71 976.699 1116.94 955.029C1112.13 933.44 1108.82 909.721 1107.01 884.058C1105.18 858.369 1104.27 833.079 1104.27 808.109V789.98C1104.27 783.698 1104.59 777.681 1105.36 771.825C1120.06 746.109 1134.86 717.678 1149.93 686.452C1164.98 655.306 1178.02 624.319 1189.07 593.519C1211.04 534.074 1226.29 480.3 1234.71 432.276C1243.15 384.199 1247.38 347.329 1247.38 321.667C1247.38 256.366 1225.73 223.702 1182.39 223.702C1161.12 223.702 1142.8 232.328 1127.44 249.551C1111.97 266.801 1099.51 287.193 1089.89 310.646C1080.39 334.152 1073.47 355.023 1069.07 373.391C1060.98 409.356 1054.16 450.219 1048.68 496.113C1043.17 541.981 1039.12 589.126 1036.56 637.549C1033.98 685.946 1032.73 732.879 1032.73 778.374C1032.73 803.317 1033.08 827.01 1033.82 849.424C1034.54 871.759 1035.63 892.843 1037.15 912.676C1038.56 933.227 1042.95 955.402 1050.33 979.228C1057.6 1003.11 1069.07 1023.42 1084.46 1040.35C1099.83 1057.23 1120.78 1065.67 1147.22 1065.67C1178.02 1065.67 1201.85 1055.92 1218.79 1036.46C1235.64 1017.06 1248.47 993.736 1257.29 966.583C1258.64 962.802 1259.84 959.129 1261.01 955.349C1264.34 971.321 1268.65 986.468 1274.35 1000.68C1282.79 1022.06 1294.88 1039.26 1310.64 1052.43C1326.4 1065.67 1346.8 1072.24 1371.77 1072.24C1397.47 1072.24 1419.99 1063.08 1439.45 1044.71C1458.86 1026.43 1475.05 1004.2 1487.86 978.163C1500.74 952.128 1510.46 927.69 1517.04 904.929C1519.28 896.171 1521.62 885.655 1524.23 873.57C1526.76 861.484 1528.81 841.917 1530.25 827.968C1567.81 829.166 1588.05 811.224 1596.22 796.848C1596.22 796.848 1592.31 843.062 1604.16 917.015C1604.16 917.015 1550.45 1158.49 1244.77 1136.96C996.387 1119.44 898.7 1046.37 906.155 694.411C906.474 681.447 906.341 678.12 906.128 665.528L979.879 662.254L980.092 630.868H905.329C903.439 235.309 886.186 -3.24005 754.898 0.034311C754.898 0.034311 684.182 -2.70756 688.335 128.027C691.956 241.698 634.872 548.503 619.909 626.688C521.05 627.513 395.087 691.323 321.017 793.121C322.188 770.52 319.765 751.593 314.627 734.742C295.27 671.145 232.382 636.378 160.122 656.157C14.8555 695.902 -25.1885 874.421 14.3763 1004.09C60.7571 1156.31 202.908 1222.75 325.223 1189.29C348.946 1182.77 369.82 1172.87 388.644 1160.65C422.964 1140.26 461.437 1107.62 496.955 1055.23C552.761 972.998 609.579 875.034 662.669 670C700.849 670.426 755.004 671.278 796.859 669.654C806.55 765.968 816.854 854.03 826.839 910.333C856.712 1079 990.716 1170.58 1182.12 1189.88C1206.83 1192.83 1233 1194.32 1261.15 1193.79L1261.65 1197.76L1262.1 1193.79H1262.02C1284.2 1193.34 1305.13 1191.77 1325.15 1189.56C1330.48 1189.43 1374.99 1181.97 1397.84 1174.89C1536.93 1128.68 1591.43 1051.96 1615.07 948.081C1615.58 948.64 1629.21 1011.7 1659.67 1040.24C1680.89 1060.07 1699.55 1066.76 1727.54 1066.76C1755.47 1066.76 1779.51 1055.55 1799.53 1033.19C1819.61 1010.85 1835.21 984.285 1846.36 953.512C1857.57 922.738 1864.1 895.265 1865.99 871.014V865.45C1865.99 854.216 1863.59 848.652 1858.96 848.652C1855.23 848.652 1851.5 852.859 1847.78 861.217C1841.28 881.795 1834.94 901.042 1828.9 919.251C1822.83 937.433 1816.09 953.059 1808.64 966.077C1798.36 986.601 1788.8 1000.55 1779.99 1008.06C1771.12 1015.51 1762.92 1019.21 1755.47 1019.21H1754.13C1739.17 1019.21 1727.96 1008.99 1720.56 988.465C1713.03 967.994 1708.42 943.263 1706.56 914.353C1704.69 885.469 1703.76 858.875 1703.76 834.677V802.492C1704.69 756.837 1706.56 706.737 1709.35 652.244C1712.2 597.671 1715.87 544.803 1720.56 493.531H1832.39C1837.98 493.531 1842.18 491.215 1844.98 486.556C1847.78 481.871 1849.19 477.239 1849.19 472.554C1849.19 462.331 1844.98 457.194 1836.54 457.194H1724.74C1729.4 404.032 1734.7 356.753 1740.77 315.305C1746.87 273.829 1752.22 245.159 1756.9 229.293C1750.33 227.429 1743.64 226.045 1736.59 225.14C1729.61 224.208 1723.36 223.702 1717.71 223.702C1697.24 223.702 1680.89 227.696 1668.78 235.602C1656.63 243.535 1648.27 252.613 1643.61 262.835C1637.09 277.769 1631.47 302.899 1626.84 338.358C1622.15 373.817 1617.95 413.376 1614.27 457.194H1573.72C1569.04 457.194 1565.1 459.776 1561.82 464.86C1558.55 470.051 1556.9 474.896 1556.9 479.555C1556.9 488.899 1560.65 493.531 1568.13 493.531H1611.48C1607.72 536.417 1604.95 578.584 1603.06 620.006C1601.2 661.535 1599.76 697.686 1598.94 728.406"/></svg>