<?xml version="1.0" standalone="no"?>
<!DOCTYPE svg PUBLIC "-//W3C//DTD SVG 20010904//EN"
 "http://www.w3.org/TR/2001/REC-SVG-20010904/DTD/svg10.dtd">
<svg version="1.0" xmlns="http://www.w3.org/2000/svg"
 width="1866.000000pt" height="1866.000000pt" viewBox="0 0 1866.000000 1866.000000"
 preserveAspectRatio="xMidYMid meet">
<metadata>
Created by potrace 1.14, written by Peter Selinger 2001-2017
</metadata>
<g transform="translate(0.000000,1866.000000) scale(0.100000,-0.100000)"
fill="#000000" stroke="none">
<path d="M7420 16937 c-228 -76 -395 -283 -474 -590 -23 -87 -29 -116 -40
-197 -3 -19 -8 -53 -12 -75 -3 -22 -8 -186 -9 -365 -2 -287 -9 -487 -20 -615
-1 -22 -6 -76 -9 -120 -4 -44 -8 -96 -11 -115 -2 -19 -7 -66 -10 -105 -3 -38
-8 -92 -10 -120 -3 -27 -7 -66 -10 -85 -6 -44 -12 -99 -20 -170 -9 -82 -21
-178 -35 -285 -5 -38 -12 -90 -15 -115 -3 -25 -8 -56 -10 -70 -3 -14 -7 -50
-10 -80 -3 -30 -15 -113 -26 -185 -11 -71 -22 -148 -25 -170 -2 -22 -7 -51 -9
-65 -2 -14 -7 -45 -10 -70 -3 -25 -12 -83 -20 -130 -8 -47 -17 -105 -20 -130
-3 -25 -10 -70 -15 -100 -5 -30 -12 -71 -15 -90 -3 -19 -7 -46 -10 -60 -2 -14
-7 -45 -10 -70 -3 -25 -8 -52 -10 -60 -2 -8 -6 -33 -10 -55 -3 -22 -15 -94
-26 -160 -11 -66 -22 -131 -24 -145 -2 -14 -6 -38 -9 -55 -3 -16 -21 -124 -41
-240 -47 -271 -44 -256 -50 -285 -3 -14 -10 -52 -15 -85 -15 -87 -19 -112 -35
-195 -8 -41 -17 -91 -20 -110 -3 -19 -8 -42 -10 -50 -2 -8 -6 -33 -10 -55 -3
-22 -7 -47 -10 -55 -2 -8 -6 -33 -10 -55 -3 -22 -16 -96 -30 -165 -13 -69 -26
-136 -28 -150 -3 -14 -10 -53 -17 -87 l-13 -63 -81 -1 c-44 0 -88 -2 -96 -3
-8 -2 -46 -6 -84 -10 -38 -4 -79 -8 -90 -11 -12 -2 -39 -6 -61 -9 -212 -26
-616 -151 -893 -277 -250 -114 -560 -293 -748 -433 -23 -17 -52 -38 -64 -46
-12 -8 -28 -19 -34 -25 -6 -5 -36 -29 -66 -52 -30 -23 -64 -50 -75 -60 -11
-10 -52 -45 -90 -77 -176 -150 -431 -424 -592 -636 -9 -12 -11 6 -12 85 0 163
-14 273 -55 443 -42 179 -163 389 -305 532 -185 186 -432 305 -701 336 -57 7
-261 6 -310 -1 -86 -12 -195 -34 -223 -44 -15 -6 -27 -9 -27 -6 0 11 -217 -72
-328 -125 -463 -222 -820 -618 -1032 -1145 -18 -44 -36 -89 -40 -100 -18 -43
-82 -253 -95 -315 -32 -140 -45 -209 -55 -275 -6 -44 -13 -93 -15 -110 -26
-182 -26 -714 0 -839 2 -12 6 -40 9 -63 3 -24 10 -71 16 -105 24 -135 30 -165
66 -298 106 -395 279 -748 520 -1056 95 -121 241 -276 344 -364 14 -12 35 -30
48 -41 73 -63 241 -179 367 -252 104 -62 419 -199 486 -212 9 -2 47 -12 85
-24 69 -20 188 -46 261 -57 21 -3 49 -7 63 -9 115 -20 407 -26 559 -11 115 10
287 42 396 72 50 14 97 27 105 29 32 9 90 32 96 38 4 4 13 7 20 7 31 0 251
109 379 188 285 175 443 299 656 511 238 239 399 449 681 891 90 142 258 418
258 425 0 2 14 27 30 55 107 181 305 580 416 839 26 58 52 120 60 136 190 429
451 1211 647 1945 l33 125 650 0 c357 0 654 3 659 7 21 13 34 -8 40 -62 3 -30
7 -71 10 -90 2 -19 7 -66 10 -105 4 -38 8 -83 10 -100 8 -64 14 -123 20 -190
4 -38 8 -81 10 -95 5 -37 14 -117 20 -180 3 -30 7 -71 10 -90 2 -19 7 -60 10
-90 4 -30 8 -66 10 -80 2 -14 7 -50 10 -80 3 -30 16 -143 30 -250 14 -107 27
-212 30 -234 2 -21 7 -57 10 -80 3 -22 8 -59 11 -81 3 -22 9 -67 14 -100 5
-33 12 -80 15 -105 3 -25 8 -56 10 -70 3 -14 7 -38 9 -55 10 -68 42 -263 51
-305 26 -135 86 -369 110 -431 8 -20 11 -39 8 -43 -4 -3 -2 -6 4 -6 5 0 10 -6
10 -12 0 -7 20 -65 45 -128 119 -302 273 -564 486 -825 63 -76 258 -276 332
-340 274 -234 602 -436 940 -579 63 -26 124 -52 135 -57 51 -23 265 -94 404
-135 237 -69 567 -139 791 -169 25 -3 61 -8 80 -10 33 -5 58 -8 175 -20 28 -3
66 -8 85 -10 172 -20 214 -23 485 -30 149 -4 242 -10 246 -17 4 -7 8 -6 11 2
3 9 30 14 84 16 43 1 129 5 189 9 105 5 142 8 263 20 28 3 78 7 110 10 31 3
64 8 72 10 16 5 48 10 120 20 24 4 47 8 50 10 3 2 23 6 45 9 463 71 1054 312
1470 601 238 165 446 363 600 570 16 22 32 42 35 45 10 10 126 189 148 230
132 239 233 496 312 794 28 105 40 136 40 104 0 -9 11 -56 26 -104 54 -188
137 -397 208 -521 56 -100 61 -108 66 -113 3 -3 24 -30 48 -61 112 -147 284
-271 448 -322 106 -34 172 -42 329 -41 330 3 583 147 821 469 41 55 78 105 82
110 23 29 105 172 150 260 177 349 322 878 318 1160 -2 133 -18 175 -66 175
-19 0 -37 -8 -48 -21 -9 -12 -22 -26 -27 -33 -19 -21 -45 -90 -126 -341 -168
-519 -183 -555 -371 -904 -93 -172 -216 -309 -327 -364 -91 -45 -187 -50 -263
-14 -123 58 -188 159 -263 412 -52 175 -84 379 -100 635 -4 58 -8 123 -10 145
-22 273 -22 1002 0 1575 13 344 16 424 20 505 2 50 7 140 10 200 5 107 10 193
20 380 11 191 15 262 20 325 2 36 7 106 10 155 16 233 26 372 30 415 2 19 6
76 10 125 3 50 8 106 10 125 2 19 7 71 10 115 3 44 7 89 9 100 3 19 12 20 582
20 562 0 580 1 614 21 72 42 113 190 75 274 -32 70 -12 68 -653 66 l-572 -1 5
75 c3 41 7 95 9 120 3 25 7 75 11 112 3 37 8 77 10 90 2 13 6 55 10 93 15 158
31 315 40 375 2 14 6 50 10 80 11 104 31 261 39 310 3 14 7 48 11 75 3 28 12
91 20 140 8 50 17 108 20 130 2 22 7 51 9 65 3 14 21 115 41 225 19 110 46
243 59 295 13 52 23 96 21 98 -6 7 -191 42 -255 47 -131 11 -288 7 -350 -10
-8 -2 -30 -7 -49 -10 -57 -10 -177 -61 -238 -101 -93 -62 -187 -163 -227 -246
-47 -100 -112 -329 -131 -468 -2 -14 -10 -65 -19 -115 -13 -77 -44 -306 -62
-465 -3 -25 -7 -56 -9 -70 -2 -14 -7 -56 -10 -95 -4 -38 -8 -81 -10 -95 -4
-26 -11 -94 -20 -195 -8 -83 -15 -154 -20 -195 -2 -19 -7 -75 -11 -125 -9
-124 -9 -124 -17 -131 -3 -4 -103 -7 -221 -7 -201 0 -217 -1 -245 -21 -114
-81 -137 -298 -34 -331 18 -6 127 -10 253 -10 l222 1 -7 -101 c-3 -55 -8 -116
-10 -135 -4 -54 -16 -208 -20 -275 -3 -33 -7 -98 -10 -145 -9 -132 -13 -195
-19 -325 -4 -66 -9 -156 -11 -200 -3 -44 -7 -138 -10 -210 -3 -71 -7 -179 -10
-240 -8 -180 -15 -370 -20 -540 -4 -150 -10 -254 -20 -385 -2 -30 -7 -98 -10
-150 -12 -205 -27 -254 -104 -330 -70 -69 -133 -94 -247 -97 -83 -2 -158 12
-227 44 l-38 17 7 115 c10 155 11 642 1 761 -15 176 -24 249 -53 420 -41 244
-86 392 -170 562 -179 365 -427 529 -804 531 -247 1 -466 -39 -655 -121 -150
-64 -262 -141 -396 -274 -131 -129 -162 -166 -254 -303 -91 -137 -142 -233
-201 -375 -145 -356 -238 -733 -259 -1050 -5 -83 -12 -171 -20 -260 -13 -147
-16 -184 -20 -265 -6 -116 -6 -461 -1 -545 3 -36 8 -107 11 -158 3 -51 8 -102
10 -113 3 -12 -6 -40 -20 -63 -13 -22 -49 -120 -80 -216 -98 -300 -158 -433
-283 -624 -77 -117 -159 -202 -234 -238 -72 -35 -96 -41 -200 -44 -92 -3 -152
12 -223 56 -39 24 -125 117 -146 158 -8 15 -26 48 -40 73 -95 165 -193 548
-224 879 -3 36 -8 76 -10 90 -2 14 -7 63 -10 110 -3 47 -8 114 -10 150 -13
165 -19 391 -19 690 l-1 325 44 80 c202 364 412 781 550 1093 45 101 81 186
81 188 0 3 9 24 19 47 76 169 277 732 375 1052 97 319 195 712 222 890 3 22 9
58 14 80 8 37 31 178 45 270 3 23 7 51 10 64 2 13 7 49 11 80 3 31 8 64 10 74
1 9 8 63 14 120 6 56 13 116 15 132 28 195 21 674 -10 724 -6 10 -4 12 4 6 10
-6 11 -3 3 11 -5 11 -13 37 -17 59 -16 89 -18 101 -19 117 0 9 -5 16 -10 15
-6 -1 -12 8 -14 21 -2 12 -8 20 -13 17 -8 -6 -14 17 -10 39 1 4 -6 20 -15 33
-9 15 -11 22 -3 18 8 -5 10 -4 5 3 -4 7 -13 12 -21 12 -8 0 -23 20 -34 45 -11
25 -25 45 -31 45 -6 0 -8 -5 -4 -12 4 -7 3 -8 -5 -4 -9 6 -9 11 1 24 7 9 8 13
2 9 -14 -8 -52 35 -46 53 4 13 2 13 -9 0 -8 -8 -13 -14 -12 -11 4 8 -26 31
-42 31 -9 0 -13 5 -10 10 3 6 0 11 -7 12 -7 0 -18 2 -24 2 -19 2 -44 28 -38
40 3 6 -1 3 -9 -7 -9 -11 -16 -14 -19 -7 -5 15 -41 19 -178 20 -177 2 -251
-14 -385 -83 -66 -34 -86 -49 -170 -132 -135 -134 -262 -323 -362 -535 -76
-162 -100 -222 -169 -425 -66 -192 -130 -460 -178 -740 -3 -16 -8 -41 -10 -55
-3 -14 -8 -43 -11 -65 -3 -22 -7 -47 -10 -55 -2 -8 -6 -35 -9 -60 -3 -25 -8
-56 -10 -70 -3 -14 -10 -61 -16 -105 -6 -44 -13 -91 -15 -105 -2 -14 -7 -47
-11 -75 -3 -27 -8 -58 -9 -67 -2 -9 -7 -48 -10 -85 -4 -37 -9 -76 -11 -86 -2
-10 -6 -48 -9 -85 -3 -37 -8 -78 -10 -92 -4 -24 -10 -73 -20 -175 -4 -45 -7
-76 -20 -215 -12 -124 -24 -274 -30 -370 -8 -121 -16 -235 -20 -295 -3 -33 -7
-114 -10 -180 -3 -66 -7 -149 -10 -185 -4 -64 -13 -298 -21 -580 -5 -174 -5
-1114 0 -1255 10 -258 18 -430 30 -610 14 -201 20 -255 47 -395 28 -150 84
-357 126 -469 102 -275 268 -511 444 -631 73 -50 200 -104 274 -116 17 -2 53
-8 80 -12 60 -10 252 -8 315 2 168 28 315 89 424 175 201 160 391 471 506 826
25 77 35 95 37 65 7 -93 103 -383 178 -535 112 -229 264 -400 445 -498 61 -33
170 -75 215 -82 163 -27 283 -34 387 -20 139 17 297 78 423 163 164 110 412
400 538 627 72 130 105 199 217 450 62 139 165 457 186 575 3 14 13 61 24 106
20 84 46 261 66 449 3 33 7 61 8 61 0 1 42 4 91 7 107 7 129 11 215 38 124 39
253 128 321 222 l28 39 -1 -169 c-1 -155 6 -352 17 -480 14 -154 23 -241 30
-279 1 -11 7 -52 11 -90 4 -38 9 -71 9 -74 1 -3 5 -30 9 -60 7 -49 3 -69 -34
-180 -23 -69 -52 -147 -65 -175 -12 -27 -32 -72 -44 -100 -12 -27 -30 -66 -40
-85 -66 -125 -109 -203 -145 -260 -38 -62 -184 -270 -195 -280 -4 -3 -26 -30
-51 -60 -50 -61 -49 -59 -141 -156 -105 -109 -246 -237 -313 -284 -12 -8 -27
-20 -33 -26 -72 -70 -508 -318 -648 -369 -27 -10 -54 -22 -60 -25 -23 -17
-264 -93 -406 -129 -331 -84 -639 -121 -1014 -123 -132 -1 -353 8 -455 17 -19
2 -75 6 -125 10 -49 3 -106 8 -125 10 -81 8 -157 16 -180 20 -14 2 -50 7 -80
10 -30 3 -66 8 -80 10 -14 2 -45 7 -70 10 -52 7 -214 33 -250 40 -20 4 -231
47 -290 60 -40 8 -215 59 -300 87 -295 96 -552 227 -780 397 -90 67 -298 273
-360 356 -25 33 -48 62 -51 65 -21 16 -150 236 -209 355 -96 194 -186 442
-235 645 -9 36 -17 72 -20 80 -6 26 -24 104 -29 130 -2 14 -9 48 -15 75 -5 28
-12 68 -15 90 -4 23 -9 52 -11 65 -6 26 -29 187 -40 275 -3 28 -8 61 -10 75
-5 37 -21 218 -29 340 -12 173 -16 253 -21 390 -5 134 -6 664 -2 979 l2 135
30 2 c17 1 93 5 170 8 351 15 492 22 527 25 4 1 7 71 7 156 l1 155 -374 0
-373 0 -2 338 c-3 521 -15 1225 -26 1572 -9 275 -15 435 -20 535 -3 55 -7 154
-10 220 -3 66 -7 147 -10 180 -3 33 -7 103 -11 155 -12 208 -17 275 -29 420
-2 25 -7 83 -10 129 -4 46 -8 92 -10 103 -3 11 -7 55 -10 97 -4 42 -8 87 -10
101 -2 14 -7 50 -10 80 -20 169 -25 206 -44 337 -12 78 -39 246 -45 278 -2 11
-11 60 -21 109 -48 257 -125 545 -203 756 -172 468 -429 767 -737 859 -104 31
-120 33 -245 36 -97 3 -125 0 -180 -18z m144 -1777 c4 -41 9 -91 11 -110 3
-19 7 -60 10 -90 3 -30 8 -75 10 -100 3 -25 8 -65 10 -90 3 -24 7 -67 10 -95
11 -108 15 -142 20 -195 7 -69 14 -133 20 -185 3 -22 7 -67 10 -100 3 -33 8
-80 10 -105 12 -101 15 -127 19 -180 3 -30 10 -98 16 -150 14 -135 18 -176 25
-255 3 -38 8 -88 10 -110 10 -92 15 -144 20 -205 3 -36 7 -92 10 -125 3 -33 7
-98 10 -145 3 -47 7 -112 10 -145 2 -33 7 -114 11 -180 3 -66 7 -145 9 -175 2
-30 6 -102 10 -160 3 -58 8 -132 10 -165 2 -33 6 -109 10 -170 3 -60 8 -130
10 -155 3 -41 13 -182 20 -300 9 -148 17 -270 20 -300 2 -19 6 -84 10 -145 3
-60 8 -130 10 -155 2 -25 7 -85 10 -134 l5 -88 -477 7 c-591 8 -702 11 -709
18 -4 3 1 37 10 74 9 37 18 80 20 96 3 15 7 35 10 45 3 9 7 28 10 42 2 14 20
104 41 200 20 96 39 186 41 200 3 14 20 102 39 195 34 167 82 415 111 568 8
42 21 114 30 160 16 87 18 98 29 162 3 22 8 47 10 55 2 8 7 31 10 50 6 37 40
233 50 285 5 26 36 205 51 290 3 17 7 43 9 58 2 16 6 40 10 55 3 15 7 41 10
57 2 17 6 41 9 55 3 14 7 41 10 60 3 19 9 60 15 90 15 78 22 120 27 155 2 17
6 41 9 55 3 14 7 45 10 70 3 25 7 52 10 60 2 8 6 33 10 54 3 21 7 48 10 60 2
12 7 39 10 61 3 22 10 65 15 95 9 56 19 116 25 160 2 14 6 39 9 55 9 51 34
218 41 265 3 25 10 70 15 100 5 30 12 73 15 95 2 22 7 51 9 65 3 14 10 61 16
105 16 109 21 144 25 167 3 11 7 46 11 77 11 98 19 95 28 -9z m4392 -1029 c35
-4 105 -104 120 -171 2 -11 6 -30 9 -42 16 -71 32 -181 40 -278 12 -131 5
-542 -10 -618 -1 -9 -6 -46 -10 -82 -3 -36 -8 -76 -10 -90 -2 -14 -7 -45 -10
-70 -6 -42 -37 -229 -50 -295 -3 -16 -17 -82 -31 -145 -14 -63 -27 -122 -29
-130 -23 -114 -131 -507 -192 -700 -20 -63 -38 -119 -39 -125 -21 -82 -189
-541 -294 -800 -143 -355 -368 -855 -385 -855 -3 0 -4 3 -2 8 5 8 18 192 22
317 3 77 13 252 20 325 5 60 16 192 20 255 10 124 16 201 20 225 2 14 7 63 11
110 3 47 8 96 9 110 1 14 6 59 9 100 4 41 9 86 11 100 2 14 7 54 10 90 3 36 8
81 10 100 10 82 35 289 40 335 3 28 8 60 10 71 2 12 7 48 10 80 4 33 9 68 11
79 3 11 6 38 9 60 3 34 38 268 50 345 3 14 7 42 10 64 4 21 9 48 11 60 2 11 6
35 9 51 126 760 267 1265 401 1441 52 68 98 86 190 75z m2584 -3071 c84 -43
174 -158 259 -329 l41 -85 -48 -42 c-69 -61 -125 -177 -147 -310 -3 -21 -10
-61 -15 -89 -8 -47 -6 -356 3 -420 54 -387 176 -724 317 -875 35 -37 37 -56
25 -205 -2 -27 -7 -93 -10 -145 -4 -52 -8 -106 -10 -120 -2 -14 -7 -50 -10
-80 -15 -125 -56 -342 -84 -440 -116 -403 -308 -789 -469 -946 -52 -51 -149
-108 -205 -120 -50 -12 -152 -11 -200 1 -166 40 -261 143 -355 385 -44 111
-93 298 -107 405 -2 16 -6 53 -10 80 -4 28 -8 61 -11 75 -2 14 -6 57 -10 95
-3 39 -7 81 -10 95 -22 134 -23 888 0 1005 2 11 7 61 10 110 4 50 9 106 11
125 2 19 7 67 10 105 5 59 24 187 39 260 13 67 58 266 66 300 6 22 12 48 15
58 29 126 174 546 197 574 6 7 8 13 5 13 -10 0 117 241 165 315 92 141 203
227 315 244 59 9 166 -10 223 -39z m-8450 -823 c0 -12 -61 -240 -80 -302 -6
-16 -30 -97 -56 -180 -91 -299 -244 -741 -304 -880 -4 -11 -21 -54 -36 -95
-30 -82 -178 -444 -215 -525 -12 -27 -23 -52 -24 -55 -1 -3 -13 -31 -28 -64
-15 -32 -27 -60 -27 -62 0 -3 -85 -188 -160 -349 -52 -112 -281 -570 -348
-696 -27 -52 -60 -114 -73 -139 -32 -64 -122 -209 -198 -320 -89 -132 -125
-184 -131 -190 -3 -3 -18 -23 -34 -45 -31 -41 -182 -231 -201 -251 -5 -6 -49
-54 -97 -106 -145 -157 -380 -335 -553 -418 -81 -38 -247 -93 -320 -106 -22
-4 -49 -9 -60 -12 -11 -3 -87 -6 -170 -8 -118 -2 -169 2 -240 17 -222 47 -394
124 -591 264 -200 141 -436 390 -582 613 -63 96 -174 324 -226 463 -67 183
-122 401 -141 564 -4 28 -8 64 -10 80 -19 152 -25 499 -12 685 12 164 30 315
52 425 8 39 16 81 19 95 2 14 12 54 21 90 9 36 18 74 20 86 3 12 18 63 34 115
161 523 419 866 716 952 64 18 209 15 295 -7 205 -53 421 -222 494 -388 77
-176 112 -418 92 -653 -18 -215 -88 -483 -178 -685 -43 -95 -43 -109 0 -157
46 -53 159 -69 232 -32 77 38 115 87 201 259 158 316 327 584 520 826 61 76
114 141 118 144 3 3 38 39 76 80 192 205 433 403 660 542 155 95 517 261 615
282 14 3 57 15 95 26 39 12 81 23 95 26 14 3 59 14 100 24 89 23 327 58 443
66 45 3 83 7 84 8 1 0 27 2 57 3 38 1 56 -2 56 -10z"/>
<path d="M8468 3445 c-2 -1 -39 -5 -83 -9 -44 -3 -98 -11 -120 -17 -22 -5 -57
-14 -77 -20 -157 -39 -351 -187 -436 -331 -91 -153 -127 -297 -126 -508 1
-239 52 -408 169 -561 115 -148 302 -255 513 -293 78 -14 296 -15 377 -1 112
19 274 92 365 164 145 113 254 294 276 455 l7 46 -125 0 -124 0 -14 -52 c-24
-97 -88 -204 -158 -269 -36 -32 -70 -59 -75 -59 -6 0 -18 -6 -26 -14 -23 -20
-136 -55 -208 -64 -288 -38 -546 80 -655 298 -54 107 -70 177 -74 315 -6 242
49 408 177 536 114 114 279 169 489 164 177 -5 309 -55 409 -155 62 -63 92
-114 120 -205 l19 -60 122 -3 123 -3 -7 47 c-16 120 -74 248 -152 338 -116
133 -345 236 -563 252 -47 3 -98 7 -113 9 -15 1 -29 1 -30 0z"/>
<path d="M10 3402 c-7 -3 -10 -295 -10 -838 l0 -834 124 0 125 0 -1 272 0 272
38 35 c22 19 64 57 95 85 69 64 159 140 169 144 4 1 19 -12 33 -30 14 -18 33
-42 43 -53 11 -11 53 -61 94 -110 41 -50 77 -92 80 -95 3 -3 37 -43 75 -90 39
-47 78 -94 88 -105 11 -11 31 -36 46 -55 14 -19 31 -39 37 -45 6 -5 33 -37 60
-70 27 -33 63 -75 79 -93 17 -19 34 -40 38 -48 6 -11 42 -14 177 -14 94 0 170
3 170 6 0 5 -163 198 -199 235 -9 9 -25 27 -36 40 -48 57 -189 224 -195 229
-3 3 -30 34 -60 70 -30 36 -59 70 -65 76 -5 6 -28 32 -50 59 -22 26 -45 53
-50 59 -6 6 -48 54 -93 107 l-81 96 42 39 c44 41 162 144 211 185 16 13 39 33
50 44 12 11 71 63 131 115 61 52 115 99 121 105 16 15 132 116 187 164 l48 41
-33 0 c-134 3 -314 -2 -324 -8 -6 -4 -49 -41 -94 -82 -46 -41 -92 -83 -104
-93 -12 -10 -57 -51 -100 -90 -44 -40 -89 -81 -102 -92 -12 -11 -57 -51 -100
-90 -43 -38 -126 -113 -184 -165 -58 -52 -123 -111 -144 -130 -22 -19 -50 -46
-63 -59 -13 -13 -26 -22 -29 -18 -3 3 -6 190 -6 416 l0 411 -66 1 c-37 0 -88
1 -115 2 -26 1 -52 1 -57 -1z"/>
<path d="M4793 3402 c-31 -3 -33 -6 -34 -43 -2 -48 -2 -56 0 -121 l1 -53 315
1 315 1 0 -729 0 -728 125 0 124 0 0 721 c-1 396 2 724 6 727 4 4 145 7 313 7
l307 1 3 107 3 107 -198 0 c-109 0 -434 2 -723 3 -289 1 -540 1 -557 -1z"/>
<path d="M14158 3402 l-28 -3 0 -834 0 -833 684 0 683 1 -1 107 -1 106 -553 0
c-388 0 -556 4 -560 11 -4 6 -6 128 -4 272 l3 260 397 0 c218 0 457 0 530 1
l132 0 0 105 c0 77 -3 105 -12 106 -7 0 -246 1 -531 1 l-517 1 2 241 3 241
520 1 c286 1 531 2 545 3 l25 1 -2 101 c0 55 -3 102 -6 105 -5 5 -1267 11
-1309 6z"/>
<path d="M17052 3395 c-3 -5 -6 -381 -6 -836 l-1 -826 122 -1 c84 0 123 3 125
11 2 7 4 305 4 664 -1 358 2 649 5 647 4 -2 113 -136 243 -296 271 -337 639
-793 664 -823 9 -11 35 -43 57 -70 21 -28 42 -52 45 -55 3 -3 18 -21 34 -42
l27 -36 145 0 144 1 0 833 0 832 -77 4 c-43 2 -99 2 -125 0 l-48 -3 -2 -661
-3 -661 -59 74 c-33 41 -62 76 -66 79 -3 3 -17 21 -32 42 -15 20 -34 42 -41
50 -7 7 -105 128 -217 268 -113 140 -207 257 -211 260 -9 8 -331 407 -385 478
l-52 67 -142 5 c-87 3 -144 1 -148 -5z"/>
<path d="M3050 3378 c-1 -28 -1 -1582 0 -1620 l0 -27 122 2 123 2 0 830 0 830
-122 3 c-122 3 -123 2 -123 -20z"/>
<path d="M10880 3393 c-1 -11 -1 -1567 -1 -1621 l1 -43 123 3 122 3 1 370 c1
204 2 380 3 391 l1 21 565 0 565 1 1 -22 c0 -11 1 -189 1 -393 l1 -373 123 0
124 0 0 835 0 835 -124 0 -124 0 0 -317 c0 -175 -1 -325 -1 -334 -1 -14 -55
-16 -568 -15 l-567 1 0 333 1 332 -124 0 c-68 0 -123 -3 -123 -7z"/>
</g>
</svg>
