<svg xmlns="http://www.w3.org/2000/svg" width="1920" height="5551" fill="none"><path fill="#fefcfb" d="M0 0h1920v5551H0z"/><g clip-path="url(#a)" opacity=".3" transform="translate(-549)"><path fill="#ccc" fill-rule="evenodd" d="M2209.42 447.816c-2.79 2.679-1.99 2.366-8.49.406-5.71-1.856-3-2.471-8.11.51-4.59 2.784-12.1 5.556-15.59 7.713 1.3 2.981 12.49 12.759 15.2 16.772-1 .511-1.8.928-2.9 1.439-1.7.823-1.29.823-3.3-.406-4.39-2.575-18.51-10.811-21.3-12.04-3.7 1.647-13.5 6.797-16.89 6.588-1.6-.104-4.21-.51-3.7-2.575 1.3-5.045 10.1-7.818 15.8-10.393 2.3-1.032 1.7-.927 2.2-3.502.61-2.773 4.4-22.943 5.29-23.975.4-.314 3.5-1.648 4.11-1.961.3 1.856.49 3.909.59 5.869l1.01 11.425c0 1.856.3 4.014.59 5.765 2.61-1.334 5.2-2.471 7.91-3.804 13.4-6.589 11-2.158 14.09-9.57 1.81-4.117 1.81-6.588 5.71-5.973-.71 8.247 1.48 13.385 7.78 17.712zm-113.79-79.755c3.61 1.137 2.79 1.241 7.8-3.503 4.39-4.117 1.7-3.503 7.59-2.981 5.2.406 13.2-.313 17.3.105.11 3.189-5.99 16.981-6.79 21.817h3.2c1.9 0 1.5.209 2.9-1.751 2.89-4.326 12.1-18.013 14.2-20.275 4.1-.104 15 .104 17.99-1.438 1.4-.824 3.6-2.471 2.3-4.118-3.3-3.909-12.39-2.575-18.59-2.366-2.5 0-1.9-.105-3.51-2.158-1.7-2.261-13.5-18.836-14.69-19.347-.5-.104-3.9 0-4.5 0 .4 1.856 1.1 3.7 1.8 5.556l3.9 10.799c.7 1.647 1.4 3.804 1.91 5.451-2.9-.104-5.81 0-8.81 0-14.79 0-10.69 2.981-16.7-2.366-3.29-2.981-4.29-5.15-7.59-2.876 4 7.11 4.19 12.759.29 19.451zm-1.6-10.497c1.5-.209 2 2.158.29 2.471l-2.4.313c-1.5.313-2.11-2.158-.41-2.471zm-212.38 164.659c-.8 1.647-3 .406-2.3-1.032l.6-1.334c.8-1.543 3-.313 2.2 1.136zm3.8-8.131c-.8 1.543-3 .418-2.2-1.137l1.11-2.262c.69-1.542 2.89-.313 2.19 1.126zm4.5-9.059c-.7 1.438-3 .406-2.2-1.136l1.19-2.262c.7-1.439 2.9-.406 2.2 1.241zm4.8-8.85c-.91 1.543-3 .105-2.2-1.241l1.29-2.262c.91-1.542 2.9-.104 2.1 1.23zm5-8.745c-.9 1.438-3 .104-2.1-1.334l1.3-2.158c.8-1.438 3-.104 2.1 1.334zm5.3-8.642c-.8 1.334-3 .105-2.1-1.333l1.4-2.158c.8-1.334 3-.104 1.99 1.438zm5.5-8.339c-1.01 1.334-2.9-.209-2-1.543l1.4-2.053c1-1.334 3 .209 2 1.543zm5.79-8.236c-1 1.334-2.9-.208-1.9-1.542l1.49-2.053c1.01-1.334 2.9.313 1.9 1.542zm5.8-7.713c-.9.511-1.99-.313-1.9-1.334-.1-.614.39-1.438 1.1-1.542l.8-1.033c1.01-1.229 3 .313 1.91 1.647l-.2.314.39.104c1.6.615.6 2.981-.9 2.366zm6.71-8.026c-1.21 1.241-2.9-.511-1.8-1.752l1.6-1.856c1.19-1.333 2.89.511 1.8 1.647zm6.7-7.516c-1.11 1.229-3-.511-1.81-1.752l1.7-1.856c1.11-1.229 2.9.511 1.81 1.752zm6.89-7.203c-1.29 1.136-2.89-.824-1.7-1.856l1.7-1.752c1.3-1.241 2.9.719 1.81 1.856zm7.2-6.995c-1.2 1.137-2.89-.719-1.7-1.855l1.91-1.752c1.19-1.137 2.89.824 1.6 1.96zm7.4-6.588c-1.11 1.033-2.8-.823-1.5-1.948l1.9-1.647c1.4-1.137 2.8 1.032 1.5 1.96zm7.8-6.379c-1.4 1.032-2.8-1.032-1.5-1.96l1.9-1.543c1.4-1.032 2.8 1.032 1.5 1.96zm7.9-5.974c-1.2.928-2.8-1.032-1.4-2.053.7-.51 1.4-1.032 2.1-1.438 1.19-.928 2.79 1.032 1.39 2.053-.68.51-1.38.928-2.09 1.438zm8.2-5.66c-1.4.928-2.6-1.334-1.29-2.157l2.09-1.334c1.4-.928 2.71 1.334 1.3 2.157zm8.4-5.243c-1.3.824-2.7-1.334-1.2-2.261l2.2-1.23c1.3-.823 2.69 1.334 1.2 2.262zm8.7-4.941c-1.6.824-2.6-1.542-1.21-2.262l2.2-1.229c1.5-.719 2.6 1.647 1.21 2.366zm8.8-4.523c-1.4.719-2.6-1.543-1.1-2.367.8-.313 1.5-.719 2.3-1.032 1.39-.719 2.5 1.543 1 2.262-.7.406-1.5.719-2.2 1.137zm8.99-4.222c-1.6.614-2.4-1.752-1-2.367l2.3-1.032c1.6-.615 2.4 1.844.9 2.366zm9.11-3.816c-1.5.614-2.4-1.752-.9-2.367l2.4-.928c1.4-.614 2.4 1.752.8 2.367zm9.3-3.492c-1.5.511-2.4-1.856-.8-2.366.8-.313 1.6-.615 2.4-.823 1.4-.615 2.3 1.751.7 2.366-.8.301-1.5.51-2.3.823zm9.4-3.085c-1.7.406-2.2-2.053-.7-2.471l2.4-.719c1.6-.406 2.2 2.053.6 2.471zm9.5-2.784c-1.6.418-2.2-2.053-.6-2.47l2.4-.615c1.5-.406 2.2 2.053.6 2.47zm9.59-2.366c-1.5.406-2.3-2.053-.6-2.575l2.51-.51c1.7-.314 2 2.261.49 2.47zm9.6-2.157c-1.6.313-1.99-2.158-.39-2.471l2.4-.406c1.7-.313 2.1 2.157.49 2.471zm9.8-1.752c-1.6.313-2.1-2.157-.4-2.47l2.4-.406c1.6-.314 2.1 2.261.4 2.575zm-332.97 99.612c-2.81 2.679-2 2.366-8.5.313-5.7-1.751-3-2.47-8.1.615-4.6 2.679-12.11 5.556-15.6 7.713 1.29 2.981 12.5 12.759 15.2 16.772-1 .511-1.8.824-2.9 1.334-1.7.928-1.29.928-3.3-.313-4.39-2.575-18.49-10.915-21.3-12.04-3.7 1.647-13.5 6.797-16.89 6.588-1.6-.104-4.21-.614-3.7-2.679 1.3-5.045 10.1-7.818 15.8-10.393 2.3-1.032 1.7-.823 2.2-3.398.6-2.877 4.41-22.943 5.3-23.975.3-.313 3.49-1.752 4.1-1.96.3 1.856.51 3.804.6 5.764l1 11.53c0 1.751.3 4.013.6 5.66 2.6-1.241 5.19-2.471 7.9-3.7 13.4-6.588 10.9-2.157 14.1-9.569 1.8-4.118 1.7-6.588 5.7-5.974-.71 8.247 1.49 13.397 7.79 17.712zm-2.9-10.184c-1.5.51-.9 2.877.8 2.471l2.3-.824c1.4-.417.9-2.876-.8-2.47zm260.48 55.362c1.3 1.137 2.69-.928 1.5-1.949l-1-.823c-1.4-1.137-2.8.928-1.6 1.96zm-6.9-5.66c1.3 1.032 2.8-.928 1.6-1.961l-1.99-1.647c-1.3-1.032-2.8 1.033-1.5 2.053zm-7.8-6.171c1.2 1.032 2.8-.928 1.5-2.053l-1.99-1.543c-1.3-.928-2.9 1.033-1.5 2.065zm-8-5.974c1.4 1.033 2.71-1.229 1.4-2.053l-2.1-1.438c-1.4-1.032-2.7 1.241-1.4 2.053zm-8.2-5.66c1.39.928 2.7-1.229 1.39-2.157l-2.09-1.334c-1.4-.928-2.8 1.137-1.4 2.065zm-8.3-5.451c1.3.823 2.7-1.23 1.2-2.158l-2.1-1.334c-1.3-.823-2.69 1.23-1.3 2.158zm-8.6-5.15c1.6.823 2.61-1.439 1.3-2.262l-2.2-1.23c-1.5-.823-2.6 1.439-1.19 2.262zm-8.6-4.837c1.5.719 2.5-1.543 1.11-2.262l-2.2-1.241c-1.5-.719-2.6 1.543-1.1 2.262zm-8.9-4.524c1.5.72 2.6-1.542 1.09-2.366l-2.2-1.032c-1.39-.719-2.6 1.438-1.1 2.262zm-8.89-4.222c1.6.615 2.4-1.751.9-2.366l-2.3-1.032c-1.5-.615-2.4 1.751-.9 2.366zm-18.41-7.411c1.7.51 2.2-1.961.8-2.367l-2.4-.823c-1.7-.51-2.2 1.96-.8 2.366zm-9.4-3.086c1.5.511 2.2-1.96.7-2.47l-2.4-.719c-1.6-.418-2.3 2.053-.7 2.47zm-9.5-2.667c1.4.406 2.3-1.949.6-2.471l-2.4-.615c-1.8-.406-2.1 2.158-.6 2.471zm-9.59-2.367c1.6.314 2-2.157.5-2.47l-2.5-.511c-1.61-.313-2.1 2.158-.51 2.471zm-9.7-1.855c1.5.313 2.09-2.158.39-2.575-.8-.105-1.7-.314-2.5-.406-1.5-.314-2.1 2.157-.39 2.575.8.092 1.7.197 2.5.406zm-9.8-1.543c1.71.209 1.91-2.366.31-2.471l-2.4-.313c-1.7-.209-1.91 2.366-.31 2.471zm-9.8-1.032c1.6.104 1.9-2.367.2-2.575l-2.5-.209c-1.5-.209-1.89 2.366-.1 2.575zm-9.8-.72c1.71.105 1.61-2.47.11-2.47l-2.51-.105c-1.7-.104-1.7 2.471-.1 2.471zm-9.9-.208c1.6 0 1.7-2.575 0-2.575h-2.5c-1.5 0-1.71 2.575 0 2.575h2.5zm-9.9.208c1.81-.208 1.5-2.679-.1-2.575l-2.4.105c-1.7.104-1.5 2.679.1 2.575zm-9.79.511c1.6-.105 1.4-2.68-.2-2.575l-2.51.209c-1.6.104-1.39 2.679.21 2.575zm-9.81.928c1.5-.105 1.4-2.68-.3-2.471-.8.105-1.7.209-2.5.313-1.5.105-1.4 2.68.3 2.471.8-.105 1.6-.209 2.5-.313zm-9.79 1.334c1.7-.314 1.1-2.773-.39-2.471l-2.52.313c-1.6.418-1.1 2.888.4 2.575zm-9.81 1.751c1.6-.313 1.21-2.877-.39-2.575l-2.5.51c-1.5.314-1.11 2.784.49 2.471zm-9.6 1.96c1.5-.209 1.11-2.772-.6-2.47l-2.4.614c-1.7.418-.9 2.877.6 2.471zm-9.59 2.471c1.6-.511.9-2.981-.7-2.471l-2.4.615c-1.6.406-.9 2.877.7 2.471zm-9.6 2.679c1.6-.406 1-2.981-.7-2.47l-2.3.719c-1.5.406-1 2.876.7 2.47zm447.76-12.248c-1.5.51-.9 2.876.8 2.47l2.3-.823c1.39-.418 1-2.877-.8-2.366zM2467 493.098c1.29 1.032 2.79-1.032 1.5-1.96l-1.01-.928c-1.39-1.137-2.79 1.032-1.6 1.96zm-6.9-5.66c1.31 1.032 2.79-1.033 1.6-2.053l-2.01-1.543c-1.29-1.032-2.8.928-1.5 1.96zm-7.8-6.275c1.19 1.032 2.8-.928 1.5-1.961l-2-1.542c-1.29-1.033-2.89.928-1.49 2.053zm-8-5.869c1.4.927 2.7-1.23 1.4-2.158l-2-1.438c-1.5-.928-2.81 1.241-1.4 2.157zm-8.2-5.765c1.4.928 2.7-1.23 1.4-2.158l-2.09-1.333c-1.4-.928-2.71 1.241-1.4 2.157zm-8.3-5.452c1.31.928 2.7-1.136 1.31-2.157l-2.2-1.334c-1.2-.824-2.7 1.23-1.2 2.262zm-8.5-5.15c1.5.824 2.5-1.438 1.21-2.157l-2.2-1.334c-1.5-.719-2.6 1.543-1.2 2.262zm-8.69-4.836c1.5.719 2.6-1.439 1.09-2.262l-2.19-1.137c-1.5-.823-2.51 1.543-1.11 2.262zm-8.9-4.524c1.5.719 2.6-1.543 1.1-2.262l-2.2-1.136c-1.39-.72-2.59 1.542-1.1 2.261zm-8.91-4.222c1.6.615 2.4-1.751.91-2.366l-2.2-1.032c-1.6-.615-2.5 1.855-1 2.366zm-9.19-3.804c1.5.614 2.49-1.752.9-2.471l-2.3-.824c-1.5-.614-2.4 1.752-.9 2.367zm-9.2-3.503c1.7.51 2.2-2.053.8-2.471l-2.4-.823c-1.7-.511-2.2 1.96-.8 2.47zm-9.4-3.19c1.6.51 2.2-1.949.7-2.366l-2.4-.719c-1.6-.511-2.3 1.96-.7 2.366zm-9.5-2.668c1.4.406 2.3-1.96.6-2.47l-2.4-.615c-1.81-.406-2.11 2.157-.6 2.47zm-9.6-2.273c1.6.313 1.99-2.262.49-2.575l-2.5-.511c-1.6-.313-2 2.158-.39 2.471zm-9.69-1.949c1.5.313 2.1-2.157.39-2.47-.8-.209-1.6-.314-2.5-.511-1.4-.209-2.1 2.262-.4 2.575.91.093 1.71.302 2.51.406zm-9.81-1.543c1.7.209 1.91-2.261.31-2.47l-2.41-.313c-1.7-.209-1.9 2.366-.3 2.47zm-9.79-1.032c1.6.209 1.89-2.366.2-2.575l-2.5-.209c-1.5-.104-1.91 2.367-.1 2.575zm-9.81-.615c1.7 0 1.6-2.575.1-2.575l-2.5-.104c-1.7 0-1.7 2.471-.1 2.575zm-9.89-.313c1.6 0 1.7-2.47 0-2.575h-2.51c-1.49 0-1.7 2.575 0 2.575h2.51zm-9.9.209c1.8-.104 1.5-2.679-.1-2.575l-2.4.104c-1.7.105-1.5 2.68.1 2.575zm-9.8.51c1.6-.104 1.49-2.679-.21-2.47l-2.5.209c-1.6.104-1.4 2.575.2 2.47zm-9.8 1.033c1.5-.209 1.4-2.784-.3-2.575-.8.104-1.7.209-2.5.313-1.5.104-1.4 2.679.3 2.47.8-.104 1.6-.208 2.5-.208zm-9.8 1.229c1.7-.313 1.09-2.772-.4-2.47l-2.5.406c-1.6.313-1.1 2.783.39 2.47zm-9.81 1.752c1.6-.314 1.21-2.773-.39-2.471l-2.49.406c-1.5.313-1.11 2.877.49 2.575zm-9.59 2.064c1.5-.313 1.11-2.876-.6-2.47l-2.4.51c-1.7.51-.9 2.888.6 2.471zm-9.6 2.366c1.6-.51.9-2.876-.6-2.47l-2.5.615c-1.6.51-.9 2.876.7 2.47zm-9.5 2.668c1.5-.406.9-2.876-.7-2.47l-2.4.719c-1.5.406-1 2.981.7 2.47z" clip-rule="evenodd"/></g><g clip-path="url(#b)" opacity=".3" transform="translate(-549)"><path fill="#ccc" fill-rule="evenodd" d="M1376.39 353.823c1.08-3.718.55-3.046 7.16-4.6 5.86-1.244 3.83.64 6.76-4.494 2.59-4.71 7.71-10.864 9.65-14.479-2.62-1.928-17.2-4.8-21.55-6.923.61-.944 1.1-1.705 1.79-2.694 1.06-1.564.71-1.361 3.06-1.299 5.1.032 21.43.109 24.47-.224 2.38-3.275 8.29-12.637 11.34-14.153 1.43-.71 3.89-1.66 4.48.382 1.4 5.017-4.83 11.819-8.48 16.901-1.48 2.043-1.01 1.654-.16 4.132.86 2.705 7.66 22.072 7.4 23.412-.18.468-2.2 3.173-2.57 3.748-1.19-1.455-2.38-3.137-3.45-4.784l-6.58-9.392c-.93-1.608-2.27-3.324-3.4-4.694-1.59 2.457-3.26 4.737-4.94 7.245-8.31 12.406-8.45 7.368-7.43 15.337.5 4.467 1.74 6.607-1.95 8.024-3.51-7.497-7.98-10.848-15.6-11.445zm138.43 12.171c-3.69.819-3.04.323-5 6.934-1.75 5.763.27 3.884-5.09 6.379-4.7 2.246-11.27 6.87-15.04 8.56-1.68-2.712-3.29-17.704-5.02-22.293-.96.552-1.73.998-2.77 1.601-1.65.952-1.4.568-1.63 2.965-.35 5.195-1.48 21.652-2.16 24.659-3.5 2.141-13.05 7.41-14.87 10.244-.8 1.412-1.88 3.938.07 4.716 4.81 1.734 12.02-3.969 17.28-7.249 2.17-1.251 1.69-.856 4.12.116 2.6 1.108 21.11 9.562 22.4 9.407.48-.158 3.38-1.95 3.89-2.249-1.28-1.404-2.8-2.652-4.34-3.91l-8.77-7.402c-1.43-1.077-3.12-2.596-4.38-3.768 2.56-1.358 5.03-2.903 7.62-4.402 12.82-7.399 7.78-7.929 15.65-6.302 4.34.936 6.3 2.313 8.02-1.307-7.02-4.157-10.01-8.953-9.98-16.699zm6.63 8.291c-1.19.93-2.81-.865-1.49-1.993l1.93-1.472c1.14-1.02 2.9.815 1.58 1.937zm101.6-248.788c-.13-1.826 2.39-1.85 2.51-.255l.15 1.454c.07 1.736-2.44 1.77-2.48.114zm.78 8.941c-.08-1.736 2.38-1.861 2.47-.114l.17 2.511c.17 1.685-2.35 1.719-2.46.124zm.63 10.094c-.11-1.595 2.39-1.851 2.47-.115l.1 2.556c.11 1.595-2.31 1.8-2.53.024zm.27 10.064c.01-1.786 2.54-1.589 2.52-.024l.01 2.607c-.01 1.787-2.46 1.539-2.43-.016zm.04 10.076c.06-1.696 2.54-1.589 2.48.107l-.04 2.517c.02 1.646-2.55 1.589-2.49-.107zm-.27 10.132c.03-1.555 2.54-1.589 2.48.107l-.13 2.568c-.03 1.555-2.54 1.589-2.45-.249zm-.59 9.973c.2-1.657 2.61-1.268 2.5.338l-.19 2.477c-.2 1.657-2.7 1.318-2.5-.339zm-.9 10.028c.2-1.657 2.61-1.267 2.42.384l-.27 2.527c-.21 1.657-2.67 1.177-2.41-.389zm-1.17 9.582c.52-.893 1.88-.726 2.31.203.4.482.38 1.443-.18 1.888l-.18 1.294c-.25 1.567-2.75 1.228-2.47-.474l.02-.372-.4.106c-1.69.268-2-2.282-.4-2.5zm-1.8 10.304c.43-1.678 2.77-1.006 2.44.615l-.46 2.408c-.37 1.752-2.76 1.006-2.38-.525zm-2.04 9.857c.35-1.617 2.85-1.057 2.44.615l-.55 2.458c-.34 1.617-2.76 1.006-2.43-.615zm-2.37 9.686c.56-1.632 2.92-.735 2.4.757l-.59 2.367c-.51 1.723-2.87.826-2.49-.705zm-2.74 9.658c.48-1.587 2.87-.825 2.4.757l-.77 2.469c-.47 1.581-2.92.735-2.37-.898zm-3.11 9.403c.44-1.447 2.84-.685 2.28.938l-.83 2.378c-.64 1.684-2.94.504-2.28-.948zm-3.56 9.424c.69-1.593 2.94-.504 2.28.948l-.88 2.288c-.7 1.593-2.94.504-2.28-.948zm-3.86 9.123c.57-1.401 2.94-.503 2.24 1.079-.35.792-.69 1.593-1.1 2.294-.57 1.401-2.93.504-2.23-1.079.34-.786.73-1.497 1.09-2.294zm-4.27 9.005c.74-1.503 2.92-.147 2.2 1.22l-1.15 2.203c-.75 1.503-3.01.197-2.2-1.22zm-4.65 8.738c.71-1.361 3-.192 2.16 1.362l-1.29 2.163c-.71 1.361-2.99.192-2.16-1.361zm-5.07 8.63c.98-1.514 3.03.034 2.18 1.355l-1.29 2.164c-.94 1.372-3.08-.125-2.23-1.446zm-5.36 8.318c.85-1.321 3.03.034 2.14 1.497-.53.671-.94 1.372-1.47 2.044-.85 1.321-2.94-.085-2-1.458.4-.7.94-1.372 1.33-2.083zm-5.68 8.153c1.08-1.332 2.96.317 2.06 1.548l-1.48 2.044c-1.08 1.332-3-.397-1.96-1.599zm-5.97 7.858c.99-1.281 2.95.317 1.96 1.599l-1.61 2.004c-.91 1.231-2.96-.317-1.88-1.649zm-6.31 7.673c1.04-1.191 3.01.407 1.88 1.649-.54.671-1.08 1.333-1.67 1.914-.9 1.231-2.87-.368-1.79-1.7.54-.662 1.04-1.192 1.58-1.863zm-6.6 7.372c1.27-1.203 2.93.679 1.84 1.79l-1.72 1.823c-1.18 1.152-2.93-.679-1.75-1.841zm-6.83 7.161c1.17-1.162 2.93.679 1.75 1.841l-1.77 1.733c-1.1 1.101-2.93-.68-1.76-1.841zm-7.13 6.845c1.1-1.101 3.02.628 1.81 1.931l-1.91 1.693c-1.32 1.122-2.87-.956-1.67-1.892zm-7.23 6.669c1.23-1.071 2.8.871 1.57 1.942l-1.87 1.552c-1.32 1.122-2.9-.82-1.67-1.891zm-7.61 6.414c1.23-1.072 2.89.82 1.58 1.942l-1.88 1.552c-1.23 1.072-2.95-.911-1.63-2.033zm238.55-252.752c1.1-3.723.55-3.046 7.21-4.52 5.81-1.334 3.83.641 6.71-4.584 2.64-4.62 7.7-10.864 9.65-14.479-2.61-1.933-17.2-4.8-21.55-6.923.61-.944 1.15-1.615 1.84-2.603 1.01-1.655.66-1.452 3.01-1.38 5.1.032 21.48.205 24.47-.224 2.38-3.275 8.3-12.637 11.34-14.153 1.44-.71 3.95-1.57 4.54.472 1.4 5.018-4.84 11.82-8.49 16.901-1.47 2.044-1.06 1.564-.2 4.042.92 2.79 7.65 22.073 7.4 23.412-.11.423-2.15 3.263-2.58 3.749a48.873 48.873 0 0 1-3.39-4.694l-6.64-9.483c-.87-1.517-2.27-3.324-3.35-4.604a431.778 431.778 0 0 1-4.99 7.155c-8.31 12.406-8.36 7.318-7.42 15.337.49 4.467 1.82 6.556-1.96 8.024-3.5-7.497-7.98-10.858-15.6-11.445zm7.6 7.372c1.05-1.192-.65-2.942-1.92-1.74l-1.58 1.863c-1 1.06.65 2.942 1.93 1.739zm-253.26 82.295c-1.69-.337-1.87 2.15-.32 2.437l1.28.211c1.78.286 1.96-2.201.4-2.497zm8.81 1.453c-1.64-.246-1.96 2.201-.41 2.498l2.55.429c1.64.246 1.91-2.292.27-2.528zm9.84 1.444c-1.56-.296-1.96 2.201-.28 2.528l2.5.338c1.59.156 1.99-2.342.27-2.537zm9.91 1.173c-1.72-.196-1.73 2.417-.18 2.476l2.53.198c1.73.195 1.72-2.428.19-2.477zm9.94.799c-1.68-.105-1.73 2.417-.13 2.567l2.48.107c1.67.105 1.85-2.382.18-2.486zm9.91.574c-1.54-.065-1.72 2.411.04 2.465l2.48.108c1.54.065 1.72-2.412.05-2.517zm10.02.16c-1.8.087-1.54 2.547.01 2.607l2.52-.034c1.71-.036 1.53-2.547-.1-2.556zm9.86-.111c-1.65.127-1.39 2.587.18 2.511l2.52-.024c1.66-.126 1.49-2.637-.17-2.511zm9.98-.534c-1.66.127-1.49 2.638.23 2.596l2.42-.205c1.57-.076 1.54-2.547-.17-2.511zm9.81-.79c-1.69.268-1.2 2.717.4 2.5l2.51-.255c1.6-.217 1.2-2.717-.4-2.5zm19.64-2.783c-1.73.409-.92 2.796.49 2.449l2.49-.487c1.73-.409.93-2.796-.49-2.449zm9.69-2.028c-1.56.308-.93 2.797.63 2.489l2.43-.577c1.6-.439.97-2.928-.63-2.489zm9.56-2.44c-1.42.347-1.02 2.837.72 2.438l2.38-.668c1.77-.55.74-2.916-.72-2.438zm9.49-2.746c-1.55.529-.65 2.865.8 2.387l2.43-.809c1.54-.529.73-2.916-.8-2.393zm9.33-3.245c-1.46.478-.74 2.916.94 2.427.75-.31 1.64-.58 2.37-.899 1.46-.479.74-2.917-.94-2.427-.74.319-1.57.68-2.37.899zm9.25-3.561c-1.58.67-.46 3.002.97 2.292l2.24-.929c1.58-.67.47-3.002-.97-2.292zm9.01-4.009c-1.44.71-.47 3.002 1.11 2.332l2.27-1.07c1.41-.569.46-2.996-1.2-2.281zm8.84-4.274c-1.52.761-.15 2.94 1.15 2.191l2.22-1.161c1.52-.761.24-2.991-1.15-2.19zm8.68-4.772c-1.38.8-.18 3.081 1.29 2.23.7-.4 1.48-.851 2.17-1.251 1.3-.75.19-3.081-1.29-2.23-.79.456-1.47.851-2.17 1.251zm8.47-5.129c-1.46 1.083.04 3.07 1.38 2.18l2.02-1.291c1.42-.941-.04-3.07-1.37-2.179zm8.23-5.339c-1.34.891.13 3.02 1.46 2.129l2.06-1.432c1.34-.891-.13-3.019-1.46-2.128zm8.02-5.706c-1.24.84.13 3.019 1.5 1.988.64-.491 1.37-1.032 2.01-1.523 1.25-.839-.13-3.019-1.5-1.987-.64.49-1.28.981-2.01 1.522zm7.82-6.052c-1.32 1.122.43 2.953 1.58 1.942l2.02-1.527c1.17-1.162-.49-3.054-1.63-2.033zm7.61-6.419c-1.22 1.071.4 3.094 1.63 2.032l1.92-1.693c1.14-1.02-.44-2.963-1.67-1.891zm7.34-6.499c-1.19.93.43 2.953 1.75 1.841l1.77-1.733c1.27-1.212-.65-2.942-1.75-1.841zm7.07-6.935c-1.13 1.242.71 3.032 1.84 1.79l1.77-1.733c1.19-1.151-.65-2.942-1.84-1.79zm6.98-7.122c-1.19 1.152.62 3.083 1.84 1.79l1.63-1.772c1.09-1.101-.57-2.993-1.84-1.79zM1384 361.189c1.04-1.192-.66-2.942-1.93-1.74l-1.58 1.863c-1 1.061.57 2.993 1.88 1.649zm-253.31 82.205c-1.64-.246-1.91 2.291-.32 2.447l1.33.302c1.78.285 1.91-2.292.41-2.498zm8.8 1.453c-1.65-.241-1.9 2.291-.36 2.578l2.51.333c1.64.246 1.97-2.207.32-2.447zm9.89 1.535c-1.55-.297-1.95 2.201-.32 2.447l2.5.338c1.64.246 2.05-2.252.27-2.527zm9.87 1.081c-1.68-.104-1.73 2.418-.14 2.568l2.45.248c1.76.054 1.81-2.478.13-2.567zm9.97.896c-1.67-.105-1.71 2.412-.13 2.567l2.49.107c1.67.105 1.72-2.427.13-2.567zm9.92.568c-1.59-.15-1.77 2.337-.05 2.522l2.57.056c1.45.116 1.72-2.411-.1-2.556zm9.94.211c-1.71.036-1.45 2.497.03 2.471l2.57.057c1.66-.127 1.49-2.638-.09-2.556zm9.94-.156c-1.66.127-1.53 2.547.19 2.506l2.47-.115c1.71-.036 1.39-2.587-.18-2.511zm9.97-.534c-1.65.127-1.48 2.638.18 2.511l2.47-.115c1.57-.075 1.47-2.632-.17-2.511zm9.83-.795c-1.7.267-1.21 2.717.4 2.5l2.42-.205c1.69-.268 1.24-2.859-.32-2.551zm9.86-1.304c-1.6.217-1.28 2.762.46 2.59l2.4-.436c1.61-.217 1.2-2.717-.4-2.5zm9.72-1.565c-1.73.409-.88 2.877.54 2.54l2.49-.487c1.73-.409.92-2.797-.54-2.54zm9.73-1.937c-1.64.358-.93 2.786.58 2.398l2.44-.577c1.64-.358 1.01-2.847-.58-2.399zm9.57-2.44c-1.42.347-1.02 2.847.71 2.438l2.39-.668c1.76-.55.75-2.922-.72-2.438zm9.45-2.832c-1.54.528-.6 2.956.86 2.477l2.42-.809c1.54-.529.66-2.871-.9-2.336zm9.37-3.159c-1.46.478-.75 2.922.89 2.337.8-.22 1.54-.529 2.42-.809 1.32-.518.69-3.007-.94-2.428-.83.371-1.63.59-2.37.9zm9.26-3.567c-1.58.67-.52 2.911.97 2.292l2.24-.929c1.57-.67.46-3.002-.98-2.292zm9-4.003c-1.49.62-.46 2.996 1.11 2.332l2.27-1.07c1.35-.66.47-3.002-1.2-2.281zm8.8-4.37c-1.48.851-.1 3.03 1.2 2.281l2.21-1.161c1.48-.851.24-2.99-1.2-2.281zm8.72-4.676c-1.38.8-.24 2.99 1.29 2.23.69-.4 1.47-.851 2.17-1.251 1.29-.75.18-3.081-1.29-2.23-.78.45-1.48.851-2.17 1.251zm8.47-5.129c-1.51.992.04 3.07 1.37 2.179l2.03-1.29c1.42-.942-.04-3.07-1.38-2.18zm8.23-5.344c-1.33.89.05 3.069 1.41 2.038l2.07-1.432c1.33-.891-.08-2.929-1.41-2.038zm7.97-5.791c-1.19.93.18 3.109 1.55 2.077.64-.49 1.37-1.031 2.01-1.522 1.25-.84-.13-3.019-1.5-1.987-.64.49-1.28.981-2.06 1.432zm7.88-5.968c-1.32 1.122.44 2.948 1.57 1.943l1.97-1.603c1.23-1.071-.44-2.963-1.58-1.942zm7.61-6.419c-1.23 1.071.34 3.004 1.58 1.942l1.95-1.597c1.14-1.02-.48-3.043-1.71-1.982zm7.28-6.584c-1.15 1.021.48 3.044 1.75 1.841l1.82-1.642c1.22-1.293-.66-2.952-1.75-1.841zm7.13-6.85c-1.13 1.242.66 2.942 1.75 1.841l1.86-1.783c1.13-1.243-.66-2.942-1.84-1.791zm6.89-7.061c-1.09 1.101.66 2.942 1.84 1.79l1.72-1.823c1.1-1.101-.62-3.083-1.84-1.79z" clip-rule="evenodd"/></g><g clip-path="url(#c)" opacity=".2" transform="translate(-549)"><path fill="#ccc" fill-rule="evenodd" d="M2209.42 4385.02c-2.79 2.68-1.99 2.37-8.49.41-5.71-1.86-3-2.47-8.11.51-4.59 2.78-12.1 5.55-15.59 7.71 1.3 2.98 12.49 12.76 15.2 16.77-1 .51-1.8.93-2.9 1.44-1.7.82-1.29.82-3.3-.41-4.39-2.57-18.51-10.81-21.3-12.04-3.7 1.65-13.5 6.8-16.89 6.59-1.6-.1-4.21-.51-3.7-2.57 1.3-5.05 10.1-7.82 15.8-10.39 2.3-1.04 1.7-.93 2.2-3.51.61-2.77 4.4-22.94 5.29-23.97.4-.32 3.5-1.65 4.11-1.96.3 1.85.49 3.91.59 5.87l1.01 11.42c0 1.86.3 4.01.59 5.77 2.61-1.34 5.2-2.47 7.91-3.81 13.4-6.59 11-2.16 14.09-9.57 1.81-4.12 1.81-6.59 5.71-5.97-.71 8.25 1.48 13.38 7.78 17.71zm-113.79-79.75c3.61 1.13 2.79 1.24 7.8-3.51 4.39-4.11 1.7-3.5 7.59-2.98 5.2.41 13.2-.31 17.3.11.11 3.19-5.99 16.98-6.79 21.81h3.2c1.9 0 1.5.21 2.9-1.75 2.89-4.32 12.1-18.01 14.2-20.27 4.1-.11 15 .1 17.99-1.44 1.4-.82 3.6-2.47 2.3-4.12-3.3-3.91-12.39-2.57-18.59-2.36-2.5 0-1.9-.11-3.51-2.16-1.7-2.26-13.5-18.84-14.69-19.35-.5-.1-3.9 0-4.5 0 .4 1.86 1.1 3.7 1.8 5.56l3.9 10.8c.7 1.64 1.4 3.8 1.91 5.45-2.9-.11-5.81 0-8.81 0-14.79 0-10.69 2.98-16.7-2.37-3.29-2.98-4.29-5.15-7.59-2.88 4 7.11 4.19 12.76.29 19.46zm-1.6-10.5c1.5-.21 2 2.16.29 2.47l-2.4.31c-1.5.32-2.11-2.15-.41-2.47zm-212.38 164.66c-.8 1.64-3 .4-2.3-1.03l.6-1.34c.8-1.54 3-.31 2.2 1.14zm3.8-8.13c-.8 1.54-3 .41-2.2-1.14l1.11-2.26c.69-1.54 2.89-.31 2.19 1.12zm4.5-9.06c-.7 1.44-3 .4-2.2-1.14l1.19-2.26c.7-1.44 2.9-.41 2.2 1.24zm4.8-8.85c-.91 1.54-3 .1-2.2-1.24l1.29-2.26c.91-1.55 2.9-.11 2.1 1.22zm5-8.75c-.9 1.44-3 .11-2.1-1.33l1.3-2.16c.8-1.44 3-.1 2.1 1.34zm5.3-8.64c-.8 1.34-3 .11-2.1-1.33l1.4-2.16c.8-1.33 3-.1 1.99 1.44zm5.5-8.34c-1.01 1.34-2.9-.21-2-1.54l1.4-2.05c1-1.34 3 .2 2 1.54zm5.79-8.23c-1 1.33-2.9-.21-1.9-1.55l1.49-2.05c1.01-1.33 2.9.31 1.9 1.54zm5.8-7.72c-.9.51-1.99-.31-1.9-1.33-.1-.62.39-1.44 1.1-1.54l.8-1.04c1.01-1.23 3 .32 1.91 1.65l-.2.31.39.11c1.6.61.6 2.98-.9 2.37zm6.71-8.02c-1.21 1.24-2.9-.51-1.8-1.75l1.6-1.86c1.19-1.33 2.89.51 1.8 1.65zm6.7-7.52c-1.11 1.23-3-.51-1.81-1.75l1.7-1.86c1.11-1.23 2.9.51 1.81 1.75zm6.89-7.2c-1.29 1.13-2.89-.83-1.7-1.86l1.7-1.75c1.3-1.24 2.9.72 1.81 1.86zm7.2-7c-1.2 1.14-2.89-.72-1.7-1.85l1.91-1.75c1.19-1.14 2.89.82 1.6 1.96zm7.4-6.58c-1.11 1.03-2.8-.83-1.5-1.95l1.9-1.65c1.4-1.14 2.8 1.03 1.5 1.96zm7.8-6.38c-1.4 1.03-2.8-1.04-1.5-1.96l1.9-1.55c1.4-1.03 2.8 1.04 1.5 1.96zm7.9-5.98c-1.2.93-2.8-1.03-1.4-2.05.7-.51 1.4-1.03 2.1-1.44 1.19-.93 2.79 1.03 1.39 2.05-.68.51-1.38.93-2.09 1.44zm8.2-5.66c-1.4.93-2.6-1.33-1.29-2.16l2.09-1.33c1.4-.93 2.71 1.33 1.3 2.16zm8.4-5.24c-1.3.82-2.7-1.33-1.2-2.26l2.2-1.23c1.3-.83 2.69 1.33 1.2 2.26zm8.7-4.94c-1.6.82-2.6-1.54-1.21-2.26l2.2-1.23c1.5-.72 2.6 1.64 1.21 2.36zm8.8-4.53c-1.4.72-2.6-1.54-1.1-2.36.8-.31 1.5-.72 2.3-1.03 1.39-.72 2.5 1.54 1 2.26-.7.4-1.5.72-2.2 1.13zm8.99-4.22c-1.6.62-2.4-1.75-1-2.36l2.3-1.04c1.6-.61 2.4 1.85.9 2.37zm9.11-3.81c-1.5.61-2.4-1.75-.9-2.37l2.4-.93c1.4-.61 2.4 1.75.8 2.37zm9.3-3.49c-1.5.51-2.4-1.86-.8-2.37.8-.31 1.6-.62 2.4-.82 1.4-.62 2.3 1.75.7 2.36-.8.3-1.5.51-2.3.83zm9.4-3.09c-1.7.41-2.2-2.05-.7-2.47l2.4-.72c1.6-.41 2.2 2.05.6 2.47zm9.5-2.78c-1.6.41-2.2-2.06-.6-2.47l2.4-.62c1.5-.41 2.2 2.05.6 2.47zm9.59-2.37c-1.5.41-2.3-2.05-.6-2.57l2.51-.52c1.7-.31 2 2.27.49 2.48zm9.6-2.16c-1.6.32-1.99-2.15-.39-2.47l2.4-.4c1.7-.32 2.1 2.15.49 2.47zm9.8-1.75c-1.6.31-2.1-2.16-.4-2.47l2.4-.41c1.6-.31 2.1 2.27.4 2.58zm-332.97 99.61c-2.81 2.68-2 2.37-8.5.32-5.7-1.76-3-2.47-8.1.61-4.6 2.68-12.11 5.56-15.6 7.71 1.29 2.99 12.5 12.76 15.2 16.78-1 .51-1.8.82-2.9 1.33-1.7.93-1.29.93-3.3-.31-4.39-2.58-18.49-10.92-21.3-12.04-3.7 1.64-13.5 6.79-16.89 6.59-1.6-.11-4.21-.62-3.7-2.68 1.3-5.05 10.1-7.82 15.8-10.4 2.3-1.03 1.7-.82 2.2-3.39.6-2.88 4.41-22.95 5.3-23.98.3-.31 3.49-1.75 4.1-1.96.3 1.86.51 3.8.6 5.76l1 11.53c0 1.76.3 4.02.6 5.66 2.6-1.24 5.19-2.47 7.9-3.7 13.4-6.58 10.9-2.15 14.1-9.57 1.8-4.11 1.7-6.58 5.7-5.97-.71 8.25 1.49 13.4 7.79 17.71zm-2.9-10.18c-1.5.51-.9 2.88.8 2.47l2.3-.82c1.4-.42.9-2.88-.8-2.47zm260.48 55.36c1.3 1.14 2.69-.93 1.5-1.95l-1-.82c-1.4-1.14-2.8.93-1.6 1.96zm-6.9-5.66c1.3 1.03 2.8-.93 1.6-1.96l-1.99-1.65c-1.3-1.03-2.8 1.04-1.5 2.06zm-7.8-6.17c1.2 1.03 2.8-.93 1.5-2.05l-1.99-1.55c-1.3-.92-2.9 1.04-1.5 2.07zm-8-5.97c1.4 1.03 2.71-1.23 1.4-2.06l-2.1-1.43c-1.4-1.04-2.7 1.24-1.4 2.05zm-8.2-5.66c1.39.92 2.7-1.23 1.39-2.16l-2.09-1.34c-1.4-.92-2.8 1.14-1.4 2.07zm-8.3-5.46c1.3.83 2.7-1.22 1.2-2.15l-2.1-1.34c-1.3-.82-2.69 1.23-1.3 2.16zm-8.6-5.15c1.6.83 2.61-1.43 1.3-2.26l-2.2-1.23c-1.5-.82-2.6 1.44-1.19 2.27zm-8.6-4.83c1.5.72 2.5-1.54 1.11-2.26l-2.2-1.24c-1.5-.72-2.6 1.54-1.1 2.26zm-8.9-4.53c1.5.72 2.6-1.54 1.09-2.36l-2.2-1.03c-1.39-.72-2.6 1.43-1.1 2.26zm-8.89-4.22c1.6.62 2.4-1.75.9-2.36l-2.3-1.04c-1.5-.61-2.4 1.76-.9 2.37zm-18.41-7.41c1.7.51 2.2-1.96.8-2.37l-2.4-.82c-1.7-.51-2.2 1.96-.8 2.37zm-9.4-3.08c1.5.51 2.2-1.96.7-2.48l-2.4-.71c-1.6-.42-2.3 2.05-.7 2.47zm-9.5-2.67c1.4.4 2.3-1.95.6-2.47l-2.4-.62c-1.8-.4-2.1 2.16-.6 2.47zm-9.59-2.37c1.6.31 2-2.16.5-2.47l-2.5-.51c-1.61-.31-2.1 2.16-.51 2.47zm-9.7-1.85c1.5.31 2.09-2.16.39-2.58-.8-.1-1.7-.31-2.5-.41-1.5-.31-2.1 2.16-.39 2.58.8.09 1.7.2 2.5.41zm-9.8-1.55c1.71.21 1.91-2.36.31-2.47l-2.4-.31c-1.7-.21-1.91 2.37-.31 2.47zm-9.8-1.03c1.6.11 1.9-2.37.2-2.57l-2.5-.21c-1.5-.21-1.89 2.36-.1 2.57zm-9.8-.72c1.71.11 1.61-2.47.11-2.47l-2.51-.1c-1.7-.11-1.7 2.47-.1 2.47zm-9.9-.21c1.6 0 1.7-2.57 0-2.57h-2.5c-1.5 0-1.71 2.57 0 2.57h2.5zm-9.9.21c1.81-.21 1.5-2.68-.1-2.57l-2.4.1c-1.7.11-1.5 2.68.1 2.58zm-9.79.51c1.6-.1 1.4-2.68-.2-2.57l-2.51.21c-1.6.1-1.39 2.68.21 2.57zm-9.81.93c1.5-.1 1.4-2.68-.3-2.47l-2.5.31c-1.5.11-1.4 2.68.3 2.47.8-.1 1.6-.21 2.5-.31zm-9.79 1.33c1.7-.31 1.1-2.77-.39-2.47l-2.52.32c-1.6.41-1.1 2.88.4 2.57zm-9.81 1.76c1.6-.32 1.21-2.88-.39-2.58l-2.5.51c-1.5.31-1.11 2.78.49 2.47zm-9.6 1.96c1.5-.21 1.11-2.78-.6-2.48l-2.4.62c-1.7.42-.9 2.88.6 2.47zm-9.59 2.47c1.6-.51.9-2.99-.7-2.47l-2.4.61c-1.6.41-.9 2.88.7 2.47zm-9.6 2.68c1.6-.41 1-2.99-.7-2.48l-2.3.72c-1.5.41-1 2.88.7 2.47zm447.76-12.25c-1.5.51-.9 2.87.8 2.47l2.3-.83c1.39-.41 1-2.87-.8-2.36zM2467 4430.3c1.29 1.04 2.79-1.03 1.5-1.96l-1.01-.93c-1.39-1.13-2.79 1.04-1.6 1.97zm-6.9-5.66c1.31 1.03 2.79-1.03 1.6-2.05l-2.01-1.54c-1.29-1.04-2.8.92-1.5 1.96zm-7.8-6.27c1.19 1.03 2.8-.93 1.5-1.96l-2-1.55c-1.29-1.03-2.89.93-1.49 2.06zm-8-5.87c1.4.93 2.7-1.23 1.4-2.16l-2-1.44c-1.5-.93-2.81 1.24-1.4 2.16zm-8.2-5.77c1.4.93 2.7-1.23 1.4-2.15l-2.09-1.34c-1.4-.93-2.71 1.24-1.4 2.16zm-8.3-5.45c1.31.93 2.7-1.13 1.31-2.16l-2.2-1.33c-1.2-.82-2.7 1.23-1.2 2.26zm-8.5-5.15c1.5.83 2.5-1.44 1.21-2.15l-2.2-1.34c-1.5-.72-2.6 1.54-1.2 2.26zm-8.69-4.83c1.5.71 2.6-1.44 1.09-2.27l-2.19-1.13c-1.5-.83-2.51 1.54-1.11 2.26zm-8.9-4.53c1.5.72 2.6-1.54 1.1-2.26l-2.2-1.14c-1.39-.72-2.59 1.55-1.1 2.27zm-8.91-4.22c1.6.61 2.4-1.75.91-2.37l-2.2-1.03c-1.6-.61-2.5 1.86-1 2.37zm-9.19-3.8c1.5.61 2.49-1.76.9-2.47l-2.3-.83c-1.5-.61-2.4 1.75-.9 2.37zm-9.2-3.51c1.7.51 2.2-2.05.8-2.47l-2.4-.82c-1.7-.51-2.2 1.96-.8 2.47zm-9.4-3.19c1.6.51 2.2-1.95.7-2.36l-2.4-.72c-1.6-.51-2.3 1.96-.7 2.36zm-9.5-2.66c1.4.4 2.3-1.96.6-2.48l-2.4-.61c-1.81-.41-2.11 2.16-.6 2.47zm-9.6-2.28c1.6.32 1.99-2.26.49-2.57l-2.5-.51c-1.6-.32-2 2.15-.39 2.47zm-9.69-1.95c1.5.32 2.1-2.15.39-2.47-.8-.21-1.6-.31-2.5-.51-1.4-.21-2.1 2.26-.4 2.58.91.09 1.71.3 2.51.4zm-9.81-1.54c1.7.21 1.91-2.26.31-2.47l-2.41-.31c-1.7-.21-1.9 2.36-.3 2.47zm-9.79-1.03c1.6.21 1.89-2.37.2-2.58l-2.5-.21c-1.5-.1-1.91 2.37-.1 2.58zm-9.81-.62c1.7 0 1.6-2.57.1-2.57l-2.5-.11c-1.7 0-1.7 2.47-.1 2.58zm-9.89-.31c1.6 0 1.7-2.47 0-2.57h-2.51c-1.49 0-1.7 2.57 0 2.57h2.51zm-9.9.21c1.8-.11 1.5-2.68-.1-2.58l-2.4.11c-1.7.1-1.5 2.68.1 2.57zm-9.8.51c1.6-.1 1.49-2.68-.21-2.47l-2.5.21c-1.6.1-1.4 2.57.2 2.47zm-9.8 1.03c1.5-.21 1.4-2.78-.3-2.57l-2.5.31c-1.5.1-1.4 2.68.3 2.47.8-.1 1.6-.21 2.5-.21zm-9.8 1.23c1.7-.31 1.09-2.77-.4-2.47l-2.5.41c-1.6.31-1.1 2.78.39 2.47zm-9.81 1.75c1.6-.31 1.21-2.77-.39-2.47l-2.49.41c-1.5.31-1.11 2.87.49 2.57zm-9.59 2.07c1.5-.32 1.11-2.88-.6-2.47l-2.4.51c-1.7.51-.9 2.89.6 2.47zm-9.6 2.36c1.6-.51.9-2.87-.6-2.47l-2.5.62c-1.6.51-.9 2.87.7 2.47zm-9.5 2.67c1.5-.4.9-2.88-.7-2.47l-2.4.72c-1.5.41-1 2.98.7 2.47z" clip-rule="evenodd"/></g><g clip-path="url(#d)" opacity=".2" transform="translate(-549)"><path fill="#ccc" fill-rule="evenodd" d="M2298.33 1722.45c-2.67-2.8-2.36-2-.38-8.5 1.87-5.7 2.47-2.99-.49-8.1-2.77-4.61-5.53-12.12-7.67-15.62-2.99 1.3-12.8 12.46-16.82 15.16-.5-1.01-.92-1.81-1.43-2.9-.82-1.71-.82-1.3.42-3.31 2.58-4.38 10.86-18.47 12.09-21.26-1.63-3.7-6.76-13.52-6.54-16.92.11-1.6.52-4.2 2.59-3.69 5.04 1.31 7.79 10.12 10.35 15.83 1.02 2.31.92 1.71 3.49 2.21 2.77.62 22.93 4.47 23.96 5.36.32.4 1.64 3.5 1.95 4.11-1.85.3-3.91.48-5.87.58l-11.42.97c-1.86 0-4.02.3-5.77.59 1.33 2.6 2.46 5.2 3.78 7.91 6.55 13.41 2.13 11 9.53 14.12 4.12 1.82 6.59 1.82 5.96 5.72-8.24-.73-13.39 1.45-17.73 7.74zm80.06-113.58c-1.15 3.6-1.25 2.79 3.48 7.81 4.11 4.4 3.5 1.71 2.96 7.6-.42 5.2.28 13.2-.15 17.3-3.19.09-16.96-6.04-21.8-6.85 0 1.1 0 1.99-.01 3.2 0 1.9-.21 1.49 1.75 2.9 4.31 2.91 17.98 12.15 20.23 14.25.1 4.11-.14 15 1.39 18.01.82 1.39 2.46 3.6 4.11 2.31 3.92-3.3 2.61-12.4 2.42-18.59.01-2.51.11-1.9 2.17-3.5 2.26-1.7 18.87-13.45 19.38-14.65.11-.49.01-3.9.02-4.49-1.86.4-3.71 1.09-5.56 1.78l-10.81 3.87c-1.65.7-3.81 1.39-5.46 1.89.11-2.89.02-5.8.02-8.8.04-14.8-2.95-10.7 2.41-16.69 2.99-3.29 5.17-4.28 2.9-7.59-7.12 3.98-12.77 4.16-19.45.24zm10.5-1.57c.2 1.5-2.16 2-2.47.28l-.31-2.4c-.31-1.5 2.17-2.1 2.47-.4zm-164.09-212.82c-1.64-.81-.4-3 1.04-2.3l1.33.6c1.54.81.31 3-1.14 2.2zm8.12 3.82c-1.54-.81-.41-3 1.15-2.2l2.25 1.11c1.54.71.31 2.9-1.13 2.2zm9.05 4.52c-1.44-.7-.4-3 1.14-2.2l2.26 1.2c1.44.71.4 2.9-1.25 2.2zm8.84 4.82c-1.54-.9-.1-3 1.24-2.19l2.26 1.3c1.54.91.1 2.9-1.23 2.09zm8.73 5.03c-1.44-.91-.1-3 1.34-2.09l2.15 1.3c1.44.8.1 3-1.34 2.09zm8.63 5.32c-1.34-.8-.1-3 1.34-2.09l2.15 1.4c1.33.8.1 3-1.44 1.99zm8.32 5.52c-1.33-1 .22-2.89 1.55-1.99l2.05 1.4c1.33 1.01-.22 3-1.55 2zm8.22 5.82c-1.33-1.01.22-2.9 1.55-1.9l2.05 1.5c1.33 1.01-.32 2.9-1.55 1.89zm7.7 5.82c-.51-.9.32-1.99 1.34-1.9.61-.1 1.43.4 1.54 1.11l1.03.8c1.22 1.01-.32 3-1.66 1.9l-.31-.2-.1.39c-.62 1.6-2.99.59-2.37-.9zm8.01 6.73c-1.24-1.21.51-2.9 1.75-1.8l1.85 1.61c1.33 1.19-.51 2.89-1.65 1.8zm7.49 6.71c-1.22-1.1.52-2.99 1.76-1.79l1.85 1.7c1.23 1.11-.52 2.9-1.75 1.8zm7.19 6.92c-1.13-1.3.83-2.89 1.86-1.7l1.75 1.71c1.23 1.3-.73 2.9-1.86 1.8zm6.97 7.22c-1.13-1.21.73-2.89 1.86-1.69l1.75 1.9c1.13 1.2-.83 2.9-1.96 1.6zm6.57 7.41c-1.03-1.1.83-2.79 1.95-1.49l1.65 1.91c1.13 1.4-1.04 2.79-1.97 1.49zm6.36 7.82c-1.03-1.4 1.04-2.79 1.96-1.49l1.54 1.9c1.03 1.4-1.04 2.8-1.96 1.5zm5.95 7.92c-.92-1.2 1.04-2.8 2.06-1.4.51.7 1.03 1.4 1.43 2.1.93 1.2-1.04 2.8-2.05 1.4-.51-.69-.93-1.39-1.44-2.1zm5.64 8.22c-.92-1.4 1.34-2.6 2.16-1.29l1.33 2.1c.92 1.4-1.34 2.7-2.16 1.29zm5.22 8.41c-.82-1.3 1.34-2.69 2.27-1.19l1.22 2.2c.82 1.3-1.34 2.69-2.27 1.19zm4.92 8.71c-.82-1.6 1.55-2.6 2.26-1.2l1.23 2.2c.71 1.5-1.66 2.6-2.37 1.2zm4.5 8.81c-.72-1.4 1.55-2.6 2.37-1.09.31.8.71 1.5 1.02 2.3.72 1.4-1.55 2.5-2.26.99-.4-.7-.72-1.5-1.13-2.2zm4.2 9.01c-.61-1.6 1.75-2.4 2.37-1l1.02 2.3c.61 1.61-1.85 2.4-2.37.9zm3.79 9.12c-.61-1.5 1.76-2.4 2.37-.9l.92 2.4c.61 1.4-1.76 2.4-2.37.8zm3.46 9.3c-.5-1.5 1.87-2.39 2.37-.79.31.8.61 1.6.82 2.4.61 1.4-1.76 2.3-2.37.69-.3-.8-.5-1.5-.82-2.3zm3.06 9.41c-.4-1.7 2.06-2.19 2.48-.69l.71 2.4c.4 1.6-2.06 2.19-2.47.59zm2.76 9.51c-.41-1.6 2.06-2.19 2.48-.59l.6 2.4c.41 1.5-2.06 2.19-2.47.59zm2.34 9.6c-.4-1.5 2.06-2.3 2.58-.59l.5 2.5c.31 1.7-2.26 2-2.47.49zm2.13 9.6c-.3-1.6 2.17-1.98 2.48-.38l.4 2.4c.3 1.7-2.17 2.09-2.48.49zm1.73 9.8c-.31-1.6 2.16-2.09 2.47-.38l.4 2.4c.31 1.6-2.27 2.09-2.57.38zm-98.72-333.23c-2.67-2.82-2.36-2-.29-8.5 1.77-5.7 2.48-2.99-.59-8.11-2.67-4.6-5.52-12.12-7.67-15.62-2.99 1.29-12.79 12.47-16.82 15.16-.5-1-.81-1.8-1.32-2.9-.92-1.7-.93-1.3.32-3.3 2.59-4.39 10.97-18.46 12.1-21.27-1.64-3.7-6.76-13.52-6.55-16.91.11-1.6.63-4.2 2.69-3.69 5.05 1.31 7.79 10.12 10.35 15.83 1.03 2.3.82 1.7 3.4 2.21 2.87.6 22.93 4.47 23.96 5.36.31.3 1.74 3.5 1.95 4.11-1.86.3-3.81.49-5.77.58l-11.53.97c-1.75 0-4.02.29-5.66.58 1.23 2.61 2.45 5.2 3.68 7.91 6.55 13.42 2.12 10.91 9.53 14.13 4.11 1.81 6.58 1.72 5.95 5.72-8.24-.74-13.4 1.45-17.73 7.74zm10.19-2.87c-.5-1.5-2.87-.91-2.47.79l.82 2.3c.41 1.4 2.87.91 2.47-.79zm-56.06 260.33c-1.14 1.29.92 2.69 1.95 1.5l.82-1c1.14-1.39-.92-2.8-1.95-1.6zm5.68-6.88c-1.03 1.29.92 2.79 1.96 1.6l1.65-1.99c1.04-1.29-1.02-2.8-2.05-1.5zm6.19-7.79c-1.03 1.19.92 2.8 2.05 1.51l1.55-1.99c.93-1.3-1.02-2.9-2.06-1.51zm6-7.98c-1.04 1.39 1.22 2.71 2.05 1.4l1.44-2.09c1.04-1.4-1.23-2.71-2.05-1.41zm5.68-8.19c-.93 1.39 1.22 2.71 2.15 1.4l1.34-2.09c.94-1.4-1.13-2.8-2.06-1.41zm5.47-8.28c-.82 1.29 1.23 2.69 2.16 1.2l1.34-2.1c.83-1.29-1.22-2.69-2.16-1.3zm5.18-8.59c-.83 1.6 1.43 2.61 2.26 1.3l1.23-2.19c.83-1.5-1.43-2.61-2.26-1.2zm4.86-8.58c-.73 1.49 1.53 2.5 2.26 1.11l1.24-2.2c.73-1.5-1.53-2.61-2.26-1.11zm4.54-8.9c-.72 1.5 1.54 2.61 2.37 1.1l1.04-2.19c.72-1.4-1.43-2.61-2.26-1.11zm4.25-8.88c-.62 1.6 1.75 2.41 2.36.91l1.04-2.3c.62-1.49-1.74-2.4-2.36-.9zm7.46-18.38c-.51 1.7 1.96 2.2 2.37.81l.83-2.4c.51-1.7-1.96-2.21-2.37-.81zm3.11-9.39c-.51 1.5 1.96 2.2 2.47.7l.73-2.4c.42-1.59-2.05-2.3-2.47-.7zm2.7-9.5c-.41 1.4 1.94 2.31 2.46.61l.63-2.4c.41-1.8-2.16-2.1-2.47-.61zm2.39-9.58c-.32 1.6 2.15 2 2.47.5l.51-2.5c.32-1.6-2.15-2.1-2.47-.51zm1.88-9.7c-.32 1.5 2.15 2.1 2.57.4.11-.8.32-1.7.42-2.5.31-1.5-2.16-2.1-2.58-.4-.09.8-.2 1.7-.41 2.5zm1.57-9.79c-.21 1.7 2.36 1.91 2.47.31l.32-2.4c.21-1.7-2.36-1.91-2.47-.31zm1.06-9.8c-.11 1.6 2.36 1.91 2.57.21l.22-2.5c.21-1.5-2.36-1.9-2.58-.11zm.74-9.79c-.11 1.7 2.47 1.6 2.47.1l.11-2.5c.11-1.7-2.46-1.71-2.47-.11zm.24-9.91c-.01 1.6 2.57 1.71 2.57.01 0-.8.01-1.7.01-2.5 0-1.5-2.57-1.71-2.58-.01v2.5zm-.18-9.9c.2 1.81 2.67 1.51 2.57-.09l-.1-2.4c-.1-1.7-2.67-1.51-2.57.09zm-.49-9.79c.1 1.6 2.68 1.4 2.58-.2l-.2-2.5c-.11-1.6-2.68-1.4-2.58.2zm-.9-9.81c.1 1.5 2.68 1.41 2.47-.3-.1-.8-.2-1.7-.31-2.5-.1-1.5-2.67-1.4-2.47.3.11.8.21 1.6.31 2.5zm-1.31-9.8c.31 1.71 2.77 1.12 2.47-.38l-.3-2.52c-.42-1.6-2.89-1.11-2.58.39zm-1.72-9.81c.31 1.61 2.87 1.22 2.57-.38l-.5-2.51c-.31-1.5-2.78-1.11-2.47.49zm-1.94-9.6c.21 1.5 2.77 1.11 2.48-.59l-.61-2.41c-.42-1.7-2.88-.91-2.48.59zm-2.44-9.6c.5 1.6 2.98.91 2.47-.69l-.61-2.41c-.4-1.6-2.87-.9-2.47.7zm-2.66-9.61c.41 1.6 2.98 1.01 2.48-.69l-.72-2.3c-.4-1.5-2.87-1.01-2.47.69zm11.05 447.79c-.51-1.5-2.87-.91-2.47.79l.82 2.3c.41 1.4 2.87 1.02 2.36-.79zm-56.16 260.33c-1.04 1.29 1.02 2.8 1.95 1.5l.93-1c1.14-1.39-1.02-2.8-1.95-1.6zm5.67-6.88c-1.03 1.3 1.03 2.79 2.05 1.6l1.55-2c1.04-1.29-.92-2.81-1.96-1.5zm6.3-7.79c-1.04 1.2.92 2.8 1.96 1.51l1.54-1.99c1.04-1.3-.92-2.9-2.04-1.51zm5.89-7.98c-.93 1.39 1.22 2.71 2.15 1.4l1.45-1.99c.93-1.5-1.24-2.81-2.16-1.4zm5.79-8.18c-.93 1.4 1.22 2.7 2.15 1.4l1.34-2.09c.93-1.39-1.23-2.71-2.15-1.4zm5.47-8.29c-.93 1.3 1.13 2.71 2.16 1.31l1.33-2.19c.83-1.19-1.22-2.7-2.25-1.2zm5.17-8.48c-.82 1.49 1.44 2.5 2.16 1.21l1.34-2.2c.72-1.49-1.54-2.6-2.26-1.2zm4.86-8.68c-.72 1.5 1.44 2.61 2.26 1.1l1.15-2.2c.82-1.49-1.54-2.5-2.26-1.11zm4.55-8.89c-.72 1.49 1.54 2.6 2.26 1.11l1.14-2.2c.73-1.39-1.53-2.59-2.26-1.11zm4.25-8.89c-.62 1.59 1.74 2.4 2.36.9l1.04-2.19c.62-1.6-1.85-2.51-2.36-1.01zm3.83-9.19c-.62 1.5 1.74 2.49 2.46.91l.83-2.3c.62-1.5-1.74-2.41-2.36-.91zm3.52-9.19c-.51 1.7 2.05 2.2 2.47.81l.83-2.4c.52-1.7-1.95-2.2-2.47-.81zm3.22-9.39c-.52 1.6 1.94 2.2 2.36.71l.73-2.4c.51-1.6-1.96-2.31-2.37-.71zm2.69-9.49c-.41 1.39 1.96 2.3 2.47.6l.62-2.4c.41-1.8-2.15-2.11-2.47-.6zm2.3-9.6c-.32 1.6 2.26 2 2.58.5l.51-2.5c.32-1.6-2.15-2.01-2.47-.4zm1.98-9.69c-.32 1.5 2.15 2.12 2.47.4.21-.79.31-1.59.51-2.5.22-1.39-2.25-2.1-2.57-.4-.1.9-.31 1.7-.41 2.5zm1.57-9.8c-.22 1.7 2.25 1.91 2.46.31l.32-2.4c.22-1.7-2.36-1.91-2.47-.31zm1.05-9.79c-.21 1.6 2.36 1.9 2.58.21l.21-2.5c.11-1.5-2.36-1.91-2.57-.11zm.64-9.8c0 1.7 2.58 1.61 2.58.11l.11-2.51c.01-1.7-2.47-1.7-2.57-.1zm.34-9.9c0 1.6 2.47 1.71 2.58.01 0-.8 0-1.7.01-2.5 0-1.5-2.57-1.71-2.58-.01 0 .9 0 1.7-.01 2.5zm-.18-9.89c.1 1.8 2.68 1.5 2.58-.1l-.1-2.4c-.1-1.7-2.68-1.5-2.58.1zm-.48-9.81c.1 1.6 2.67 1.51 2.47-.19l-.2-2.51c-.1-1.6-2.57-1.4-2.47.2zm-1.01-9.8c.21 1.5 2.78 1.41 2.58-.29-.1-.8-.21-1.71-.31-2.51-.1-1.49-2.67-1.4-2.47.3.1.8.2 1.6.2 2.5zm-1.2-9.8c.31 1.7 2.77 1.1 2.47-.39l-.4-2.5c-.31-1.61-2.78-1.12-2.47.38zm-1.73-9.81c.31 1.6 2.77 1.21 2.48-.39l-.4-2.49c-.31-1.5-2.88-1.12-2.58.49zm-2.03-9.6c.3 1.5 2.87 1.11 2.47-.59l-.51-2.4c-.5-1.71-2.88-.91-2.47.59zm-2.35-9.61c.51 1.6 2.88.91 2.48-.59l-.61-2.5c-.51-1.6-2.88-.91-2.47.69zm-2.64-9.51c.4 1.5 2.88.91 2.47-.69l-.71-2.4c-.4-1.5-2.98-1.01-2.47.69z" clip-rule="evenodd"/></g><g clip-path="url(#e)" opacity=".2" transform="translate(-549)"><path fill="#ccc" fill-rule="evenodd" d="M688.894 1455.88c-2.676 2.8-2.364 2-.393 8.5 1.864 5.7 2.475 3-.498 8.11-2.777 4.6-5.537 12.11-7.689 15.61-2.983-1.31-12.778-12.48-16.796-15.18-.509 1-.925 1.8-1.434 2.9-.821 1.7-.821 1.29.411 3.3 2.582 4.39 10.839 18.49 12.073 21.28-1.641 3.7-6.776 13.51-6.562 16.91.107 1.6.517 4.2 2.581 3.69 5.043-1.31 7.802-10.11 10.368-15.82 1.029-2.3.925-1.7 3.499-2.2 2.772-.61 22.936-4.44 23.967-5.34.313-.39 1.642-3.49 1.954-4.1-1.856-.3-3.91-.49-5.87-.59l-11.426-.98c-1.856 0-4.014-.3-5.766-.59 1.33-2.61 2.462-5.2 3.792-7.91 6.568-13.41 2.141-11 9.547-14.11 4.115-1.81 6.586-1.82 5.965-5.72-8.246.73-13.387-1.46-17.723-7.76zm79.93 113.68c-1.142-3.61-1.246-2.8 3.491-7.81 4.11-4.4 3.5-1.7 2.969-7.6-.414-5.19.293-13.2-.131-17.3-3.19-.09-16.972 6.02-21.807 6.83l-.005-3.2c-.003-1.9-.211-1.5 1.747-2.9 4.322-2.9 17.994-12.13 20.253-14.23.098-4.1-.128-15 1.41-18 .821-1.4 2.465-3.6 4.114-2.31 3.914 3.3 2.594 12.4 2.395 18.6.004 2.5.107 1.89 2.163 3.5 2.264 1.7 18.857 13.47 19.37 14.66.105.5.006 3.9.007 4.5-1.857-.4-3.702-1.1-5.559-1.79l-10.805-3.89c-1.648-.69-3.806-1.39-5.454-1.89.109 2.89.009 5.8.013 8.8.023 14.8-2.964 10.7 2.392 16.7 2.986 3.28 5.157 4.28 2.889 7.59-7.117-3.99-12.766-4.17-19.452-.26zm10.499 1.58c.207-1.5-2.16-2-2.471-.29l-.309 2.4c-.311 1.5 2.161 2.11 2.471.4zm-164.33 212.63c-1.646.81-.401 3 1.036 2.3l1.333-.6c1.541-.8.309-3-1.14-2.19zm8.125-3.81c-1.541.81-.413 3 1.14 2.2l2.26-1.11c1.542-.7.309-2.9-1.128-2.2zm9.052-4.51c-1.437.7-.401 3 1.14 2.2l2.26-1.2c1.437-.7.402-2.9-1.244-2.2zm8.843-4.81c-1.542.9-.1 2.99 1.244 2.19l2.26-1.3c1.541-.9.1-2.89-1.233-2.09zm8.737-5.02c-1.436.9-.099 3 1.338 2.09l2.155-1.3c1.437-.8.1-2.99-1.337-2.09zm8.633-5.31c-1.332.8-.099 3 1.338 2.09l2.155-1.4c1.332-.8.1-3-1.442-1.99zm8.332-5.51c-1.333 1 .213 2.89 1.545 1.99l2.051-1.4c1.333-1.01-.213-3-1.546-1.99zm8.226-5.81c-1.332 1.01.213 2.9 1.545 1.9l2.051-1.5c1.332-1-.317-2.9-1.545-1.89zm7.704-5.82c-.509.91.316 2 1.337 1.91.615.1 1.438-.4 1.541-1.11l1.031-.8c1.228-1.01-.318-3-1.65-1.9l-.313.2-.105-.39c-.617-1.6-2.982-.6-2.365.9zm8.016-6.71c-1.239 1.2.515 2.89 1.755 1.8l1.853-1.61c1.332-1.19-.515-2.89-1.65-1.8zm7.506-6.71c-1.228 1.11.515 3 1.754 1.8l1.853-1.7c1.228-1.11-.514-2.9-1.754-1.8zm7.192-6.91c-1.134 1.3.828 2.9 1.859 1.7l1.749-1.7c1.239-1.3-.724-2.9-1.859-1.8zm6.983-7.21c-1.134 1.21.724 2.89 1.859 1.7l1.748-1.91c1.135-1.2-.828-2.89-1.962-1.6zm6.577-7.4c-1.03 1.1.828 2.79 1.951 1.49l1.644-1.91c1.135-1.4-1.036-2.79-1.962-1.49zm6.367-7.81c-1.03 1.4 1.037 2.79 1.963 1.49l1.54-1.9c1.03-1.4-1.037-2.8-1.963-1.5zm5.962-7.91c-.926 1.19 1.036 2.79 2.055 1.39.509-.7 1.03-1.4 1.435-2.1.926-1.19-1.037-2.79-2.055-1.39-.51.69-.926 1.39-1.435 2.1zm5.647-8.22c-.925 1.4 1.338 2.6 2.16 1.3l1.33-2.1c.926-1.4-1.338-2.71-2.159-1.3zm5.23-8.4c-.821 1.3 1.338 2.69 2.264 1.19l1.226-2.2c.821-1.3-1.338-2.69-2.264-1.19zm4.928-8.71c-.821 1.6 1.546 2.6 2.263 1.2l1.226-2.2c.717-1.5-1.651-2.6-2.368-1.2zm4.51-8.81c-.717 1.4 1.546 2.6 2.368 1.1.312-.8.716-1.5 1.028-2.3.717-1.4-1.546-2.5-2.263-1-.405.7-.717 1.5-1.133 2.2zm4.208-9c-.612 1.6 1.755 2.4 2.368 1l1.028-2.3c.613-1.6-1.848-2.4-2.367-.9zm3.802-9.11c-.613 1.5 1.755 2.4 2.367.9l.925-2.41c.612-1.39-1.756-2.39-2.368-.79zm3.477-9.3c-.508 1.49 1.859 2.39 2.367.79.312-.8.612-1.6.82-2.4.612-1.4-1.755-2.3-2.367-.7-.301.81-.508 1.5-.82 2.31zm3.07-9.41c-.403 1.7 2.057 2.2 2.472.7l.716-2.41c.403-1.6-2.057-2.19-2.472-.59zm2.77-9.5c-.416 1.6 2.056 2.19 2.471.59l.611-2.4c.404-1.5-2.056-2.2-2.471-.6zm2.351-9.6c-.404 1.5 2.056 2.3 2.576.59l.506-2.5c.311-1.7-2.265-2-2.471-.49zm2.142-9.6c-.31 1.6 2.161 1.99 2.472.39l.402-2.41c.31-1.7-2.161-2.09-2.471-.49zm1.737-9.8c-.311 1.6 2.16 2.09 2.471.39l.402-2.4c.311-1.6-2.265-2.09-2.575-.39zm-99.097 333.12c-2.675 2.81-2.363 2-.3 8.5 1.76 5.7 2.475 3-.602 8.11-2.673 4.6-5.537 12.11-7.689 15.61-2.983-1.3-12.779-12.48-16.796-15.18-.509 1-.821 1.8-1.329 2.9-.926 1.7-.926 1.29.318 3.3 2.582 4.39 10.943 18.48 12.072 21.28-1.641 3.7-6.776 13.51-6.562 16.9.107 1.6.622 4.21 2.685 3.7 5.044-1.31 7.803-10.11 10.369-15.82 1.028-2.3.821-1.7 3.395-2.2 2.875-.6 22.936-4.45 23.967-5.34.312-.3 1.746-3.49 1.953-4.1-1.856-.3-3.805-.5-5.765-.59l-11.531-.99c-1.751.01-4.014-.29-5.661-.58 1.237-2.61 2.462-5.2 3.688-7.91 6.567-13.41 2.14-10.9 9.547-14.11 4.115-1.81 6.585-1.72 5.965-5.72-8.246.73-13.4-1.46-17.724-7.76zm10.188 2.88c-.508 1.5-2.875.91-2.472-.79l.82-2.3c.416-1.4 2.876-.91 2.472.79zm-55.764-260.39c-1.139-1.29.923-2.7 1.946-1.5l.825 1c1.139 1.4-.923 2.8-1.958 1.6zm5.671 6.89c-1.035-1.3.923-2.8 1.957-1.6l1.651 1.99c1.034 1.29-1.028 2.79-2.051 1.5zm6.182 7.79c-1.034-1.2.924-2.8 2.051-1.5l1.546 1.99c.93 1.29-1.028 2.9-2.062 1.5zm5.986 7.99c-1.034-1.4 1.226-2.71 2.051-1.4l1.442 2.09c1.034 1.4-1.237 2.71-2.051 1.4zm5.673 8.2c-.93-1.4 1.225-2.71 2.155-1.4l1.338 2.09c.93 1.4-1.133 2.8-2.063 1.4zm5.464 8.28c-.825-1.29 1.226-2.69 2.156-1.19l1.337 2.09c.826 1.29-1.225 2.69-2.155 1.3zm5.164 8.59c-.826-1.59 1.434-2.6 2.26-1.3l1.232 2.2c.826 1.5-1.434 2.61-2.26 1.2zm4.85 8.6c-.722-1.5 1.539-2.51 2.26-1.11l1.244 2.19c.722 1.5-1.538 2.61-2.26 1.11zm4.537 8.89c-.721-1.5 1.539-2.6 2.365-1.09l1.035 2.19c.722 1.4-1.434 2.61-2.26 1.11zm4.236 8.89c-.617-1.6 1.748-2.4 2.365-.91l1.036 2.3c.617 1.5-1.748 2.4-2.365.91zm7.44 18.39c-.513-1.7 1.957-2.2 2.365-.8l.827 2.4c.513 1.7-1.957 2.2-2.365.8zm3.1 9.4c-.513-1.5 1.957-2.2 2.469-.71l.723 2.4c.42 1.6-2.049 2.31-2.469.71zm2.682 9.49c-.408-1.39 1.945-2.3 2.47-.6l.619 2.4c.408 1.8-2.155 2.1-2.47.6zm2.381 9.59c-.315-1.6 2.155-2 2.47-.5l.514 2.5c.316 1.6-2.154 2.1-2.469.51zm1.871 9.7c-.315-1.5 2.154-2.1 2.575-.4.105.8.315 1.7.409 2.5.316 1.5-2.154 2.1-2.574.4-.094-.8-.2-1.7-.41-2.5zm1.558 9.79c-.211-1.7 2.363-1.91 2.47-.31l.317 2.4c.211 1.71-2.363 1.91-2.47.31zm1.048 9.81c-.107-1.6 2.363-1.91 2.574-.21l.213 2.5c.211 1.5-2.363 1.9-2.575.11zm.734 9.79c-.107-1.7 2.468-1.61 2.47-.11l.108 2.51c.108 1.7-2.467 1.7-2.47.1zm.224 9.91c-.003-1.61 2.572-1.71 2.575-.01l.004 2.5c.002 1.5-2.573 1.71-2.575.01l-.004-2.5zm-.194 9.89c.206-1.8 2.677-1.5 2.576.1l-.101 2.4c-.102 1.7-2.677 1.5-2.575-.1zm-.495 9.8c.102-1.6 2.677-1.41 2.575.19l-.204 2.51c-.102 1.6-2.678 1.4-2.576-.2zm-.913 9.8c.103-1.5 2.678-1.4 2.472.3-.104.8-.207 1.7-.31 2.51-.102 1.49-2.677 1.4-2.471-.31.103-.8.206-1.6.309-2.5zm-1.318 9.8c.31-1.7 2.77-1.11 2.471.39l-.309 2.51c-.415 1.6-2.887 1.11-2.576-.39zm-1.737 9.81c.311-1.6 2.875-1.21 2.576.39l-.506 2.5c-.311 1.5-2.782 1.11-2.472-.49zm-1.945 9.6c.207-1.5 2.771-1.11 2.472.59l-.611 2.41c-.415 1.7-2.876.9-2.472-.6zm-2.456 9.6c.508-1.6 2.98-.91 2.472.69l-.611 2.4c-.404 1.6-2.875.91-2.472-.69zm-2.664 9.6c.403-1.6 2.979-1.01 2.471.7l-.715 2.3c-.404 1.5-2.875 1.01-2.472-.7zm11.556-447.77c-.508 1.5-2.875.9-2.472-.8l.82-2.3c.415-1.4 2.875-1.01 2.367.8zm-55.869-260.4c-1.034-1.29 1.028-2.79 1.958-1.5l.929 1c1.139 1.4-1.028 2.8-1.957 1.61zm5.671 6.89c-1.034-1.3 1.028-2.8 2.05-1.6l1.546 2c1.034 1.3-.923 2.81-1.958 1.5zm6.287 7.79c-1.034-1.19.924-2.8 1.958-1.5l1.546 1.99c1.034 1.3-.924 2.9-2.051 1.5zm5.881 7.99c-.93-1.39 1.226-2.7 2.156-1.4l1.441 2c.93 1.49-1.237 2.8-2.155 1.4zm5.778 8.19c-.93-1.4 1.225-2.7 2.155-1.4l1.337 2.09c.93 1.4-1.237 2.71-2.155 1.4zm5.464 8.3c-.93-1.31 1.133-2.71 2.155-1.32l1.338 2.2c.825 1.19-1.226 2.7-2.26 1.2zm5.163 8.49c-.826-1.5 1.435-2.51 2.156-1.21l1.337 2.19c.721 1.5-1.539 2.61-2.26 1.2zm4.85 8.68c-.721-1.5 1.435-2.61 2.26-1.1l1.141 2.2c.825 1.49-1.539 2.5-2.261 1.1zm4.538 8.89c-.722-1.49 1.538-2.6 2.26-1.1l1.14 2.19c.721 1.4-1.539 2.6-2.26 1.11zm4.235 8.9c-.617-1.6 1.748-2.4 2.365-.9l1.036 2.19c.617 1.6-1.852 2.51-2.365 1.01zm3.819 9.19c-.617-1.5 1.748-2.49 2.469-.9l.827 2.29c.617 1.5-1.747 2.41-2.364.91zm3.517 9.19c-.513-1.7 2.05-2.2 2.47-.8l.827 2.4c.513 1.7-1.957 2.2-2.469.8zm3.205 9.4c-.513-1.6 1.945-2.2 2.365-.71l.722 2.4c.513 1.6-1.956 2.31-2.365.71zm2.682 9.49c-.408-1.39 1.957-2.3 2.47-.6l.618 2.4c.409 1.81-2.154 2.11-2.47.6zm2.288 9.6c-.315-1.6 2.259-2 2.574-.5l.515 2.5c.315 1.6-2.155 2.01-2.47.4zm1.964 9.69c-.316-1.5 2.154-2.11 2.47-.4.21.8.315 1.6.514 2.51.211 1.39-2.259 2.1-2.574.39-.095-.9-.305-1.7-.41-2.5zm1.558 9.81c-.212-1.71 2.258-1.91 2.47-.31l.317 2.4c.211 1.7-2.364 1.91-2.47.31zm1.047 9.79c-.211-1.6 2.363-1.9 2.575-.21l.212 2.5c.107 1.5-2.363 1.91-2.574.11zm.63 9.8c-.003-1.7 2.572-1.6 2.575-.1l.108 2.5c.003 1.7-2.468 1.7-2.575.1zm.328 9.9c-.002-1.6 2.468-1.71 2.575-.01l.004 2.5c.003 1.5-2.572 1.71-2.575.01l-.004-2.5zm-.193 9.89c.102-1.8 2.677-1.5 2.575.1l-.101 2.4c-.101 1.7-2.677 1.5-2.575-.1zm-.495 9.81c.102-1.6 2.677-1.51 2.471.2l-.205 2.5c-.102 1.6-2.573 1.4-2.471-.2zm-1.017 9.79c.206-1.5 2.781-1.4 2.575.3-.103.8-.206 1.71-.309 2.51-.102 1.5-2.677 1.4-2.471-.3.103-.8.206-1.6.205-2.51zm-1.215 9.81c.311-1.7 2.771-1.1 2.472.39l-.403 2.5c-.31 1.6-2.782 1.11-2.471-.39zm-1.736 9.81c.311-1.6 2.77-1.21 2.471.39l-.402 2.49c-.311 1.5-2.875 1.11-2.576-.49zm-2.05 9.59c.311-1.5 2.875-1.11 2.472.6l-.507 2.4c-.508 1.7-2.887.9-2.471-.6zm-2.351 9.61c.508-1.6 2.875-.91 2.471.59l-.61 2.51c-.508 1.6-2.876.9-2.472-.7zm-2.653 9.5c.404-1.5 2.875-.9 2.472.7l-.716 2.4c-.404 1.5-2.979 1.01-2.472-.69z" clip-rule="evenodd"/></g><g clip-path="url(#f)" opacity=".2" transform="translate(-549)"><path fill="#ccc" fill-rule="evenodd" d="M2494.71 2420.22c-2.79 2.68-1.99 2.37-8.5.41-5.7-1.86-2.99-2.47-8.1.51-4.6 2.78-12.1 5.56-15.6 7.71 1.31 2.98 12.5 12.76 15.21 16.78-1.01.51-1.81.92-2.9 1.43-1.7.83-1.3.83-3.3-.4-4.4-2.58-18.51-10.81-21.3-12.04-3.7 1.65-13.5 6.8-16.9 6.59-1.6-.11-4.2-.51-3.69-2.58 1.29-5.04 10.09-7.82 15.8-10.39 2.3-1.03 1.7-.93 2.2-3.5.6-2.78 4.4-22.95 5.29-23.98.4-.31 3.5-1.65 4.1-1.96.31 1.86.5 3.91.6 5.87l1.01 11.42c0 1.86.3 4.02.59 5.77 2.61-1.33 5.2-2.47 7.9-3.81 13.4-6.58 11-2.15 14.1-9.56 1.81-4.12 1.81-6.59 5.7-5.98-.71 8.25 1.49 13.39 7.79 17.71zm-113.79-79.75c3.6 1.14 2.79 1.24 7.8-3.5 4.39-4.12 1.7-3.51 7.59-2.98 5.2.4 13.2-.32 17.3.1.1 3.19-5.99 16.98-6.79 21.82h3.2c1.9 0 1.5.21 2.89-1.75 2.9-4.33 12.11-18.02 14.2-20.28 4.11-.1 15 .11 18-1.44 1.4-.82 3.6-2.47 2.3-4.11-3.3-3.91-12.4-2.58-18.59-2.37-2.51 0-1.9-.11-3.51-2.16-1.7-2.26-13.5-18.84-14.7-19.35-.49-.1-3.9 0-4.49 0 .4 1.86 1.1 3.7 1.8 5.56l3.9 10.8c.7 1.65 1.4 3.8 1.9 5.45-2.89-.1-5.8 0-8.8 0-14.8 0-10.69 2.98-16.7-2.37-3.29-2.98-4.29-5.15-7.6-2.87 4 7.11 4.2 12.76.3 19.45zm-1.6-10.5c1.49-.21 2 2.16.29 2.47l-2.4.32c-1.5.31-2.11-2.16-.41-2.47zm-212.38 164.66c-.8 1.65-3 .41-2.3-1.03l.6-1.34c.8-1.54 2.99-.31 2.19 1.14zm3.8-8.13c-.8 1.54-3 .42-2.2-1.14l1.1-2.26c.7-1.54 2.9-.31 2.2 1.13zm4.49-9.06c-.7 1.44-2.99.41-2.19-1.14l1.19-2.26c.7-1.44 2.9-.4 2.2 1.24zm4.8-8.85c-.9 1.54-2.99.11-2.19-1.24l1.29-2.26c.9-1.54 2.9-.11 2.1 1.23zm5.01-8.74c-.9 1.43-3 .1-2.1-1.34l1.3-2.16c.8-1.43 3-.1 2.09 1.34zm5.3-8.65c-.8 1.34-3 .11-2.1-1.33l1.4-2.16c.8-1.33 2.99-.1 1.99 1.44zm5.5-8.34c-1.01 1.34-2.9-.2-2-1.54l1.4-2.05c1-1.33 3 .21 1.99 1.54zm5.79-8.23c-1.01 1.33-2.9-.21-1.91-1.54l1.5-2.06c1.01-1.33 2.9.32 1.9 1.55zm5.8-7.71c-.9.51-1.99-.32-1.9-1.34-.1-.61.39-1.44 1.1-1.54l.8-1.03c1.01-1.23 3 .31 1.91 1.64l-.21.32.4.1c1.6.62.6 2.98-.9 2.37zm6.71-8.03c-1.21 1.24-2.9-.51-1.81-1.75l1.61-1.86c1.19-1.33 2.89.51 1.8 1.65zm6.69-7.52c-1.1 1.23-3-.51-1.8-1.75l1.7-1.85c1.11-1.23 2.9.51 1.8 1.75zm6.9-7.2c-1.3 1.14-2.9-.82-1.7-1.86l1.7-1.75c1.3-1.24 2.9.72 1.8 1.86zm7.2-6.99c-1.2 1.13-2.89-.72-1.7-1.86l1.9-1.75c1.2-1.14 2.9.82 1.61 1.96zm7.4-6.59c-1.11 1.03-2.8-.83-1.5-1.95l1.9-1.65c1.4-1.13 2.8 1.04 1.5 1.96zm7.79-6.38c-1.39 1.03-2.79-1.03-1.49-1.96l1.9-1.54c1.4-1.04 2.79 1.03 1.5 1.96zm7.9-5.97c-1.19.92-2.79-1.04-1.39-2.06.7-.51 1.39-1.03 2.09-1.44 1.2-.92 2.8 1.04 1.4 2.06-.69.51-1.39.93-2.1 1.44zm8.21-5.66c-1.4.92-2.6-1.34-1.3-2.16l2.1-1.34c1.4-.92 2.7 1.34 1.3 2.16zm8.4-5.25c-1.3.83-2.7-1.33-1.2-2.26l2.2-1.23c1.3-.82 2.69 1.34 1.19 2.26zm8.7-4.94c-1.6.82-2.61-1.54-1.21-2.26l2.2-1.23c1.5-.72 2.6 1.65 1.2 2.37zm8.8-4.52c-1.4.72-2.6-1.54-1.11-2.37.8-.31 1.5-.72 2.3-1.03 1.4-.72 2.51 1.54 1.01 2.26-.7.41-1.5.72-2.2 1.14zm8.99-4.22c-1.6.61-2.4-1.76-1-2.37l2.3-1.03c1.6-.62 2.4 1.84.9 2.36zm9.11-3.82c-1.5.61-2.4-1.75-.9-2.37l2.4-.92c1.4-.62 2.4 1.75.8 2.36zm9.3-3.49c-1.5.51-2.4-1.86-.8-2.37.8-.31 1.6-.61 2.4-.82 1.39-.62 2.3 1.75.7 2.36-.8.31-1.5.52-2.3.83zm9.4-3.09c-1.71.41-2.2-2.05-.7-2.47l2.4-.72c1.6-.4 2.2 2.06.6 2.47zm9.5-2.78c-1.6.42-2.2-2.05-.6-2.47l2.4-.62c1.5-.4 2.2 2.06.6 2.47zm9.59-2.37c-1.5.41-2.3-2.05-.6-2.57l2.5-.51c1.7-.32 2.01 2.26.5 2.47zm9.6-2.15c-1.6.31-1.99-2.16-.39-2.47l2.4-.41c1.7-.31 2.09 2.16.49 2.47zm9.79-1.76c-1.6.32-2.09-2.15-.39-2.47l2.4-.4c1.6-.32 2.1 2.26.39 2.57zm-332.97 99.62c-2.8 2.68-1.99 2.36-8.49.31-5.71-1.75-3-2.47-8.11.61-4.6 2.68-12.1 5.56-15.6 7.72 1.3 2.98 12.5 12.76 15.21 16.77-1 .51-1.8.82-2.9 1.33-1.7.93-1.29.93-3.3-.31-4.4-2.57-18.49-10.91-21.3-12.04-3.7 1.65-13.5 6.8-16.9 6.59-1.6-.11-4.2-.62-3.69-2.68 1.29-5.05 10.1-7.82 15.8-10.39 2.3-1.04 1.7-.83 2.2-3.4.59-2.88 4.4-22.94 5.29-23.98.31-.31 3.5-1.75 4.11-1.96.3 1.86.5 3.81.59 5.77l1.01 11.53c0 1.75.3 4.01.59 5.66 2.61-1.24 5.2-2.47 7.9-3.7 13.4-6.59 10.9-2.16 14.1-9.57 1.81-4.12 1.71-6.59 5.71-5.98-.71 8.25 1.48 13.4 7.78 17.72zm-2.89-10.19c-1.5.51-.9 2.88.8 2.47l2.3-.82c1.39-.42.9-2.88-.8-2.47zm260.48 55.36c1.29 1.14 2.69-.92 1.5-1.94l-1.01-.83c-1.39-1.13-2.79.93-1.6 1.96zm-6.9-5.66c1.3 1.04 2.79-.92 1.6-1.96l-1.99-1.64c-1.3-1.04-2.8 1.03-1.5 2.05zm-7.8-6.17c1.2 1.04 2.8-.92 1.5-2.05l-2-1.54c-1.29-.93-2.89 1.03-1.49 2.06zm-8-5.97c1.4 1.03 2.7-1.23 1.4-2.05l-2.1-1.44c-1.4-1.03-2.7 1.24-1.4 2.05zm-8.21-5.66c1.4.93 2.71-1.23 1.4-2.16l-2.09-1.33c-1.4-.93-2.8 1.13-1.4 2.06zm-8.29-5.45c1.3.82 2.69-1.23 1.19-2.16l-2.09-1.33c-1.3-.83-2.7 1.23-1.3 2.15zm-8.6-5.15c1.6.82 2.6-1.44 1.3-2.26l-2.2-1.23c-1.5-.83-2.61 1.43-1.2 2.26zm-8.6-4.84c1.5.72 2.5-1.54 1.11-2.26l-2.2-1.24c-1.5-.72-2.61 1.54-1.11 2.26zm-8.9-4.52c1.5.72 2.6-1.55 1.09-2.37l-2.2-1.03c-1.39-.72-2.6 1.44-1.1 2.26zm-8.9-4.22c1.61.61 2.41-1.76.91-2.37l-2.3-1.03c-1.5-.62-2.4 1.75-.9 2.36zm-18.4-7.42c1.7.51 2.2-1.96.8-2.36l-2.4-.83c-1.7-.51-2.2 1.96-.8 2.37zm-9.4-3.08c1.5.51 2.2-1.96.7-2.47l-2.4-.72c-1.6-.42-2.3 2.05-.7 2.47zm-9.5-2.67c1.4.41 2.3-1.95.6-2.47l-2.4-.61c-1.81-.41-2.1 2.15-.6 2.47zm-9.59-2.37c1.6.32 1.99-2.15.49-2.47l-2.5-.51c-1.6-.31-2.09 2.16-.5 2.47zm-9.7-1.85c1.49.31 2.09-2.16.39-2.58-.8-.1-1.7-.31-2.5-.4-1.5-.32-2.1 2.16-.4 2.57.8.1 1.71.2 2.51.41zm-9.8-1.54c1.7.2 1.91-2.37.31-2.47l-2.4-.32c-1.71-.21-1.91 2.37-.31 2.47zm-9.8-1.04c1.6.11 1.9-2.36.2-2.57l-2.5-.21c-1.5-.21-1.9 2.37-.1 2.57zm-9.8-.72c1.7.11 1.6-2.47.1-2.47l-2.5-.1c-1.7-.1-1.7 2.47-.1 2.47zm-9.9-.2c1.6 0 1.7-2.58 0-2.58h-2.51c-1.5 0-1.7 2.58 0 2.58h2.51zm-9.9.2c1.8-.2 1.5-2.67-.1-2.57l-2.4.1c-1.7.11-1.5 2.68.1 2.58zm-9.79.51c1.6-.1 1.39-2.67-.21-2.57l-2.5.21c-1.6.1-1.4 2.68.2 2.57zm-9.81.93c1.5-.1 1.4-2.68-.3-2.47-.8.11-1.7.21-2.51.32-1.49.1-1.39 2.67.31 2.47.8-.11 1.6-.21 2.5-.32zm-9.79 1.34c1.7-.32 1.1-2.78-.4-2.47l-2.51.31c-1.6.42-1.1 2.89.39 2.57zm-9.81 1.75c1.6-.31 1.21-2.88-.39-2.58l-2.5.51c-1.5.32-1.11 2.79.49 2.47zm-9.6 1.96c1.5-.21 1.1-2.77-.6-2.47l-2.4.61c-1.7.42-.9 2.88.6 2.47zm-9.59 2.47c1.6-.51.9-2.98-.7-2.47l-2.4.61c-1.6.41-.9 2.88.7 2.47zm-9.6 2.68c1.6-.41 1-2.98-.7-2.47l-2.3.72c-1.5.4-1 2.87.7 2.47zm447.75-12.25c-1.49.51-.9 2.88.81 2.47l2.29-.82c1.4-.42 1.01-2.88-.8-2.37zm260.48 55.47c1.3 1.03 2.8-1.04 1.5-1.96l-1-.93c-1.4-1.14-2.79 1.03-1.6 1.96zm-6.89-5.66c1.3 1.03 2.79-1.04 1.6-2.06l-2.01-1.54c-1.29-1.03-2.81.93-1.5 1.96zm-7.8-6.28c1.19 1.03 2.79-.93 1.5-1.96l-2-1.54c-1.29-1.03-2.89.93-1.5 2.05zm-8-5.87c1.39.93 2.7-1.23 1.39-2.16l-1.99-1.43c-1.5-.93-2.81 1.24-1.4 2.15zm-8.2-5.76c1.4.92 2.7-1.23 1.4-2.16l-2.1-1.33c-1.39-.93-2.7 1.24-1.39 2.15zm-8.3-5.45c1.3.92 2.7-1.14 1.3-2.16l-2.19-1.34c-1.2-.82-2.7 1.23-1.2 2.27zm-8.5-5.15c1.5.82 2.5-1.44 1.2-2.16l-2.19-1.34c-1.5-.71-2.61 1.55-1.2 2.27zm-8.69-4.84c1.5.72 2.6-1.44 1.09-2.26l-2.2-1.14c-1.49-.82-2.5 1.54-1.1 2.26zm-8.9-4.52c1.49.71 2.6-1.55 1.1-2.27l-2.2-1.13c-1.4-.72-2.59 1.54-1.1 2.26zm-8.91-4.23c1.6.62 2.4-1.75.9-2.36l-2.19-1.04c-1.6-.61-2.51 1.86-1.01 2.37zm-9.19-3.8c1.49.61 2.49-1.75.9-2.47l-2.3-.83c-1.5-.61-2.4 1.76-.9 2.37zm-9.2-3.5c1.7.51 2.2-2.06.8-2.47l-2.4-.83c-1.7-.51-2.2 1.96-.8 2.47zm-9.4-3.19c1.6.51 2.2-1.95.7-2.37l-2.4-.72c-1.6-.51-2.3 1.96-.7 2.37zm-9.5-2.67c1.4.4 2.3-1.96.6-2.47l-2.4-.62c-1.81-.4-2.11 2.16-.6 2.47zm-9.6-2.28c1.6.32 1.99-2.26.49-2.57l-2.5-.51c-1.6-.31-2.01 2.16-.39 2.47zm-9.7-1.94c1.5.31 2.11-2.16.4-2.47-.8-.21-1.6-.32-2.5-.51-1.4-.21-2.1 2.26-.4 2.57.9.09 1.7.3 2.5.41zm-9.8-1.55c1.7.21 1.9-2.26.3-2.47l-2.4-.31c-1.7-.21-1.9 2.37-.3 2.47zm-9.8-1.03c1.6.21 1.9-2.36.21-2.57l-2.5-.21c-1.5-.11-1.91 2.36-.11 2.57zm-9.8-.61c1.7 0 1.6-2.58.1-2.58l-2.5-.1c-1.7 0-1.7 2.47-.1 2.57zm-9.9-.32c1.6 0 1.71-2.47 0-2.57h-2.5c-1.5 0-1.7 2.57 0 2.57h2.5zm-9.89.21c1.8-.1 1.5-2.68-.1-2.57l-2.4.1c-1.71.11-1.5 2.68.1 2.58zm-9.81.51c1.6-.1 1.5-2.68-.2-2.47l-2.5.21c-1.6.11-1.4 2.58.2 2.47zm-9.79 1.03c1.5-.2 1.4-2.78-.3-2.57-.8.1-1.71.21-2.51.31-1.5.11-1.39 2.68.31 2.47.8-.1 1.6-.21 2.5-.21zm-9.81 1.23c1.71-.31 1.1-2.77-.39-2.47l-2.5.41c-1.6.31-1.11 2.78.39 2.47zm-9.8 1.76c1.6-.32 1.21-2.78-.4-2.47l-2.49.4c-1.49.31-1.1 2.88.5 2.58zm-9.59 2.06c1.5-.31 1.1-2.88-.6-2.47l-2.4.51c-1.7.51-.9 2.89.6 2.47zm-9.6 2.37c1.6-.51.9-2.88-.6-2.47l-2.5.61c-1.6.51-.91 2.88.7 2.47zm-9.5 2.66c1.49-.4.9-2.87-.7-2.47l-2.4.72c-1.5.41-1.01 2.98.69 2.47z" clip-rule="evenodd"/></g><g clip-path="url(#g)" opacity=".2" transform="translate(-549)"><path fill="#ccc" fill-rule="evenodd" d="M259.576 2931.78c2.795 2.68 1.994 2.36 8.497.4 5.703-1.85 2.998-2.47 8.104.51 4.598 2.79 12.104 5.56 15.598 7.72-1.308 2.98-12.499 12.76-15.204 16.77 1.003.51 1.803.93 2.897 1.44 1.701.82 1.296.82 3.302-.41 4.395-2.57 18.506-10.81 21.301-12.04 3.696 1.65 13.502 6.8 16.894 6.59 1.6-.1 4.204-.51 3.697-2.57-1.297-5.05-10.099-7.82-15.801-10.4-2.3-1.03-1.702-.92-2.198-3.5-.609-2.77-4.407-22.94-5.297-23.97-.395-.32-3.494-1.65-4.103-1.96-.304 1.85-.495 3.9-.597 5.86l-1.003 11.43c0 1.86-.304 4.01-.597 5.76-2.604-1.33-5.196-2.47-7.901-3.8-13.4-6.59-11-2.16-14.099-9.57-1.803-4.12-1.803-6.59-5.703-5.97.71 8.24-1.487 13.38-7.787 17.71zm113.796-79.76c-3.607 1.14-2.795 1.25-7.799-3.5-4.396-4.12-1.702-3.5-7.596-2.98-5.196.41-13.198-.31-17.3.1-.102 3.19 5.995 16.99 6.796 21.82h-3.201c-1.905 0-1.499.21-2.897-1.75-2.896-4.33-12.104-18.01-14.2-20.27-4.103-.11-15.001.1-17.999-1.44-1.397-.83-3.595-2.47-2.299-4.12 3.302-3.91 12.397-2.58 18.596-2.37 2.502 0 1.893-.1 3.505-2.15 1.702-2.27 13.502-18.84 14.697-19.35.495-.11 3.899 0 4.496 0-.405 1.86-1.104 3.7-1.803 5.56l-3.899 10.79c-.699 1.65-1.398 3.81-1.905 5.46 2.896-.11 5.804 0 8.802 0 14.798 0 10.696 2.98 16.703-2.37 3.291-2.98 4.294-5.15 7.596-2.88-4.001 7.11-4.193 12.76-.293 19.45zm1.6-10.49c-1.499-.21-2.006 2.15-.293 2.47l2.401.31c1.499.31 2.107-2.16.406-2.47zm212.378 164.66c.8 1.64 2.998.4 2.299-1.04l-.597-1.33c-.8-1.54-2.998-.31-2.198 1.14zm-3.798-8.14c.8 1.55 2.998.42 2.198-1.13l-1.105-2.26c-.699-1.55-2.896-.32-2.198 1.12zm-4.497-9.05c.699 1.43 2.998.4 2.198-1.14l-1.195-2.26c-.699-1.44-2.896-.41-2.198 1.24zm-4.801-8.85c.902 1.54 2.998.1 2.198-1.24l-1.296-2.27c-.902-1.54-2.897-.1-2.097 1.23zm-5.004-8.75c.902 1.44 2.998.1 2.096-1.33l-1.296-2.16c-.8-1.44-2.998-.11-2.096 1.33zm-5.297-8.64c.8 1.33 2.998.1 2.096-1.33l-1.397-2.16c-.801-1.34-2.998-.11-1.995 1.44zm-5.5-8.34c1.003 1.33 2.896-.21 1.995-1.54l-1.398-2.06c-1.003-1.33-2.998.21-1.995 1.55zm-5.793-8.24c1.003 1.34 2.897-.2 1.905-1.54l-1.499-2.05c-1.003-1.34-2.897.31-1.894 1.54zm-5.804-7.71c.901.51 1.995-.31 1.904-1.33.102-.62-.394-1.44-1.104-1.55l-.8-1.03c-1.003-1.23-2.998.32-1.905 1.65l.203.31-.394.11c-1.601.61-.598 2.98.901 2.36zm-6.706-8.03c1.206 1.25 2.896-.51 1.803-1.75l-1.6-1.85c-1.195-1.34-2.897.51-1.803 1.64zm-6.695-7.51c1.105 1.23 2.998-.51 1.804-1.75l-1.702-1.86c-1.105-1.23-2.897.51-1.803 1.75zm-6.897-7.2c1.296 1.13 2.896-.83 1.702-1.86l-1.702-1.75c-1.296-1.24-2.896.72-1.803 1.85zm-7.202-7c1.206 1.14 2.897-.72 1.702-1.85l-1.905-1.76c-1.194-1.13-2.896.83-1.6 1.96zm-7.393-6.59c1.104 1.04 2.795-.82 1.499-1.95l-1.905-1.64c-1.397-1.14-2.795 1.03-1.499 1.96zm-7.799-6.38c1.397 1.04 2.795-1.03 1.499-1.96l-1.905-1.54c-1.397-1.03-2.795 1.03-1.499 1.96zm-7.901-5.97c1.195.93 2.795-1.03 1.398-2.05-.699-.51-1.398-1.04-2.096-1.44-1.195-.93-2.795 1.03-1.398 2.05.688.51 1.386.93 2.096 1.44zm-8.204-5.66c1.397.93 2.603-1.33 1.296-2.16l-2.097-1.33c-1.397-.93-2.704 1.33-1.296 2.16zm-8.397-5.24c1.296.82 2.694-1.34 1.195-2.26l-2.198-1.23c-1.296-.83-2.693 1.33-1.195 2.26zm-8.701-4.94c1.601.82 2.604-1.55 1.206-2.27l-2.197-1.23c-1.499-.71-2.604 1.65-1.206 2.37zm-8.802-4.53c1.398.72 2.604-1.54 1.105-2.36-.8-.32-1.499-.72-2.299-1.04-1.398-.72-2.502 1.55-1.003 2.27.698.4 1.499.71 2.197 1.13zm-8.993-4.22c1.6.62 2.4-1.75 1.003-2.37l-2.299-1.03c-1.601-.61-2.401 1.85-.902 2.37zm-9.107-3.82c1.499.62 2.401-1.75.902-2.36l-2.401-.93c-1.397-.61-2.4 1.75-.8 2.37zm-9.298-3.49c1.499.51 2.401-1.85.8-2.36-.8-.32-1.6-.62-2.4-.83-1.398-.61-2.299 1.75-.699 2.37.8.3 1.499.51 2.299.82zm-9.399-3.08c1.702.4 2.197-2.06.699-2.47l-2.401-.72c-1.6-.41-2.198 2.05-.597 2.47zm-9.501-2.79c1.6.42 2.198-2.05.597-2.47l-2.4-.61c-1.499-.41-2.198 2.05-.598 2.47zm-9.591-2.36c1.499.4 2.299-2.06.597-2.58l-2.502-.51c-1.702-.31-2.006 2.26-.496 2.47zm-9.602-2.16c1.6.31 1.994-2.16.394-2.47l-2.401-.41c-1.701-.31-2.096 2.16-.495 2.47zm-9.794-1.75c1.6.31 2.096-2.16.394-2.47l-2.4-.41c-1.601-.31-2.097 2.26-.395 2.58zm332.97 99.61c2.806 2.68 1.995 2.37 8.498.31 5.702-1.75 2.998-2.47 8.103.62 4.598 2.68 12.104 5.55 15.598 7.71-1.296 2.98-12.499 12.76-15.203 16.77 1.003.51 1.803.83 2.896 1.34 1.702.93 1.296.93 3.302-.32 4.396-2.57 18.495-10.91 21.301-12.03 3.697 1.64 13.502 6.79 16.894 6.58 1.601-.1 4.204-.61 3.697-2.68-1.296-5.04-10.098-7.81-15.801-10.39-2.299-1.03-1.702-.82-2.198-3.4-.597-2.87-4.406-22.94-5.297-23.97-.304-.32-3.494-1.75-4.102-1.96-.304 1.85-.507 3.8-.598 5.76l-1.003 11.53c0 1.75-.304 4.01-.597 5.66a488.798 488.798 0 0 0-7.9-3.7c-13.401-6.59-10.899-2.16-14.1-9.57-1.803-4.11-1.701-6.59-5.702-5.97.71 8.25-1.488 13.4-7.788 17.71zm2.896-10.18c1.499.51.902 2.87-.8 2.47l-2.299-.83c-1.398-.41-.902-2.87.8-2.47zm-260.479 55.36c-1.296 1.14-2.694-.93-1.499-1.95l1.003-.82c1.397-1.14 2.795.92 1.6 1.96zm6.897-5.66c-1.296 1.03-2.795-.93-1.6-1.96l1.995-1.65c1.296-1.03 2.795 1.03 1.499 2.05zm7.799-6.17c-1.194 1.03-2.795-.93-1.499-2.06l1.995-1.54c1.296-.93 2.897 1.03 1.499 2.07zm8.002-5.98c-1.397 1.04-2.705-1.23-1.397-2.05l2.096-1.44c1.398-1.03 2.705 1.24 1.398 2.06zm8.205-5.66c-1.397.93-2.705-1.23-1.397-2.15l2.096-1.34c1.397-.93 2.795 1.14 1.397 2.07zm8.295-5.45c-1.296.83-2.694-1.23-1.195-2.15l2.097-1.34c1.296-.82 2.693 1.23 1.296 2.16zm8.599-5.15c-1.6.83-2.603-1.44-1.296-2.26l2.198-1.23c1.499-.82 2.603 1.44 1.195 2.26zm8.6-4.83c-1.499.72-2.503-1.55-1.105-2.27l2.198-1.24c1.499-.72 2.603 1.55 1.104 2.26zm8.903-4.53c-1.499.72-2.603-1.54-1.093-2.36l2.198-1.04c1.397-.72 2.603 1.44 1.104 2.27zm8.892-4.22c-1.6.62-2.4-1.75-.901-2.37l2.299-1.03c1.499-.61 2.4 1.75.901 2.37zm18.405-7.41c-1.702.51-2.198-1.96-.8-2.37l2.4-.82c1.702-.51 2.198 1.96.8 2.37zm9.399-3.09c-1.499.51-2.198-1.96-.699-2.47l2.401-.72c1.6-.41 2.299 2.06.699 2.47zm9.501-2.66c-1.397.4-2.299-1.95-.597-2.48l2.4-.61c1.804-.41 2.097 2.16.598 2.47zm9.591-2.37c-1.6.31-1.995-2.16-.496-2.47l2.502-.51c1.601-.31 2.096 2.16.507 2.47zm9.704-1.86c-1.499.32-2.096-2.15-.395-2.57.801-.11 1.702-.31 2.502-.41 1.499-.31 2.097 2.16.395 2.58-.8.09-1.702.19-2.502.4zm9.794-1.54c-1.702.21-1.905-2.37-.305-2.47l2.401-.31c1.702-.21 1.905 2.36.304 2.47zm9.805-1.03c-1.6.1-1.905-2.37-.203-2.58l2.502-.21c1.499-.2 1.893 2.37.102 2.58zm9.794-.72c-1.702.1-1.601-2.47-.102-2.47l2.502-.11c1.702-.1 1.702 2.47.102 2.47zm9.906-.21c-1.6 0-1.701-2.57 0-2.57h2.502c1.499 0 1.702 2.57 0 2.57h-2.502zm9.896.21c-1.803-.21-1.499-2.68.101-2.58l2.401.11c1.702.1 1.499 2.68-.102 2.57zm9.794.51c-1.601-.1-1.398-2.68.203-2.58l2.502.21c1.6.11 1.397 2.68-.203 2.58zm9.805.93c-1.499-.11-1.398-2.68.304-2.47l2.502.31c1.499.1 1.398 2.68-.304 2.47-.8-.1-1.601-.21-2.502-.31zm9.794 1.33c-1.702-.31-1.105-2.77.394-2.47l2.513.31c1.601.42 1.105 2.89-.394 2.58zm9.805 1.75c-1.6-.31-1.206-2.87.394-2.57l2.502.51c1.499.31 1.105 2.78-.496 2.47zm9.602 1.96c-1.499-.21-1.104-2.77.598-2.47l2.4.62c1.702.41.902 2.87-.597 2.47zm9.591 2.47c-1.6-.51-.901-2.98.699-2.47l2.401.62c1.6.4.901 2.87-.699 2.47zm9.603 2.68c-1.601-.4-1.003-2.98.698-2.47l2.299.72c1.499.41 1.004 2.88-.698 2.47zm-447.759-12.25c1.499.51.902 2.88-.8 2.48l-2.299-.83c-1.398-.42-1.003-2.87.8-2.36zm-260.48 55.47c-1.295 1.03-2.794-1.03-1.498-1.96l1.003-.93c1.397-1.13 2.795 1.03 1.6 1.96zm6.898-5.66c-1.307 1.03-2.795-1.03-1.6-2.05l2.006-1.55c1.296-1.03 2.806.93 1.499 1.97zm7.8-6.27c-1.196 1.03-2.796-.93-1.5-1.96l1.995-1.55c1.296-1.03 2.897.93 1.5 2.06zm8.001-5.87c-1.397.92-2.705-1.23-1.397-2.16l1.994-1.44c1.5-.93 2.807 1.24 1.398 2.16zm8.194-5.77c-1.398.93-2.694-1.23-1.398-2.16l2.096-1.33c1.398-.93 2.705 1.24 1.398 2.16zm8.306-5.45c-1.308.93-2.705-1.14-1.308-2.16l2.198-1.33c1.195-.82 2.694 1.23 1.195 2.26zm8.498-5.15c-1.5.82-2.502-1.44-1.206-2.16l2.197-1.33c1.5-.72 2.604 1.54 1.195 2.26zm8.69-4.84c-1.5.72-2.604-1.43-1.094-2.26l2.198-1.13c1.498-.83 2.502 1.54 1.104 2.26zm8.903-4.52c-1.5.72-2.604-1.54-1.105-2.26l2.198-1.14c1.397-.72 2.592 1.54 1.104 2.26zm8.903-4.22c-1.6.61-2.4-1.75-.901-2.37l2.197-1.03c1.6-.62 2.502 1.86 1.003 2.37zm9.197-3.81c-1.5.62-2.491-1.75-.902-2.47l2.3-.82c1.498-.62 2.4 1.75.9 2.37zm9.196-3.5c-1.702.51-2.197-2.05-.8-2.47l2.4-.82c1.703-.51 2.198 1.96.8 2.47zm9.4-3.19c-1.601.51-2.198-1.95-.699-2.37l2.401-.71c1.6-.51 2.299 1.96.698 2.36zm9.501-2.67c-1.398.41-2.299-1.96-.598-2.47l2.401-.61c1.803-.41 2.107 2.16.597 2.47zm9.602-2.27c-1.6.31-1.995-2.26-.496-2.58l2.502-.51c1.6-.31 2.006 2.16.395 2.47zm9.692-1.95c-1.499.31-2.107-2.16-.394-2.47.8-.21 1.6-.31 2.502-.51 1.397-.21 2.096 2.26.394 2.58-.901.09-1.701.3-2.502.4zm9.806-1.54c-1.702.21-1.905-2.26-.305-2.47l2.401-.32c1.702-.2 1.905 2.37.304 2.48zm9.794-1.03c-1.601.2-1.894-2.37-.203-2.58l2.502-.21c1.499-.1 1.904 2.37.101 2.58zm9.805-.62c-1.702 0-1.601-2.57-.102-2.57l2.502-.11c1.702 0 1.702 2.47.102 2.58zm9.895-.31c-1.6 0-1.702-2.47 0-2.58h2.502c1.499 0 1.702 2.58 0 2.58h-2.502zm9.895.21c-1.803-.11-1.499-2.68.102-2.58l2.4.11c1.702.1 1.499 2.68-.101 2.57zm9.806.51c-1.601-.11-1.499-2.68.202-2.47l2.502.21c1.601.1 1.398 2.57-.202 2.47zm9.793 1.03c-1.498-.21-1.397-2.78.305-2.58.8.11 1.702.21 2.502.32 1.499.1 1.397 2.68-.305 2.47-.8-.11-1.6-.21-2.502-.21zm9.806 1.23c-1.702-.31-1.094-2.77.394-2.47l2.502.4c1.6.32 1.105 2.79-.394 2.48zm9.805 1.75c-1.601-.31-1.206-2.77.394-2.47l2.491.41c1.499.31 1.104 2.87-.496 2.57zm9.591 2.07c-1.499-.32-1.105-2.88.597-2.48l2.401.51c1.702.52.901 2.89-.598 2.48zm9.602 2.36c-1.6-.51-.902-2.88.597-2.47l2.502.62c1.601.51.902 2.87-.698 2.47zm9.501 2.67c-1.499-.41-.902-2.88.699-2.47l2.4.72c1.499.4 1.003 2.98-.698 2.47z" clip-rule="evenodd"/></g><g fill="#999" clip-path="url(#h)" opacity=".1" transform="translate(-549)"><path d="m2295.39 5032.4 119.35-30.05c.64-.16 1.32-.06 1.85.32 1.16.84 1.14 2.45.2 3.31l-24.06 22c-.01 0-.01.01-.01.01l4.4 44.84c.14 1.56-1.44 2.77-2.9 2.2l-32.05-12.47h-.02l-16.59 15.45c-.8.74-2.05.76-2.87.05l-27.58-24.02a2.13 2.13 0 0 1-.21-3.02c.77-.89 2.12-.98 3.01-.21l26.13 22.75c.01.01.01.01.02 0l33.1-30.8c.01-.01 0-.02-.01-.02l-74.96-5.64c-.01 0-.02.01-.01.02l7.81 6.79c.89.78 1.07 2.14.32 3.04-.77.93-2.15 1.04-3.05.26l-12.77-11.12a2.39 2.39 0 0 1-.22-.23c-1.02-1.19-.39-3.08 1.12-3.46zm70.26 26.91c-.01.01-.01.02 0 .02l25.51 9.93c.01 0 .02-.01.02-.02l-9.79-24.56s-.01-.01-.02 0zm-41.57-24.85 58.29 4.38c.81.06 1.53.59 1.83 1.34l7.16 17.98c.01.01.02 0 .02-.01l-2.81-28.72-.01-.01-64.48 5.01c-.01.01-.01.02 0 .03zm-3.07-4.08 68.58-5.33 18.02-16.47c.01-.01 0-.02-.01-.02l-86.59 21.8c-.02.01-.01.02 0 .02zM2415.93 5090.31c.58-.14 1.18-.26 1.78-.37a2.13 2.13 0 0 1 2.49 1.71c.21 1.12-.5 2.19-1.58 2.46a.32.32 0 0 1-.14.03c-.52.1-1.05.21-1.57.33-1.15.27-2.3-.44-2.57-1.59-.27-1.15.45-2.31 1.59-2.57zM2406.11 5094.34c.98-.62 2.04-1.2 3.14-1.71 1.06-.51 2.34-.05 2.84 1.02.51 1.07.05 2.34-1.02 2.85-.94.44-1.85.93-2.69 1.46-.99.62-2.33.31-2.95-.67-.62-1.01-.32-2.33.68-2.95zM2432.53 5108.09c-.07-.98-.23-1.98-.45-2.96-.26-1.16.46-2.3 1.61-2.56 1.15-.27 2.3.46 2.56 1.61.27 1.18.45 2.39.55 3.59.09 1.16-.81 2.2-1.97 2.29a2.14 2.14 0 0 1-2.3-1.97zM2425.64 5123.45c.8-.53 1.55-1.15 2.23-1.83.84-.84 2.19-.84 3.03-.01.83.84.83 2.19 0 3.03-.88.88-1.86 1.68-2.89 2.37-1.02.68-2.45.34-3.05-.73-.54-.96-.24-2.22.68-2.83zM2412.5 5082.65a2.145 2.145 0 0 1 2.83-1.07c1.06.48 2.11 1 3.12 1.56 1.04.57 1.41 1.87.84 2.91-.56 1.02-1.88 1.4-2.9.84-.92-.51-1.86-.98-2.82-1.41a2.15 2.15 0 0 1-1.07-2.83zM2431.12 5116.81c.39-.89.71-1.83.95-2.8a2.13 2.13 0 0 1 2.58-1.57 2.14 2.14 0 0 1 1.57 2.59c-.29 1.2-.69 2.37-1.18 3.49-.5 1.15-1.93 1.62-3.02.99a2.143 2.143 0 0 1-.9-2.7zM2428.69 5093.99c.94-.71 2.28-.53 3 .41.78 1.04 1.48 2.08 2 3.01.58 1.03.21 2.34-.82 2.92-.17.09-.35.16-.53.2-.91.23-1.9-.16-2.38-1.02-.3-.54-.83-1.4-1.68-2.52-.72-.94-.53-2.28.41-3zM2421.27 5087.35c.73-.93 2.07-1.1 3.01-.37.91.71 1.81 1.47 2.66 2.25.87.8.93 2.15.13 3.02-.79.86-2.16.92-3.02.13-.77-.7-1.58-1.38-2.4-2.03-.94-.72-1.1-2.07-.38-3zM2398.41 5102.06c.6-1.05 1.33-2.07 2.16-3.04.77-.89 2.12-.99 3.02-.22.89.77.99 2.12.22 3.02-.65.76-1.22 1.55-1.69 2.36-.57 1.02-1.9 1.38-2.91.8a2.146 2.146 0 0 1-.8-2.92zM2415.29 5128.19c-.04-1.18.88-2.17 2.07-2.21.91-.03 1.84-.14 2.78-.31l.16-.04a2.15 2.15 0 0 1 2.52 1.68c.22 1.13-.48 2.22-1.57 2.5-.04 0-.07.01-.11.02l-.21.04c-1.15.22-2.3.34-3.42.39-1.18.04-2.17-.89-2.22-2.07zM2396.45 5113.08c-.22-1.28-.29-2.55-.22-3.78a2.137 2.137 0 0 1 2.25-2.02c1.18.07 2.08 1.08 2.02 2.26-.05.91 0 1.86.17 2.83.19 1.14-.6 2.27-1.75 2.46-1.15.2-2.27-.6-2.47-1.75zM2399.78 5117.07c1.01-.6 2.33-.26 2.93.75.5.85 1.07 1.66 1.71 2.41.76.9.65 2.25-.25 3.01-.89.76-2.26.65-3.01-.24-.79-.94-1.51-1.94-2.14-3-.6-1.02-.26-2.33.76-2.93zM2402.88 5080.12a2.139 2.139 0 0 1 2.51-1.69c1.14.22 2.28.49 3.39.79.89.24 1.53 1.05 1.57 1.97.04 1-.64 1.92-1.62 2.17-.34.08-.71.09-1.08-.02-1.01-.27-2.04-.51-3.08-.71a2.154 2.154 0 0 1-1.69-2.51zM2406.01 5124.78a2.133 2.133 0 0 1 2.91-.81c.85.48 1.75.88 2.66 1.19 1.12.38 1.72 1.59 1.34 2.71-.37 1.1-1.6 1.71-2.71 1.34-1.17-.4-2.31-.91-3.39-1.52a2.133 2.133 0 0 1-.81-2.91zM2394.52 5079.65c.02-1.19.99-2.13 2.17-2.11.6.01 1.2.03 1.79.05 1.12.06 2.02 1.01 2.03 2.13.01 1.21-1.03 2.21-2.24 2.15-.54-.03-1.09-.05-1.64-.06a2.134 2.134 0 0 1-2.11-2.16zM2458.85 5138.28c.13-.53.24-1.06.34-1.59a2.153 2.153 0 0 1 2.51-1.7c1.16.22 1.92 1.35 1.69 2.51-.11.58-.23 1.17-.37 1.75a2.162 2.162 0 0 1-2.57 1.6 2.15 2.15 0 0 1-1.6-2.57zM2459.86 5130.67c.04-1.01.02-2.03-.03-3.02-.06-1.18.84-2.19 2.02-2.25a2.13 2.13 0 0 1 2.25 2.02c.06 1.11.07 2.25.04 3.38-.03 1.16-1.04 2.11-2.2 2.07a2.15 2.15 0 0 1-2.08-2.2zM2459.58 5116.07c1.12-.36 2.33.26 2.69 1.38.25.8.49 1.62.69 2.43.19.75.4 1.47.06 2.2-.27.6-.82 1.05-1.46 1.2-.64.14-1.32-.01-1.83-.43-.62-.5-.73-1.19-.92-1.92-.18-.73-.39-1.46-.62-2.17a2.14 2.14 0 0 1 1.39-2.69zM2455.05 5107.61c1-.63 2.32-.33 2.95.67.59.96 1.16 1.94 1.67 2.94.54 1.05.13 2.34-.92 2.88-1.03.53-2.34.12-2.88-.92-.46-.89-.96-1.77-1.5-2.63-.62-1-.32-2.32.68-2.94zM2440.66 5095.13a2.144 2.144 0 0 1 2.92-.81c.26.15.52.3.78.46.71.42 1.41.87 2.09 1.34.97.68 1.22 2.01.54 2.98-.66.96-2.01 1.2-2.97.54a33.99 33.99 0 0 0-2.55-1.6 2.135 2.135 0 0 1-.81-2.91zM2448.64 5100.46c.82-.84 2.18-.86 3.02-.03.8.78 1.58 1.6 2.32 2.44.78.89.69 2.24-.2 3.02-.88.77-2.25.68-3.02-.2-.66-.76-1.37-1.5-2.08-2.2-.85-.83-.87-2.18-.04-3.03zM2433.02 5092.38a2.145 2.145 0 0 1 2.67-1.43c.57.17 1.15.36 1.72.56 1.11.39 1.7 1.61 1.3 2.73-.38 1.09-1.62 1.69-2.72 1.3-.51-.18-1.02-.35-1.53-.5a2.14 2.14 0 0 1-1.44-2.66z"/></g><g fill="#eaeaea" opacity=".5"><path d="M227.696 5098.16c-6.81-.08-6.137-.62-8.021 2.84 7.318 2.48 10.946 6.93 12.709 15.3 3.918-.51 3.186-2.95 3.693-7.55.774-8.22-.213-3.15 10.673-13.51 2.196-2.1 4.343-3.97 6.442-6.03.799 1.65 1.73 3.69 2.28 5.53l4.346 11.03c.678 1.91 1.469 3.89 2.311 5.64.49-.49 3.064-2.7 3.349-3.12.547-1.28-1.79-22.34-2.028-25.26-.288-2.69-.829-2.41 1.068-4.1 4.7-4.18 12.312-9.45 12.059-14.82-.126-2.19-2.741-1.84-4.305-1.49-3.312.77-11.18 8.68-14.233 11.37-3.042-.42-19-4.53-23.974-5.82-2.286-.64-1.898-.75-3.284.55-.896.82-1.539 1.46-2.349 2.25 3.781 3.2 17.399 9.68 19.535 12.25-2.708 3.14-9.078 8.04-12.659 12.11-4.008 4.42-1.598 3.03-7.612 2.83z"/><path d="M223.98 5108.03c1.51-.89 2.783 1.28 1.498 2.22l-1.989 1.37c-1.577 1.02-2.683-1.3-1.468-2.11zM-41.358 5132.36c-1.517-.54-.693-3.02.855-2.37l1.333.6c1.419.58.723 3.13-.953 2.4zM-33.143 5136.11c-1.447-.67-.634-3.14.925-2.49l2.309 1.07c1.558.65.692 3.02-.855 2.37zM-23.743 5139.97c-1.547-.65-.595-3.05.856-2.37l2.34.86c1.672.72.72 3.11-.828 2.46zM-14.182 5143.65c-1.528-.54-.914-3.05.7-2.53l2.337.85c1.621.5 1.011 3.02-.7 2.53zM-4.625 5147.01c-1.516-.55-.914-3.05.7-2.54l2.404.72c1.524.54.914 3.06-.7 2.54zM5.035 5150c-1.642-.61-.915-3.05.613-2.51l2.362.62c1.742.59.914 3.06-.475 2.58zM14.799 5152.64c-1.455-.34-1.164-2.87.516-2.48l2.459.59c1.562.3 1.174 2.86-.475 2.58zM24.695 5155.01c-1.691-.39-1.272-2.84.378-2.56l2.453.5c1.551.31 1.292 2.94-.388 2.55zM34.555 5156.94c-1.65-.29-1.261-2.84.388-2.56l2.442.5c1.638.28 1.164 2.86-.388 2.55zM44.561 5158.61c-1.619-.18-1.553-2.75.162-2.6l2.509.36c1.587.08 1.455 2.78-.26 2.63zM54.529 5159.84c-1.735-.25-1.486-2.88.132-2.7l2.478.26c1.618.18 1.455 2.78-.163 2.6zM64.475 5160.65c-1.463-.01-1.747-2.7.035-2.68l2.543.13c1.49.1 1.747 2.69-.034 2.68zM74.491 5160.98c-1.56.02-1.716-2.59-.031-2.54l2.513.02c1.653-.06 1.715 2.59.031 2.54zM84.512 5160.97c-1.782-.02-1.619-2.62-.16-2.62l2.482-.07c1.54-.13 2.008 2.5.16 2.61zM94.513 5160.54c-1.529.12-1.914-2.54-.288-2.69l2.482-.08c1.637-.15 1.98 2.41.354 2.56zM104.442 5159.56c-1.734.18-1.883-2.44-.354-2.56.798-.12 1.626-.14 2.517-.31 1.724-.18 1.786 2.47.385 2.66-.922.07-1.719.19-2.548.21zM114.379 5158.25c-1.595.26-2.132-2.25-.44-2.53l2.392-.38c1.565-.35 2.133 2.26.441 2.54zM124.196 5156.54c-1.681.28-2.164-2.35-.568-2.6l2.361-.49c1.79-.31 2.133 2.26.666 2.58zM133.869 5154.31c-1.436.43-2.296-2.09-.666-2.58l2.428-.61c1.564-.36 2.296 2.09.666 2.58zM143.539 5151.76c-1.661.38-2.296-2.09-.763-2.55l2.397-.72c1.631-.49 2.199 2.12.763 2.55zM153.055 5148.69c-1.503.56-2.557-1.91-.861-2.53l2.269-.79c1.503-.56 2.46 1.93.86 2.52zM162.363 5145.24c-1.568.69-2.428-1.83-.926-2.39l2.335-.93c1.502-.56 2.429 1.83.926 2.39zM171.568 5141.48c-1.568.7-2.428-1.82-1.054-2.46.864-.26 1.599-.59 2.335-.92 1.569-.7 2.429 1.82 1.024 2.35-.736.34-1.569.7-2.305 1.03zM180.653 5137.32c-1.336.73-2.647-1.53-1.109-2.33l2.276-1.12c1.344-.74 2.551 1.57 1.11 2.33zM189.528 5132.78c-1.444.76-2.55-1.57-1.11-2.33l2.138-1.19c1.444-.76 2.581 1.66 1.238 2.4zM198.299 5127.93c-1.51.89-2.647-1.54-1.304-2.28l2.149-1.19c1.312-.84 2.783 1.28 1.304 2.27zM206.798 5122.83c-1.316.83-2.686-1.31-1.304-2.27l2.117-1.3c1.413-.86 2.784 1.28 1.402 2.25zM215.207 5117.44c-1.413.86-2.717-1.42-1.402-2.25l2.087-1.4c1.479-.99 2.717 1.42 1.402 2.25z"/></g><g fill="#eaeaea" opacity=".5"><path d="M106.678 5103.14c-6.678-1.34-5.916-1.75-8.408 1.3 6.731 3.79 9.469 8.84 9.649 17.4 3.944.22 3.679-2.32 5.03-6.74 2.286-7.94.374-3.13 12.994-11.3 2.547-1.65 5.003-3.09 7.449-4.73.48 1.77 1.014 3.95 1.214 5.86l2.225 11.64c.311 2.01.722 4.1 1.224 5.97.572-.38 3.511-2.08 3.87-2.44.775-1.15 2.385-22.28 2.692-25.19.217-2.7-.366-2.53 1.81-3.83 5.395-3.24 13.852-7.01 14.599-12.33.282-2.17-2.351-2.32-3.954-2.26-3.396.14-12.595 6.45-16.094 8.53-2.912-.98-17.831-7.98-22.479-10.17-2.128-1.05-1.724-1.09-3.328-.07-1.033.64-1.784 1.15-2.727 1.78 3.122 3.84 15.303 12.73 16.924 15.66-3.243 2.58-10.411 6.21-14.685 9.55-4.758 3.6-2.134 2.68-8.005 1.37z"/><path d="M101.195 5112.15c1.649-.6 2.497 1.77 1.061 2.45l-2.209.98c-1.739.72-2.395-1.77-1.05-2.35zM4.063 5140.91c-1.491.16-1.869-2.48-.176-2.66l2.5-.15c1.603-.06 1.868 2.48.175 2.66zM14.039 5140.19c-1.704.07-1.868-2.48-.277-2.64l2.489-.26c1.692-.18 1.767 2.49.277 2.64zM23.959 5138.94c-1.58.27-2.16-2.34-.377-2.64l2.376-.35c1.581-.28 2.059 2.35.378 2.63zM33.746 5137.28c-1.67.39-2.048-2.25-.467-2.52l2.466-.48c1.58-.27 2.048 2.25.467 2.52zM43.488 5135.3c-1.67.39-2.048-2.25-.579-2.62.897-.09 1.681-.28 2.466-.47 1.67-.4 2.048 2.24.568 2.5-.785.19-1.67.4-2.455.59zM53.187 5132.9c-1.448.46-2.317-2-.658-2.5l2.445-.68c1.457-.48 2.215 2.01.657 2.5zM62.75 5130.08c-1.559.47-2.215-2.01-.657-2.5l2.321-.78c1.559-.47 2.227 2.12.77 2.6zM72.269 5126.94c-1.649.59-2.316-2-.859-2.48l2.333-.78c1.446-.58 2.497 1.78.859 2.48zM81.565 5123.51c-1.447.57-2.396-1.79-.859-2.48l2.321-.88c1.549-.59 2.498 1.77.961 2.46zM90.829 5119.76c-1.548.59-2.407-1.89-.96-2.46l2.31-.99c1.638-.7 2.408 1.89.96 2.47z"/></g><defs><clipPath id="a"><path fill="#fff" d="M1684 332h785v191h-785z"/></clipPath><clipPath id="b"><path fill="#fff" d="m1465.15 364.717-286.654 165.5-64.5-111.717L1400.65 253z"/></clipPath><clipPath id="c"><path fill="#fff" d="M1684 4269.21h785v191h-785z"/></clipPath><clipPath id="d"><path fill="#fff" d="m2415.55 1197.34-2.107 784.997-191-.513 2.108-784.997z"/></clipPath><clipPath id="e"><path fill="#fff" d="m805.521 1981.13-1.214-785-191 .296 1.214 785z"/></clipPath><clipPath id="f"><path fill="#fff" d="M1969.29 2304.41h785v191h-785z"/></clipPath><clipPath id="g"><path fill="#fff" d="M785 2815.96H0v191h785z"/></clipPath><clipPath id="h"><path fill="#fff" d="m2433.43 4997.65-141.289 35.573 35.574 141.289 141.288-35.573z"/></clipPath></defs></svg>