<svg xmlns="http://www.w3.org/2000/svg" xml:space="preserve" width="975.39" height="459.534"><defs><clipPath id="a" clipPathUnits="userSpaceOnUse"><path d="M0 1080h1080V0H0Z"/></clipPath></defs><g clip-path="url(#a)" transform="matrix(1.33333 0 0 -1.33333 -226.994 1009.112)"><path d="M0 0c0-7.48-1.538-13.369-5.08-17.668-3.535-4.289-8.039-6.436-13.736-6.436-4.824 0-8.714 1.554-11.848 4.669-3.135 3.113-4.672 6.9-4.672 11.443 0 5.329 2.097 9.712 6.745 13.165C-23.948 8.599-14.302 11.034 0 12.445zm23.254-16.217v52.313c0 6.825-1.584 12.729-5.172 17.736-3.572 4.992-7.94 8.697-13.323 11.106-5.371 2.409-11.394 3.611-18.641 3.611-11.319 0-22.776-2.892-34.392-8.668V37.998c9.833 8.075 20.405 12.111 28.957 12.111 6.175 0 10.718-1.712 14.29-5.109C-1.445 41.586 0 37.14 0 31.661v-3.108c-39.327-2.592-59.221-14.851-59.221-36.77 0-9.329 3.256-17.258 9.525-23.79 6.262-6.502 14.616-9.757 24.938-9.757 5.138 0 9.932 1.198 14.324 3.615 4.405 2.406 8.489 5.979 12.227 10.718.735-9.047 7.031-13.567 19.486-13.567 4.719 0 10.894.489 14.489 1.447v18.656c-.904-1.399-4.271-2.096-6.624-2.096-3.998 0-5.89 2.26-5.89 6.774m198.428 28.998c-5.867 4.371-14.29 7.96-25.277 10.771-9.11 2.374-15.327 4.529-18.611 6.501-3.304 1.963-4.945 4.532-4.945 7.718 0 3.921 2.049 7.023 6.163 9.28 4.106 2.261 9.04 3.382 14.405 3.382 8.884 0 19.346-4.323 30.967-12.993v22.77c-11.621 5.552-22.94 8.339-32.301 8.339-12.291 0-22.613-3.049-30.799-9.16-8.161-6.104-12.32-13.928-12.32-23.482 0-13.916 10.999-23.462 33.076-28.637 9.111-2.097 15.501-4.279 19.2-6.492 3.623-2.289 5.441-5.299 5.441-8.995 0-4.159-2.179-7.61-6.512-10.394-4.306-2.773-10.02-4.165-16.707-4.165-10.766 0-22.544 4.334-35.068 13.006v-22.444c12.524-6.373 24.867-9.55 36.827-9.55 12.705 0 23.458 3.309 32.086 9.928 8.628 6.63 13.002 15.245 13.002 25.836 0 8.074-2.855 14.333-8.627 18.781m-519.585 54.254h-27.472l-32.214-39.481v87.747h-23.237v-154.65h23.237V.448l10.579 11.82 26.93-51.617h27.111l-39.367 68.353zm202.461 38.164c-8.254 6.787-19.34 10.102-33.265 10.102h-46.51V84.91h24.129v9.836h17.26c12.684 0 22.11-4.512 28.191-13.882 6.117-9.369 9.164-22.55 9.164-39.738 0-10.293-1.269-20.588-3.781-30.958-2.521-10.366-6.927-17.623-13.177-22.255-6.279-4.623-13.075-6.71-20.397-6.71h-17.26v85.832h-24.129V-39.349h31.871c14.225 0 25.121 1.2 32.658 3.786 7.521 2.598 14.296 7.288 20.326 14.179 6.023 6.876 10.654 15.305 13.91 25.304 3.257 9.988 4.883 22.017 4.883 36.089 0 14.219-1.906 26.913-5.744 38.184-3.828 11.248-9.858 20.226-18.129 27.006m-345.426-55.09c-12.204 4.061-20.062 8.11-23.569 12.099-3.583 4.009-5.365 8.371-5.365 13.119 0 6.215 2.488 11.421 7.45 15.6 4.975 4.191 11.354 6.277 18.927 6.277 10.09 0 21.478-4.919 33.082-14.767v25.326c-11.604 6.663-22.794 9.989-34.433 9.989-14.08 0-25.958-4.15-35.529-12.428-9.553-8.289-14.371-18.736-14.371-31.328 0-7.04 1.649-13.244 4.986-18.618 3.338-5.37 7.614-9.678 12.822-12.946 5.179-3.245 12.507-6.437 21.944-9.557 12.641-4.208 20.686-8.61 24.187-13.211 3.5-4.655 5.242-9.33 5.242-13.998 0-7.332-3.145-13.679-9.39-19.058-6.274-5.362-13.626-8.045-22.422-8.045-12.21 0-24.553 5.884-37.072 17.652v-26.661c12.519-7.557 25.929-11.318 38.541-11.318 15.133 0 28.06 4.733 38.983 14.217 10.898 9.466 16.31 20.917 16.31 34.327 0 11.183-3.239 20.028-9.653 26.553-6.436 6.516-16.671 12.11-30.67 16.776M96.396-53.769c1.207 3.409 2.721 7.225 4.055 11.283l36.711 108.627h-24.461L91.213-9.513 67.404 66.141H41.639L79.608-40.075c-2.283-7.203-3.618-10.328-4.735-12.031 0 0-6.035-9.001-22.131-4.23v-17.275s34.374-6.639 43.654 19.842m-330.745 1.179c1.211 3.431 2.755 7.088 4.083 11.138l36.717 108.487h-24.454l-21.484-75.663-23.814 75.663h-25.76l37.958-106.057c-2.272-7.225-3.647-10.259-4.759-11.966 0 0-6.076-8.937-22.171-4.165v-17.272s34.422-6.642 43.684 19.835" style="fill:#f06532;fill-opacity:1;fill-rule:nonzero;stroke:none" transform="translate(664.922 528.84)"/><path d="M0 0h-8.813v-24.448h-3.589V0h-8.779v2.96H0Z" style="fill:#0376bc;fill-opacity:1;fill-rule:nonzero;stroke:none" transform="translate(191.427 438.17)"/><path d="M0 0h5.557c1.8 0 3.216.46 4.288 1.381 1.048.945 1.578 2.182 1.578 3.74 0 1.698-.506 2.994-1.514 3.9-1.008.907-2.482 1.361-4.381 1.377H0Zm6.437-2.973H0v-11.065h-3.635v27.384h9.064c3.105 0 5.464-.698 7.131-2.104 1.659-1.397 2.486-3.442 2.486-6.132 0-1.719-.454-3.186-1.362-4.463-.938-1.258-2.226-2.209-3.863-2.839l6.431-11.627v-.219H12.39Z" style="fill:#0376bc;fill-opacity:1;fill-rule:nonzero;stroke:none" transform="translate(199.105 427.772)"/><path d="M0 0h9.321L4.643 12.802Zm10.393-2.974H-1.089l-2.575-7.164H-7.38L3.076 17.271h3.152l10.485-27.409h-3.711z" style="fill:#0376bc;fill-opacity:1;fill-rule:nonzero;stroke:none" transform="translate(223.955 423.86)"/><path d="m0 0 7.818 22.604h3.949L1.614-4.793h-3.193l-10.153 27.397h3.938z" style="fill:#0376bc;fill-opacity:1;fill-rule:nonzero;stroke:none" transform="translate(251.789 418.526)"/><path d="M0 0h-11.877v-9.728H1.905v-2.935H-15.49v27.396H1.718v-2.96h-13.595V2.958H0Z" style="fill:#0376bc;fill-opacity:1;fill-rule:nonzero;stroke:none" transform="translate(282.727 426.397)"/><path d="M0 0h12.979v-2.96H-3.624v27.408H0Z" style="fill:#0376bc;fill-opacity:1;fill-rule:nonzero;stroke:none" transform="translate(292.758 416.682)"/><path d="M0 0h-11.872v-9.7H1.917v-2.958h-17.4v27.397H1.73v-2.971h-13.602V2.954H0Z" style="fill:#0376bc;fill-opacity:1;fill-rule:nonzero;stroke:none" transform="translate(360.034 425.22)"/><path d="m0 0 6.571 10.506h4.241L2.161-3.086l8.849-13.816H6.746L0-6.202l-6.781-10.7h-4.275l8.889 13.816-8.68 13.592h4.236z" style="fill:#0376bc;fill-opacity:1;fill-rule:nonzero;stroke:none" transform="translate(375.39 429.453)"/><path d="M0 0h6.489c1.923 0 3.419.441 4.451 1.362 1.013.907 1.52 2.221 1.52 3.943 0 1.638-.507 2.949-1.52 3.931-1.032.981-2.441 1.483-4.259 1.52H0Zm0-2.975v-10.71h-3.618v27.398H6.489c2.994 0 5.342-.775 7.037-2.295 1.713-1.538 2.563-3.561 2.563-6.076 0-2.659-.839-4.713-2.505-6.145-1.66-1.436-4.037-2.172-7.135-2.172z" style="fill:#0376bc;fill-opacity:1;fill-rule:nonzero;stroke:none" transform="translate(394.223 426.246)"/><path d="M0 0h12.979v-2.969H-3.623v27.408H0Z" style="fill:#0376bc;fill-opacity:1;fill-rule:nonzero;stroke:none" transform="translate(418.538 415.52)"/><path d="M0 0c0 3.249-.652 5.734-1.957 7.475-1.323 1.746-3.134 2.604-5.481 2.604-2.272 0-4.072-.858-5.395-2.604-1.311-1.741-1.98-4.148-2.016-7.246v-2.003c0-3.157.664-5.617 1.987-7.429 1.317-1.781 3.152-2.688 5.464-2.688 2.33 0 4.142.847 5.412 2.537C-.699-7.645-.035-5.218 0-2.041zm3.588-1.774c0-2.682-.46-5.029-1.357-7.02-.897-2.005-2.178-3.532-3.833-4.585-1.654-1.055-3.582-1.585-5.796-1.585-2.162 0-4.078.53-5.744 1.596-1.671 1.053-2.959 2.569-3.879 4.532-.927 1.963-1.398 4.235-1.434 6.81v1.983c0 2.626.467 4.966 1.375 6.982.927 2.009 2.202 3.565 3.892 4.634 1.678 1.075 3.594 1.611 5.75 1.611 2.184 0 4.123-.525 5.801-1.59 1.678-1.063 2.971-2.599 3.868-4.623.897-2 1.357-4.354 1.357-7.014z" style="fill:#0376bc;fill-opacity:1;fill-rule:nonzero;stroke:none" transform="translate(451.91 427.147)"/><path d="M0 0h5.557c1.789 0 3.216.458 4.276 1.39 1.061.938 1.584 2.174 1.584 3.731 0 1.701-.495 2.995-1.508 3.903-1.013.907-2.464 1.363-4.375 1.377H0Zm6.443-2.97H0v-11.069h-3.629v27.386h9.076c3.075 0 5.464-.694 7.106-2.104 1.661-1.391 2.499-3.449 2.499-6.135 0-1.711-.466-3.184-1.38-4.458-.926-1.273-2.196-2.204-3.839-2.839l6.425-11.619v-.231h-3.873z" style="fill:#0376bc;fill-opacity:1;fill-rule:nonzero;stroke:none" transform="translate(464.528 426.6)"/><path d="M0 0h-11.866v-9.7H1.922v-2.958h-17.406v27.397H1.748v-2.971h-13.614V2.954H0Z" style="fill:#0376bc;fill-opacity:1;fill-rule:nonzero;stroke:none" transform="translate(500.121 425.22)"/><path d="M0 0a6.203 6.203 0 0 0-6.209-6.205A6.206 6.206 0 0 0-12.419 0c0 3.418 2.784 6.196 6.21 6.196C-2.779 6.196 0 3.418 0 0" style="fill:#f06532;fill-opacity:1;fill-rule:nonzero;stroke:none" transform="translate(331.863 428.263)"/><path d="M0 0h381.67" style="fill:none;stroke:#f06532;stroke-width:8;stroke-linecap:butt;stroke-linejoin:miter;stroke-miterlimit:10;stroke-dasharray:none;stroke-opacity:1" transform="translate(513.56 423.86)"/><path d="M0 0c-2.323.463-4.637.941-6.955 1.41-4.812.982-9.629 1.943-14.436 2.936-1.91.396-3.419 1.966-3.593 3.871-.245 2.738.373 5.318 1.922 7.626 1.194 1.764 2.598 2.225 4.736 1.787 8.965-1.822 17.941-3.622 26.925-5.428 1.642-.341 3.309-.636 4.946-1.017.635-.137 1.1 0 1.607.416 4.393 3.505 8.836 6.944 13.211 10.486 1.795 1.439 3.676 1.607 5.599.477 2.447-1.447 4.171-3.553 4.824-6.366.443-1.923-.228-3.499-1.76-4.713-4.253-3.367-8.505-6.735-12.775-10.078C23.594.9 23.302.35 23.302-.5c.023-10.055.023-20.112.023-30.161 0-.755.053-1.52-.035-2.255-.326-2.248-2.132-3.897-4.393-3.99a62.627 62.627 0 0 0-4.566-.008c-2.656.087-4.614 2.141-4.614 4.823v21.836c-.46-.3-.763-.463-1.049-.667A40485.29 40485.29 0 0 0-41.9-50.921c-2.518-2.005-4.958-4.195-7.65-5.966-2.033-1.348-4.38-2.312-6.675-3.212-5.138-1.995-10.48-3.026-15.985-3.411-14.68-1.004-27.862 2.854-39.443 11.925-10.713 8.376-17.522 19.334-20.522 32.624-.81 3.545-1.142 7.145-1.253 10.792-.85 26.947 17.877 50.732 43.731 56.727 4.794 1.112 9.634 1.566 14.545 1.514.891 0 1.765-.082 2.651-.187.757-.084 1.194.198 1.637.816 5.459 7.815 12.774 13.107 21.937 15.746 6.904 1.998 13.864 2.015 20.821.285.698-.186 1.101-.017 1.544.46 8.731 9.07 19.258 14.942 31.717 16.818 20.984 3.169 38.605-3.379 52.708-19.25 4.136-4.64 7.217-9.999 9.484-15.807.227-.603.524-.978 1.24-1.036 8.179-.577 15.834-2.925 22.871-7.044 15.273-8.947 24.933-22.165 28.334-39.492 3.542-18.119-.896-34.483-12.642-48.711-8.329-10.046-18.961-16.524-31.782-19.174-3.355-.687-6.809-1.101-10.211-1.101-29.267-.093-58.533-.056-87.805-.056-.431 0-.862.01-1.293 0-2.861-.058-5.034 2.046-5.034 4.897a131.838 131.838 0 0 0 0 3.667c0 2.951 2.086 5.018 5.034 5.018 29.237 0 58.462 0 87.706.012 10.206 0 19.258 3.286 27.104 9.752 8.314 6.867 13.608 15.628 15.607 26.201 2.527 13.51-.711 25.701-9.234 36.415-6.39 8.014-14.674 13.199-24.758 15.338-3.529.745-7.113 1.106-10.723.757-1.183-.116-2.389-.012-3.572-.063-.635-.019-.739.383-.868.847-.862 2.856-1.479 5.787-2.615 8.516-6.064 14.586-16.771 23.922-32.372 26.694-17.382 3.094-31.585-2.956-42.495-16.777-.716-.874-1.427-1.759-2.051-2.674-.436-.617-.809-.733-1.537-.433-2.796 1.11-5.552 2.385-8.452 3.107-11.71 2.908-24.217-3.163-29.436-14.079-.605-1.253-1.258-2.473-1.795-3.752-.337-.836-.873-.917-1.654-.792-2.423.425-4.847.885-7.305 1.16-4.491.489-8.97.267-13.392-.7-8.179-1.783-15.28-5.618-21.21-11.51-6.565-6.523-10.782-14.348-12.216-23.523-2.295-14.791 1.905-27.595 12.461-38.173 6.518-6.513 14.452-10.434 23.622-11.782 8.132-1.197 16.036-.294 23.661 2.802 2.063.825 3.659 2.251 5.337 3.568C-37.229-29.822-20.364-16.459-3.482-3.107c1.176.932 2.37 1.872 3.558 2.798C.053-.201.012-.11 0 0" style="fill:#0376bc;fill-opacity:1;fill-rule:evenodd;stroke:none" transform="translate(780.81 672.047)"/></g></svg>