<svg xmlns="http://www.w3.org/2000/svg" width="401" height="63" fill="none" viewBox="0 0 401 63"><path stroke="#964122" stroke-width="3" d="M61 2H2V61H61V2Z"/><path fill="#964122" d="M31.5 49.5C41.4411 49.5 49.5 41.4411 49.5 31.5C49.5 21.5589 41.4411 13.5 31.5 13.5C21.5589 13.5 13.5 21.5589 13.5 31.5C13.5 41.4411 21.5589 49.5 31.5 49.5Z"/><path fill="#964122" d="M116.857 5.69602V56.6051H108.654L84.6664 21.9283H84.2438V56.6051H75.0215V5.69602H83.2743L107.237 40.3977H107.685V5.69602H116.857Z"/><path fill="#964122" d="M172.396 31.1506C172.396 36.6359 171.369 41.334 169.314 45.245C167.276 49.1394 164.491 52.1224 160.962 54.1939C157.448 56.2654 153.463 57.3011 149.005 57.3011C144.547 57.3011 140.553 56.2654 137.023 54.1939C133.51 52.1058 130.726 49.1146 128.671 45.2202C126.633 41.3092 125.614 36.6193 125.614 31.1506C125.614 25.6652 126.633 20.9754 128.671 17.081C130.726 13.17 133.51 10.1787 137.023 8.10724C140.553 6.03575 144.547 5 149.005 5C153.463 5 157.448 6.03575 160.962 8.10724C164.491 10.1787 167.276 13.17 169.314 17.081C171.369 20.9754 172.396 25.6652 172.396 31.1506ZM163.124 31.1506C163.124 27.2893 162.519 24.0329 161.31 21.3814C160.116 18.7133 158.459 16.6998 156.338 15.3409C154.217 13.9654 151.772 13.2777 149.005 13.2777C146.237 13.2777 143.793 13.9654 141.672 15.3409C139.551 16.6998 137.885 18.7133 136.675 21.3814C135.482 24.0329 134.886 27.2893 134.886 31.1506C134.886 35.0118 135.482 38.2765 136.675 40.9446C137.885 43.5961 139.551 45.6096 141.672 46.9851C143.793 48.344 146.237 49.0234 149.005 49.0234C151.772 49.0234 154.217 48.344 156.338 46.9851C158.459 45.6096 160.116 43.5961 161.31 40.9446C162.519 38.2765 163.124 35.0118 163.124 31.1506Z"/><path fill="#964122" d="M222.951 5.69602V56.6051H214.748L190.76 21.9283H190.338V56.6051H181.115V5.69602H189.368L213.331 40.3977H213.779V5.69602H222.951Z"/><path fill="#964122" d="M255.745 27.4467V34.8544H232.826V27.4467H255.745Z"/><path fill="#964122" d="M270.299 5.69602L283.549 45.767H284.071L297.295 5.69602H307.437L289.49 56.6051H278.105L260.182 5.69602H270.299Z"/><path fill="#964122" d="M314.143 56.6051V5.69602H347.253V13.4268H323.365V27.2479H345.538V34.9787H323.365V48.8743H347.452V56.6051H314.143Z"/><path fill="#964122" d="M390.767 21.9531C390.353 20.6108 389.781 19.4093 389.052 18.3487C388.339 17.2715 387.478 16.3518 386.467 15.5895C385.472 14.8272 384.329 14.2554 383.036 13.8743C381.744 13.4766 380.335 13.2777 378.811 13.2777C376.076 13.2777 373.64 13.9654 371.502 15.3409C369.365 16.7164 367.682 18.7382 366.456 21.4062C365.246 24.0578 364.642 27.2893 364.642 31.1009C364.642 34.9456 365.246 38.2019 366.456 40.87C367.666 43.5381 369.348 45.5682 371.502 46.9602C373.657 48.3357 376.159 49.0234 379.009 49.0234C381.595 49.0234 383.832 48.5263 385.721 47.532C387.627 46.5376 389.093 45.129 390.121 43.3061C391.148 41.4666 391.662 39.3123 391.662 36.843L393.75 37.1662H379.929V29.9574H400.586V36.0724C400.586 40.4309 399.658 44.201 397.802 47.3828C395.946 50.5646 393.394 53.0173 390.146 54.7408C386.898 56.4477 383.169 57.3011 378.96 57.3011C374.27 57.3011 370.152 56.2488 366.605 54.1442C363.075 52.023 360.316 49.0152 358.328 45.1207C356.356 41.2098 355.37 36.5696 355.37 31.2003C355.37 27.0904 355.95 23.4197 357.11 20.1882C358.286 16.9567 359.927 14.214 362.031 11.9602C364.136 9.68987 366.605 7.96638 369.439 6.78977C372.273 5.59659 375.355 5 378.686 5C381.503 5 384.13 5.4143 386.566 6.2429C389.002 7.05492 391.165 8.21496 393.054 9.72301C394.96 11.2311 396.526 13.0208 397.752 15.0923C398.979 17.1638 399.782 19.4508 400.164 21.9531H390.767Z"/></svg>