<svg xmlns="http://www.w3.org/2000/svg" width="213" height="63" fill="none" viewBox="0 0 213 63"><path stroke="#008200" stroke-width="3" d="M60.5 2H1.5V61H60.5V2Z"/><path fill="#008200" d="M31 49.5C40.9411 49.5 49 41.4411 49 31.5C49 21.5589 40.9411 13.5 31 13.5C21.0589 13.5 13 21.5589 13 31.5C13 41.4411 21.0589 49.5 31 49.5Z"/><path fill="#008200" d="M81.832 5.69602L95.0813 45.767H95.6033L108.828 5.69602H118.97L101.022 56.6051H89.6374L71.7148 5.69602H81.832Z"/><path fill="#008200" d="M125.675 56.6051V5.69602H158.786V13.4268H134.898V27.2479H157.071V34.9787H134.898V48.8743H158.985V56.6051H125.675Z"/><path fill="#008200" d="M202.3 21.9531C201.886 20.6108 201.314 19.4093 200.585 18.3487C199.872 17.2715 199.01 16.3518 197.999 15.5895C197.005 14.8272 195.862 14.2554 194.569 13.8743C193.276 13.4766 191.868 13.2777 190.343 13.2777C187.609 13.2777 185.173 13.9654 183.035 15.3409C180.897 16.7164 179.215 18.7382 177.989 21.4062C176.779 24.0578 176.174 27.2893 176.174 31.1009C176.174 34.9456 176.779 38.2019 177.989 40.87C179.199 43.5381 180.881 45.5682 183.035 46.9602C185.189 48.3357 187.692 49.0234 190.542 49.0234C193.127 49.0234 195.365 48.5263 197.254 47.532C199.16 46.5376 200.626 45.129 201.654 43.3061C202.681 41.4666 203.195 39.3123 203.195 36.843L205.283 37.1662H191.462V29.9574H212.119V36.0724C212.119 40.4309 211.191 44.201 209.335 47.3828C207.479 50.5646 204.927 53.0173 201.678 54.7408C198.43 56.4477 194.702 57.3011 190.492 57.3011C185.802 57.3011 181.684 56.2488 178.138 54.1442C174.608 52.023 171.849 49.0152 169.86 45.1207C167.888 41.2098 166.902 36.5696 166.902 31.2003C166.902 27.0904 167.482 23.4197 168.642 20.1882C169.819 16.9567 171.459 14.214 173.564 11.9602C175.669 9.68987 178.138 7.96638 180.972 6.78977C183.806 5.59659 186.888 5 190.219 5C193.036 5 195.663 5.4143 198.099 6.2429C200.535 7.05492 202.698 8.21496 204.587 9.72301C206.493 11.2311 208.059 13.0208 209.285 15.0923C210.511 17.1638 211.315 19.4508 211.696 21.9531H202.3Z"/></svg>