<svg width="40" height="38" viewBox="0 0 40 38" fill="none" xmlns="http://www.w3.org/2000/svg">
<path d="M3.70898 37.2502C2.94232 37.2502 2.27148 36.9627 1.69648 36.3877C1.12148 35.8127 0.833984 35.1418 0.833984 34.3752V10.9439C0.833984 10.1772 1.12148 9.50641 1.69648 8.93141C2.27148 8.35641 2.94232 8.06891 3.70898 8.06891H12.8132V3.7085C12.8132 2.94183 13.1007 2.271 13.6757 1.696C14.2507 1.121 14.9215 0.833496 15.6882 0.833496H24.3132C25.0798 0.833496 25.7507 1.121 26.3257 1.696C26.9007 2.271 27.1882 2.94183 27.1882 3.7085V8.06891H36.2923C37.059 8.06891 37.7298 8.35641 38.3048 8.93141C38.8798 9.50641 39.1673 10.1772 39.1673 10.9439V34.3752C39.1673 35.1418 38.8798 35.8127 38.3048 36.3877C37.7298 36.9627 37.059 37.2502 36.2923 37.2502H3.70898ZM15.6882 8.06891H24.3132V3.7085H15.6882V8.06891ZM36.2923 25.2231H24.3611V28.0981H15.7361V25.2231H3.70898V34.3752H36.2923V25.2231ZM18.6111 25.2231H21.4861V22.3481H18.6111V25.2231ZM3.70898 22.3481H15.7361V19.4731H24.3611V22.3481H36.2923V10.9439H3.70898V22.3481Z" fill="#163300"/>
</svg>
