<svg width="46" height="24" viewBox="0 0 46 24" fill="none" xmlns="http://www.w3.org/2000/svg">
<path d="M12 15.4C11.0667 15.4 10.2667 15.0667 9.6 14.4C8.93333 13.7333 8.6 12.9333 8.6 12C8.6 11.0667 8.93333 10.2667 9.6 9.6C10.2667 8.93333 11.0667 8.6 12 8.6C12.9333 8.6 13.7333 8.93333 14.4 9.6C15.0667 10.2667 15.4 11.0667 15.4 12C15.4 12.9333 15.0667 13.7333 14.4 14.4C13.7333 15.0667 12.9333 15.4 12 15.4ZM12 24C8.66667 24 5.83333 22.8333 3.5 20.5C1.16667 18.1667 0 15.3333 0 12C0 8.66667 1.16667 5.83333 3.5 3.5C5.83333 1.16667 8.66667 0 12 0C14.4 0 16.5 0.566667 18.3 1.7C20.1 2.83333 21.5167 4.55 22.55 6.85H40.35L46 12.5L37.65 20.15L33.25 16.95L28.85 20.15L25.1 17.15H22.55C21.7167 19.15 20.4083 20.7917 18.625 22.075C16.8417 23.3583 14.6333 24 12 24ZM12 21C13.9333 21 15.7167 20.3583 17.35 19.075C18.9833 17.7917 20.0333 16.15 20.5 14.15H26.2L28.9 16.4L33.3 13.25L37.4 16.35L41.65 12.4L39.1 9.85H20.5C20.1 7.98333 19.1 6.375 17.5 5.025C15.9 3.675 14.0667 3 12 3C9.5 3 7.375 3.875 5.625 5.625C3.875 7.375 3 9.5 3 12C3 14.5 3.875 16.625 5.625 18.375C7.375 20.125 9.5 21 12 21Z" fill="#163300"/>
</svg>
