<svg width="32" height="32" viewBox="0 0 32 32" fill="none" xmlns="http://www.w3.org/2000/svg">
<path d="M16 15.9502C13.8 15.9502 12 15.2502 10.6 13.8502C9.2 12.4502 8.5 10.6502 8.5 8.4502C8.5 6.2502 9.2 4.4502 10.6 3.0502C12 1.6502 13.8 0.950195 16 0.950195C18.2 0.950195 20 1.6502 21.4 3.0502C22.8 4.4502 23.5 6.2502 23.5 8.4502C23.5 10.6502 22.8 12.4502 21.4 13.8502C20 15.2502 18.2 15.9502 16 15.9502ZM0 32.0002V27.3002C0 26.0335 0.316667 24.9502 0.95 24.0502C1.58333 23.1502 2.4 22.4669 3.4 22.0002C5.63333 21.0002 7.775 20.2502 9.825 19.7502C11.875 19.2502 13.9333 19.0002 16 19.0002C18.0667 19.0002 20.1167 19.2585 22.15 19.7752C24.1833 20.2919 26.3154 21.0368 28.5461 22.0099C29.5894 22.4808 30.4259 23.1635 31.0556 24.0582C31.6852 24.9529 32 26.0335 32 27.3002V32.0002H0ZM3 29.0002H29V27.3002C29 26.7669 28.8417 26.2585 28.525 25.7752C28.2083 25.2919 27.8167 24.9335 27.35 24.7002C25.2167 23.6669 23.2667 22.9585 21.5 22.5752C19.7333 22.1919 17.9 22.0002 16 22.0002C14.1 22.0002 12.25 22.1919 10.45 22.5752C8.65 22.9585 6.7 23.6669 4.6 24.7002C4.13333 24.9335 3.75 25.2919 3.45 25.7752C3.15 26.2585 3 26.7669 3 27.3002V29.0002ZM16 12.9502C17.3 12.9502 18.375 12.5252 19.225 11.6752C20.075 10.8252 20.5 9.7502 20.5 8.4502C20.5 7.1502 20.075 6.0752 19.225 5.2252C18.375 4.3752 17.3 3.9502 16 3.9502C14.7 3.9502 13.625 4.3752 12.775 5.2252C11.925 6.0752 11.5 7.1502 11.5 8.4502C11.5 9.7502 11.925 10.8252 12.775 11.6752C13.625 12.5252 14.7 12.9502 16 12.9502Z" fill="#163300"/>
</svg>
