<svg width="31" height="26" viewBox="0 0 31 26" fill="none" xmlns="http://www.w3.org/2000/svg">
<path d="M5.29102 25.6252C4.07574 25.6252 3.04275 25.1998 2.19206 24.3491C1.34136 23.4984 0.916016 22.4654 0.916016 21.2502V11.0418C0.916016 9.82655 1.34136 8.79357 2.19206 7.94287C3.04275 7.09218 4.07574 6.66683 5.29102 6.66683C5.94727 6.66683 6.54883 6.80051 7.0957 7.06787C7.64258 7.33523 8.12261 7.68766 8.53581 8.12516H9.66602V0.833496H24.2493V8.12516H26.4368C27.4496 8.12516 28.3104 8.47962 29.0193 9.18854C29.7282 9.89744 30.0827 10.7583 30.0827 11.771V24.1668H8.53581C8.12261 24.6043 7.64258 24.9568 7.0957 25.2241C6.54883 25.4915 5.94727 25.6252 5.29102 25.6252ZM5.29102 23.4377C5.91081 23.4377 6.43034 23.228 6.84961 22.8088C7.26888 22.3895 7.47852 21.87 7.47852 21.2502V11.0418C7.47852 10.422 7.26888 9.90251 6.84961 9.48324C6.43034 9.06396 5.91081 8.85433 5.29102 8.85433C4.67122 8.85433 4.15169 9.06396 3.73242 9.48324C3.31315 9.90251 3.10352 10.422 3.10352 11.0418V21.2502C3.10352 21.87 3.31315 22.3895 3.73242 22.8088C4.15169 23.228 4.67122 23.4377 5.29102 23.4377ZM11.8535 8.12516H22.0618V3.021H11.8535V8.12516ZM9.66602 21.9793H27.8952V11.771C27.8952 11.3578 27.7554 11.0114 27.4759 10.7319C27.1964 10.4524 26.85 10.3127 26.4368 10.3127H9.66602V21.9793ZM19.8743 15.4168C20.2875 15.4168 20.6339 15.2771 20.9134 14.9976C21.1929 14.718 21.3327 14.3717 21.3327 13.9585C21.3327 13.5453 21.1929 13.1989 20.9134 12.9194C20.6339 12.6399 20.2875 12.5002 19.8743 12.5002C19.4612 12.5002 19.1148 12.6399 18.8353 12.9194C18.5558 13.1989 18.416 13.5453 18.416 13.9585C18.416 14.3717 18.5558 14.718 18.8353 14.9976C19.1148 15.2771 19.4612 15.4168 19.8743 15.4168ZM24.2493 15.4168C24.6625 15.4168 25.0089 15.2771 25.2884 14.9976C25.5679 14.718 25.7077 14.3717 25.7077 13.9585C25.7077 13.5453 25.5679 13.1989 25.2884 12.9194C25.0089 12.6399 24.6625 12.5002 24.2493 12.5002C23.8362 12.5002 23.4898 12.6399 23.2103 12.9194C22.9308 13.1989 22.791 13.5453 22.791 13.9585C22.791 14.3717 22.9308 14.718 23.2103 14.9976C23.4898 15.2771 23.8362 15.4168 24.2493 15.4168ZM19.8743 19.7918C20.2875 19.7918 20.6339 19.6521 20.9134 19.3726C21.1929 19.093 21.3327 18.7467 21.3327 18.3335C21.3327 17.9203 21.1929 17.5739 20.9134 17.2944C20.6339 17.0149 20.2875 16.8752 19.8743 16.8752C19.4612 16.8752 19.1148 17.0149 18.8353 17.2944C18.5558 17.5739 18.416 17.9203 18.416 18.3335C18.416 18.7467 18.5558 19.093 18.8353 19.3726C19.1148 19.6521 19.4612 19.7918 19.8743 19.7918ZM24.2493 19.7918C24.6625 19.7918 25.0089 19.6521 25.2884 19.3726C25.5679 19.093 25.7077 18.7467 25.7077 18.3335C25.7077 17.9203 25.5679 17.5739 25.2884 17.2944C25.0089 17.0149 24.6625 16.8752 24.2493 16.8752C23.8362 16.8752 23.4898 17.0149 23.2103 17.2944C22.9308 17.5739 22.791 17.9203 22.791 18.3335C22.791 18.7467 22.9308 19.093 23.2103 19.3726C23.4898 19.6521 23.8362 19.7918 24.2493 19.7918ZM11.8535 19.7918H16.9577V12.5002H11.8535V19.7918Z" fill="#EFF877"/>
</svg>
