<svg width="30" height="30" viewBox="0 0 30 30" fill="none" xmlns="http://www.w3.org/2000/svg">
<path d="M15.0028 14.6875C15.6051 14.6875 16.1198 14.473 16.5469 14.0441C16.974 13.6152 17.1875 13.0996 17.1875 12.4972C17.1875 11.8949 16.973 11.3802 16.5441 10.9531C16.1152 10.526 15.5996 10.3125 14.9972 10.3125C14.3949 10.3125 13.8802 10.527 13.4531 10.9559C13.026 11.3848 12.8125 11.9004 12.8125 12.5028C12.8125 13.1051 13.027 13.6198 13.4559 14.0469C13.8848 14.474 14.4004 14.6875 15.0028 14.6875ZM15 25.0312C17.7708 22.5104 19.8177 20.224 21.1406 18.1719C22.4635 16.1198 23.125 14.3125 23.125 12.75C23.125 10.296 22.3407 8.28672 20.7721 6.72203C19.2036 5.15734 17.2795 4.375 15 4.375C12.7205 4.375 10.7964 5.15734 9.22787 6.72203C7.65929 8.28672 6.875 10.296 6.875 12.75C6.875 14.3125 7.55208 16.1198 8.90625 18.1719C10.2604 20.224 12.2917 22.5104 15 25.0312ZM15 27.5C11.6458 24.6458 9.14062 21.9948 7.48438 19.5469C5.82812 17.099 5 14.8333 5 12.75C5 9.625 6.00521 7.13542 8.01562 5.28125C10.026 3.42708 12.3542 2.5 15 2.5C17.6458 2.5 19.974 3.42708 21.9844 5.28125C23.9948 7.13542 25 9.625 25 12.75C25 14.8333 24.1719 17.099 22.5156 19.5469C20.8594 21.9948 18.3542 24.6458 15 27.5Z" fill="#EFF877"/>
</svg>
