<svg width="30" height="30" viewBox="0 0 30 30" fill="none" xmlns="http://www.w3.org/2000/svg">
<path d="M14.3438 13.5938C13.9896 13.5938 13.6927 13.474 13.4531 13.2344C13.2135 12.9948 13.0938 12.6979 13.0938 12.3438C13.0938 11.9896 13.2135 11.6927 13.4531 11.4531C13.6927 11.2135 13.9896 11.0938 14.3438 11.0938C14.6979 11.0938 14.9948 11.2135 15.2344 11.4531C15.474 11.6927 15.5938 11.9896 15.5938 12.3438C15.5938 12.6979 15.474 12.9948 15.2344 13.2344C14.9948 13.474 14.6979 13.5938 14.3438 13.5938ZM19.75 13.5938C19.4047 13.5938 19.1152 13.474 18.8817 13.2344C18.6481 12.9948 18.5312 12.6979 18.5312 12.3438C18.5312 11.9896 18.6481 11.6927 18.8817 11.4531C19.1152 11.2135 19.4047 11.0938 19.75 11.0938C20.113 11.0938 20.4173 11.2135 20.6629 11.4531C20.9085 11.6927 21.0312 11.9896 21.0312 12.3438C21.0312 12.6979 20.9085 12.9948 20.6629 13.2344C20.4173 13.474 20.113 13.5938 19.75 13.5938ZM25.2812 13.5938C24.9182 13.5938 24.6139 13.474 24.3683 13.2344C24.1228 12.9948 24 12.6979 24 12.3438C24 11.9896 24.1228 11.6927 24.3683 11.4531C24.6139 11.2135 24.9182 11.0938 25.2812 11.0938C25.6266 11.0938 25.916 11.2135 26.1496 11.4531C26.3832 11.6927 26.5 11.9896 26.5 12.3438C26.5 12.6979 26.3832 12.9948 26.1496 13.2344C25.916 13.474 25.6266 13.5938 25.2812 13.5938ZM24.8438 26.25C22.3021 26.25 19.776 25.625 17.2656 24.375C14.7552 23.125 12.5 21.5 10.5 19.5C8.5 17.5 6.875 15.2448 5.625 12.7344C4.375 10.224 3.75 7.69792 3.75 5.15625C3.75 4.75446 3.88393 4.41964 4.15178 4.15178C4.41964 3.88393 4.75446 3.75 5.15625 3.75H9.53125C9.81481 3.75 10.068 3.84896 10.2908 4.04688C10.5136 4.24479 10.6562 4.51042 10.7188 4.84375L11.5625 8.78125C11.6042 9.07292 11.599 9.33854 11.5469 9.57812C11.4948 9.81771 11.3854 10.0208 11.2188 10.1875L8.09375 13.3438C9.26042 15.2812 10.5677 16.9688 12.0156 18.4062C13.4635 19.8438 15.1042 21.0625 16.9375 22.0625L19.9062 19C20.1146 18.7708 20.3542 18.6094 20.625 18.5156C20.8958 18.4219 21.1667 18.4062 21.4375 18.4688L25.1562 19.2812C25.4753 19.3516 25.7373 19.5098 25.9424 19.7559C26.1475 20.002 26.25 20.2917 26.25 20.625V24.8438C26.25 25.2455 26.1161 25.5804 25.8482 25.8482C25.5804 26.1161 25.2455 26.25 24.8438 26.25ZM7.15625 11.625L9.6875 9.0625L8.96875 5.625H5.625C5.625 6.4375 5.75 7.32812 6 8.29688C6.25 9.26562 6.63542 10.375 7.15625 11.625ZM18.6875 22.9688C19.5417 23.3646 20.4688 23.6875 21.4688 23.9375C22.4688 24.1875 23.4375 24.3333 24.375 24.375V21.0312L21.1562 20.375L18.6875 22.9688Z" fill="#EFF877"/>
</svg>
