<svg width="80" height="60" viewBox="0 0 80 60" fill="none" xmlns="http://www.w3.org/2000/svg">
<path d="M18.6675 0.404785C8.35766 0.404785 0 8.76479 0 19.0782C0 29.3881 8.35766 37.7481 18.6675 37.7481C18.6675 37.7481 18.5772 44.6843 12.9422 54.6674C12.3163 56.6678 13.432 58.7979 15.4336 59.4203C16.8538 59.867 18.3481 59.4328 19.3131 58.422C32.2702 44.2501 37.342 27.5707 37.342 19.0782C37.342 8.76479 28.9845 0.404785 18.6675 0.404785Z" fill="#163300" fill-opacity="0.09"/>
<path d="M61.3277 0.404785C51.0178 0.404785 42.6602 8.76494 42.6602 19.0782C42.6602 29.3881 51.0178 37.7481 61.3277 37.7481C61.3277 37.7481 61.2373 44.6843 55.6023 54.6674C54.9764 56.6678 56.0923 58.7979 58.0938 59.4203C59.5139 59.867 61.0083 59.4328 61.9731 58.422C74.9303 44.2501 80.0023 27.5707 80.0023 19.0782C80.0023 8.76479 71.6447 0.404785 61.3277 0.404785Z" fill="#163300" fill-opacity="0.09"/>
</svg>
