<svg width="25" height="25" viewBox="0 0 25 25" fill="none" xmlns="http://www.w3.org/2000/svg">
<path d="M22.7042 24.0928L14.2115 15.6001C13.5656 16.1598 12.8126 16.5957 11.9524 16.9079C11.0921 17.22 10.1768 17.3761 9.20625 17.3761C6.87776 17.3761 4.9071 16.5688 3.29426 14.9542C1.68142 13.3396 0.875 11.3914 0.875 9.10944C0.875 6.8275 1.68229 4.87923 3.29688 3.26465C4.91146 1.65007 6.8651 0.842773 9.15781 0.842773C11.4505 0.842773 13.3988 1.65007 15.0026 3.26465C16.6064 4.87923 17.4083 6.82911 17.4083 9.11428C17.4083 10.0367 17.2576 10.9285 16.9562 11.7896C16.6549 12.6508 16.2028 13.4581 15.6 14.2115L24.125 22.6719L22.7042 24.0928ZM9.17396 15.4386C10.9231 15.4386 12.4099 14.8197 13.6342 13.5818C14.8586 12.344 15.4708 10.8532 15.4708 9.10944C15.4708 7.36569 14.8586 5.87489 13.6342 4.63704C12.4099 3.3992 10.9231 2.78027 9.17396 2.78027C7.40689 2.78027 5.90488 3.3992 4.66791 4.63704C3.43097 5.87489 2.8125 7.36569 2.8125 9.10944C2.8125 10.8532 3.43097 12.344 4.66791 13.5818C5.90488 14.8197 7.40689 15.4386 9.17396 15.4386Z" fill="#454745"/>
</svg>
