<svg width="36" height="37" viewBox="0 0 36 37" fill="none" xmlns="http://www.w3.org/2000/svg">
<path d="M33.8 36.9502L20.65 23.8002C19.65 24.6669 18.484 25.3419 17.1521 25.8252C15.8201 26.3085 14.4027 26.5502 12.9 26.5502C9.2946 26.5502 6.24325 25.3002 3.74595 22.8002C1.24865 20.3002 0 17.2835 0 13.7502C0 10.2169 1.25 7.2002 3.75 4.7002C6.25 2.2002 9.275 0.950195 12.825 0.950195C16.375 0.950195 19.3917 2.2002 21.875 4.7002C24.3583 7.2002 25.6 10.2194 25.6 13.7577C25.6 15.186 25.3667 16.5669 24.9 17.9002C24.4333 19.2335 23.7333 20.4835 22.8 21.6502L36 34.7502L33.8 36.9502ZM12.85 23.5502C15.5583 23.5502 17.8604 22.5919 19.7563 20.6752C21.6521 18.7585 22.6 16.4502 22.6 13.7502C22.6 11.0502 21.6521 8.74186 19.7563 6.8252C17.8604 4.90853 15.5583 3.9502 12.85 3.9502C10.1139 3.9502 7.7882 4.90853 5.8729 6.8252C3.95763 8.74186 3 11.0502 3 13.7502C3 16.4502 3.95763 18.7585 5.8729 20.6752C7.7882 22.5919 10.1139 23.5502 12.85 23.5502Z" fill="#EFF877"/>
</svg>
