<?xml version="1.0" encoding="utf-8"?>
<!-- Generator: Adobe Illustrator 25.4.0, SVG Export Plug-In . SVG Version: 6.00 Build 0)  -->
<svg version="1.1" id="Layer_1" xmlns="http://www.w3.org/2000/svg" xmlns:xlink="http://www.w3.org/1999/xlink" x="0px" y="0px"
	 viewBox="0 0 78.67 78.67" style="enable-background:new 0 0 78.67 78.67;" xml:space="preserve">
<path d="M25.22,47.85c0,9.65,0,19.3,0,29.03c-4.53,0-8.94,0-13.49,0c0-0.52,0-0.99,0-1.46c0-15.99,0.01-31.98-0.02-47.97
	c0-0.9,0.24-1.5,0.94-2.14c5.71-5.14,9.35-11.54,11.29-18.93c0.04-0.15,0.08-0.3,0.37-0.47c0.19,1.7,0.38,3.41,0.6,5.44
	c1.66-2.7,3.6-4.68,5.96-6.23c7.52-4.94,17.86-4.33,25.25,1.6c7.84,6.28,11.45,14.56,10.72,24.5C66.05,42.1,60.77,50.28,50.68,54.8
	c-8.47,3.8-18.08,1.56-23.7-5.06c-0.54-0.63-1-1.32-1.5-1.98C25.39,47.79,25.31,47.82,25.22,47.85z M39.35,15.11
	c-7.84-0.02-14.07,6.17-14.1,14.01c-0.03,7.82,6.19,14.08,14.03,14.1C46.85,43.24,53,37.08,53.3,29.73
	C53.62,22.01,47.23,14.92,39.35,15.11z"/>
</svg>
