<svg width="48" height="49" viewBox="0 0 48 49" fill="none" xmlns="http://www.w3.org/2000/svg" class="border"><rect y="0.366211" width="48" height="48" rx="8" fill="white" class="border"></rect><path fill-rule="evenodd" clip-rule="evenodd" d="M28.4109 14.8839L28.4119 15.6648C31.1665 15.8896 32.9862 17.8449 32.9891 20.8434L33 29.6203C33.0039 32.8895 31.0322 34.901 27.8718 34.9062L20.1519 34.9166C17.0112 34.9207 15.0148 32.8613 15.0109 29.5828L15 20.909C14.9961 17.8907 16.7515 15.9407 19.5062 15.6772L19.5052 14.8964C19.5042 14.4383 19.83 14.0937 20.2644 14.0937C20.6989 14.0926 21.0247 14.4362 21.0257 14.8943L21.0267 15.6231L26.8914 15.6148L26.8904 14.886C26.8894 14.4279 27.2152 14.0843 27.6497 14.0833C28.0742 14.0822 28.4099 14.4258 28.4109 14.8839ZM16.5215 21.2307L31.4696 21.2099V20.8455C31.4272 18.607 30.349 17.4326 28.4138 17.2577L28.4148 18.0594C28.4148 18.5071 28.0801 18.8621 27.6556 18.8621C27.2212 18.8632 26.8943 18.5092 26.8943 18.0615L26.8934 17.2181L21.0286 17.2265L21.0296 18.0688C21.0296 18.5175 20.7048 18.8715 20.2704 18.8715C19.8359 18.8725 19.5091 18.5196 19.5091 18.0708L19.5081 17.2692C17.5829 17.4701 16.5175 18.6487 16.5205 20.9069L16.5215 21.2307ZM27.2402 25.9627V25.9741C27.2501 26.4531 27.6253 26.8164 28.0804 26.806C28.5247 26.7946 28.8792 26.3979 28.8693 25.919C28.8486 25.4608 28.4921 25.0871 28.0488 25.0881C27.5947 25.0985 27.2392 25.4838 27.2402 25.9627ZM28.055 30.6374C27.6009 30.627 27.2346 30.2324 27.2336 29.7535C27.2237 29.2746 27.588 28.8779 28.0422 28.8664H28.0521C28.5161 28.8664 28.8923 29.261 28.8923 29.7504C28.8933 30.2397 28.5181 30.6364 28.055 30.6374ZM23.1719 25.9795C23.1916 26.4584 23.5678 26.8322 24.0219 26.8113C24.4662 26.7895 24.8207 26.3938 24.8009 25.9149C24.7901 25.4464 24.4248 25.082 23.9805 25.083C23.5263 25.1039 23.1709 25.5005 23.1719 25.9795ZM24.0258 30.5907C23.5717 30.6115 23.1965 30.2377 23.1758 29.7588C23.1758 29.2799 23.5302 28.8842 23.9844 28.8624C24.4287 28.8613 24.795 29.2257 24.8048 29.6932C24.8256 30.1732 24.4701 30.5688 24.0258 30.5907ZM19.1043 26.0158C19.1241 26.4947 19.5002 26.8696 19.9544 26.8477C20.3987 26.8269 20.7532 26.4302 20.7324 25.9513C20.7226 25.4828 20.3572 25.1184 19.912 25.1194C19.4578 25.1402 19.1033 25.5369 19.1043 26.0158ZM19.9584 30.5958C19.5042 30.6177 19.129 30.2429 19.1083 29.7639C19.1073 29.285 19.4627 28.8883 19.9169 28.8675C20.3612 28.8665 20.7275 29.2309 20.7374 29.6994C20.7581 30.1783 20.4037 30.575 19.9584 30.5958Z" fill="#FFCB4C"></path></svg>