<?xml version="1.0" encoding="UTF-8"?>
<svg id="Layer_1" data-name="Layer 1" xmlns="http://www.w3.org/2000/svg" viewBox="0 0 190 190">
  <defs>
    <style>
      .cls-1 {
        fill: #040404;
      }

      .cls-2 {
        fill: #1a1818;
      }

      .cls-3 {
        fill: #f7ec13;
      }
    </style>
  </defs>
  <path class="cls-2" d="M25.22,174c-5.07-2.07-8.17-5.82-8.67-11.4V51.42c.34-3.95,1.3-5.67,3.71-8.64,4.53-5.55,18.56-19.82,24.08-24.08,1.47-1.13,3.07-1.95,4.78-2.62l83.77-.08c5.56,1.04,9.07,5.9,9.62,11.37.62,6.21.86,24.34-.03,30.2-.64,4.21-4.9,2.93-4.9,1.89V26.75c0-1.36-3.16-5.87-4.63-5.87H50.53v23.77c0,1.19-4.78,5.25-5.87,5.25h-23.15v113.91c0,1.76,3.69,5.57,5.85,5.26,35.43-.34,71.04.61,106.36-.48,5.01-2.02,2.99-9.04,4.13-10.68,1.04-1.5,4.22-.63,4.65,1.6,1.21,6.2-3.13,12.18-8.62,14.49H25.22ZM46.21,24.59l-20.99,20.37h18.83c.25,0,2.16-2.46,2.16-2.78v-17.6Z"/>
  <path class="cls-2" d="M156.18,130.85c-.72.82.41,18.59-.11,21.81-1.67,10.54-13.86-1.49-16.33-1.5-2.67,0-11.23,10.13-15.4,3.66-2.46-3.81.06-22.73-1.03-23.97-.21-.24-3.75-.77-5.49-2.84-2.37-2.82-1.8-6.48-3.14-8.59-.92-1.45-4.34-2.1-6.11-4.38-2.33-3-2.62-6.07-1.55-9.58.35-1.16,1.44-1.65,1.6-3.38.4-4.36-3.81-5.93-1.57-12.03,1.95-5.33,6.09-4.44,7.73-7.08,2.09-3.35-.05-6.81,5.31-10.12,4.49-2.77,6.4-.25,9.63-.81,3.65-.64,4.38-6.84,12.22-5.19,3.8.8,4.72,4.11,7.5,4.89,3.51,1,6.85-1.91,11.2,1.71,3.86,3.21,2.61,7.25,4.42,9.78,1.62,2.26,5.03,1.91,7.11,5.86,3.55,6.74-1.45,8.28-1.3,12.34.14,3.94,4.04,5.11,1.77,11-1.81,4.7-6.54,4.92-7.84,6.98-1.27,2.03-.4,5.12-2.52,7.97-1.89,2.54-5.87,3.19-6.11,3.46ZM143.99,128.55c6.05-4.18,5.42-1.74,11.05-2.22,5.22-.45,3.49-6.86,6.34-10.34,1.79-2.19,5.11-2.37,6.38-4.74,1.84-3.46-.83-4.78-1.5-7.59-1.34-5.63,2.54-7.29,2.2-10.79-.37-3.83-5.6-4.04-7.68-7.19-2.29-3.47-.46-9.1-6.19-9.3-1.9-.06-3.21.82-5.27.44-4.27-.79-6.59-5.68-10.12-5.31-2.67.28-4.01,3.53-6.54,4.62-3.29,1.42-4.31.29-7.1.26-6.35-.06-4.25,5.38-6.83,9.27-2.22,3.35-7.62,3.9-7.63,7.76,0,1.25,1.79,3.52,2.15,5.21,1.26,5.9-2.18,7.5-2.01,10.74.19,3.87,5.28,4.07,7.49,7.24,1.7,2.43,1.18,3.74,1.9,6.15,1.69,5.69,6.92,2.2,11.32,3.49,4.16,1.22,4.83,6,10.03,4.25,1.36-.45,1.43-1.55,2.03-1.96ZM151.17,130.78c-4.82.44-5.07,4.82-10.8,4.98-6.97.2-6.17-4.6-12.05-4.98v20.99c3.99-.65,8.08-5.77,12.03-5.6,3.23.14,7.3,5.07,10.82,5.6v-20.99Z"/>
  <path class="cls-2" d="M69.05,36.94c.31,1.72-.57,6.25.27,7.45.99,1.41,6.24-.59,6.88,2.39.94,4.36-8.15,3.95-10.25,1.59-1.87-2.1-2.66-15.09,1.83-16.1l51.88.05c4.52,1.9,4.64,15.72-.57,17.31l-34.92.28c-3.02-.57-2.14-4.94,0-4.94h33.65v-8.03h-48.77Z"/>
  <path class="cls-2" d="M35.41,109.17c-1.71-.54-1.87-3.7.32-4.62l60.16-.3c2.67.18,3.12,4.92.63,4.92h-61.12Z"/>
  <path class="cls-2" d="M35.41,88.18h61.12c1.88,0,1.88,4.94,0,4.94h-60.51c-1.38,0-3.08-3.83-.62-4.94Z"/>
  <path class="cls-1" d="M35.41,72.13h61.74c1.26,0,1.26,4.32,0,4.32h-61.74c-1.07,0-1.5-3.71,0-4.32Z"/>
  <path class="cls-1" d="M35.41,120.9h61.74c1.26,0,1.26,4.32,0,4.32h-61.74c-1.07,0-1.5-3.71,0-4.32Z"/>
  <path class="cls-3" d="M35.41,149.3c-2.53-.79-1.68-4.57,2.43-4.98,8.91-.89,19.33.72,28.42.06,2.67.18,3.12,4.92.63,4.92h-31.49Z"/>
  <path class="cls-3" d="M135.57,82.15c30.78-5.16,30.71,41.46,2.39,38.68-22.81-2.24-22.77-35.27-2.39-38.68ZM136.19,87.09c-16.45,2.78-13.75,31.41,5.87,28.71,18.27-2.51,15.82-32.37-5.87-28.71Z"/>
</svg>