<?xml version="1.0" encoding="UTF-8"?>
<svg id="Layer_1" data-name="Layer 1" xmlns="http://www.w3.org/2000/svg" viewBox="0 0 190 190">
  <defs>
    <style>
      .cls-1 {
        fill: #f7ec13;
      }

      .cls-2 {
        fill: #151313;
      }
    </style>
  </defs>
  <path class="cls-2" d="M154.14,36.25c-1.92,1.13-10.81,2.19-11.36,3.79l-.42,34.59c-.68.99-1.73,1.52-2.86,1.85-8.78,2.61-29.06,6.09-38.29,6.81-17.57,1.38-36.22-4.56-53.4-7.69-1.08-.8-1.25-2.1-1.39-3.32-.55-4.77,1.14-32.11-.02-33.31-3.9-1.23-17.5-3.15-19.86-5.38-1.79-1.7-.74-3.97,1.32-4.81L92.71,11.5c21.35,4.71,43.92,9.6,64.95,16.2,5.9,1.85,9.7,4.4,1.84,7.65.91,4.89-1.36,26.14.65,28.9,1.16,1.58,6.57,2.91,7.32,5.47-.63,6.95,1.4,17.44-.01,23.95-1.56,7.19-8.55-2.47-10.84-2.07-2.08.36-7.37,7.68-9.55,3.23-1.83-3.74.57-20.61-.21-25.79.71-2.38,7.28-4.07,7.28-4.51v-28.28ZM148.76,30.87l-54.2-13.52c-16.79,4.79-35.51,7.88-51.94,13.43-.88.3-2.05.2-2.26,1.43l54.18,14.04c17.61-5.01,35.7-8.71,53.22-14.03.96-.29,1.19.43.99-1.35ZM137.31,40.97l-42.75,10.82-42.08-10.82v30.3c11.27,1.08,22.21,4.63,33.42,5.96,17.81,2.12,33.93-3.93,51.41-5.96v-30.3ZM161.55,71.26c-1.69.17-3.03-1.94-4.37-1.99-1-.04-5.06,2.31-5.06,3v15.15c4.21-2.83,5.32-3.57,9.43,0v-16.16Z"/>
  <path class="cls-2" d="M166.26,103.58c.95.61.89,11.54.35,13.48-.99,1.99-9.38,3.37-11.12,5.04-.83.8-3.73,9.53-4.6,11.56-.48,1.13-1.85,2.22-2.04,3.4-.63,3.91,6.68,9.19,3.26,13.99-1.14,1.59-12.94,13.17-14.12,13.54-2.82.88-9.49-4.49-11.8-4.42-.5.02-7.65,3.7-9.09,4.34-1.63.72-4.91,1.22-6.02,2.06-3.18,2.4-1.71,11.19-7.73,11.79-2.71.27-18.72.25-20.13-.65-1.28-.82-3.17-10.14-4.66-11.33-.7-.56-6.26-1.88-7.89-2.54-1.73-.7-5.98-3.44-7.19-3.54-3.1-.26-9.41,5.88-12.7,3.94-1.04-.61-14.05-13.69-14.34-14.67-.89-3.02,3.22-7.87,3.8-10.79.46-2.34-2.49-7.08-3.57-9.61-.63-1.47-1.87-6.65-2.54-7.23-1.43-1.25-10.27-2.98-11.33-4.65-1.1-1.74-1.18-12.24.72-13.36l40.31-.24c1.59,10.43,3.63,18.99,12.2,25.84,18.22,14.55,43.75,4,48.31-18.36.31-1.54-.31-7.57,1.86-7.57h40.06ZM59.22,108.97h-30.97c.22,1.22-.42,3.73.11,4.6s9.59,3.04,10.7,4.61c1.05,1.48,3.31,9.97,4.54,12.79.74,1.69,3.23,4.66,3.34,6.05.19,2.39-4.84,9.15-4.42,11.24.12.63,8.18,8.78,8.92,9.22,3.63,2.15,9.03-3.91,12.65-3.3,1.85.31,6.32,3.31,8.61,4.24s8.78,2.46,10.05,3.42c1.94,1.47,3.17,9.82,4.73,10.76,2.13.36,14.32.78,14.9-.07,1.18-2.68,2.68-9.57,5.05-10.97,2.1-1.24,8.05-2.59,11.01-3.8,1.93-.79,5.77-3.59,7.14-3.68,3.09-.19,8.64,4.66,11.25,3.94.62-.17,8.86-8.24,9.29-8.97,2.04-3.49-4.47-8.78-3.14-13.17.4-1.32,2.43-3.75,3.2-5.59,1.11-2.65,3.18-10.47,4.26-11.9,1.71-2.26,10.36-3.78,10.99-4.82.53-.87-.11-3.39.11-4.6h-31.64c-.3,15.36-12.82,28.8-27.58,32-21.13,4.58-41.27-10.64-43.11-32Z"/>
  <path class="cls-1" d="M72.48,103.72l44.3-.14c2.46.24,1.89,5.06,1.62,7.01-2.7,20.12-31.08,26.65-43.18,9.64-2.04-2.87-7.55-15.1-2.74-16.51ZM113.08,108.97h-36.36c3.64,20.77,32.26,20.45,36.36,0Z"/>
</svg>