<?xml version="1.0" encoding="UTF-8"?>
<svg id="Layer_1" data-name="Layer 1" xmlns="http://www.w3.org/2000/svg" viewBox="0 0 190 190">
  <defs>
    <style>
      .cls-1 {
        fill: #f7ec13;
      }

      .cls-2 {
        fill: #0f0e0e;
      }
    </style>
  </defs>
  <path class="cls-2" d="M4.67,142.28c-.64-.14-1.87-1.3-2.01-2.02-.3-1.61-.14-6.57.04-8.37,1.35-14.12,13.36-28.25,27.07-31.74-5.65-4.66-9.1-10.96-8.42-18.49,1.96-21.91,34.21-24.08,39.03-2.77,1.94,8.56-1.31,15.86-7.89,21.26,4.79,1.19,9.81,3.97,13.56,7.15,2.15,1.82,3.96,4.32,6.04,6.06,1.36-.49,11.91-2.47,11.91-3.13-15.23-12.1-13.31-40.22,9.36-41.59,24.93-1.5,29.17,28.17,12.64,41.59,0,.62,10.55,2.63,11.91,3.13.43-.04,5.01-5.19,6.04-6.06,3.75-3.18,8.78-5.96,13.56-7.15-6.66-5.47-9.93-12.9-7.8-21.54,4.51-18.24,30.58-19.99,37.49-2.47,3.62,9.18.4,17.98-6.97,24,13.72,3.49,25.72,17.62,27.07,31.74.17,1.8.34,6.76.04,8.37-.13.67-1.51,2.02-2.01,2.02h-45.62c-.24,6.87.32,13.86.02,20.72-.24,5.24-.43,10.41-4.45,14.24-3.13,2.98-6.94,3.67-11.12,3.9-20.81,1.15-42.16-.53-62.96-.47-9.24-2.61-10.54-9.09-10.91-17.67-.3-6.88.25-13.84.02-20.72H4.67ZM39.96,69.11c-18.52,1.5-16.97,29.26,1.3,29.07,19.68-.21,18.5-30.67-1.3-29.07ZM147.69,69.11c-18.52,1.5-16.97,29.26,1.3,29.07,19.68-.21,18.5-30.67-1.3-29.07ZM91.62,74.23c-20.48,2.45-12.49,38.05,6.03,34.25,6.88-1.41,12.02-9.63,12.69-16.26,1.29-12.8-6.11-19.5-18.72-17.99ZM8.34,137.15h41.96c.5-8.9.57-15.11,9.21-19.56,1.95-1.01,4.33-1.45,6.09-2.35.25-.13.71-.03.46-.62-.36-.86-4.03-3.8-5.01-4.52-20.72-15.22-51.64-2.08-53.24,23.94-.04.72-.24,2.87.54,3.11ZM139.7,137.15h41.96c1.15,0,.19-5.68.02-6.61-4.5-24.12-32.96-34.94-52.72-20.43-.98.72-4.65,3.66-5.01,4.52-.25.59.21.49.46.62,1.69.86,4.03,1.25,5.88,2.19,8.72,4.38,8.95,10.78,9.41,19.72ZM94.13,114.12c-.29.1-.48.24-.55.55l-5.45,39.47c.09.53,5.51,8.1,6.19,8.78.25.25.31.75.85.61l6.68-9.63-5.45-39.24c-.24-.76-1.61-.78-2.28-.55ZM66.78,175.63v-30.96c0-3.18,5.5-2.74,5.5-.37v31.33h45.44v-31.33c0-.17,1.01-1.52,1.26-1.67,1.63-.99,4.24.3,4.24,2.04v30.96c2.76.14,5.1.09,7.45-1.53,4.69-3.21,3.33-9.19,3.53-14.06.37-9.13.74-18.66-.03-27.79-.6-7.11-3.12-9.04-9.5-11.39-7.38-2.72-15.46-3.95-23.06-5.88l5.44,37.79.03,2.87-10.09,14.46c-1.04,1.08-2.94,1.08-3.97,0l-10.09-14.46.03-2.87,5.26-37.98c-7.95,2.55-17.05,3.51-24.72,6.8-8.62,3.69-7.27,7.94-7.69,16.13-.48,9.36-.85,20.34,0,29.66.56,6.17,5.07,8.91,10.99,8.25Z"/>
  <path class="cls-1" d="M104.62,22.73c.84.81,11.79,1.27,14.2,2.11,3.02,1.05,3.74,4.31,2.2,6.96l-10.29,9.58c.39,4.2,2.48,9.45,2.6,13.52.08,2.54-1.64,4.8-4.24,4.94-3.29.18-13.05-7.1-14.21-6.92l-11.77,6.56c-11.12,1.95-4.15-12.35-3.84-18.1l-10.61-10c-2.94-9.67,11.15-6.57,16.57-8.54,2.6-4.36,3.86-9.98,7.22-13.75,1.09-.76,3.15-.79,4.4-.4,2.81.87,6.02,11.35,7.77,14.03ZM95.36,15.13c-.85-.19-.59.12-.82.47-1.41,2.17-4.54,10.98-6,11.95-.56.37-1.86.6-2.57.73-3.45.63-7.6.73-11.13,1.14-.17.64.26.73.55,1.1,1.7,2.21,8.89,7.61,9.28,9.43.57,2.68-2.26,10.49-2.5,13.65.76.69,10.95-6.43,13-6.25,4.31,1.51,8.04,4.5,12.28,6.25.73-.82-2.75-11.72-2.04-13.94.32-.99,7.59-7.64,8.99-8.98.51-.48,1.66-.5.92-1.26-4.64-.37-9.38-.76-13.89-1.86-2.5-3.88-4.21-8.23-6.09-12.42Z"/>
  <path class="cls-2" d="M58.97,35.41c4.89,4.9-5.24,8.67-6.05,11.5-.91,3.2,3.93,9.62-.44,12.36-3.34,2.09-7.96-2.78-11.22-3.75-3.71.85-9.67,7.41-12.75,2.47-1.8-2.88,1.29-7.83.91-10.77-.32-2.47-7.89-5.36-7.27-9.45.74-4.91,8.12-3.42,11.66-4.49,2.48-3.16,3.37-11.75,9.06-9.44,2.4.97,3.84,7.35,5.58,9.44,2.64.81,8.61.24,10.51,2.13ZM41.5,30.89c-.86-.19-.59.12-.82.47-1.05,1.62-1.93,5.54-3.38,6.51-1.25.84-7.9.91-7.89,1.63.01.62,4.98,4.2,5.32,5.29.81,2.54-.92,5.83-.93,8.45.25.33,6.15-3.75,7.48-3.66,1.18.08,6.93,3.98,7.17,3.66-.01-2.62-1.74-5.9-.93-8.45.35-1.09,5.31-4.67,5.32-5.29.02-.73-6.63-.8-7.89-1.63-1.44-.96-2.61-5.33-3.47-6.98Z"/>
  <path class="cls-2" d="M166.7,35.41c4.89,4.9-5.24,8.67-6.05,11.5-.91,3.2,3.93,9.62-.44,12.36-3.34,2.09-7.96-2.78-11.22-3.75-3.71.85-9.67,7.41-12.75,2.47-1.8-2.88,1.29-7.83.91-10.77-.32-2.47-7.89-5.36-7.27-9.45.74-4.91,8.12-3.42,11.66-4.49,2.48-3.16,3.37-11.75,9.06-9.44,2.4.97,3.84,7.35,5.58,9.44,2.64.81,8.61.24,10.51,2.13ZM149.23,30.89c-.86-.19-.59.12-.82.47-1.05,1.62-1.93,5.54-3.38,6.51-1.25.84-7.9.91-7.89,1.63.01.62,4.98,4.2,5.32,5.29.81,2.54-.92,5.83-.93,8.45.25.33,6.15-3.75,7.48-3.66,1.18.08,6.93,3.98,7.17,3.66-.01-2.62-1.74-5.9-.93-8.45.35-1.09,5.31-4.67,5.32-5.29.02-.73-6.63-.8-7.89-1.63-1.44-.96-2.61-5.33-3.47-6.98Z"/>
  <path class="cls-1" d="M94.13,114.12c.67-.22,2.04-.21,2.28.55l5.45,39.24-6.68,9.63c-.54.14-.6-.36-.85-.61-.68-.68-6.1-8.25-6.19-8.78l5.45-39.47c.06-.31.26-.46.55-.55Z"/>
</svg>