<?xml version="1.0" encoding="UTF-8"?>
<svg id="Layer_1" data-name="Layer 1" xmlns="http://www.w3.org/2000/svg" viewBox="0 0 190 190">
  <defs>
    <style>
      .cls-1 {
        fill: #f7ec13;
      }
    </style>
  </defs>
  <path d="M113.67,128.2c4.09-.13,6.9,6,9.98,5.99,12.38-2.04,33.56-13.39,45.52-8.82,4.04,1.54,7.05,5.57,7.29,9.95.82,14.67-14.55,17.67-25.25,21.96-11.01,4.42-40.99,17.44-51.26,16.63-9.33-.73-24.77-9.66-33.39-7.86-1.22.26-8.19,3.46-8.6,4.14-.35.57,3.15,6.96-.55,11.05-2.95,3.25-22.22,11.55-24.09,2.52-4.57-15.01-15.06-31.34-19.04-46.13-.91-3.39-1.51-5.87,1.12-8.69s16.17-7.72,20.05-6.56c2.94.88,3.97,5.45,4.33,5.77,1.71,1.52,21.26-10.31,25.25-10.51.35-2.47-.33-5.01.42-7.46s4.88-4.55,4.91-4.9c.07-.81-1.48-7.97-1.87-9.33-5.01-17.68-19.56-23.82-8.97-46.47,15.74-33.67,69.23-20.12,63.67,21.17-1.46,10.82-12.92,19.53-13.28,32.49-.11,3.82,1.77,2.75,3.38,4.84,2.97,3.86,2.5,15.74.38,20.23ZM104.71,104.97c-.68-20.64,19.33-28.86,11.79-50.46-9.17-26.26-47.99-24.25-54.15,3.81-3.36,15.31,5.14,19.52,9.85,31.66,1.86,4.8,2.91,9.86,3.38,14.99h11.95v-32.62c-2.34-3.27-13.84-6.4-13.5-10.49.53-6.38,13.53,4.92,16.13,4.83,1.43-.05,16.55-11.5,15.94-4.23-.24,2.83-10.59,7.25-13.33,8.76v33.75h11.95ZM109.01,111.14c-2.29-2.3-30.79-.2-36.04-.91-2.77.52-2.83,2.82-2.64,5.23,3.98-.19,7.98.12,11.81,1.28,4.55,1.38,7.83,4.67,11.7,6.26,1.57.64,12.19,3.54,13.38,3.51,4.09-.11,3.21-13.93,1.78-15.36ZM42.75,133.53l12.63,31.13c1.24.78,7.72-3.57,10.28-4.01,15.88-2.73,26.96,11.8,47.84,5.28,17.37-5.43,34.87-14.47,52.24-20.31,5.85-3.44,8.38-13.62.28-15.57-10.46-2.52-30.87,8.08-41.91,9.78-.92.8-.81,4.08-1.55,5.95-1.73,4.35-7.55,8.06-12.22,7.97-4.13-.08-22.33-5.55-27.3-7.16-4.05-1.31-10.02-3.64-2.72-6.35,8.75.83,23.32,8.36,31.49,7.5,7.03-.74,8.8-10.11,2.88-13.43s-17.05-3.86-23.43-6.48c-3.55-1.45-6.29-4.53-10.61-5.85-13.36-4.07-25.69,7.51-37.9,11.54ZM31.32,127.6c-2.3.29-12.87,4.54-12.42,7.56l19.39,46.61,1.16,1.12c1.3.37,13.51-4.74,14.12-5.93.29-.55.37-1.08.21-1.68-3.48-5.78-17.25-45.72-20.05-47.48-.88-.55-1.51-.32-2.42-.21Z"/>
  <path class="cls-1" d="M144.49,62.03c4.18,4.56,7.82-2.41,11.97-1.19.53.16,6.92,6.3,7.3,6.96,2.6,4.45-2.52,6.2-2.15,9.61.66,6.07,7.26,2.86,9.03,6.74.86,1.89.87,8.46.39,10.53-1.13,4.97-6.97,1.89-9,6.75-1.67,4.01,3.55,5.51,2.31,9.74-.15.53-6.29,6.95-6.93,7.33-4.88,2.84-6.54-2.97-10.16-1.97-4.95,1.37-2.7,7.3-6.13,8.88-1.89.87-8.42.87-10.49.39-4.2-.97-2.71-4.54-4.22-7.01-1.43-2.33-5.29-1.71-5.06-5.1.31-4.5,6.29-1.79,8.37.27,2.38,2.35,2.39,6.46,2.65,6.72.21.21,5.7.21,5.91,0,.55-.55-.01-5.84,4.74-8.36,6.64-3.52,7.8.44,11.49.78.94.09,3.76-2.64,3.89-3.36.24-1.41-3.85-4.79-1.33-11.07,2.32-5.81,8.09-4.96,8.86-5.73.21-.21.21-5.73,0-5.94-.95-.95-7.57-.12-9.32-6.76-1.43-5.41,2.04-8.62,1.77-10.04-.09-.48-2.44-2.95-2.89-3.14-1.6-.68-3.67,1.56-5.63,1.87-5.27.82-9.26-1.92-11.17-6.71-.35-.87-.26-2.82-.39-2.96-.19-.19-4.75-.22-5.43-.05-.33.08-3.25,5.09-5.4.76-3.19-6.43,8.21-6.53,11.93-5.95,5.55.87,3.19,5.94,5.09,8.02Z"/>
  <path d="M132.15,72.9c22.62-3.9,28.17,30.38,6.37,34.14-23.06,3.98-27.92-30.42-6.37-34.14ZM134.43,78.12c-17.6,1.39-11.78,29.71,5.38,22.71,12.36-5.04,7.57-23.73-5.38-22.71Z"/>
  <path d="M145.62,35.34c2.03-.33,4.41.83,3.83,3.1-.41,1.59-13.56,11.06-14.14,4.61-.22-2.41,8.31-7.39,10.31-7.71Z"/>
  <path d="M121.67,11.31c2.33-.66,4.49,1.12,3.66,3.67-.18.56-4.91,8.64-5.29,8.99-1.58,1.42-4.73,1.19-4.91-1.14-.14-1.81,4.97-11.07,6.54-11.52Z"/>
  <path d="M31.97,35.3c2.29-.77,12.05,4.69,12.26,7.08.16,1.72-1.1,3.53-3.03,3.04-.78-.2-9.34-4.89-9.72-5.32-1.18-1.31-1.26-4.22.48-4.8Z"/>
  <path d="M55.88,11.3c.77-.26,1.99-.25,2.77.02.65.22,6.25,9.87,6.35,10.91.18,1.96-2.56,3.05-4.37,2.14-1.59-.81-8.4-11.83-4.75-13.06Z"/>
  <path d="M87.53,3.34c.57-1.86,4.38-1.48,5.08.9.48,1.65.37,12.21-.69,12.87-.94.59-4.39-.04-4.39-1.02,0-2.75-.56-10.9,0-12.75Z"/>
</svg>