<svg width="48" height="49" viewBox="0 0 48 49" fill="none" xmlns="http://www.w3.org/2000/svg"><rect y="0.366211" width="48" height="48" rx="8" fill="white"></rect><path fill-rule="evenodd" clip-rule="evenodd" d="M29.7689 20.748H34C34 17.3508 31.9644 15.3662 28.5156 15.3662H19.4844C16.0356 15.3662 14 17.3508 14 20.7047V28.0277C14 31.3816 16.0356 33.3662 19.4844 33.3662H28.5156C31.9644 33.3662 34 31.3816 34 28.0277V27.7158H29.7689C27.8052 27.7158 26.2133 26.1637 26.2133 24.2492C26.2133 22.3347 27.8052 20.7827 29.7689 20.7827V20.748ZM29.7689 22.2386H33.2533C33.6657 22.2386 34 22.5645 34 22.9666V25.4972C33.9952 25.8973 33.6637 26.2205 33.2533 26.2251H29.8489C28.8548 26.2382 27.9855 25.5746 27.76 24.6305C27.6471 24.0445 27.8056 23.4398 28.1931 22.9784C28.5805 22.5171 29.1573 22.2463 29.7689 22.2386ZM29.9205 24.8992H30.2493C30.6715 24.8992 31.0138 24.5655 31.0138 24.1539C31.0138 23.7423 30.6715 23.4086 30.2493 23.4086H29.9205C29.7185 23.4063 29.5241 23.4829 29.3804 23.6213C29.2368 23.7597 29.156 23.9484 29.156 24.1452C29.156 24.5583 29.4968 24.8945 29.9205 24.8992ZM18.7381 20.7479H24.3825C24.8047 20.7479 25.147 20.4143 25.147 20.0026C25.147 19.591 24.8047 19.2573 24.3825 19.2573H18.7381C18.3193 19.2573 17.9785 19.5857 17.9736 19.994C17.9736 20.407 18.3145 20.7432 18.7381 20.7479Z" fill="#47C563"></path></svg>