<svg xmlns="http://www.w3.org/2000/svg" xmlns:xlink="http://www.w3.org/1999/xlink" width="1440" height="629" viewBox="0 0 1440 629"><defs><clipPath id="b"><rect width="1440" height="629"/></clipPath></defs><g id="a" clip-path="url(#b)"><rect width="1440" height="629" fill="#fff"/><g transform="translate(276.5 -371.769)"><line x2="6.5" transform="translate(646 375.019)" fill="none" stroke="#ff7300" stroke-miterlimit="10" stroke-width="2"/><line y2="6.5" transform="translate(649.25 371.769)" fill="none" stroke="#ff7300" stroke-miterlimit="10" stroke-width="2"/></g><g transform="translate(276.5 -371.769)"><line x2="6.5" transform="translate(646 375.019)" fill="none" stroke="#ff7300" stroke-miterlimit="10" stroke-width="2"/><line y2="6.5" transform="translate(649.25 371.769)" fill="none" stroke="#ff7300" stroke-miterlimit="10" stroke-width="2"/></g><g transform="translate(647.154 14.055)" fill="none" stroke="#ffe7cc" stroke-width="9" opacity="0.22"><circle cx="26.5" cy="26.5" r="26.5" stroke="none"/><circle cx="26.5" cy="26.5" r="22" fill="none"/></g><path d="M2312.98,3967.37s185.315,185.839,336.6,213.715c-1.662,3.1,299.253,102.211,480.467-173.45,0-1.549,159.6-215.264,387.365-178.1-1.663,1.548,252.7,23.229,241.064,249.333,1.663-3.1,59.391,353.035-187.862,291.222" transform="translate(-2344.111 -3825.199)" fill="none" stroke="#e9b169" stroke-width="1" stroke-dasharray="10 10"/><g transform="matrix(0.998, 0.07, -0.07, 0.998, 1045.593, 395.364)"><g transform="matrix(-0.788, 0.616, -0.616, -0.788, 237.363, 104.054)"><path d="M0,.734,67.015,37.379l42.572,23.279,88.465,48.374L55.9,0Z" transform="translate(0 23.013)" fill="#eb648b"/><path d="M0,23.006,26.623,0,142.156,132.044Z" transform="translate(55.896 0.002)" fill="#c11f4e"/><g transform="translate(82.519 0)"><path d="M98.7,97.913,0,0,51.176,9.4Z" transform="translate(16.834 34.132)" fill="#ff044d"/><path d="M16.834,34.161,0,0,33.2,37.168Z" transform="translate(0 0)" fill="#eb648b"/></g></g></g></g></svg>