<svg xmlns="http://www.w3.org/2000/svg" xmlns:xlink="http://www.w3.org/1999/xlink" width="200.423" height="235.38" viewBox="0 0 200.423 235.38"><defs><filter id="a" x="171.614" y="188.597" width="21.496" height="21.496" filterUnits="userSpaceOnUse"><feOffset dy="3" input="SourceAlpha"/><feGaussianBlur stdDeviation="3" result="b"/><feFlood flood-opacity="0.161"/><feComposite operator="in" in2="b"/><feComposite in="SourceGraphic"/></filter></defs><g transform="translate(0 0)"><rect width="4.661" height="3.496" transform="translate(195.762)" fill="#c11f4e"/><rect width="3.496" height="3.496" transform="translate(180.614)" fill="#c11f4e"/><rect width="3.496" height="3.496" transform="translate(165.466)" fill="#c11f4e"/><rect width="4.661" height="3.496" transform="translate(150.317)" fill="#c11f4e"/><rect width="3.496" height="3.496" transform="translate(136.334)" fill="#c11f4e"/><rect width="4.661" height="3.496" transform="translate(121.186)" fill="#c11f4e"/><rect width="4.661" height="3.496" transform="translate(106.038)" fill="#c11f4e"/><rect width="4.661" height="3.496" transform="translate(90.89)" fill="#c11f4e"/><rect width="4.661" height="3.496" transform="translate(75.741)" fill="#c11f4e"/><rect width="2.331" height="3.496" transform="translate(61.758)" fill="#c11f4e"/><rect width="2.331" height="3.496" transform="translate(46.61)" fill="#c11f4e"/><rect width="3.496" height="3.496" transform="translate(31.462)" fill="#c11f4e"/><rect width="4.661" height="3.496" transform="translate(15.148)" fill="#c11f4e"/><rect width="4.661" height="3.496" fill="#c11f4e"/></g><g transform="translate(0 59.428)"><rect width="4.661" height="4.661" transform="translate(195.762 0)" fill="#c11f4e"/><rect width="3.496" height="4.661" transform="translate(180.614 0)" fill="#c11f4e"/><rect width="3.496" height="4.661" transform="translate(165.466 0)" fill="#c11f4e"/><rect width="4.661" height="4.661" transform="translate(150.317 0)" fill="#c11f4e"/><rect width="3.496" height="4.661" transform="translate(136.334 0)" fill="#c11f4e"/><rect width="4.661" height="4.661" transform="translate(121.186 0)" fill="#c11f4e"/><rect width="4.661" height="4.661" transform="translate(106.038 0)" fill="#c11f4e"/><rect width="4.661" height="4.661" transform="translate(90.89 0)" fill="#c11f4e"/><rect width="4.661" height="4.661" transform="translate(75.741 0)" fill="#c11f4e"/><rect width="2.331" height="4.661" transform="translate(61.758 0)" fill="#c11f4e"/><rect width="2.331" height="4.661" transform="translate(46.61 0)" fill="#c11f4e"/><rect width="3.496" height="4.661" transform="translate(31.462 0)" fill="#c11f4e"/><rect width="4.661" height="4.661" transform="translate(15.148 0)" fill="#c11f4e"/><rect width="4.661" height="4.661" transform="translate(0 0)" fill="#c11f4e"/></g><g transform="translate(0 121.186)"><rect width="4.661" height="4.661" transform="translate(195.762 0)" fill="#c11f4e"/><rect width="3.496" height="4.661" transform="translate(180.614 0)" fill="#c11f4e"/><rect width="3.496" height="4.661" transform="translate(165.466 0)" fill="#c11f4e"/><rect width="4.661" height="4.661" transform="translate(150.317 0)" fill="#c11f4e"/><rect width="3.496" height="4.661" transform="translate(136.334 0)" fill="#c11f4e"/><rect width="4.661" height="4.661" transform="translate(121.186 0)" fill="#c11f4e"/><rect width="4.661" height="4.661" transform="translate(106.038 0)" fill="#c11f4e"/><rect width="4.661" height="4.661" transform="translate(90.89 0)" fill="#c11f4e"/><rect width="4.661" height="4.661" transform="translate(75.741 0)" fill="#c11f4e"/><rect width="2.331" height="4.661" transform="translate(61.758 0)" fill="#c11f4e"/><rect width="2.331" height="4.661" transform="translate(46.61 0)" fill="#c11f4e"/><rect width="3.496" height="4.661" transform="translate(31.462 0)" fill="#c11f4e"/><rect width="4.661" height="4.661" transform="translate(15.148 0)" fill="#c11f4e"/><rect width="4.661" height="4.661" transform="translate(0 0)" fill="#c11f4e"/></g><g transform="translate(0 181.779)"><rect width="4.661" height="4.661" transform="translate(195.762 0)" fill="#c11f4e"/><rect width="3.496" height="4.661" transform="translate(180.614 0)" fill="#c11f4e"/><rect width="3.496" height="4.661" transform="translate(165.466 0)" fill="#c11f4e"/><rect width="4.661" height="4.661" transform="translate(150.317 0)" fill="#c11f4e"/><rect width="3.496" height="4.661" transform="translate(136.334 0)" fill="#c11f4e"/><rect width="4.661" height="4.661" transform="translate(121.186 0)" fill="#c11f4e"/><rect width="4.661" height="4.661" transform="translate(106.038 0)" fill="#c11f4e"/><rect width="4.661" height="4.661" transform="translate(90.89 0)" fill="#c11f4e"/><rect width="4.661" height="4.661" transform="translate(75.741 0)" fill="#c11f4e"/><rect width="2.331" height="4.661" transform="translate(61.758 0)" fill="#c11f4e"/><rect width="2.331" height="4.661" transform="translate(46.61 0)" fill="#c11f4e"/><rect width="3.496" height="4.661" transform="translate(31.462 0)" fill="#c11f4e"/><rect width="4.661" height="4.661" transform="translate(15.148 0)" fill="#c11f4e"/><rect width="4.661" height="4.661" transform="translate(0 0)" fill="#c11f4e"/></g><g transform="translate(0 11.652)"><rect width="4.661" height="3.496" transform="translate(195.762 0)" fill="#c11f4e"/><rect width="3.496" height="3.496" transform="translate(180.614 0)" fill="#c11f4e"/><rect width="3.496" height="3.496" transform="translate(165.466 0)" fill="#c11f4e"/><rect width="4.661" height="3.496" transform="translate(150.317 0)" fill="#c11f4e"/><rect width="3.496" height="3.496" transform="translate(136.334 0)" fill="#c11f4e"/><rect width="4.661" height="3.496" transform="translate(121.186 0)" fill="#c11f4e"/><rect width="4.661" height="3.496" transform="translate(106.038 0)" fill="#c11f4e"/><rect width="4.661" height="3.496" transform="translate(90.89 0)" fill="#c11f4e"/><rect width="4.661" height="3.496" transform="translate(75.741 0)" fill="#c11f4e"/><rect width="2.331" height="3.496" transform="translate(61.758 0)" fill="#c11f4e"/><rect width="2.331" height="3.496" transform="translate(46.61 0)" fill="#c11f4e"/><rect width="3.496" height="3.496" transform="translate(31.462 0)" fill="#c11f4e"/><rect width="4.661" height="3.496" transform="translate(15.148 0)" fill="#c11f4e"/><rect width="4.661" height="3.496" transform="translate(0 0)" fill="#c11f4e"/></g><g transform="translate(0 73.411)"><rect width="4.661" height="2.33" transform="translate(195.762 0)" fill="#c11f4e"/><rect width="3.496" height="2.33" transform="translate(180.614 0)" fill="#c11f4e"/><rect width="3.496" height="2.33" transform="translate(165.466 0)" fill="#c11f4e"/><rect width="4.661" height="2.33" transform="translate(150.317 0)" fill="#c11f4e"/><rect width="3.496" height="2.33" transform="translate(136.334 0)" fill="#c11f4e"/><rect width="4.661" height="2.33" transform="translate(121.186 0)" fill="#c11f4e"/><rect width="4.661" height="2.33" transform="translate(106.038 0)" fill="#c11f4e"/><rect width="4.661" height="2.33" transform="translate(90.89 0)" fill="#c11f4e"/><rect width="4.661" height="2.33" transform="translate(75.741 0)" fill="#c11f4e"/><rect width="2.331" height="2.33" transform="translate(61.758 0)" fill="#c11f4e"/><rect width="2.331" height="2.33" transform="translate(46.61 0)" fill="#c11f4e"/><rect width="3.496" height="2.33" transform="translate(31.462 0)" fill="#c11f4e"/><rect width="4.661" height="2.33" transform="translate(15.148 0)" fill="#c11f4e"/><rect width="4.661" height="2.33" transform="translate(0 0)" fill="#c11f4e"/></g><g transform="translate(0 132.838)"><rect width="4.661" height="5.826" transform="translate(195.762 0)" fill="#c11f4e"/><rect width="3.496" height="5.826" transform="translate(180.614 0)" fill="#c11f4e"/><rect width="3.496" height="5.826" transform="translate(165.466 0)" fill="#c11f4e"/><rect width="4.661" height="5.826" transform="translate(150.317 0)" fill="#c11f4e"/><rect width="3.496" height="5.826" transform="translate(136.334 0)" fill="#c11f4e"/><rect width="4.661" height="5.826" transform="translate(121.186 0)" fill="#c11f4e"/><rect width="4.661" height="5.826" transform="translate(106.038 0)" fill="#c11f4e"/><rect width="4.661" height="5.826" transform="translate(90.89 0)" fill="#c11f4e"/><rect width="4.661" height="5.826" transform="translate(75.741 0)" fill="#c11f4e"/><rect width="2.331" height="5.826" transform="translate(61.758 0)" fill="#c11f4e"/><rect width="2.331" height="5.826" transform="translate(46.61 0)" fill="#c11f4e"/><rect width="3.496" height="5.826" transform="translate(31.462 0)" fill="#c11f4e"/><rect width="4.661" height="5.826" transform="translate(15.148 0)" fill="#c11f4e"/><rect width="4.661" height="5.826" transform="translate(0 0)" fill="#c11f4e"/></g><g transform="translate(0 194.597)"><rect width="4.661" height="3.496" transform="translate(195.762 0)" fill="#c11f4e"/><g transform="matrix(1, 0, 0, 1, 0, -194.6)" filter="url(#a)"><rect width="3.496" height="3.496" transform="translate(180.61 194.6)" fill="#c11f4e"/></g><rect width="3.496" height="3.496" transform="translate(165.466 0)" fill="#c11f4e"/><rect width="4.661" height="3.496" transform="translate(150.317 0)" fill="#c11f4e"/><rect width="3.496" height="3.496" transform="translate(136.334 0)" fill="#c11f4e"/><rect width="4.661" height="3.496" transform="translate(121.186 0)" fill="#c11f4e"/><rect width="4.661" height="3.496" transform="translate(106.038 0)" fill="#c11f4e"/><rect width="4.661" height="3.496" transform="translate(90.89 0)" fill="#c11f4e"/><rect width="4.661" height="3.496" transform="translate(75.741 0)" fill="#c11f4e"/><rect width="2.331" height="3.496" transform="translate(61.758 0)" fill="#c11f4e"/><rect width="2.331" height="3.496" transform="translate(46.61 0)" fill="#c11f4e"/><rect width="3.496" height="3.496" transform="translate(31.462 0)" fill="#c11f4e"/><rect width="4.661" height="3.496" transform="translate(15.148 0)" fill="#c11f4e"/><rect width="4.661" height="3.496" transform="translate(0 0)" fill="#c11f4e"/></g><g transform="translate(0 24.47)"><rect width="4.661" height="3.496" transform="translate(195.762 0)" fill="#c11f4e"/><rect width="3.496" height="3.496" transform="translate(180.614 0)" fill="#c11f4e"/><rect width="3.496" height="3.496" transform="translate(165.466 0)" fill="#c11f4e"/><rect width="4.661" height="3.496" transform="translate(150.317 0)" fill="#c11f4e"/><rect width="3.496" height="3.496" transform="translate(136.334 0)" fill="#c11f4e"/><rect width="4.661" height="3.496" transform="translate(121.186 0)" fill="#c11f4e"/><rect width="4.661" height="3.496" transform="translate(106.038 0)" fill="#c11f4e"/><rect width="4.661" height="3.496" transform="translate(90.89 0)" fill="#c11f4e"/><rect width="4.661" height="3.496" transform="translate(75.741 0)" fill="#c11f4e"/><rect width="2.331" height="3.496" transform="translate(61.758 0)" fill="#c11f4e"/><rect width="2.331" height="3.496" transform="translate(46.61 0)" fill="#c11f4e"/><rect width="3.496" height="3.496" transform="translate(31.462 0)" fill="#c11f4e"/><rect width="4.661" height="3.496" transform="translate(15.148 0)" fill="#c11f4e"/><rect width="4.661" height="3.496" transform="translate(0 0)" fill="#c11f4e"/></g><g transform="translate(0 85.063)"><rect width="4.661" height="4.661" transform="translate(195.762 0)" fill="#c11f4e"/><rect width="3.496" height="4.661" transform="translate(180.614 0)" fill="#c11f4e"/><rect width="3.496" height="4.661" transform="translate(165.466 0)" fill="#c11f4e"/><rect width="4.661" height="4.661" transform="translate(150.317 0)" fill="#c11f4e"/><rect width="3.496" height="4.661" transform="translate(136.334 0)" fill="#c11f4e"/><rect width="4.661" height="4.661" transform="translate(121.186 0)" fill="#c11f4e"/><rect width="4.661" height="4.661" transform="translate(106.038 0)" fill="#c11f4e"/><rect width="4.661" height="4.661" transform="translate(90.89 0)" fill="#c11f4e"/><rect width="4.661" height="4.661" transform="translate(75.741 0)" fill="#c11f4e"/><rect width="2.331" height="4.661" transform="translate(61.758 0)" fill="#c11f4e"/><rect width="2.331" height="4.661" transform="translate(46.61 0)" fill="#c11f4e"/><rect width="3.496" height="4.661" transform="translate(31.462 0)" fill="#c11f4e"/><rect width="4.661" height="4.661" transform="translate(15.148 0)" fill="#c11f4e"/><rect width="4.661" height="4.661" transform="translate(0 0)" fill="#c11f4e"/></g><g transform="translate(0 146.821)"><rect width="4.661" height="2.33" transform="translate(195.762 0)" fill="#c11f4e"/><rect width="3.496" height="2.33" transform="translate(180.614 0)" fill="#c11f4e"/><rect width="3.496" height="2.33" transform="translate(165.466 0)" fill="#c11f4e"/><rect width="4.661" height="2.33" transform="translate(150.317 0)" fill="#c11f4e"/><rect width="3.496" height="2.33" transform="translate(136.334 0)" fill="#c11f4e"/><rect width="4.661" height="2.33" transform="translate(121.186 0)" fill="#c11f4e"/><rect width="4.661" height="2.33" transform="translate(106.038 0)" fill="#c11f4e"/><rect width="4.661" height="2.33" transform="translate(90.89 0)" fill="#c11f4e"/><rect width="4.661" height="2.33" transform="translate(75.741 0)" fill="#c11f4e"/><rect width="2.331" height="2.33" transform="translate(61.758 0)" fill="#c11f4e"/><rect width="2.331" height="2.33" transform="translate(46.61 0)" fill="#c11f4e"/><rect width="3.496" height="2.33" transform="translate(31.462 0)" fill="#c11f4e"/><rect width="4.661" height="2.33" transform="translate(15.148 0)" fill="#c11f4e"/><rect width="4.661" height="2.33" transform="translate(0 0)" fill="#c11f4e"/></g><g transform="translate(0 206.249)"><rect width="4.661" height="4.661" transform="translate(195.762 0)" fill="#c11f4e"/><rect width="3.496" height="4.661" transform="translate(180.614 0)" fill="#c11f4e"/><rect width="3.496" height="4.661" transform="translate(165.466 0)" fill="#c11f4e"/><rect width="4.661" height="4.661" transform="translate(150.317 0)" fill="#c11f4e"/><rect width="3.496" height="4.661" transform="translate(136.334 0)" fill="#c11f4e"/><rect width="4.661" height="4.661" transform="translate(121.186 0)" fill="#c11f4e"/><rect width="4.661" height="4.661" transform="translate(106.038 0)" fill="#c11f4e"/><rect width="4.661" height="4.661" transform="translate(90.89 0)" fill="#c11f4e"/><rect width="4.661" height="4.661" transform="translate(75.741 0)" fill="#c11f4e"/><rect width="2.331" height="4.661" transform="translate(61.758 0)" fill="#c11f4e"/><rect width="2.331" height="4.661" transform="translate(46.61 0)" fill="#c11f4e"/><rect width="3.496" height="4.661" transform="translate(31.462 0)" fill="#c11f4e"/><rect width="4.661" height="4.661" transform="translate(15.148 0)" fill="#c11f4e"/><rect width="4.661" height="4.661" transform="translate(0 0)" fill="#c11f4e"/></g><g transform="translate(0 36.123)"><rect width="4.661" height="4.661" transform="translate(195.762 0)" fill="#c11f4e"/><rect width="3.496" height="4.661" transform="translate(180.614 0)" fill="#c11f4e"/><rect width="3.496" height="4.661" transform="translate(165.466 0)" fill="#c11f4e"/><rect width="4.661" height="4.661" transform="translate(150.317 0)" fill="#c11f4e"/><rect width="3.496" height="4.661" transform="translate(136.334 0)" fill="#c11f4e"/><rect width="4.661" height="4.661" transform="translate(121.186 0)" fill="#c11f4e"/><rect width="4.661" height="4.661" transform="translate(106.038 0)" fill="#c11f4e"/><rect width="4.661" height="4.661" transform="translate(90.89 0)" fill="#c11f4e"/><rect width="4.661" height="4.661" transform="translate(75.741 0)" fill="#c11f4e"/><rect width="2.331" height="4.661" transform="translate(61.758 0)" fill="#c11f4e"/><rect width="2.331" height="4.661" transform="translate(46.61 0)" fill="#c11f4e"/><rect width="3.496" height="4.661" transform="translate(31.462 0)" fill="#c11f4e"/><rect width="4.661" height="4.661" transform="translate(15.148 0)" fill="#c11f4e"/><rect width="4.661" height="4.661" transform="translate(0 0)" fill="#c11f4e"/></g><g transform="translate(0 96.716)"><rect width="4.661" height="4.661" transform="translate(195.762 0)" fill="#c11f4e"/><rect width="3.496" height="4.661" transform="translate(180.614 0)" fill="#c11f4e"/><rect width="3.496" height="4.661" transform="translate(165.466 0)" fill="#c11f4e"/><rect width="4.661" height="4.661" transform="translate(150.317 0)" fill="#c11f4e"/><rect width="3.496" height="4.661" transform="translate(136.334 0)" fill="#c11f4e"/><rect width="4.661" height="4.661" transform="translate(121.186 0)" fill="#c11f4e"/><rect width="4.661" height="4.661" transform="translate(106.038 0)" fill="#c11f4e"/><rect width="4.661" height="4.661" transform="translate(90.89 0)" fill="#c11f4e"/><rect width="4.661" height="4.661" transform="translate(75.741 0)" fill="#c11f4e"/><rect width="2.331" height="4.661" transform="translate(61.758 0)" fill="#c11f4e"/><rect width="2.331" height="4.661" transform="translate(46.61 0)" fill="#c11f4e"/><rect width="3.496" height="4.661" transform="translate(31.462 0)" fill="#c11f4e"/><rect width="4.661" height="4.661" transform="translate(15.148 0)" fill="#c11f4e"/><rect width="4.661" height="4.661" transform="translate(0 0)" fill="#c11f4e"/></g><g transform="translate(0 158.474)"><rect width="4.661" height="2.33" transform="translate(195.762 0)" fill="#c11f4e"/><rect width="3.496" height="2.33" transform="translate(180.614 0)" fill="#c11f4e"/><rect width="3.496" height="2.33" transform="translate(165.466 0)" fill="#c11f4e"/><rect width="4.661" height="2.33" transform="translate(150.317 0)" fill="#c11f4e"/><rect width="3.496" height="2.33" transform="translate(136.334 0)" fill="#c11f4e"/><rect width="4.661" height="2.33" transform="translate(121.186 0)" fill="#c11f4e"/><rect width="4.661" height="2.33" transform="translate(106.038 0)" fill="#c11f4e"/><rect width="4.661" height="2.33" transform="translate(90.89 0)" fill="#c11f4e"/><rect width="4.661" height="2.33" transform="translate(75.741 0)" fill="#c11f4e"/><rect width="2.331" height="2.33" transform="translate(61.758 0)" fill="#c11f4e"/><rect width="2.331" height="2.33" transform="translate(46.61 0)" fill="#c11f4e"/><rect width="3.496" height="2.33" transform="translate(31.462 0)" fill="#c11f4e"/><rect width="4.661" height="2.33" transform="translate(15.148 0)" fill="#c11f4e"/><rect width="4.661" height="2.33" transform="translate(0 0)" fill="#c11f4e"/></g><g transform="translate(0 219.067)"><rect width="4.661" height="3.496" transform="translate(195.762 0)" fill="#c11f4e"/><rect width="3.496" height="3.496" transform="translate(180.614 0)" fill="#c11f4e"/><rect width="3.496" height="3.496" transform="translate(165.466 0)" fill="#c11f4e"/><rect width="4.661" height="3.496" transform="translate(150.317 0)" fill="#c11f4e"/><rect width="3.496" height="3.496" transform="translate(136.334 0)" fill="#c11f4e"/><rect width="4.661" height="3.496" transform="translate(121.186 0)" fill="#c11f4e"/><rect width="4.661" height="3.496" transform="translate(106.038 0)" fill="#c11f4e"/><rect width="4.661" height="3.496" transform="translate(90.89 0)" fill="#c11f4e"/><rect width="4.661" height="3.496" transform="translate(75.741 0)" fill="#c11f4e"/><rect width="2.331" height="3.496" transform="translate(61.758 0)" fill="#c11f4e"/><rect width="2.331" height="3.496" transform="translate(46.61 0)" fill="#c11f4e"/><rect width="3.496" height="3.496" transform="translate(31.462 0)" fill="#c11f4e"/><rect width="4.661" height="3.496" transform="translate(15.148 0)" fill="#c11f4e"/><rect width="4.661" height="3.496" transform="translate(0 0)" fill="#c11f4e"/></g><g transform="translate(0 48.94)"><rect width="4.661" height="3.496" transform="translate(195.762 0)" fill="#c11f4e"/><rect width="3.496" height="3.496" transform="translate(180.614 0)" fill="#c11f4e"/><rect width="3.496" height="3.496" transform="translate(165.466 0)" fill="#c11f4e"/><rect width="4.661" height="3.496" transform="translate(150.317 0)" fill="#c11f4e"/><rect width="3.496" height="3.496" transform="translate(136.334 0)" fill="#c11f4e"/><rect width="4.661" height="3.496" transform="translate(121.186 0)" fill="#c11f4e"/><rect width="4.661" height="3.496" transform="translate(106.038 0)" fill="#c11f4e"/><rect width="4.661" height="3.496" transform="translate(90.89 0)" fill="#c11f4e"/><rect width="4.661" height="3.496" transform="translate(75.741 0)" fill="#c11f4e"/><rect width="2.331" height="3.496" transform="translate(61.758 0)" fill="#c11f4e"/><rect width="2.331" height="3.496" transform="translate(46.61 0)" fill="#c11f4e"/><rect width="3.496" height="3.496" transform="translate(31.462 0)" fill="#c11f4e"/><rect width="4.661" height="3.496" transform="translate(15.148 0)" fill="#c11f4e"/><rect width="4.661" height="3.496" transform="translate(0 0)" fill="#c11f4e"/></g><g transform="translate(0 110.699)"><rect width="4.661" height="2.33" transform="translate(195.762 0)" fill="#c11f4e"/><rect width="3.496" height="2.33" transform="translate(180.614 0)" fill="#c11f4e"/><rect width="3.496" height="2.33" transform="translate(165.466 0)" fill="#c11f4e"/><rect width="4.661" height="2.33" transform="translate(150.317 0)" fill="#c11f4e"/><rect width="3.496" height="2.33" transform="translate(136.334 0)" fill="#c11f4e"/><rect width="4.661" height="2.33" transform="translate(121.186 0)" fill="#c11f4e"/><rect width="4.661" height="2.33" transform="translate(106.038 0)" fill="#c11f4e"/><rect width="4.661" height="2.33" transform="translate(90.89 0)" fill="#c11f4e"/><rect width="4.661" height="2.33" transform="translate(75.741 0)" fill="#c11f4e"/><rect width="2.331" height="2.33" transform="translate(61.758 0)" fill="#c11f4e"/><rect width="2.331" height="2.33" transform="translate(46.61 0)" fill="#c11f4e"/><rect width="3.496" height="2.33" transform="translate(31.462 0)" fill="#c11f4e"/><rect width="4.661" height="2.33" transform="translate(15.148 0)" fill="#c11f4e"/><rect width="4.661" height="2.33" transform="translate(0 0)" fill="#c11f4e"/></g><g transform="translate(0 170.126)"><rect width="4.661" height="4.661" transform="translate(195.762 0)" fill="#c11f4e"/><rect width="3.496" height="4.661" transform="translate(180.614 0)" fill="#c11f4e"/><rect width="3.496" height="4.661" transform="translate(165.466 0)" fill="#c11f4e"/><rect width="4.661" height="4.661" transform="translate(150.317 0)" fill="#c11f4e"/><rect width="3.496" height="4.661" transform="translate(136.334 0)" fill="#c11f4e"/><rect width="4.661" height="4.661" transform="translate(121.186 0)" fill="#c11f4e"/><rect width="4.661" height="4.661" transform="translate(106.038 0)" fill="#c11f4e"/><rect width="4.661" height="4.661" transform="translate(90.89 0)" fill="#c11f4e"/><rect width="4.661" height="4.661" transform="translate(75.741 0)" fill="#c11f4e"/><rect width="2.331" height="4.661" transform="translate(61.758 0)" fill="#c11f4e"/><rect width="2.331" height="4.661" transform="translate(46.61 0)" fill="#c11f4e"/><rect width="3.496" height="4.661" transform="translate(31.462 0)" fill="#c11f4e"/><rect width="4.661" height="4.661" transform="translate(15.148 0)" fill="#c11f4e"/><rect width="4.661" height="4.661" transform="translate(0 0)" fill="#c11f4e"/></g><g transform="translate(0 230.719)"><rect width="4.661" height="4.661" transform="translate(195.762 0)" fill="#c11f4e"/><rect width="3.496" height="4.661" transform="translate(180.614 0)" fill="#c11f4e"/><rect width="3.496" height="4.661" transform="translate(165.466 0)" fill="#c11f4e"/><rect width="4.661" height="4.661" transform="translate(150.317 0)" fill="#c11f4e"/><rect width="3.496" height="4.661" transform="translate(136.334 0)" fill="#c11f4e"/><rect width="4.661" height="4.661" transform="translate(121.186 0)" fill="#c11f4e"/><rect width="4.661" height="4.661" transform="translate(106.038 0)" fill="#c11f4e"/><rect width="4.661" height="4.661" transform="translate(90.89 0)" fill="#c11f4e"/><rect width="4.661" height="4.661" transform="translate(75.741 0)" fill="#c11f4e"/><rect width="2.331" height="4.661" transform="translate(61.758 0)" fill="#c11f4e"/><rect width="2.331" height="4.661" transform="translate(46.61 0)" fill="#c11f4e"/><rect width="3.496" height="4.661" transform="translate(31.462 0)" fill="#c11f4e"/><rect width="4.661" height="4.661" transform="translate(15.148 0)" fill="#c11f4e"/><rect width="4.661" height="4.661" transform="translate(0 0)" fill="#c11f4e"/></g></svg>