<svg xmlns="http://www.w3.org/2000/svg" xmlns:xlink="http://www.w3.org/1999/xlink" width="87" height="87" viewBox="0 0 87 87">
  <defs>
    <filter id="Path_37717" x="0" y="0" width="87" height="87" filterUnits="userSpaceOnUse">
      <feOffset dy="3" input="SourceAlpha"/>
      <feGaussianBlur stdDeviation="3" result="blur"/>
      <feFlood flood-opacity="0.161"/>
      <feComposite operator="in" in2="blur"/>
      <feComposite in="SourceGraphic"/>
    </filter>
  </defs>
  <g id="Group_35731" data-name="Group 35731" transform="translate(-2820.906 -1327.079)">
    <g id="Group_35730" data-name="Group 35730" transform="translate(2829.525 1332.743)">
      <g transform="matrix(1, 0, 0, 1, -8.62, -5.66)" filter="url(#Path_37717)">
        <path id="Path_37717-2" data-name="Path 37717" d="M34.5,0A34.5,34.5,0,1,1,0,34.5,34.5,34.5,0,0,1,34.5,0Z" transform="translate(9 6)" fill="#c11f4e"/>
      </g>
    </g>
    <g id="Group_35729" data-name="Group 35729" transform="translate(2843.656 1347.515)">
      <path id="Path_37741" data-name="Path 37741" d="M56.818,74.4a2.53,2.53,0,0,0-3.264-1.088,40.32,40.32,0,0,1-5.138,1.451,6.414,6.414,0,0,1-4.473,2.72,7.442,7.442,0,0,1-1.753.181c-1.511.06-3.325-.121-5.259-.242l-.423-.06a1.359,1.359,0,0,1-1.269-1.209,1.278,1.278,0,0,1,.363-1.028,1.159,1.159,0,0,1,1.028-.363l.484.06a28.631,28.631,0,0,0,6.347.121c2.539-.484,3.264-1.995,3.083-3.264A1.912,1.912,0,0,0,44.546,69.8a47.757,47.757,0,0,1-6.529-.121q-2.448-.181-4.353-.181c-1.088,0-1.995.06-2.72.121-2.116.242-6.287,1.874-9.854,4.292-1.753,1.209-3.748,2.66-5.078,3.627a1.149,1.149,0,0,0-.423.665,1.175,1.175,0,0,0,.181.786L21.212,86a.835.835,0,0,0,.665.363.942.942,0,0,0,.725-.181L24.6,84.613a2.154,2.154,0,0,1,1.995-.363,45.072,45.072,0,0,0,10.035,1.995c5.38.242,15.839-6.166,19.042-8.463A2.46,2.46,0,0,0,56.818,74.4Z" transform="translate(-15.573 -46.267)" fill="#f6f8ff"/>
      <path id="Path_37742" data-name="Path 37742" d="M39.115,20.412,40.928,24a1,1,0,0,0,1.813,0l1.813-3.59A9.159,9.159,0,1,0,32.7,11.674,8.977,8.977,0,0,0,39.115,20.412Zm1.74-4.569a1.124,1.124,0,1,1,1.124,1.124A1.13,1.13,0,0,1,40.856,15.843Zm.979-9.427a3.348,3.348,0,0,1,3.046,1.74,3,3,0,0,1-.254,3.155,4.665,4.665,0,0,1-1.2,1.124,1.065,1.065,0,0,0-.58.979.541.541,0,0,1-.508.471h-.8a.5.5,0,0,1-.508-.544,2.709,2.709,0,0,1,1.342-2.357,2.376,2.376,0,0,0,.761-.725,1.164,1.164,0,0,0,.073-1.233A1.438,1.438,0,0,0,41.8,8.265a1.494,1.494,0,0,0-1.632,1.305.508.508,0,0,1-.508.435h-.8a.514.514,0,0,1-.508-.58A3.42,3.42,0,0,1,41.835,6.416Z" transform="translate(-16.885 -2.5)" fill="#f6f8ff"/>
    </g>
  </g>
</svg>
