<?xml version="1.0" encoding="UTF-8" standalone="no"?>
<svg
   xmlns:dc="http://purl.org/dc/elements/1.1/"
   xmlns:cc="http://creativecommons.org/ns#"
   xmlns:rdf="http://www.w3.org/1999/02/22-rdf-syntax-ns#"
   xmlns:svg="http://www.w3.org/2000/svg"
   xmlns="http://www.w3.org/2000/svg"
   viewBox="0 0 446.87997 99.214927"
   height="99.214928"
   width="446.87997"
   xml:space="preserve"
   id="svg2"
   version="1.1"><metadata
     id="metadata8"><rdf:RDF><cc:Work
         rdf:about=""><dc:format>image/svg+xml</dc:format><dc:type
           rdf:resource="http://purl.org/dc/dcmitype/StillImage" /><dc:title></dc:title></cc:Work></rdf:RDF></metadata><defs
     id="defs6"><clipPath
       id="clipPath32"
       clipPathUnits="userSpaceOnUse"><path
         id="path30"
         d="M 0,595.276 H 841.89 V 0 H 0 Z" /></clipPath></defs><g
     transform="matrix(1.3333333,0,0,-1.3333333,-339.27626,443.69159)"
     id="g10"><g
       style="fill:#c0174a;fill-opacity:1"
       transform="translate(366.7622,324.2853)"
       id="g14"><path
         id="path16"
         style="fill:#c0174a;fill-opacity:1;fill-rule:nonzero;stroke:none"
         d="m 0,0 v -14.028 h 18.704 v -7.749 H 0 v -19.84 H -9.42 V 7.816 H 21.776 V 0 Z" /></g><g
       style="fill:#c0174a;fill-opacity:1"
       transform="translate(434.1494,290.4846)"
       id="g18"><path
         id="path20"
         style="fill:#c0174a;fill-opacity:1;fill-rule:nonzero;stroke:none"
         d="M 0,0 V -7.816 H -34.135 V 41.617 H -0.533 V 33.801 H -24.715 V 21.108 H -2.671 V 13.359 H -24.715 V 0 Z" /></g><g
       style="fill:#c0174a;fill-opacity:1"
       transform="translate(481.4307,324.2853)"
       id="g22"><path
         id="path24"
         style="fill:#c0174a;fill-opacity:1;fill-rule:nonzero;stroke:none"
         d="m 0,0 h -15.097 v -41.617 h -9.419 V 0 h -15.03 V 7.816 H 0 Z" /></g><g
       style="fill:#c0174a;fill-opacity:1"
       id="g26"><g
         style="fill:#c0174a;fill-opacity:1"
         clip-path="url(#clipPath32)"
         id="g28"><g
           style="fill:#c0174a;fill-opacity:1"
           transform="translate(486.6943,307.5178)"
           id="g34"><path
             id="path36"
             style="fill:#c0174a;fill-opacity:1;fill-rule:nonzero;stroke:none"
             d="m 0,0 c 0,15.164 10.489,25.25 26.187,25.25 8.083,0 14.628,-2.671 19.504,-7.949 L 39.746,11.29 c -2.805,3.606 -7.548,6.144 -13.426,6.144 -9.954,0 -16.567,-7.012 -16.567,-17.502 0,-10.62 6.748,-17.634 16.7,-17.634 6.68,0 11.29,3.007 14.43,7.816 l 6.346,-5.678 C 42.485,-22.043 35.271,-25.519 26.253,-25.519 10.556,-25.519 0,-15.297 0,0" /></g><g
           style="fill:#c0174a;fill-opacity:1"
           transform="translate(589.6172,332.1017)"
           id="g38"><path
             id="path40"
             style="fill:#c0174a;fill-opacity:1;fill-rule:nonzero;stroke:none"
             d="m 0,0 v -49.434 h -9.418 v 21.309 H -35.87 v -21.309 h -9.419 V 0 h 9.419 V -20.376 H -9.418 V 0 Z" /></g><g
           style="fill:#c0174a;fill-opacity:1"
           transform="translate(273.0732,314.1657)"
           id="g42"><path
             id="path44"
             style="fill:#c0174a;fill-opacity:1;fill-rule:nonzero;stroke:none"
             d="m 0,0 v -27.89 h 46.032 v -9.316 H 0 V -46.434 -46.5 H -9.308 V 9.319 h 55.34 L 46.032,0 Z M -18.616,18.603 V -55.808 H 9.308 v 9.308 0.066 H 55.34 v 27.831 H 9.308 v 9.338 H 55.34 v 27.868 z" /></g><g
           style="fill:#c0174a;fill-opacity:1"
           transform="translate(358.4814,268.2551)"
           id="g46"><path
             id="path48"
             style="fill:#c0174a;fill-opacity:1;fill-rule:nonzero;stroke:none"
             d="M 0,0 V -4.239 H 5.581 V -5.225 H 0 V -9.804 H -1.139 V 0.985 H 6.259 V 0 Z" /></g><g
           style="fill:#c0174a;fill-opacity:1"
           transform="translate(380.8931,259.4367)"
           id="g50"><path
             id="path52"
             style="fill:#c0174a;fill-opacity:1;fill-rule:nonzero;stroke:none"
             d="M 0,0 V -0.985 H -7.629 V 9.804 h 7.398 V 8.818 H -6.49 V 4.979 h 5.58 V 4.008 H -6.49 V 0 Z" /></g><g
           style="fill:#c0174a;fill-opacity:1"
           transform="translate(397.3696,259.4367)"
           id="g54"><path
             id="path56"
             style="fill:#c0174a;fill-opacity:1;fill-rule:nonzero;stroke:none"
             d="M 0,0 V -0.985 H -7.629 V 9.804 h 7.398 V 8.818 H -6.49 V 4.979 h 5.581 V 4.008 H -6.49 V 0 Z" /></g><g
           style="fill:#c0174a;fill-opacity:1"
           transform="translate(406.2173,269.2404)"
           id="g58"><path
             id="path60"
             style="fill:#c0174a;fill-opacity:1;fill-rule:nonzero;stroke:none"
             d="m 0,0 h 1.14 v -9.804 h 6.042 v -0.985 H 0 Z" /></g><g
           style="fill:#c0174a;fill-opacity:1"
           transform="translate(433.7607,268.2551)"
           id="g62"><path
             id="path64"
             style="fill:#c0174a;fill-opacity:1;fill-rule:nonzero;stroke:none"
             d="M 0,0 H -3.792 V 0.985 H 4.933 V 0 H 1.141 V -9.804 H 0 Z" /></g><g
           style="fill:#c0174a;fill-opacity:1"
           transform="translate(455.6924,269.2404)"
           id="g66"><path
             id="path68"
             style="fill:#c0174a;fill-opacity:1;fill-rule:nonzero;stroke:none"
             d="m 0,0 v -10.789 h -1.125 v 4.979 h -6.752 v -4.979 H -9.016 V 0 h 1.139 v -4.808 h 6.752 V 0 Z" /></g><g
           style="fill:#c0174a;fill-opacity:1"
           transform="translate(473.0029,259.4367)"
           id="g70"><path
             id="path72"
             style="fill:#c0174a;fill-opacity:1;fill-rule:nonzero;stroke:none"
             d="M 0,0 V -0.985 H -7.63 V 9.804 h 7.399 V 8.818 H -6.49 V 4.979 h 5.58 V 4.008 H -6.49 V 0 Z" /></g><g
           style="fill:#c0174a;fill-opacity:1"
           transform="translate(493.8486,259.0685)"
           id="g74"><path
             id="path76"
             style="fill:#c0174a;fill-opacity:1;fill-rule:nonzero;stroke:none"
             d="m 0,0 c -0.859,0.473 -1.531,1.127 -2.02,1.963 -0.488,0.839 -0.732,1.776 -0.732,2.813 0,1.039 0.244,1.977 0.732,2.813 0.489,0.839 1.164,1.493 2.028,1.967 0.862,0.472 1.828,0.71 2.897,0.71 0.801,0 1.541,-0.136 2.22,-0.404 C 5.804,9.596 6.378,9.205 6.851,8.692 L 6.127,7.969 C 5.283,8.82 4.221,9.248 2.936,9.248 2.083,9.248 1.308,9.053 0.608,8.66 -0.091,8.271 -0.638,7.736 -1.033,7.058 -1.43,6.382 -1.627,5.62 -1.627,4.776 c 0,-0.841 0.197,-1.602 0.594,-2.279 0.395,-0.678 0.942,-1.212 1.641,-1.605 0.7,-0.39 1.475,-0.585 2.328,-0.585 1.295,0 2.358,0.433 3.191,1.296 L 6.851,0.879 C 6.378,0.363 5.801,-0.029 5.117,-0.302 4.433,-0.574 3.691,-0.711 2.891,-0.711 1.82,-0.711 0.857,-0.473 0,0" /></g><g
           style="fill:#c0174a;fill-opacity:1"
           transform="translate(518.3164,269.2404)"
           id="g78"><path
             id="path80"
             style="fill:#c0174a;fill-opacity:1;fill-rule:nonzero;stroke:none"
             d="m 0,0 v -10.789 h -1.124 v 4.979 h -6.752 v -4.979 h -1.14 V 0 h 1.14 v -4.808 h 6.752 V 0 Z" /></g><g
           style="fill:#c0174a;fill-opacity:1"
           transform="translate(534.3457,262.258)"
           id="g82"><path
             id="path84"
             style="fill:#c0174a;fill-opacity:1;fill-rule:nonzero;stroke:none"
             d="M 0,0 -2.59,5.797 -5.178,0 Z M 0.416,-0.925 H -5.595 L -6.889,-3.807 H -8.076 L -3.144,6.982 H -2.02 L 2.913,-3.807 H 1.711 Z" /></g><g
           style="fill:#c0174a;fill-opacity:1"
           transform="translate(554.2285,269.2404)"
           id="g86"><path
             id="path88"
             style="fill:#c0174a;fill-opacity:1;fill-rule:nonzero;stroke:none"
             d="m 0,0 v -10.789 h -0.939 l -6.937,8.754 v -8.754 h -1.14 V 0 h 0.94 l 6.952,-8.754 V 0 Z" /></g><g
           style="fill:#c0174a;fill-opacity:1"
           transform="translate(571.5068,263.8449)"
           id="g90"><path
             id="path92"
             style="fill:#c0174a;fill-opacity:1;fill-rule:nonzero;stroke:none"
             d="m 0,0 h 1.095 v -4.114 c -0.504,-0.444 -1.1,-0.781 -1.789,-1.018 -0.688,-0.235 -1.413,-0.355 -2.173,-0.355 -1.079,0 -2.051,0.238 -2.913,0.711 -0.864,0.472 -1.542,1.127 -2.034,1.963 -0.494,0.838 -0.741,1.776 -0.741,2.813 0,1.039 0.247,1.977 0.741,2.813 0.492,0.838 1.17,1.493 2.034,1.966 0.862,0.473 1.839,0.71 2.928,0.71 0.822,0 1.579,-0.134 2.266,-0.395 C 0.102,4.832 0.683,4.445 1.155,3.932 L 0.446,3.208 C -0.405,4.05 -1.49,4.472 -2.806,4.472 -3.68,4.472 -4.468,4.279 -5.171,3.892 -5.875,3.507 -6.427,2.973 -6.827,2.289 -7.229,1.605 -7.43,0.844 -7.43,0 c 0,-0.842 0.201,-1.603 0.603,-2.279 0.4,-0.678 0.949,-1.212 1.647,-1.606 0.7,-0.389 1.486,-0.585 2.36,-0.585 1.109,0 2.049,0.279 2.82,0.834 z" /></g><g
           style="fill:#c0174a;fill-opacity:1"
           transform="translate(589.6172,259.4367)"
           id="g94"><path
             id="path96"
             style="fill:#c0174a;fill-opacity:1;fill-rule:nonzero;stroke:none"
             d="M 0,0 V -0.985 H -7.629 V 9.804 H -0.23 V 8.818 H -6.489 V 4.979 h 5.58 V 4.008 h -5.58 V 0 Z" /></g></g></g></g></svg>