<?xml version="1.0" encoding="UTF-8" standalone="no"?>
<!-- Created with Inkscape (http://www.inkscape.org/) -->

<svg
   version="1.1"
   id="svg2"
   xml:space="preserve"
   width="361.99905"
   height="165.21254"
   viewBox="0 0 361.99905 165.21254"
   xmlns="http://www.w3.org/2000/svg"
   xmlns:svg="http://www.w3.org/2000/svg"><defs
     id="defs6" /><g
     id="g8"
     transform="matrix(1.3333333,0,0,-1.3333333,-0.91946403,165.78911)"><g
       id="g919"><path
         d="m 272.132,79.4402 c -0.189,-1.307 -1.031,-2.4644 -2.187,-3.032 -0.441,-0.2098 -0.901,-0.3285 -1.367,-0.3488 -0.261,-1.6098 -1.128,-2.7781 -2.573,-3.4766 -1.658,-0.8043 -3.826,-0.8851 -5.924,-0.9648 -2.758,-0.1055 -6.555,-0.3418 -9.164,-1.209 -2.539,-3.5527 1.865,-4.9527 4.043,-1.9152 2.265,-0.9219 5.415,-2.9555 3.596,-5.6575 -0.165,-0.2433 -0.334,-0.4976 -0.504,-0.8375 -0.42,-0.8347 -0.378,-1.8515 -0.333,-2.9238 0.048,-1.1066 0.088,-2.2516 -0.341,-3.3543 -0.33,-0.8266 -0.868,-1.4277 -1.594,-1.7844 -1.124,-0.5425 -2.463,-0.4086 -3.759,-0.2812 -0.589,0.0597 -1.141,0.1113 -1.649,0.1043 l -0.663,-0.0133 -0.192,0.6355 c -0.214,0.7157 -0.257,1.2758 -0.289,1.6875 -0.027,0.293 -0.043,0.4918 -0.117,0.6602 -0.07,0.0871 -0.139,0.1812 -0.215,0.2754 -0.149,0.1316 -0.368,0.2664 -0.704,0.4488 l -0.039,0.0168 c -0.421,0.2305 -0.717,0.3574 -0.92,0.4293 v 0 4e-4 c -0.089,1.216 -0.288,2.4316 -0.684,3.6203 -0.3,0.8719 -0.715,1.7125 -1.235,2.4895 -0.519,0.7726 -1.153,1.4672 -1.838,2.0925 -0.68,0.6235 -1.398,1.1797 -2.103,1.7188 -0.706,0.5437 -1.401,1.0762 -2.042,1.6492 -0.641,0.5676 -1.237,1.1649 -1.715,1.8317 -0.242,0.3234 -0.461,0.6789 -0.63,1.0222 -0.187,0.3766 -0.343,0.7594 -0.477,1.1492 -0.274,0.7774 -0.434,1.5899 -0.474,2.4125 -0.051,0.8266 0.034,1.6582 0.182,2.4918 0.295,1.6707 0.949,3.2989 1.593,4.9477 0.663,1.6437 1.361,3.3105 1.843,5.0613 0.473,1.7446 0.71,3.6078 0.351,5.3703 0.032,-1.7914 -0.387,-3.5187 -1.028,-5.1484 -0.625,-1.6422 -1.442,-3.2051 -2.206,-4.8281 -0.772,-1.6117 -1.496,-3.3012 -1.905,-5.1317 -0.203,-0.9148 -0.294,-1.8679 -0.257,-2.8254 0.038,-0.9558 0.215,-1.9132 0.52,-2.8214 0.157,-0.452 0.341,-0.8954 0.551,-1.3172 0.23,-0.4489 0.485,-0.8528 0.78,-1.2418 0.583,-0.7696 1.262,-1.434 1.972,-2.0231 1.433,-1.1695 2.951,-2.1148 4.301,-3.1832 1.337,-1.0644 2.442,-2.4 3.148,-3.9773 0.516,-1.1016 0.918,-2.3735 1.183,-3.5875 l 0.007,0.0101 c 0.119,-0.5027 0.229,-1.0039 0.324,-1.5109 0.404,-1.6367 0.519,-2.8707 -1.502,-4.943 -0.515,-0.5269 -1.216,-0.9836 -1.888,-1.4242 -0.342,-0.2223 -0.654,-0.4328 -0.936,-0.632 -0.572,-0.5047 -1.095,-1.0578 -1.459,-1.7949 -0.007,-0.0704 -0.009,-0.1387 -0.007,-0.2075 l 0.086,-1.8832 -1.495,1.1453 c -1.276,0.9805 -1.873,2.3618 -2.446,3.6899 -0.423,0.9742 -0.801,1.8555 -1.399,2.5137 -0.686,-1.8219 -2.184,-3.7961 -3.277,-4.8493 -0.488,-0.4722 -1.008,-1.0097 -1.509,-1.5273 -0.817,-0.843 -1.661,-1.7188 -2.452,-2.3824 l -0.956,-0.8121 -0.435,1.1816 c -0.232,0.643 -0.221,1.6652 -0.202,2.8484 0.003,0.3282 0.006,0.7465 0.003,1.1477 l -0.019,0.0016 0.017,-0.0012 c 0.299,0.8613 0.492,1.7648 0.599,2.6723 0.186,1.7214 0.068,3.4972 -0.482,5.1871 -0.139,0.4195 -0.32,0.8382 -0.512,1.2207 -0.193,0.3937 -0.395,0.7761 -0.61,1.1586 -0.433,0.7531 -0.915,1.4836 -1.421,2.1836 -1.019,1.4105 -2.163,2.7082 -3.342,3.9648 -2.345,2.541 -5.043,4.7277 -7.738,6.8297 l -4.072,3.1035 c -0.678,0.5211 -1.336,1.0367 -2.003,1.573 l -2,1.593 c -2.662,2.1004 -5.251,4.2879 -7.212,6.9574 -0.986,1.3239 -1.806,2.7704 -2.401,4.3024 -0.594,1.5344 -0.974,3.1582 -1.155,4.8078 -0.188,1.6527 -0.167,3.3332 -0.031,5.0094 0.067,0.8371 0.173,1.6765 0.302,2.5105 0.127,0.822 0.322,1.635 0.577,2.429 0.5,1.589 1.284,3.103 2.382,4.368 1.095,1.265 2.527,2.252 4.14,2.82 -0.827,-0.215 -1.63,-0.537 -2.378,-0.964 -0.753,-0.43 -1.442,-0.967 -2.058,-1.58 -1.236,-1.237 -2.138,-2.78 -2.759,-4.408 -0.314,-0.817 -0.55,-1.664 -0.727,-2.514 -0.173,-0.851 -0.316,-1.7025 -0.426,-2.56 -0.226,-1.7222 -0.287,-3.4668 -0.152,-5.2164 0.129,-1.7468 0.477,-3.4898 1.091,-5.1504 0.605,-1.6625 1.456,-3.2316 2.474,-4.6644 1.026,-1.4371 2.228,-2.7258 3.488,-3.9199 1.265,-1.1961 2.597,-2.2961 3.932,-3.3661 l 2.015,-1.5851 c 0.669,-0.5305 1.352,-1.0578 2.036,-1.5774 l 4.1,-3.0668 c 1.366,-1.0199 2.712,-2.0496 4.011,-3.1261 1.298,-1.0864 2.551,-2.2063 3.75,-3.3981 1.198,-1.1984 2.348,-2.4316 3.396,-3.7488 0.517,-0.6539 1.009,-1.3363 1.46,-2.0398 0.443,-0.7098 0.871,-1.4387 1.168,-2.1926 0.606,-1.5309 0.819,-3.2332 0.75,-4.9078 -0.033,-0.841 -0.148,-1.6813 -0.351,-2.5 -0.007,-0.041 -0.083,-0.1535 -0.092,-0.191 l 0.013,-8e-4 c -0.052,-0.0774 -0.107,-0.1535 -0.169,-0.2434 -0.613,-0.9629 -0.968,-2.1211 -1.347,-3.3504 -0.497,-1.6082 -1.005,-3.275 -2.164,-4.6027 -0.605,-0.6867 -1.344,-1.3137 -2.059,-1.9184 -0.284,-0.2441 -0.562,-0.4785 -0.826,-0.7133 -0.308,-0.2019 -0.643,-0.3566 -0.966,-0.5285 0,-0.0508 -0.012,-0.1773 -0.044,-0.5008 l 0.043,0.5004 c -0.059,-0.0332 -0.153,-0.1254 -0.213,-0.155 -0.187,-0.093 -0.371,-0.1817 -0.558,-0.27 -0.81,-0.3714 -1.636,-0.7171 -2.475,-1 -0.421,-0.1464 -0.842,-0.2734 -1.266,-0.3761 -0.08,-0.0188 -0.161,-0.0344 -0.24,-0.0528 0.752,0.8965 1.32,1.9559 1.649,3.0793 0.444,1.4731 0.5,3.0227 0.342,4.5196 -0.169,1.5011 -0.55,2.966 -1.104,4.3586 -0.556,1.3937 -1.266,2.7238 -2.124,3.9625 -0.433,0.6207 -0.897,1.2125 -1.416,1.7761 -0.507,0.5551 -1.036,1.0668 -1.584,1.5692 -1.095,1.0043 -2.244,1.9265 -3.417,2.8082 -2.346,1.7679 -4.789,3.3394 -7.073,5.0695 -2.284,1.7305 -4.424,3.6211 -6.117,5.8852 -0.418,0.5601 -0.813,1.1531 -1.168,1.7488 -0.363,0.6133 -0.699,1.2348 -1.013,1.8726 -0.633,1.277 -1.156,2.6012 -1.596,3.9622 -0.433,1.3605 -0.796,2.7468 -1.059,4.1558 -0.268,1.4094 -0.436,2.8391 -0.52,4.2734 -0.158,2.8684 0.064,5.777 0.853,8.5778 -1.044,-2.7168 -1.48,-5.6625 -1.487,-8.5934 -0.008,-1.4672 0.104,-2.9406 0.307,-4.3949 0.204,-1.4582 0.499,-2.9039 0.91,-4.3227 0.402,-1.4199 0.902,-2.8117 1.51,-4.1652 0.305,-0.6726 0.636,-1.3484 1.006,-1.9863 0.383,-0.6586 0.774,-1.2832 1.215,-1.8926 0.869,-1.2148 1.858,-2.3387 2.923,-3.3793 1.065,-1.0351 2.207,-1.9781 3.37,-2.8723 2.334,-1.7894 4.767,-3.3902 7.08,-5.0945 0.951,-0.7082 1.587,-1.1164 3.33,-2.6945 0.523,-0.4731 1.033,-0.9731 1.524,-1.4766 0.472,-0.4953 0.916,-1.0375 1.328,-1.6 0.818,-1.132 1.51,-2.3687 2.057,-3.6644 0.539,-1.2918 0.96,-2.6411 1.157,-4.0239 0.202,-1.3769 0.174,-2.7859 -0.157,-4.123 -0.327,-1.3336 -1.008,-2.575 -1.987,-3.5625 l -0.685,-0.691 0.955,0.0441 c 0.508,0.0238 0.963,0.1391 1.407,0.2742 0.449,0.1321 0.878,0.2953 1.3,0.4676 0.846,0.3473 1.663,0.741 2.463,1.1793 0.173,0.0953 0.353,0.2008 0.53,0.3039 v 4e-4 c 0.092,-0.3805 0.187,-0.7633 0.285,-1.1605 0.427,-1.6809 0.631,-3.4301 0.824,-5.1278 0.16,-1.3433 0.319,-2.7371 0.594,-4.0547 0.362,-1.7679 1.604,-3.605 2.801,-5.3851 1.49,-2.2086 3.03,-4.4875 3.15,-6.9149 0.82,-0.214 2.753,-0.4359 3.758,-0.5543 1.203,-0.1382 1.646,-0.1957 1.898,-0.2726 1.92,-0.5957 2.258,-0.7774 2.733,-1.9692 0.109,-0.2812 0.252,-0.6359 0.519,-1.13668 0.101,-0.19023 0.242,-0.42148 0.389,-0.66484 0.474,-0.76719 0.999,-1.63438 1.167,-2.49336 0.257,-1.32539 0.034,-2.42383 -0.664,-3.2707 -0.978,-1.18789 -2.822,-1.76446 -5.641,-1.76446 -1.133,0 -2.221,0.08867 -3.097,0.16016 l -0.511,0.03945 c -0.739,0.05821 -1.578,0.07539 -2.46,0.09219 -1.808,0.03164 -3.675,0.06602 -5.205,0.45273 -3.072,0.77149 -3.516,2.54922 -3.988,4.43086 -0.137,0.55313 -0.276,1.12149 -0.492,1.73399 -0.481,1.34961 -1.706,2.00626 -3.122,2.76956 -1.342,0.7195 -2.727,1.4644 -3.599,2.884 -0.407,0.6582 -0.653,1.2996 -0.893,1.9109 -0.344,0.884 -0.669,1.7172 -1.462,2.5476 -0.603,0.6422 -1.281,1.204 -1.995,1.8 -1.042,0.8727 -2.127,1.7723 -2.992,2.95 -1.796,2.4399 -4.055,5.6762 -5.642,9.1047 -0.16,0.3235 -0.289,0.6727 -0.427,1.0395 l -0.006,0.009 c -0.845,0.9961 -1.817,1.8539 -3.051,2.4195 -0.222,0.1 -0.452,0.1926 -0.683,0.2766 -0.084,-0.0106 -0.163,-0.0219 -0.242,-0.0325 -0.473,-0.0617 -0.963,-0.1203 -1.448,-0.1203 -3.432,0.0121 -6.302,1.177 -8.799,3.5469 -0.362,0.3477 -0.685,0.7391 -0.994,1.1234 -0.619,0.7672 -1.086,1.2918 -1.616,1.4868 l 0.014,0.0074 0.013,0.007 v 0 l 0.001,4e-4 c -0.067,0.0231 -0.144,0.043 -0.231,0.0598 -0.051,0.0093 -0.105,0.0176 -0.162,0.0234 0.057,-0.0058 0.111,-0.0144 0.162,-0.0234 0.086,-0.016 0.162,-0.0364 0.228,-0.0594 0.603,0.3406 1.227,0.6359 1.868,0.9246 0.743,0.3399 1.508,0.6625 2.277,1.0152 0.764,0.3606 1.543,0.7543 2.273,1.2555 1.44,0.9817 2.725,2.2508 3.632,3.7516 0.912,1.5011 1.443,3.1535 1.703,4.8277 -0.834,-1.4777 -1.638,-2.925 -2.645,-4.1711 -0.999,-1.2492 -2.189,-2.3 -3.512,-3.2012 -1.283,-0.8832 -2.819,-1.5718 -4.266,-2.4675 -0.724,-0.4493 -1.446,-0.9453 -2.074,-1.5489 l 0.026,-0.0136 c -0.144,-0.1239 -0.327,-0.2914 -0.575,-0.5453 l 0.027,-0.0114 c -0.055,-0.059 -0.108,-0.1191 -0.159,-0.182 -0.874,-0.7527 -1.922,-2.3031 -2.378,-2.9875 -0.14,-0.207 -0.265,-0.3934 -0.372,-0.5453 -1.169,-1.6637 -2.164,-3.5078 -3.128,-5.2918 -0.988,-1.841 -2.019,-3.7465 -3.256,-5.5059 -0.534,-0.7484 -1.087,-1.5004 -1.619,-2.225 -1.37,-1.8496 -2.777,-3.7621 -3.862,-5.8011 -0.829,-1.5797 -1.352,-3.0157 -1.587,-4.3915 -0.263,-1.5027 -0.294,-2.2769 -0.276,-2.6574 0.258,0.0254 0.536,0.0453 0.767,-0.0043 0.895,-0.1972 1.577,-0.8629 1.908,-1.2398 0.327,-0.3797 0.468,-0.7988 0.562,-1.1059 0.043,-0.1293 0.088,-0.25896 0.127,-0.33592 0.076,-0.02226 0.243,-0.04218 0.361,-0.05546 0.14,-0.01446 0.297,-0.03321 0.461,-0.06875 0.603,-0.13047 1.174,-0.35274 1.726,-0.56524 l 0.251,-0.10156 c 1.039,-0.40117 2.456,-0.94805 3.022,-2.15 0.591,-1.2332 0.673,-2.25664 0.249,-3.12344 -0.722,-1.50273 -2.747,-1.97422 -4.372,-2.35703 -1.873,-0.435547 -4.721,-0.955078 -7.679,-0.955078 -2.466,0 -4.556,0.364453 -6.214,1.085158 -1.319,0.57812 -3.609,1.79648 -4.149,3.5043 -0.493,1.54101 0.203,2.7375 0.765,3.69648 0.203,0.34414 0.391,0.67266 0.519,0.99414 0.228,0.5586 0.278,0.8297 0.292,0.9469 -0.085,0.0402 -0.209,0.0937 -0.305,0.1402 -0.444,0.1957 -1.047,0.4621 -1.652,1.0828 -1.529,1.5793 -0.806,4.4996 -0.648,5.0727 0.398,1.4117 0.93,2.6203 1.441,3.791 0.796,1.8172 1.548,3.534 1.643,5.75 0.159,3.7445 1.157,7.2195 2.114,10.5797 0.562,1.9629 1.14,3.9902 1.557,6.066 0.294,1.4668 0.092,1.9898 -0.056,2.1652 -0.169,0.2028 -0.558,0.3067 -1.162,0.3067 -0.455,0 -1.019,-0.0574 -1.825,-0.1793 -1.266,-0.1926 -2.726,-0.2852 -4.477,-0.2852 -1.289,0 -2.58,0.0469 -3.726,0.0926 -0.412,0.0145 -0.828,0.0223 -1.249,0.0262 -1.078,0.0121 -2.194,0.0258 -3.305,0.2199 -2.152,0.3769 -4.438,1.3238 -6.653,2.2418 -1.181,0.4883 -2.297,0.9504 -3.359,1.3109 -0.751,0.2567 -1.526,0.5879 -2.35,0.9375 -1.858,0.7832 -3.775,1.5969 -5.434,1.5969 l -0.103,-0.0039 c -1.539,-0.0301 -2.353,-1.2902 -3.296,-2.7527 -0.28,-0.427 -0.562,-0.8645 -0.871,-1.2789 -0.928,-1.2477 -1.479,-2.4844 -1.83,-4.1368 -0.172,-0.8132 -0.32,-1.6398 -0.482,-2.5101 -0.536,-2.9371 -1.091,-5.9688 -2.534,-8.6262 -0.387,-0.7101 -0.818,-1.3789 -1.235,-2.0258 -1.301,-1.998 -2.418,-3.7281 -1.934,-6.1398 0.468,-2.3496 2.633,-4.0742 4.73,-5.743 0.779,-0.6203 1.515,-1.207 2.171,-1.8242 2.582,-2.4297 4.537,-3.25 7.751,-3.25 0.306,0 0.644,0.0117 0.986,0.0266 0.351,0.0183 0.684,0.0433 0.993,0.0691 0.444,0.0332 0.866,0.0707 1.289,0.0707 1.006,0 2.211,-0.1832 3.472,-1.532 0.886,-0.9481 2.249,-3.0887 2.127,-4.79105 -0.229,-3.24882 -4.268,-3.34765 -7.218,-3.41914 -0.802,-0.0207 -1.564,-0.03633 -2.096,-0.11875 -0.632,-0.09101 -1.258,-0.19804 -1.918,-0.30508 -1.884,-0.32109 -3.825,-0.64882 -5.813,-0.64882 -0.873,0 -1.67,0.05898 -2.457,0.18281 -2.106,0.33906 -2.732,1.11836 -3.6,2.2 -0.228,0.27891 -0.485,0.59726 -0.8,0.94805 -1,1.10781 -2.148,1.73007 -3.48,2.4457 -0.24,0.12969 -0.487,0.26406 -0.735,0.39883 -3.013,1.67075 -5.3987,3.74535 -7.987,6.08865 -0.5621,0.5121 -1.2199,1.0653 -1.9203,1.652 -2.0203,1.6976 -4.309,3.6211 -5.5742,5.5769 -1.4176,2.1891 -0.9414,5.1024 -0.5242,7.6711 0.1519,0.9281 0.296,1.8016 0.3351,2.552 0.202,4.0355 -0.3101,7.1922 -1.6098,9.9277 l -0.1015,0.2129 c -0.3535,0.7445 -0.9391,1.9879 -1.6297,2.2746 -0.1121,0.0449 -0.1992,0.0746 -0.2746,0.0856 l -0.2016,0.0128 c -0.1656,-0.0238 -0.323,-0.1953 -0.6832,-0.6695 -0.3805,-0.5004 -0.859,-1.1254 -1.6621,-1.5433 -1.4691,-0.7633 -3.0461,-0.9922 -4.5672,-1.2102 -1.7879,-0.2574 -3.473,-0.5027 -4.7781,-1.5977 -0.7856,-0.6613 -1.4473,-1.3933 -2.0957,-2.173 -1.1332,-2.3438 -3.509,-4.5547 -5.4344,-5.4766 -0.8387,-0.4027 -1.7156,-0.5992 -2.5605,-0.7894 -0.0254,-0.0078 -0.0461,-0.0129 -0.068,-0.0168 -1.1699,-0.4629 -2.3738,-0.952 -3.3266,-1.6059 -1.6308,-1.1277 -2.5824,-2.7945 -3.5707,-4.6949 -0.7179,-1.3664 -0.9543,-2.632 -1.225,-4.1051 -0.1246,-0.682 -0.2578,-1.3785 -0.439,-2.1336 -0.0762,-0.2996 -0.1574,-0.6 -0.2364,-0.9019 -0.4605,-1.7422 -0.9003,-3.3985 -0.3937,-5.0406 0.4953,0.0238 1.0184,0.2257 1.573,0.4398 0.7782,0.3035 1.6782,0.6492 2.6965,0.5637 1.9946,-0.1571 3.809,-1.4981 5.134,-2.4739 C 63.4824,10.3867 64.5008,8.27266 64.543,6.29258 64.5762,4.77188 64.0316,3.48203 63.0086,2.65547 61.9613,1.81055 60.0148,1.59648 58.4527,1.41914 58.1023,1.37852 57.7855,1.34297 57.5344,1.3043 55.9324,1.06172 54.1852,0.846094 52.3621,0.864453 c -0.1973,0.001563 -0.3969,0.001563 -0.6023,0.00625 -2.9993,0.017578 -7.1141,0.049219 -8.384,3.481637 -0.5528,1.49727 -0.841,2.93164 -1.1203,4.31954 -0.4563,2.25942 -0.8844,4.38832 -2.418,6.41252 -2.0367,2.6929 -1.6039,5.2566 -1.1457,7.9664 0.091,0.5324 0.1852,1.0832 0.2613,1.65 0.2817,2.0039 0.4098,3.6824 0.1336,5.357 -0.064,0.3863 -0.2301,0.8852 -0.4054,1.416 -0.3801,1.1516 -0.8118,2.4547 -0.5254,3.5563 0.6117,2.3902 2.8617,3.1988 4.8449,3.909 1.0355,0.3699 2.0168,0.7281 2.7,1.2535 -0.7172,5.2972 1.7082,10.7301 3.6625,15.1211 0.6055,1.3601 1.0898,2.8117 1.6062,4.3453 0.8442,2.5133 1.7114,5.1144 3.1563,7.2922 l 0.5047,0.7648 c 1.6386,2.468 3.3304,5.0199 4.8672,7.6 0.2175,0.3653 0.4378,0.7235 0.6503,1.0738 0.8926,1.4571 1.7278,2.8286 2.3438,4.4942 0.8695,2.3453 1.7535,4.2051 2.8816,5.9535 C 63.1477,86.7109 58.9023,86.6656 50.6566,86.5746 42.7637,86.4965 33.8195,86.4059 32.0191,86.1148 26.7867,85.2684 14.1113,82.2402 9.31211,72.4641 7.55859,68.8914 6.62031,63.1098 8.69531,58.8496 c 1.51209,-3.1035 6.56449,-8.2793 9.69259,-8.5504 0.4172,-0.0332 0.8195,-0.0683 1.2,-0.1015 3.9277,-0.3235 6.5258,-0.5403 10.2707,-3.0688 2.5266,-1.7062 5.2519,-4.284 8.3297,-7.8906 l 0.9078,-1.0684 -1.3574,-0.3504 c -3.3461,-0.8636 -6.8098,-1.7543 -10.2332,-1.7543 -2.4293,0 -4.6586,0.443 -6.8071,1.3504 -2.6714,1.1254 -4.4343,1.8742 -5.7074,4.6856 -0.1363,0.2996 -0.1879,0.7078 -0.2668,1.4695 -0.0453,0.4199 -0.1222,1.1465 -0.2195,1.4898 -5.67072,2.043 -9.66056,5.4821 -11.86954,10.22 -2.036722,4.3754 -2.476566,9.6648 -1.30899,15.7261 0.89375,4.6293 3.3336,8.695 7.04688,11.7512 C 21.425,93.4984 36.6324,94.1902 52.7262,94.9203 l 2.1078,0.0996 c 6.8558,0.318 12.0898,1.3528 18.6738,3.6844 7.3168,2.5907 13.4617,4.5997 20.3414,4.9667 l 0.15,0.008 c 1.7949,0.087 3.7004,0.134 5.666,0.134 5.8348,0 11.7418,-0.39 17.4528,-0.767 5.686,-0.375 11.565,-0.763 17.347,-0.763 0.728,0 1.452,0.003 2.187,0.016 7.509,0.135 14.971,1.358 22.194,2.547 3.075,0.507 6.26,1.03 9.425,1.465 l 0.368,0.047 c 4.203,0.578 8.276,1.609 12.416,2.36 0.144,0.024 0.288,0.059 0.428,0.093 -0.01,-0.009 -0.017,-0.017 -0.032,-0.026 h -0.001 c -0.215,-0.157 -0.425,-0.323 -0.63,-0.488 -0.632,-0.536 -1.229,-1.115 -1.791,-1.732 -0.55,-0.627 -1.056,-1.285 -1.525,-1.972 -0.475,-0.686 -0.886,-1.409 -1.266,-2.15 -0.381,-0.743 -0.728,-1.505 -1.011,-2.286 -0.289,-0.7836 -0.531,-1.5879 -0.731,-2.3992 -0.097,-0.409 -0.182,-0.8203 -0.258,-1.2355 l -0.194,-1.2008 c -0.517,-3.1535 -1.167,-6.3031 -2.469,-9.1602 -0.67,-1.4113 -1.504,-2.7605 -2.703,-3.7394 -0.593,-0.4957 -1.281,-0.8723 -2.03,-1.1188 -0.748,-0.2457 -1.552,-0.3363 -2.363,-0.3144 0.793,-0.1731 1.63,-0.2102 2.454,-0.0629 0.828,0.1406 1.627,0.4793 2.345,0.9398 0.714,0.4633 1.33,1.0614 1.875,1.7035 0.549,0.6457 0.999,1.359 1.407,2.0914 0.811,1.4629 1.382,3.0325 1.848,4.6172 0.237,0.7887 0.436,1.5914 0.608,2.393 0.177,0.8023 0.329,1.6086 0.468,2.4145 l 0.192,1.1976 c 0.063,0.382 0.138,0.761 0.224,1.1453 0.171,0.7578 0.39,1.5145 0.648,2.2551 0.255,0.7398 0.535,1.4728 0.865,2.1888 0.326,0.718 0.695,1.41 1.085,2.095 0.393,0.681 0.829,1.34 1.306,1.971 0.463,0.634 0.974,1.244 1.525,1.813 0.402,0.432 0.833,0.838 1.284,1.224 l 0.01,0.037 0.058,0.011 c 0.401,0.34 0.819,0.669 1.255,0.978 0.279,0.157 0.561,0.31 0.853,0.463 1.17,0.633 1.737,1.466 2.442,2.522 0.364,0.545 0.74,1.107 1.234,1.691 1.016,1.187 2.178,2.392 3.835,3.194 0.485,0.237 0.983,0.426 1.524,0.579 2.132,0.605 4.241,1.148 6.629,1.094 0.372,-0.006 0.731,-0.011 1.081,-0.012 1.381,-0.008 2.69,-0.016 4.237,-0.408 1.293,-0.33 2.299,-0.216 3.704,0.417 0.861,0.388 1.706,0.817 2.561,1.244 0.496,0.247 0.992,0.496 1.48,0.735 2.751,1.331 5.997,2.691 9.804,1.985 1.864,-0.344 3.727,-0.031 5.696,0.311 0.142,0.028 0.275,0.055 0.41,0.08 l 0.006,-0.011 c 1.85,0.322 3.757,0.622 5.748,0.352 1.488,-0.2 2.934,-0.484 4.283,-1.774 0.588,-0.566 0.941,-1.289 1.255,-1.935 0.222,-0.454 0.471,-0.971 0.687,-1.106 0.411,-0.261 1.009,-0.386 1.642,-0.52 0.901,-0.19 1.92,-0.406 2.807,-1.082 1.421,-1.081 2.56,-2.721 3.298,-4.741 0.229,-0.614 0.362,-1.31 0.514,-2.057 0.554,-2.764 1.035,-4.031 2.998,-3.755 0.204,0.03 0.429,0.104 0.669,0.22 0.595,0.292 1.251,0.84 1.717,1.433 l 1.359,1.746 0.202,-2.203 c 0.177,-1.874 -0.481,-3.407 -1.866,-4.391 0.968,-0.784 2.244,-1.968 3.297,-3.465 0.42,-0.55 0.751,-1.1566 1.072,-1.7496 0.111,-0.2011 0.218,-0.4039 0.329,-0.6023 l -0.083,-0.0539 c 0.211,-0.536 0.388,-1.0977 0.505,-1.684 0.12,-0.6492 0.137,-0.9875 0.14,-1.2047 0,-0.0539 0,-0.0891 0.006,-0.1301 0.034,-0.1203 0.384,-0.6886 0.595,-1.0316 0.477,-0.7738 1.192,-1.5473 1.876,-2.2938 0.186,-0.2007 0.368,-0.3996 0.54,-0.5871 0.824,-0.9211 1.56,-1.782 2.27,-2.6179 1.394,-1.6446 2.713,-3.202 4.484,-4.8606 0.218,-0.2031 0.427,-0.3879 0.615,-0.5582 1.096,-0.9668 2.043,-1.8012 1.741,-3.793 z M 178.028,42.3625 c -0.071,-0.0027 -0.146,-0.0074 -0.224,-0.0156 l -0.014,-0.0145 0.014,0.0153 c 0.078,0.0074 0.153,0.0121 0.224,0.0148 z m 70.69,59.5175 c -0.902,-0.339 -1.845,-0.539 -2.803,-0.691 -1.919,-0.315 -3.938,-0.424 -5.965,-1.069 -0.498,-0.1684 -0.999,-0.368 -1.482,-0.6177 -0.48,-0.2546 -0.946,-0.5597 -1.364,-0.9203 -0.844,-0.7172 -1.486,-1.6586 -1.881,-2.6465 -0.209,-0.5093 -0.346,-1.0378 -0.407,-1.5847 -0.063,-0.5453 -0.031,-1.1024 0.105,-1.6344 0.146,-0.5254 0.395,-1.0254 0.745,-1.4258 0.353,-0.3996 0.787,-0.7047 1.252,-0.9058 -0.379,0.3382 -0.701,0.7187 -0.914,1.1386 -0.219,0.4196 -0.349,0.8649 -0.375,1.3207 -0.062,0.9043 0.202,1.8086 0.631,2.6012 0.444,0.8188 1.014,1.5246 1.722,2.0684 0.701,0.5437 1.531,0.9312 2.422,1.2199 1.787,0.5769 3.78,0.7949 5.753,1.3364 0.986,0.271 1.975,0.626 2.871,1.166 0.889,0.541 1.685,1.263 2.193,2.136 -0.76,-0.664 -1.6,-1.165 -2.503,-1.492 z M 83.7031,44.8684 c 0,0 8.011,14.7425 23.1239,15.3191 0,0 -15.5883,2.566 -23.1239,-15.3191 z m 25.5929,24.3324 c -0.251,4.4359 0.545,8.2265 -1.422,13.1191 -0.321,0.7883 -1.023,1.3051 -1.669,1.8516 3.411,-2.9199 1.052,-9.9735 2.513,-18.7266 1.459,-8.7597 11.945,-13.798 11.945,-13.798 -1.626,1.2117 -3.189,2.5148 -4.626,3.95 -3.715,3.7019 -6.437,8.2773 -6.741,13.6039 z m 48.222,-12.6856 c -0.54,-0.9328 -0.847,-1.9691 -1.045,-3.0007 -0.369,-2.0801 -0.319,-4.1825 -0.053,-6.2426 0.037,-0.259 0.081,-0.5086 0.107,-0.7422 0.032,-0.2379 0.053,-0.4781 0.073,-0.7184 0.046,-0.4843 0.061,-0.9679 0.061,-1.4566 0,-0.9746 -0.069,-1.9574 -0.188,-2.9422 -0.214,-1.9781 -0.641,-3.9832 -0.752,-6.0395 0.705,1.9211 1.43,3.8153 1.891,5.8454 0.227,1.0105 0.379,2.0492 0.434,3.1031 0.026,0.5285 0.021,1.0551 -0.003,1.5859 -0.02,0.2668 -0.047,0.5332 -0.078,0.7926 -0.025,0.2719 -0.065,0.5254 -0.096,0.7676 -0.257,1.957 -0.401,3.9461 -0.263,5.8961 0.076,0.9699 0.225,1.9375 0.553,2.8449 0.323,0.9043 0.871,1.741 1.743,2.3043 -0.499,-0.1309 -0.97,-0.3988 -1.375,-0.75 -0.399,-0.3516 -0.729,-0.7871 -1.009,-1.2477"
         style="fill:#000000;fill-opacity:1;fill-rule:evenodd;stroke:none;stroke-width:0.1"
         id="path12" /><path
         d="M 85.6988,58.4289 V 68.9336 L 84.398,64.1082 h -4.2968 l -1.2676,4.7969 V 58.4289 h -4.4875 v 24.3262 h 4.4035 l 3.5184,-11.1133 3.5172,11.1133 h 4.407 V 58.4289 h -4.4934"
         style="fill:#ffffff;fill-opacity:1;fill-rule:nonzero;stroke:none;stroke-width:0.1"
         id="path14" /><path
         d="M 90.3844,82.9473 H 85.6445 L 85.559,82.6785 82.2676,72.2801 78.9758,82.6785 78.891,82.9473 h -0.282 -4.0699 -0.3852 v -0.3852 -23.941 -0.3848 h 0.3852 4.1023 0.3852 v 0.3848 8.8008 l 0.8504,-3.2199 0.0761,-0.2864 h 0.2965 4.0008 0.2949 l 0.0774,0.2848 0.8832,3.2781 v -8.8574 -0.3848 h 0.3851 4.1082 0.3852 v 0.3848 23.941 z M 89.9992,82.5621 V 58.6211 H 85.891 v 11.766 l -1.6406,-6.0863 h -4.0008 l -1.6082,6.0863 v -11.766 h -4.1023 v 23.941 h 4.0699 l 3.6586,-11.5586 3.659,11.5586 h 4.0726"
         style="fill:#ffffff;fill-opacity:1;fill-rule:nonzero;stroke:none;stroke-width:0.1"
         id="path16" /><path
         d="m 99.6184,78.2664 h -2.5911 v -8.2332 h 2.5911 z m 0,-19.8375 v 7.1152 H 97.0273 V 58.4289 H 92.5398 V 80.032 c 0,1.5016 1.2207,2.7231 2.7211,2.7231 h 6.1591 c 1.501,0 2.723,-1.2215 2.723,-2.7231 V 58.4289 h -4.5246"
         style="fill:#ffffff;fill-opacity:1;fill-rule:nonzero;stroke:none;stroke-width:0.1"
         id="path18" /><path
         d="m 97.2199,78.0738 h 2.2063 v -7.848 h -2.2063 z m 4.2001,4.8739 h -6.1591 c -1.607,0 -2.914,-1.3082 -2.914,-2.9157 V 58.6215 58.2363 h 0.3855 4.1024 0.3851 v 0.3852 6.7297 h 2.2063 v -6.7297 -0.3852 h 0.3847 4.1391 0.385 v 0.3852 16.6562 3.8317 0.9226 c 0,1.6075 -1.307,2.9157 -2.915,2.9157 z M 96.8348,69.8395 h 2.9761 v 8.6191 h -2.9761 z m 4.5852,12.723 c 1.368,0 2.53,-1.1277 2.53,-2.5305 V 79.1094 75.2777 58.6215 h -4.1391 v 7.1148 H 96.8348 V 58.6215 H 92.7324 V 80.032 c 0,1.4028 1.127,2.5305 2.5285,2.5305 h 6.1591"
         style="fill:#ffffff;fill-opacity:1;fill-rule:nonzero;stroke:none;stroke-width:0.1"
         id="path20" /><path
         d="m 113.856,58.4289 -0.072,0.2832 -3.035,9.6692 h -0.043 v -9.9524 h -4.49 v 24.3262 h 4.49 v -9.8113 l 3.123,9.8113 h 4.576 l -3.892,-12.1317 3.892,-12.1945 h -4.549"
         style="fill:#ffffff;fill-opacity:1;fill-rule:nonzero;stroke:none;stroke-width:0.1"
         id="path22" /><path
         d="m 118.669,82.9473 h -4.981 l -0.086,-0.268 -2.703,-8.4945 v 8.3773 0.3852 h -0.385 -4.105 -0.386 v -0.3852 -23.941 -0.3848 h 0.386 4.105 0.385 v 0.3848 8.6383 l 2.703,-8.6149 0.03,-0.1195 0.075,-0.2887 h 0.298 4.136 0.527 l -0.16,0.5024 -3.793,11.8843 3.793,11.8215 z m -0.528,-0.3852 -3.83,-11.9391 3.83,-12.0019 h -4.136 l -0.035,0.1387 -3.08,9.8136 h -0.376 v -9.9523 h -4.105 v 23.941 h 4.105 v -9.8848 h 0.309 l 3.147,9.8848 h 4.171"
         style="fill:#ffffff;fill-opacity:1;fill-rule:nonzero;stroke:none;stroke-width:0.1"
         id="path24" /><path
         d="m 119.181,58.4289 v 24.3262 h 11.603 v -4.4883 h -7.114 v -5.3977 h 5.678 v -4.4878 h -5.678 v -5.4297 h 7.114 v -4.5227 h -11.603"
         style="fill:#ffffff;fill-opacity:1;fill-rule:nonzero;stroke:none;stroke-width:0.1"
         id="path26" /><path
         d="m 130.977,82.9473 h -11.988 v -24.711 h 11.988 v 0.3848 4.1383 0.3851 h -0.386 -6.728 v 5.0438 h 5.293 0.385 v 0.3851 4.1039 0.3852 h -0.385 -5.293 v 5.0113 h 6.728 0.386 v 0.3852 4.1031 z m -0.386,-0.3852 V 78.459 h -7.114 v -5.7817 h 5.679 v -4.1039 h -5.679 v -5.814 h 7.114 v -4.1383 h -11.217 v 23.941 h 11.217"
         style="fill:#ffffff;fill-opacity:1;fill-rule:nonzero;stroke:none;stroke-width:0.1"
         id="path28" /><path
         d="m 138.127,82.7551 h 4.487 V 58.4289 h -4.487 v 24.3262"
         style="fill:#ffffff;fill-opacity:1;fill-rule:nonzero;stroke:none;stroke-width:0.1"
         id="path30" /><path
         d="m 142.806,82.9473 h -4.872 v -24.711 h 4.872 v 0.3848 23.941 z m -0.385,-24.3262 h -4.102 v 23.941 h 4.102 v -23.941"
         style="fill:#ffffff;fill-opacity:1;fill-rule:nonzero;stroke:none;stroke-width:0.1"
         id="path32" /><path
         d="m 151.783,58.4289 -2.672,9.2902 v -9.2902 h -4.489 v 24.3262 h 4.404 l 2.676,-8.7242 v 8.7242 h 4.522 V 58.4289 h -4.441"
         style="fill:#ffffff;fill-opacity:1;fill-rule:nonzero;stroke:none;stroke-width:0.1"
         id="path34" /><path
         d="m 156.416,82.9473 h -4.907 v -7.6317 l -2.257,7.359 -0.083,0.2727 h -0.285 -4.069 -0.385 v -0.3852 -23.941 -0.3848 h 0.385 4.104 0.385 v 0.3848 7.732 l 2.254,-7.8379 0.08,-0.2789 h 0.291 4.102 0.385 v 0.3848 23.941 z m -0.385,-0.3852 v -23.941 h -4.102 l -3.01,10.4644 V 58.6211 h -4.104 v 23.941 h 4.069 l 3.01,-9.8164 v 9.8164 h 4.137"
         style="fill:#ffffff;fill-opacity:1;fill-rule:nonzero;stroke:none;stroke-width:0.1"
         id="path36" /><path
         d="m 164.388,82.7551 h 4.489 V 58.4289 h -4.489 v 24.3262"
         style="fill:#ffffff;fill-opacity:1;fill-rule:nonzero;stroke:none;stroke-width:0.1"
         id="path38" /><path
         d="m 169.07,82.9473 h -4.874 v -24.711 h 4.874 v 0.3848 23.941 z m -0.385,-24.3262 h -4.103 v 23.941 h 4.103 v -23.941"
         style="fill:#ffffff;fill-opacity:1;fill-rule:nonzero;stroke:none;stroke-width:0.1"
         id="path40" /><path
         d="m 178.046,58.4289 -2.672,9.2902 v -9.2902 h -4.488 v 24.3262 h 4.404 l 2.676,-8.7242 v 8.7242 h 4.523 V 58.4289 h -4.443"
         style="fill:#ffffff;fill-opacity:1;fill-rule:nonzero;stroke:none;stroke-width:0.1"
         id="path42" /><path
         d="m 182.682,82.9473 h -4.909 v -7.6317 l -2.257,7.359 -0.083,0.2727 h -0.285 -4.069 -0.386 v -0.3852 -23.941 -0.3848 h 0.386 4.103 0.385 v 0.3848 7.732 l 2.254,-7.8379 0.08,-0.2789 h 0.29 4.106 0.385 v 0.3848 23.941 z m -0.385,-0.3852 v -23.941 h -4.106 l -3.009,10.4644 V 58.6211 h -4.103 v 23.941 h 4.069 l 3.01,-9.8164 v 9.8164 h 4.139"
         style="fill:#ffffff;fill-opacity:1;fill-rule:nonzero;stroke:none;stroke-width:0.1"
         id="path44" /><path
         d="m 191.645,78.2664 h -2.593 V 62.952 h 2.593 z m -7.082,-19.8375 v 24.3262 h 8.881 c 1.502,0 2.724,-1.2215 2.724,-2.7231 V 61.1539 c 0,-1.4769 -1.247,-2.725 -2.724,-2.725 h -8.881"
         style="fill:#ffffff;fill-opacity:1;fill-rule:nonzero;stroke:none;stroke-width:0.1"
         id="path46" /><path
         d="m 189.245,78.0738 h 2.207 V 63.1445 h -2.207 z m 4.199,4.8739 H 184.37 V 58.2363 h 9.074 c 1.581,0 2.917,1.3364 2.917,2.9172 V 80.032 c 0,1.6075 -1.309,2.9157 -2.917,2.9157 z m -4.585,-20.1895 h 2.979 v 15.7004 h -2.979 z m 4.585,19.8043 c 1.369,0 2.531,-1.1277 2.531,-2.5305 V 61.1535 c 0,-1.368 -1.162,-2.532 -2.531,-2.532 h -8.689 v 23.941 h 8.689"
         style="fill:#ffffff;fill-opacity:1;fill-rule:nonzero;stroke:none;stroke-width:0.1"
         id="path48" /><path
         d="m 198.448,82.7551 h 4.487 V 58.4289 h -4.487 v 24.3262"
         style="fill:#ffffff;fill-opacity:1;fill-rule:nonzero;stroke:none;stroke-width:0.1"
         id="path50" /><path
         d="m 203.128,82.9473 h -4.873 v -24.711 h 4.873 v 0.3848 23.941 z m -0.385,-24.3262 h -4.102 v 23.941 h 4.102 v -23.941"
         style="fill:#ffffff;fill-opacity:1;fill-rule:nonzero;stroke:none;stroke-width:0.1"
         id="path52" /><path
         d="m 212.026,78.2664 h -2.589 v -8.2332 h 2.589 z m 0,-19.8375 v 7.1152 h -2.589 v -7.1152 h -4.491 V 80.032 c 0,1.5016 1.222,2.7231 2.723,2.7231 h 6.155 c 1.501,0 2.724,-1.2215 2.724,-2.7231 V 58.4289 h -4.522"
         style="fill:#ffffff;fill-opacity:1;fill-rule:nonzero;stroke:none;stroke-width:0.1"
         id="path54" /><path
         d="m 209.63,78.0738 h 2.204 v -7.848 h -2.204 z m 4.193,4.8739 h -6.154 c -1.608,0 -2.915,-1.3082 -2.915,-2.9157 V 58.6215 58.2363 h 0.385 4.106 0.385 v 0.3852 6.7297 h 2.204 v -6.7297 -0.3852 h 0.385 4.136 0.385 v 0.3852 16.6562 3.8317 0.9226 c 0,1.6075 -1.308,2.9157 -2.917,2.9157 z m -4.578,-13.1082 h 2.974 v 8.6191 h -2.974 z m 4.578,12.723 c 1.37,0 2.532,-1.1277 2.532,-2.5305 V 79.1094 75.2777 58.6215 h -4.136 v 7.1148 h -2.974 v -7.1148 h -4.106 V 80.032 c 0,1.4028 1.127,2.5305 2.53,2.5305 h 6.154"
         style="fill:#ffffff;fill-opacity:1;fill-rule:nonzero;stroke:none;stroke-width:0.1"
         id="path56" /></g></g></svg>
