<svg xmlns="http://www.w3.org/2000/svg" width="47.047" height="45.88" viewBox="0 0 47.047 45.88"><path d="M5.006,9.09a2.444,2.444,0,0,1,.282.056c.226,4.91.564,9.764.564,14.674,0,2.6-.056,5.192-.226,7.789-.056,2.822-.564,5.644-.79,8.522a1.554,1.554,0,0,0,1.524,1.524,29.471,29.471,0,0,1,10.272,2.709A35.551,35.551,0,0,1,20.7,46.622a33.29,33.29,0,0,0,4.12,2.822,4.144,4.144,0,0,0,3.556-.169c1.919-.847,3.781-1.862,5.644-2.822L44.344,41.2a15.77,15.77,0,0,0,4.007-2.314c1.185-1.185,1.185-2.878,1.242-4.4L50.1,22.635c.169-3.951.339-7.9.564-11.852.113-2.314.621-6.265-2.483-6.829-1.693-.339-3.556.847-5.079,1.524-1.806.734-3.669,1.58-5.531,2.427-3.612,1.75-7.168,3.669-10.61,5.7a71.7,71.7,0,0,0-21-7.958C3.708,5.2,2.749,8.695,5.006,9.09Zm22.858,7.9A137.226,137.226,0,0,1,44.8,8.243,7.387,7.387,0,0,1,46.884,7.4c.79-.113.621-.282.677.508a37.36,37.36,0,0,1-.169,5.023c-.113,3.217-.282,6.49-.4,9.707-.113,3.33-.282,6.716-.452,10.046-.056,1.467.226,3.443-1.016,4.346a32.039,32.039,0,0,1-4.4,2.2c-3.048,1.524-6.039,3.048-9.087,4.572-1.411.734-2.822,1.411-4.176,2.145a6.158,6.158,0,0,0-.621.339V46.17a28.657,28.657,0,0,0,0-4.4V36.35c-.056-6.378.056-12.755-.4-19.133A2.214,2.214,0,0,0,27.864,16.991Zm-2.145-.282c-.282,4.854-.226,9.707-.339,14.5l-.169,7.619c-.056,1.185-.056,2.427-.113,3.612,0,.734,0,1.467-.056,2.145-.056.282-.056.564-.113.847a.207.207,0,0,0-.056.169,10.849,10.849,0,0,0-.959-.734A35.587,35.587,0,0,0,8,38.72c.339-5.079.169-10.272.056-15.295a128.53,128.53,0,0,0-.959-13.94A68.2,68.2,0,0,1,25.719,16.709Z" transform="translate(-3.718 -3.894)" fill="#e9b169"/><path d="M49.861,33.449a58.293,58.293,0,0,0,7.393-2.766c2.314-.9,4.684-1.75,6.886-2.822,1.016-.452.282-2.2-.79-1.806-2.314.9-4.572,1.975-6.829,2.991a63.188,63.188,0,0,0-7.111,3.386A.565.565,0,0,0,49.861,33.449Z" transform="translate(-23.515 -13.523)" fill="#e9b169"/><path d="M48.1,46.513A75.555,75.555,0,0,0,58.488,42.28c.79-.4.226-1.693-.621-1.411A75.485,75.485,0,0,0,47.708,45.61C47.2,45.836,47.539,46.682,48.1,46.513Z" transform="translate(-22.772 -19.984)" fill="#e9b169"/><path d="M61.741,51.57c-2.653.847-5.192,2.653-7.506,4.176A26.112,26.112,0,0,0,50,58.795c-.282.282-.056.621.282.677a2.337,2.337,0,0,0,1.3-.508c1.016-.564,2.032-1.185,2.991-1.806,2.54-1.524,5.192-2.822,7.845-4.12C63.208,52.643,62.644,51.288,61.741,51.57Z" transform="translate(-23.824 -24.646)" fill="#e9b169"/><path d="M18.982,26.788a21.68,21.68,0,0,1,10.385,3.781c1.129.734,2.258-1.185,1.072-1.862-3.386-1.919-7.619-3.838-11.626-3.048C18.192,25.772,18.418,26.732,18.982,26.788Z" transform="translate(-10.132 -13.296)" fill="#e9b169"/><path d="M23.992,36.794c-.79-.113-1.129,1.072-.339,1.242a17.269,17.269,0,0,1,6.1,2.427c.847.564,1.637-.847.79-1.355A18.181,18.181,0,0,0,23.992,36.794Z" transform="translate(-12.206 -18.223)" fill="#e9b169"/><path d="M16.273,51.714c1.919.847,3.894,1.637,5.813,2.653,1.919.959,3.556,2.314,5.362,3.386.9.564,1.975-.79,1.185-1.524-3.217-2.935-7.789-4.4-11.852-5.644C16.1,50.416,15.652,51.432,16.273,51.714Z" transform="translate(-9.059 -24.225)" fill="#e9b169"/></svg>