<svg id="Group_8" data-name="Group 8" xmlns="http://www.w3.org/2000/svg" width="67.842" height="14.592" viewBox="0 0 67.842 14.592">
  <path id="Path_8" data-name="Path 8" d="M427.5,179.783h-4.89l-19.446-.252h4.888Z" transform="translate(-392.485 -172.361)" fill="#c11f4e"/>
  <path id="Path_9" data-name="Path 9" d="M422.232,179.783h-4.89l-19.445-.252h4.888Z" transform="translate(-388.232 -172.361)" fill="#c11f4e"/>
  <path id="Path_10" data-name="Path 10" d="M432.763,179.783h-4.89l-19.446-.252h4.888Z" transform="translate(-393.932 -172.361)" fill="#c11f4e"/>
  <path id="Path_11" data-name="Path 11" d="M392.652,179.531l4.888,4.888h-4.888Z" transform="translate(-392.652 -174.679)" fill="#c11f4e"/>
  <path id="Path_12" data-name="Path 12" d="M407.244,194.123h-4.89l-9.7-9.7v-4.888Z" transform="translate(-392.652 -179.531)" fill="#c11f4e"/>
  <path id="Path_13" data-name="Path 13" d="M412.058,179.783l-19.406-.251H397.5l19.447.252Z" transform="translate(-392.652 -172.361)" fill="#c11f4e"/>
  <path id="Path_14" data-name="Path 14" d="M438.029,179.783h-4.89l-19.445-.252h4.888Z" transform="translate(-394.359 -172.361)" fill="#c11f4e"/>
  <path id="Path_15" data-name="Path 15" d="M459.879,191.87v4.888l-14.592-14.592h4.888Z" transform="translate(-392.037 -182.166)" fill="#c11f4e"/>
  <path id="Path_16" data-name="Path 16" d="M464.317,179.783h-4.85l-19.445-.252h4.888Z" transform="translate(-396.475 -172.361)" fill="#c11f4e"/>
  <path id="Path_17" data-name="Path 17" d="M459.091,179.783H454.2l-19.445-.252h4.888Z" transform="translate(-400.914 -172.361)" fill="#c11f4e"/>
  <path id="Path_18" data-name="Path 18" d="M450.553,187.432h4.888v4.888Z" transform="translate(-387.599 -182.58)" fill="#c11f4e"/>
  <path id="Path_19" data-name="Path 19" d="M453.826,179.783h-4.89l-19.446-.252h4.888Z" transform="translate(-396.66 -172.361)" fill="#c11f4e"/>
  <path id="Path_20" data-name="Path 20" d="M448.56,179.783h-4.89l-19.446-.252h4.888Z" transform="translate(-395.214 -172.361)" fill="#c11f4e"/>
  <path id="Path_21" data-name="Path 21" d="M443.294,179.783H438.4l-19.445-.252h4.888Z" transform="translate(-394.786 -172.361)" fill="#c11f4e"/>
</svg>
