<?xml version="1.0" encoding="UTF-8" standalone="no"?>
<svg
   width="10.124001"
   height="10.145894"
   viewBox="0 0 10.124001 10.145894"
   version="1.1"
   id="svg18"
   xmlns="http://www.w3.org/2000/svg"
   xmlns:svg="http://www.w3.org/2000/svg">
  <defs
     id="defs22">
    <clipPath
       clipPathUnits="userSpaceOnUse"
       id="clipPath312">
      <rect
         style="fill:#e32028;stroke-width:0.471469"
         id="rect314"
         width="10.124001"
         height="10.145894"
         x="395.202"
         y="179.53101" />
    </clipPath>
  </defs>
  <g
     id="Group_117"
     data-name="Group 117"
     transform="translate(-395.202,-179.53101)"
     clip-path="url(#clipPath312)">
    <g
       id="Group_8"
       data-name="Group 8"
       transform="translate(392.652,179.531)">
      <path
         id="Path_8"
         data-name="Path 8"
         d="m 415.858,179.531 h -2.551 l -10.145,10.146 h 2.55 z"
         transform="translate(-393.058,-179.531)"
         fill="#c11f4e" />
      <path
         id="Path_9"
         data-name="Path 9"
         d="m 410.592,179.531 h -2.551 L 397.9,189.677 h 2.55 z"
         transform="translate(-392.855,-179.531)"
         fill="#c11f4e" />
      <path
         id="Path_10"
         data-name="Path 10"
         d="m 421.123,179.531 h -2.551 l -10.145,10.146 h 2.55 z"
         transform="translate(-393.261,-179.531)"
         fill="#c11f4e" />
      <path
         id="Path_11"
         data-name="Path 11"
         d="m 392.652,182.081 2.55,-2.55 h -2.55 z"
         transform="translate(-392.652,-179.531)"
         fill="#c11f4e" />
      <path
         id="Path_12"
         data-name="Path 12"
         d="m 400.265,179.531 h -2.551 l -5.062,5.062 v 2.55 z"
         transform="translate(-392.652,-179.531)"
         fill="#c11f4e" />
      <path
         id="Path_13"
         data-name="Path 13"
         d="m 402.776,179.531 -10.124,10.125 v 0.021 h 2.529 l 10.145,-10.146 z"
         transform="translate(-392.652,-179.531)"
         fill="#c11f4e" />
      <path
         id="Path_14"
         data-name="Path 14"
         d="m 426.389,179.531 h -2.551 l -10.145,10.146 h 2.55 z"
         transform="translate(-393.464,-179.531)"
         fill="#c11f4e" />
      <path
         id="Path_15"
         data-name="Path 15"
         d="m 452.9,184.716 v -2.55 l -7.612,7.612 h 2.55 z"
         transform="translate(-394.683,-179.633)"
         fill="#c11f4e" />
      <path
         id="Path_16"
         data-name="Path 16"
         d="m 452.7,179.552 v -0.021 h -2.53 l -10.145,10.146 h 2.55 z"
         transform="translate(-394.48,-179.531)"
         fill="#c11f4e" />
      <path
         id="Path_17"
         data-name="Path 17"
         d="M 447.451,179.531 H 444.9 l -10.145,10.146 h 2.55 z"
         transform="translate(-394.277,-179.531)"
         fill="#c11f4e" />
      <path
         id="Path_18"
         data-name="Path 18"
         d="m 450.553,189.982 h 2.55 v -2.55 z"
         transform="translate(-394.887,-179.836)"
         fill="#c11f4e" />
      <path
         id="Path_19"
         data-name="Path 19"
         d="m 442.186,179.531 h -2.551 l -10.145,10.146 h 2.55 z"
         transform="translate(-394.074,-179.531)"
         fill="#c11f4e" />
      <path
         id="Path_20"
         data-name="Path 20"
         d="m 436.92,179.531 h -2.551 l -10.145,10.146 h 2.55 z"
         transform="translate(-393.871,-179.531)"
         fill="#c11f4e" />
      <path
         id="Path_21"
         data-name="Path 21"
         d="M 431.655,179.531 H 429.1 l -10.145,10.146 h 2.55 z"
         transform="translate(-393.667,-179.531)"
         fill="#c11f4e" />
    </g>
  </g>
</svg>
