<svg xmlns="http://www.w3.org/2000/svg" width="45.88" height="45.88" viewBox="0 0 45.88 45.88"><path d="M34.728,36.273a16.317,16.317,0,0,1-9.7,4.017v5.5a1.092,1.092,0,0,1-2.185,0v-5.5a16.317,16.317,0,0,1-9.7-4.017L9.264,40.161a1.092,1.092,0,1,1-1.545-1.545l3.888-3.888a16.317,16.317,0,0,1-4.017-9.7h-5.5a1.092,1.092,0,0,1,0-2.185h5.5a16.317,16.317,0,0,1,4.017-9.7L7.719,9.264A1.092,1.092,0,0,1,9.264,7.719l3.888,3.888a16.317,16.317,0,0,1,9.7-4.017v-5.5a1.092,1.092,0,0,1,2.185,0v5.5a16.317,16.317,0,0,1,9.7,4.017l3.888-3.888a1.092,1.092,0,1,1,1.545,1.545l-3.888,3.888a16.317,16.317,0,0,1,4.017,9.7h5.5a1.092,1.092,0,0,1,0,2.185h-5.5a16.317,16.317,0,0,1-4.017,9.7l3.888,3.888a1.093,1.093,0,1,1-1.545,1.545l-3.888-3.888ZM33.18,34.724,26.952,28.5a5.431,5.431,0,0,1-1.919.8V38.1a14.14,14.14,0,0,0,8.147-3.375Zm1.545-1.545A14.14,14.14,0,0,0,38.1,25.032H29.292a5.431,5.431,0,0,1-.8,1.919l6.228,6.228ZM14.7,13.156l6.228,6.228a5.431,5.431,0,0,1,1.919-.8V9.78A14.14,14.14,0,0,0,14.7,13.156ZM13.156,14.7A14.14,14.14,0,0,0,9.78,22.848h8.807a5.431,5.431,0,0,1,.8-1.919L13.156,14.7ZM33.18,13.156A14.139,14.139,0,0,0,25.032,9.78v8.807a5.431,5.431,0,0,1,1.919.8l6.228-6.228ZM34.724,14.7,28.5,20.928a5.431,5.431,0,0,1,.8,1.919H38.1A14.14,14.14,0,0,0,34.724,14.7ZM14.7,34.724A14.14,14.14,0,0,0,22.848,38.1V29.292a5.431,5.431,0,0,1-1.919-.8L14.7,34.724ZM13.156,33.18l6.228-6.228a5.431,5.431,0,0,1-.8-1.919H9.78a14.139,14.139,0,0,0,3.375,8.147Zm14.062-9.24a3.277,3.277,0,1,0-3.277,3.277A3.279,3.279,0,0,0,27.217,23.94Z" transform="translate(-1 -1)" fill="#cb4763"/></svg>