<?xml version="1.0" encoding="utf-8"?>
<!-- Generator: Adobe Illustrator 25.4.1, SVG Export Plug-In . SVG Version: 6.00 Build 0)  -->
<svg version="1.1" id="Layer_1" xmlns="http://www.w3.org/2000/svg" xmlns:xlink="http://www.w3.org/1999/xlink" x="0px" y="0px"
	 viewBox="0 0 567 437" style="enable-background:new 0 0 567 437;" xml:space="preserve">
<style type="text/css">
	.st0{opacity:0.1;}
	.st1{fill:#515251;}
	.st2{fill:#BF1F4D;}
</style>
<g class="st0">
	<g>
		<path class="st1" d="M228.1,248.5v3.3h4.8v1.2h-4.8v3.8h-1.4v-9.5h6.7v1.2H228.1z"/>
		<path class="st1" d="M248.4,255.6v1.2h-6.9v-9.5h6.7v1.2h-5.3v2.9h4.8v1.2h-4.8v3.1H248.4z"/>
		<path class="st1" d="M263.6,255.6v1.2h-6.9v-9.5h6.7v1.2H258v2.9h4.8v1.2H258v3.1H263.6z"/>
		<path class="st1" d="M271.9,247.3h1.4v8.3h5.1v1.2h-6.5V247.3z"/>
		<path class="st1" d="M297.6,248.5h-3.3v-1.2h7.9v1.2H299v8.3h-1.3V248.5z"/>
		<path class="st1" d="M318,247.3v9.5h-1.4v-4.2h-5.5v4.2h-1.4v-9.5h1.4v4.1h5.5v-4.1H318z"/>
		<path class="st1" d="M333.8,255.6v1.2h-6.9v-9.5h6.7v1.2h-5.3v2.9h4.8v1.2h-4.8v3.1H333.8z"/>
		<path class="st1" d="M353.5,256.3c-0.8-0.4-1.4-1-1.8-1.7c-0.4-0.7-0.7-1.6-0.7-2.5c0-0.9,0.2-1.7,0.7-2.5c0.4-0.7,1-1.3,1.8-1.7
			c0.8-0.4,1.6-0.6,2.6-0.6c0.7,0,1.4,0.1,2,0.4c0.6,0.2,1.1,0.6,1.6,1.1l-0.9,0.9c-0.7-0.7-1.6-1.1-2.7-1.1c-0.7,0-1.3,0.2-1.9,0.5
			c-0.6,0.3-1,0.8-1.3,1.3c-0.3,0.6-0.5,1.2-0.5,1.9c0,0.7,0.2,1.3,0.5,1.9c0.3,0.6,0.8,1,1.3,1.3c0.6,0.3,1.2,0.5,1.9,0.5
			c1.1,0,1.9-0.4,2.7-1.1l0.9,0.9c-0.4,0.5-1,0.9-1.6,1.1c-0.6,0.3-1.3,0.4-2,0.4C355.1,256.9,354.3,256.7,353.5,256.3z"/>
		<path class="st1" d="M375.9,247.3v9.5h-1.4v-4.2h-5.4v4.2h-1.4v-9.5h1.4v4.1h5.4v-4.1H375.9z"/>
		<path class="st1" d="M390.9,254.4h-5l-1,2.4h-1.4l4.3-9.5h1.3l4.3,9.5H392L390.9,254.4z M390.4,253.3l-2-4.6l-2,4.6H390.4z"/>
		<path class="st1" d="M409.1,247.3v9.5h-1.1l-5.7-7.1v7.1h-1.4v-9.5h1.1l5.7,7.1v-7.1H409.1z"/>
		<path class="st1" d="M424.6,252h1.3v3.7c-0.5,0.4-1,0.7-1.6,0.9c-0.6,0.2-1.3,0.3-2,0.3c-1,0-1.8-0.2-2.6-0.6
			c-0.8-0.4-1.4-1-1.8-1.7c-0.4-0.7-0.7-1.6-0.7-2.5c0-0.9,0.2-1.8,0.7-2.5c0.4-0.7,1-1.3,1.8-1.7c0.8-0.4,1.6-0.6,2.6-0.6
			c0.8,0,1.4,0.1,2.1,0.4c0.6,0.2,1.1,0.6,1.6,1.1l-0.8,0.8c-0.8-0.7-1.7-1.1-2.8-1.1c-0.7,0-1.4,0.2-1.9,0.5
			c-0.6,0.3-1,0.7-1.3,1.3c-0.3,0.6-0.5,1.2-0.5,1.9c0,0.7,0.2,1.3,0.5,1.9c0.3,0.6,0.8,1,1.3,1.3c0.6,0.3,1.2,0.5,1.9,0.5
			c0.8,0,1.6-0.2,2.2-0.6V252z"/>
		<path class="st1" d="M441.5,255.6v1.2h-6.9v-9.5h6.7v1.2h-5.3v2.9h4.8v1.2h-4.8v3.1H441.5z"/>
	</g>
	<polygon class="st2" points="207.7,189.6 134.1,189.6 134.1,255.7 124.7,255.7 124.7,180.1 207.7,180.1 	"/>
	<polygon class="st2" points="207.7,199.8 207.7,208.6 153.1,208.6 153.1,255.7 144.2,255.7 144.2,199.8 	"/>
	<rect x="163.2" y="218.7" class="st2" width="44.5" height="9"/>
	<rect x="163.2" y="238.4" class="st2" width="44.5" height="17.3"/>
	<g>
		<path class="st2" d="M236,192.6v8.9c0,1.1,0.9,2,2,2h17.4c1.1,0,2,0.9,2,2v5.1c0,1.1-0.9,2-2,2H238c-1.1,0-2,0.9-2,2v13.7
			c0,1.1-0.9,2-2,2h-6.8c-1.1,0-2-0.9-2-2v-44.5c0-1.1,0.9-2,2-2h30.9c1.1,0,2,0.9,2,2v5.1c0,1.1-0.9,2-2,2H238
			C236.9,190.6,236,191.5,236,192.6z"/>
		<path class="st2" d="M303.2,223v5.1c0,1.1-0.9,2-2,2h-31.8c-1.1,0-2-0.9-2-2v-44.5c0-1.1,0.9-2,2-2h30.9c1.1,0,2,0.9,2,2v5.1
			c0,1.1-0.9,2-2,2H280c-1.1,0-2,0.9-2,2v6.6c0,1.1,0.9,2,2,2h17.5c1.1,0,2,0.9,2,2v4.8c0,1.1-0.9,2-2,2H280c-1.1,0-2,0.9-2,2v7.3
			c0,1.1,0.9,2,2,2h21.2C302.3,221,303.2,221.9,303.2,223z"/>
		<path class="st2" d="M319.2,190.7h-10.8c-1.1,0-2-0.9-2-2v-5.2c0-1.1,0.9-2,2-2h36.3c1.1,0,2,0.9,2,2v5.2c0,1.1-0.9,2-2,2h-10.8
			c-1.1,0-2,0.9-2,2v35.4c0,1.1-0.9,2-2,2h-6.8c-1.1,0-2-0.9-2-2v-35.4C321.2,191.6,320.3,190.7,319.2,190.7z"/>
		<path class="st2" d="M361,227.6c-3.8-2.1-6.8-5.1-9-8.9c-2.2-3.8-3.3-8.1-3.3-12.9c0-4.8,1.1-9.1,3.3-12.9c2.2-3.8,5.2-6.8,9-8.9
			c3.8-2.1,8.1-3.2,12.8-3.2c4,0,7.6,0.7,10.8,2.2c2.6,1.2,4.9,2.8,6.8,4.9c0.8,0.8,0.8,2,0,2.8l-4.1,4c-0.8,0.7-2,0.7-2.7,0
			c-2.9-2.8-6.3-4.3-10.3-4.3c-2.9,0-5.4,0.7-7.6,2c-2.2,1.3-4,3.1-5.2,5.5c-1.3,2.4-1.9,5-1.9,8c0,3,0.6,5.7,1.9,8
			c1.3,2.4,3,4.2,5.2,5.5c2.2,1.3,4.8,2,7.6,2c4,0,7.4-1.4,10.3-4.3c0.7-0.7,2-0.8,2.7,0l4.1,4c0.8,0.8,0.8,2,0,2.8
			c-1.9,2.1-4.2,3.7-6.9,4.9c-3.3,1.5-6.9,2.2-10.9,2.2C369.1,230.9,364.8,229.8,361,227.6z"/>
		<path class="st2" d="M442.3,183.6v44.5c0,1.1-0.9,2-2,2h-6.8c-1.1,0-2-0.9-2-2v-15.9c0-1.1-0.9-2-2-2h-17c-1.1,0-2,0.9-2,2v15.9
			c0,1.1-0.9,2-2,2h-6.8c-1.1,0-2-0.9-2-2v-44.5c0-1.1,0.9-2,2-2h6.8c1.1,0,2,0.9,2,2v15.2c0,1.1,0.9,2,2,2h17c1.1,0,2-0.9,2-2
			v-15.2c0-1.1,0.9-2,2-2h6.8C441.4,181.6,442.3,182.5,442.3,183.6z"/>
	</g>
</g>
</svg>
