<?xml version="1.0" encoding="utf-8"?>
<!-- Generator: Adobe Illustrator 25.4.0, SVG Export Plug-In . SVG Version: 6.00 Build 0)  -->
<svg version="1.1" id="Layer_1" xmlns="http://www.w3.org/2000/svg" xmlns:xlink="http://www.w3.org/1999/xlink" x="0px" y="0px"
	 viewBox="0 0 113.1 95.6" style="enable-background:new 0 0 113.1 95.6;" xml:space="preserve">
<style type="text/css">
	
		.st0{clip-path:url(#SVGID_00000155122750526842346890000011309711820398493312_);fill:url(#SVGID_00000041994569641102791040000014642830112323070864_);}
	
		.st1{clip-path:url(#SVGID_00000033329550113091576570000009199322733853962892_);fill:url(#SVGID_00000157309506751013904880000016304719559619050896_);}
	.st2{fill:#F3E383;}
	.st3{fill:#CB1F33;}
	.st4{fill:none;stroke:#0E0000;stroke-width:2.800000e-02;stroke-miterlimit:10;}
</style>
<g>
	<g>
		<defs>
			<path id="SVGID_1_" d="M18.5,54.7c0.1,0,0.2,0,0.3-0.1c0.3-0.1,0.7-0.4,0.9-0.6c2.8-6.2,7.1-10.6,12.9-12.2
				c1.4-0.4,3-0.7,4.8-0.7c-1.1,4.2-3.5,11.5-8.3,20.4c-1.4,2.2-2.8,4.1-4.2,5.4c-0.9,0.7-1.7,1.3-2.6,1.8c-4,1.9-8.3,0.5-11.7-4.5
				c-1.2-2-2-4.2-2.2-6.1C7.6,51.5,9.9,44,13.6,43.1c1.2-0.2,3,0.1,4.4,2c1.4,2.8,0.6,6.2-0.6,8.7C17.5,54.4,18,54.7,18.5,54.7
				C18.4,54.7,18.5,54.7,18.5,54.7 M82.4,59.6c-0.5-1-0.9-2.2-1.1-3.7c-0.2-1.5-0.3-3-0.3-4.4c0-1.2,0-2.2,0.1-3.2
				c0.1-1,0.1-1.7,0.2-2.2c0-0.4,0.2-1.2,0.4-2.3c0.2-1.1,0.6-2.2,1-3.4c0.4-1.2,0.9-2.3,1.5-3.1c0.6-0.9,1.2-1.3,2-1.3
				c0.8,0,1.4,0.3,1.8,0.9c0.4,0.6,0.8,1.2,1,1.9c-0.4,0.2-0.8,0.7-1,1.3c-0.2,0.7-0.3,1.4-0.3,2.3c0,1.3,0.2,2.6,0.6,3.9
				c0.4,1.4,0.9,2.3,1.5,2.8c0,1.1-0.1,2-0.2,2.8c-0.1,0.8-0.2,1.5-0.3,2.1c-0.2,0.8-0.5,1.7-0.9,2.9c-0.4,1.1-1,2.1-1.6,3
				c-0.6,0.9-1.4,1.3-2.3,1.3C83.6,61.1,82.9,60.6,82.4,59.6 M66.9,42.7c0-0.4,0-0.7,0-1c0-0.6,0.1-1.6,0.2-3
				c0.1-1.4,0.3-2.9,0.5-4.7c0.2-1.8,0.4-3.6,0.7-5.5c0.3-1.8,0.6-3.6,0.9-5.2c0.3-1.6,0.7-2.9,1.1-3.9c0.4-1,0.9-1.5,1.3-1.5
				c0.5,0,0.9,0.4,1.1,1.2c0.2,0.8,0.3,1.9,0.3,3.1c0,2-0.3,4.3-0.9,6.8c-0.6,2.5-1.4,5.1-2.3,7.6c-1,2.6-2,5-3.1,7.3
				C66.9,43.6,66.9,43.1,66.9,42.7 M41.2,38.5c2.8-12.6,4.8-27.2,4.8-27.2c2,19,0.9,8.6,2.2,27.3c-0.3,0-0.6,0-0.9,0
				C45.3,38.6,42.9,38.6,41.2,38.5 M46.1,1.4c0,0-4.2-0.2-3.9,7.6c0.2,6.7-3.2,24.8-4,29.5c-5.8,0-13.3,3.8-17.7,9.8
				c0.1-1.3-0.1-2.5-0.4-3.4c-1.1-3.8-4.9-5.8-9.1-4.6C2.3,42.5,0,53,2.3,60.7c2.7,9,11.1,12.9,18.4,10.9c1.4-0.4,2.6-1,3.7-1.7
				c2-1.2,4.3-3.1,6.4-6.2c3.3-4.9,6.7-10.6,9.8-22.8c2.3,0,5.5,0.1,7.9,0c0.6,5.7,1.2,10.9,1.8,14.2c1.8,10,9.7,15.4,21,16.5
				c1.5,0.2,3,0.3,4.7,0.2l0,0.2l0-0.2h0c1.3,0,2.5-0.1,3.7-0.3c0.3,0,2.9-0.4,4.3-0.9c8.2-2.7,11.4-7.3,12.8-13.4
				c0,0,0.8,3.8,2.6,5.4c1.3,1.2,2.4,1.6,4,1.6c1.6,0,3.1-0.7,4.3-2c1.2-1.3,2.1-2.9,2.8-4.7c0.7-1.8,1-3.4,1.2-4.9v-0.3
				c0-0.7-0.1-1-0.4-1c-0.2,0-0.4,0.2-0.7,0.7c-0.4,1.2-0.8,2.4-1.1,3.4c-0.4,1.1-0.8,2-1.2,2.8c-0.6,1.2-1.2,2-1.7,2.5
				c-0.5,0.4-1,0.7-1.4,0.7h-0.1c-0.9,0-1.5-0.6-2-1.8c-0.4-1.2-0.7-2.7-0.8-4.4c-0.1-1.7-0.2-3.3-0.2-4.7v-1.9
				c0.1-2.7,0.2-5.7,0.3-8.9c0.2-3.2,0.4-6.3,0.7-9.4h6.6c0.3,0,0.6-0.1,0.7-0.4c0.2-0.3,0.3-0.6,0.3-0.8c0-0.6-0.3-0.9-0.7-0.9
				h-6.6c0.3-3.1,0.6-5.9,0.9-8.4c0.4-2.5,0.7-4.1,1-5.1c-0.4-0.1-0.8-0.2-1.2-0.2c-0.4-0.1-0.8-0.1-1.1-0.1c-1.2,0-2.2,0.2-2.9,0.7
				c-0.7,0.5-1.2,1-1.5,1.6c-0.4,0.9-0.7,2.4-1,4.5c-0.3,2.1-0.5,4.4-0.7,7h-2.4c-0.3,0-0.5,0.2-0.7,0.5c-0.2,0.3-0.3,0.6-0.3,0.9
				c0,0.6,0.2,0.8,0.7,0.8h2.6c-0.2,2.5-0.4,5-0.5,7.5c-0.1,2.5-0.2,4.6-0.2,6.4l-0.2,2.8c-0.1,1.8-2.1,2.3-3.6,1.5
				c0-0.5,0.1-1,0.1-1.6c0-0.5,0-1,0-1.6c0-1.9-0.2-3.6-0.5-5.3c-0.3-1.7-1-3-1.9-4.1c-0.9-1.1-2.2-1.6-3.8-1.6
				c-2.3,0-4.2,0.6-5.7,1.9c-1.4,1.2-2.5,2.8-3.3,4.6c-0.7,1.8-1.2,3.7-1.4,5.5c0,0.7-0.1,1.5-0.2,2.4c-0.1,0.9-0.1,1.9-0.1,3
				c0,1.1,0.1,2.1,0.2,3.2c-0.1,0.1-0.2,0.3-0.3,0.5c-0.2,0.5-0.3,1-0.5,1.5c-0.2,0.5-0.3,0.9-0.5,1.3C74,59.3,73.6,60,73,60.8
				c-0.6,0.8-1.4,1.2-2.3,1.2c-0.8,0-1.5-0.4-2-1.2c-0.5-0.8-0.9-1.8-1.2-3.1c-0.3-1.3-0.5-2.7-0.6-4.2c-0.1-1.5-0.2-3-0.2-4.5V48
				c0-0.4,0-0.7,0.1-1.1c0.9-1.5,1.7-3.2,2.6-5c0.9-1.8,1.7-3.7,2.3-5.5c1.3-3.5,2.2-6.7,2.7-9.5c0.5-2.8,0.7-5,0.7-6.5
				c0-3.9-1.3-5.8-3.8-5.8c-1.3,0-2.3,0.5-3.2,1.5c-0.9,1-1.6,2.2-2.2,3.6c-0.6,1.4-1,2.6-1.2,3.7c-0.5,2.1-0.9,4.5-1.2,7.3
				c-0.3,2.7-0.6,5.5-0.7,8.4c-0.2,2.9-0.2,5.6-0.2,8.3c0,1.5,0,2.9,0.1,4.2c0,1.3,0.1,2.6,0.2,3.7c0.1,1.2,0.3,2.5,0.8,3.9
				c0.4,1.4,1.1,2.6,2,3.6c0.9,1,2.1,1.5,3.7,1.5c1.8,0,3.2-0.6,4.2-1.7c1-1.1,1.8-2.5,2.3-4.1c0.1-0.2,0.2-0.4,0.2-0.7
				c0.2,0.9,0.5,1.8,0.8,2.7c0.5,1.3,1.2,2.3,2.1,3.1c0.9,0.8,2.1,1.2,3.6,1.2c1.5,0,2.8-0.5,4-1.6c1.1-1.1,2.1-2.4,2.9-3.9
				c0.8-1.5,1.3-3,1.7-4.3c0.1-0.5,0.3-1.1,0.4-1.9c0.1-0.7,0.3-1.9,0.4-2.7c2.2,0.1,3.4-1,3.9-1.8c0,0-0.2,2.7,0.5,7.1
				c0,0-3.2,14.3-21.2,13c-14.7-1-20.4-5.4-20-26.2c0-0.8,0-1,0-1.7l4.4-0.2l0-1.9h-4.4c-0.1-23.2-1.1-37.3-8.7-37.3
				C46.2,1.4,46.1,1.4,46.1,1.4"/>
		</defs>
		<clipPath id="SVGID_00000075140632989316560320000016439008519670095272_">
			<use xlink:href="#SVGID_1_"  style="overflow:visible;"/>
		</clipPath>
		
			<linearGradient id="SVGID_00000071517537738550512020000012691417110115427229_" gradientUnits="userSpaceOnUse" x1="-367.5159" y1="340.8263" x2="-366.0617" y2="340.8263" gradientTransform="matrix(-1.9722 -61.5333 -61.5333 1.9722 20304.5254 -23206.6543)">
			<stop  offset="0" style="stop-color:#F4E382"/>
			<stop  offset="0.1709" style="stop-color:#ECDA7A"/>
			<stop  offset="0.4162" style="stop-color:#DCC466"/>
			<stop  offset="0.7062" style="stop-color:#C5A547"/>
			<stop  offset="1" style="stop-color:#AC822A"/>
		</linearGradient>
		
			<polygon style="clip-path:url(#SVGID_00000075140632989316560320000016439008519670095272_);fill:url(#SVGID_00000071517537738550512020000012691417110115427229_);" points="
			0.1,77.2 -2.4,1.3 111.6,-2.4 114,73.5 		"/>
	</g>
	<g>
		<defs>
			<path id="SVGID_00000140012965509964678280000008254765020013538473_" d="M18.5,54.7c0.1,0,0.2,0,0.3-0.1
				c0.3-0.1,0.7-0.4,0.9-0.6c2.8-6.2,7.1-10.6,12.9-12.2c1.4-0.4,3-0.7,4.8-0.7c-1.1,4.2-3.5,11.5-8.3,20.4
				c-1.4,2.2-2.8,4.1-4.2,5.4c-0.9,0.7-1.7,1.3-2.6,1.8c-4,1.9-8.3,0.5-11.7-4.5c-1.2-2-2-4.2-2.2-6.1C7.6,51.5,9.9,44,13.6,43.1
				c1.2-0.2,3,0.1,4.4,2c1.4,2.8,0.6,6.2-0.6,8.7C17.5,54.4,18,54.7,18.5,54.7C18.4,54.7,18.5,54.7,18.5,54.7 M82.4,59.6
				c-0.5-1-0.9-2.2-1.1-3.7c-0.2-1.5-0.3-3-0.3-4.4c0-1.2,0-2.2,0.1-3.2c0.1-1,0.1-1.7,0.2-2.2c0-0.4,0.2-1.2,0.4-2.3
				c0.2-1.1,0.6-2.2,1-3.4c0.4-1.2,0.9-2.3,1.5-3.1c0.6-0.9,1.2-1.3,2-1.3c0.8,0,1.4,0.3,1.8,0.9c0.4,0.6,0.8,1.2,1,1.9
				c-0.4,0.2-0.8,0.7-1,1.3c-0.2,0.7-0.3,1.4-0.3,2.3c0,1.3,0.2,2.6,0.6,3.9c0.4,1.4,0.9,2.3,1.5,2.8c0,1.1-0.1,2-0.2,2.8
				c-0.1,0.8-0.2,1.5-0.3,2.1c-0.2,0.8-0.5,1.7-0.9,2.9c-0.4,1.1-1,2.1-1.6,3c-0.6,0.9-1.4,1.3-2.3,1.3
				C83.6,61.1,82.9,60.6,82.4,59.6 M66.9,42.7c0-0.4,0-0.7,0-1c0-0.6,0.1-1.6,0.2-3c0.1-1.4,0.3-2.9,0.5-4.7
				c0.2-1.8,0.4-3.6,0.7-5.5c0.3-1.8,0.6-3.6,0.9-5.2c0.3-1.6,0.7-2.9,1.1-3.9c0.4-1,0.9-1.5,1.3-1.5c0.5,0,0.9,0.4,1.1,1.2
				c0.2,0.8,0.3,1.9,0.3,3.1c0,2-0.3,4.3-0.9,6.8c-0.6,2.5-1.4,5.1-2.3,7.6c-1,2.6-2,5-3.1,7.3C66.9,43.6,66.9,43.1,66.9,42.7
				 M41.2,38.5c2.8-12.6,4.8-27.2,4.8-27.2c2,19,0.9,8.6,2.2,27.3c-0.3,0-0.6,0-0.9,0C45.3,38.6,42.9,38.6,41.2,38.5 M46.1,1.4
				c0,0-4.2-0.2-3.9,7.6c0.2,6.7-3.2,24.8-4,29.5c-5.8,0-13.3,3.8-17.7,9.8c0.1-1.3-0.1-2.5-0.4-3.4c-1.1-3.8-4.9-5.8-9.1-4.6
				C2.3,42.5,0,53,2.3,60.7c2.7,9,11.1,12.9,18.4,10.9c1.4-0.4,2.6-1,3.7-1.7c2-1.2,4.3-3.1,6.4-6.2c3.3-4.9,6.7-10.6,9.8-22.8
				c2.3,0,5.5,0.1,7.9,0c0.6,5.7,1.2,10.9,1.8,14.2c1.8,10,9.7,15.4,21,16.5c1.5,0.2,3,0.3,4.7,0.2l0,0.2l0-0.2h0
				c1.3,0,2.5-0.1,3.7-0.3c0.3,0,2.9-0.4,4.3-0.9c8.2-2.7,11.4-7.3,12.8-13.4c0,0,0.8,3.8,2.6,5.4c1.3,1.2,2.4,1.6,4,1.6
				c1.6,0,3.1-0.7,4.3-2c1.2-1.3,2.1-2.9,2.8-4.7c0.7-1.8,1-3.4,1.2-4.9v-0.3c0-0.7-0.1-1-0.4-1c-0.2,0-0.4,0.2-0.7,0.7
				c-0.4,1.2-0.8,2.4-1.1,3.4c-0.4,1.1-0.8,2-1.2,2.8c-0.6,1.2-1.2,2-1.7,2.5c-0.5,0.4-1,0.7-1.4,0.7h-0.1c-0.9,0-1.5-0.6-2-1.8
				c-0.4-1.2-0.7-2.7-0.8-4.4c-0.1-1.7-0.2-3.3-0.2-4.7v-1.9c0.1-2.7,0.2-5.7,0.3-8.9c0.2-3.2,0.4-6.3,0.7-9.4h6.6
				c0.3,0,0.6-0.1,0.7-0.4c0.2-0.3,0.3-0.6,0.3-0.8c0-0.6-0.3-0.9-0.7-0.9h-6.6c0.3-3.1,0.6-5.9,0.9-8.4c0.4-2.5,0.7-4.1,1-5.1
				c-0.4-0.1-0.8-0.2-1.2-0.2c-0.4-0.1-0.8-0.1-1.1-0.1c-1.2,0-2.2,0.2-2.9,0.7c-0.7,0.5-1.2,1-1.5,1.6c-0.4,0.9-0.7,2.4-1,4.5
				c-0.3,2.1-0.5,4.4-0.7,7h-2.4c-0.3,0-0.5,0.2-0.7,0.5c-0.2,0.3-0.3,0.6-0.3,0.9c0,0.6,0.2,0.8,0.7,0.8h2.6
				c-0.2,2.5-0.4,5-0.5,7.5c-0.1,2.5-0.2,4.6-0.2,6.4l-0.2,2.8c-0.1,1.8-2.1,2.3-3.6,1.5c0-0.5,0.1-1,0.1-1.6c0-0.5,0-1,0-1.6
				c0-1.9-0.2-3.6-0.5-5.3c-0.3-1.7-1-3-1.9-4.1c-0.9-1.1-2.2-1.6-3.8-1.6c-2.3,0-4.2,0.6-5.7,1.9c-1.4,1.2-2.5,2.8-3.3,4.6
				c-0.7,1.8-1.2,3.7-1.4,5.5c0,0.7-0.1,1.5-0.2,2.4c-0.1,0.9-0.1,1.9-0.1,3c0,1.1,0.1,2.1,0.2,3.2c-0.1,0.1-0.2,0.3-0.3,0.5
				c-0.2,0.5-0.3,1-0.5,1.5c-0.2,0.5-0.3,0.9-0.5,1.3C74,59.3,73.6,60,73,60.8c-0.6,0.8-1.4,1.2-2.3,1.2c-0.8,0-1.5-0.4-2-1.2
				c-0.5-0.8-0.9-1.8-1.2-3.1c-0.3-1.3-0.5-2.7-0.6-4.2c-0.1-1.5-0.2-3-0.2-4.5V48c0-0.4,0-0.7,0.1-1.1c0.9-1.5,1.7-3.2,2.6-5
				c0.9-1.8,1.7-3.7,2.3-5.5c1.3-3.5,2.2-6.7,2.7-9.5c0.5-2.8,0.7-5,0.7-6.5c0-3.9-1.3-5.8-3.8-5.8c-1.3,0-2.3,0.5-3.2,1.5
				c-0.9,1-1.6,2.2-2.2,3.6c-0.6,1.4-1,2.6-1.2,3.7c-0.5,2.1-0.9,4.5-1.2,7.3c-0.3,2.7-0.6,5.5-0.7,8.4c-0.2,2.9-0.2,5.6-0.2,8.3
				c0,1.5,0,2.9,0.1,4.2c0,1.3,0.1,2.6,0.2,3.7c0.1,1.2,0.3,2.5,0.8,3.9c0.4,1.4,1.1,2.6,2,3.6c0.9,1,2.1,1.5,3.7,1.5
				c1.8,0,3.2-0.6,4.2-1.7c1-1.1,1.8-2.5,2.3-4.1c0.1-0.2,0.2-0.4,0.2-0.7c0.2,0.9,0.5,1.8,0.8,2.7c0.5,1.3,1.2,2.3,2.1,3.1
				c0.9,0.8,2.1,1.2,3.6,1.2c1.5,0,2.8-0.5,4-1.6c1.1-1.1,2.1-2.4,2.9-3.9c0.8-1.5,1.3-3,1.7-4.3c0.1-0.5,0.3-1.1,0.4-1.9
				c0.1-0.7,0.3-1.9,0.4-2.7c2.2,0.1,3.4-1,3.9-1.8c0,0-0.2,2.7,0.5,7.1c0,0-3.2,14.3-21.2,13c-14.7-1-20.4-5.4-20-26.2
				c0-0.8,0-1,0-1.7l4.4-0.2l0-1.9h-4.4c-0.1-23.2-1.1-37.3-8.7-37.3C46.2,1.4,46.1,1.4,46.1,1.4"/>
		</defs>
		<clipPath id="SVGID_00000037650439292634082270000008478066041709333636_">
			<use xlink:href="#SVGID_00000140012965509964678280000008254765020013538473_"  style="overflow:visible;"/>
		</clipPath>
		
			<linearGradient id="SVGID_00000133495661838633046720000017793070960155807902_" gradientUnits="userSpaceOnUse" x1="-367.325" y1="341.1263" x2="-365.8708" y2="341.1263" gradientTransform="matrix(-2.0893 -65.1871 -65.1871 2.0893 21526.8496 -24574.5312)">
			<stop  offset="0" style="stop-color:#F4E382"/>
			<stop  offset="0.1709" style="stop-color:#ECDA7A"/>
			<stop  offset="0.4162" style="stop-color:#DCC466"/>
			<stop  offset="0.7062" style="stop-color:#C5A547"/>
			<stop  offset="1" style="stop-color:#AC822A"/>
		</linearGradient>
		
			<polygon style="clip-path:url(#SVGID_00000037650439292634082270000008478066041709333636_);fill:url(#SVGID_00000133495661838633046720000017793070960155807902_);" points="
			0.1,77.2 -2.4,1.3 111.6,-2.4 114,73.5 		"/>
	</g>
	<g>
		<path class="st2" d="M8.2,85.2V86l-1.7,0.1v-0.7c0-0.9-0.3-1.3-1-1.3s-1,0.4-1,1.2v6.2c0,0.7,0.3,1.2,1,1.2c0.7,0,1-0.4,1-1.3v-2
			h-1v-1.6h2.7v3.7c0,1.7-1,2.7-2.7,2.7c-1.7,0-2.7-1-2.7-2.7v-6.3c0-1.7,1-2.7,2.7-2.7C7.2,82.5,8.2,83.5,8.2,85.2"/>
		<polygon class="st2" points="21.6,84.2 21.6,87.5 24.1,87.5 24.1,89.1 21.6,89.1 21.6,94 19.9,94 19.9,82.6 24.7,82.6 24.7,84.2 
					"/>
		<polygon class="st2" points="31.9,84.3 31.9,94 30.2,94 30.2,84.3 28.4,84.3 28.4,82.6 33.8,82.6 33.8,84.3 		"/>
		<polygon class="st2" points="48,94 48,89.1 46,89.1 46,94 44.2,94 44.2,82.6 46,82.6 46,87.4 48,87.4 48,82.6 49.7,82.6 49.7,94 
					"/>
		<path class="st2" d="M58.6,94l-0.4-2.6h-1.9L56,94h-1.7l2-11.4h2.2l2,11.4H58.6z M56.6,89.9H58l-0.7-4.8h0L56.6,89.9z"/>
		<polygon class="st2" points="70.4,94 70.4,86.1 70.4,86.1 69,92.4 68,92.4 66.5,86.1 66.5,86.1 66.5,94 64.9,94 64.9,82.6 
			67.1,82.6 68.5,88.8 68.5,88.8 69.8,82.6 72.2,82.6 72.2,94 		"/>
		<path class="st2" d="M79.8,82.6c1.9,0,2.9,1,2.9,2.9v0.9c0,1.9-1,2.9-2.9,2.9H79V94h-1.7V82.6H79.8z M79,87.7h0.7
			c0.8,0,1.2-0.4,1.2-1.4v-0.7c0-1-0.4-1.4-1.2-1.4H79V87.7z"/>
		<polygon class="st2" points="88.9,84.2 88.9,87.5 91.4,87.5 91.4,89.1 88.9,89.1 88.9,92.4 92,92.4 92,94 87.2,94 87.2,82.6 
			92,82.6 92,84.2 		"/>
		<path class="st2" d="M99.1,89.2h-0.8V94h-1.7V82.6h2.5c1.9,0,2.9,1,2.9,2.9v0.8c0,1.2-0.4,2.1-1.2,2.5l1.6,5.2h-1.8L99.1,89.2z
			 M98.3,87.6H99c0.8,0,1.2-0.4,1.2-1.4v-0.6c0-1-0.4-1.4-1.2-1.4h-0.7V87.6z"/>
		<path class="st2" d="M111.4,85.1v0.3l-1.7,0.2v-0.4c0-0.8-0.3-1.1-0.9-1.1c-0.5,0-0.9,0.3-0.9,0.9v0.2c0,0.6,0.3,1.2,1.4,2.2
			c1.5,1.4,2.1,2.3,2.1,3.7v0.6c0,1.7-1.1,2.6-2.6,2.6c-1.6,0-2.7-0.9-2.7-2.6v-0.7l1.7-0.2v0.8c0,0.8,0.4,1.1,1,1.1
			c0.5,0,0.9-0.3,0.9-1.1v-0.4c0-0.7-0.3-1.2-1.4-2.3c-1.5-1.4-2.1-2.3-2.1-3.6V85c0-1.7,1-2.6,2.6-2.6
			C110.5,82.5,111.4,83.4,111.4,85.1"/>
		<path class="st3" d="M13.9,83.2c-0.8-1.4-2.9,0.2,0,2C16.8,83.4,14.7,81.8,13.9,83.2"/>
		<path class="st2" d="M13.1,94.2V83.7c0,0,0-0.3,0-0.3c0,0,0.1-0.1,0.1-0.1l0,0l0.1,0l0.3,0.1l0.3,0.2l0.3-0.2l0.2,0l0.1,0l0.1,0
			c0,0,0,0,0.1,0.1c0,0,0,0.3,0,0.3v10.5H13.1z"/>
		<path class="st2" d="M13.9,83.2c-0.8-1.4-2.9,0.2,0,2C16.8,83.4,14.7,81.8,13.9,83.2"/>
		<path class="st4" d="M12.5,83.3c0,0.5,0.4,1.1,1.5,1.8c1.1-0.6,1.4-1.3,1.5-1.7"/>
	</g>
</g>
</svg>
