<?xml version="1.0" encoding="utf-8"?>
<!-- Generator: Adobe Illustrator 25.4.0, SVG Export Plug-In . SVG Version: 6.00 Build 0)  -->
<svg version="1.1" id="Layer_1" xmlns="http://www.w3.org/2000/svg" xmlns:xlink="http://www.w3.org/1999/xlink" x="0px" y="0px"
	 viewBox="0 0 1565.35 643.63" style="enable-background:new 0 0 1565.35 643.63;" xml:space="preserve">
<style type="text/css">
	.st0{fill:#FFFFFF;}
	.st1{fill:#45AF32;}
</style>
<g>
	<path class="st0" d="M657.58,241.11c27.67-27.58,61.52-38.4,99.35-37.67c29.1,0.56,55.42,9.53,77.19,29.71
		c16.29,15.1,25.73,33.89,29.99,55.48c1.94,9.82,2.41,19.76,2.41,29.74c0.03,54.97,0.02,109.95,0.28,164.92
		c0.02,5.01-1.4,5.84-6.04,5.82c-35.16-0.21-70.32-0.2-105.47-0.01c-4.26,0.02-5.09-1.15-5.08-5.22
		c0.17-53.47,0.1-106.95,0.2-160.42c0.01-5.56-1.22-10.5-4.85-14.73c-6.69-7.78-17.12-6.99-22.62,1.74
		c-4,6.34-5.77,13.32-5.77,20.79c0.01,50.97-0.04,101.95,0.09,152.92c0.01,3.76-0.75,4.94-4.78,4.92
		c-35.49-0.18-70.98-0.17-106.47-0.01c-3.89,0.02-4.88-0.93-4.87-4.85c0.15-52.14,0.07-104.28,0.14-156.42
		c0.01-5.29-1.03-10.21-3.66-14.76c-6.32-10.91-18.93-12.92-28.34-4.53c-6.02,5.37-9.11,12.07-9.09,20.21
		c0.04,16.16,0.02,32.32,0.01,48.48c-0.03,53.16-40.26,100.83-92.62,109.83c-5.74,0.99-11.46,1.79-17.3,2
		c-3.29,0.12-4.14-0.79-4.11-4.06c0.17-17.66,0.08-35.31,0.08-52.97c0-38.98-0.29-77.96,0.11-116.94
		c0.25-24.4,6.33-47.33,21.47-67.04c18.36-23.91,43.02-37.63,72.47-42.58c29.11-4.89,57.55-2.04,84.83,9.72
		C638.18,220.8,649.42,228.84,657.58,241.11z"/>
	<path class="st0" d="M31.47,452.75c0-51.14-0.39-102.29,0.12-153.43C32,258.51,31.72,217.7,31.9,176.9
		c0.22-48.14,0.33-96.28,0.35-144.41c0-4.06,0.05-5.6,5.21-4.53C95.11,39.9,140.37,85.2,151.97,143.17
		c0.58,2.91,0.62,5.96,0.62,8.95c0.03,99.96-0.02,199.92,0.09,299.88c0.01,9.11,0.35,18.27,2.29,27.27
		c3.29,15.31,10.31,21.5,26.14,21.69c23.66,0.29,47.32,0.27,70.98,0.11c4.15-0.03,5.23,1.06,5.2,5.2
		c-0.21,34.98-0.26,69.97-0.12,104.95c0.02,4.09-1.22,4.81-4.99,4.76c-38.63-0.52-77.28-0.51-115.9-1.34
		c-26.64-0.57-53.27-0.62-79.91-0.9c-6.65-0.07-13.32-0.56-19.96-0.33c-4.13,0.15-5.25-1.03-5.24-5.23
		c0.15-51.81,0.1-103.62,0.1-155.44C31.34,452.75,31.41,452.75,31.47,452.75z"/>
	<path class="st0" d="M1303.09,374.65c0,36.11-0.01,71.42,0.01,106.74c0,1.98-0.01,3.54-2.77,3.58c-15.09,0.23-30.11,2.97-45.23,1.9
		c-54.88-3.88-96.4-28.55-120.22-79.25c-11.91-25.35-14.21-52.57-12.17-80.25c1.5-20.37,6.1-39.95,15.9-57.98
		c16.28-29.95,41.07-50.23,72.99-61.38c40.02-13.98,80.83-15.6,121.16-2.15c46.87,15.63,76.66,48.82,92.21,95.26
		c7.42,22.17,10.9,45.01,10.98,68.35c0.13,40.48,0.01,80.97,0.18,121.45c0.02,4.01-1.07,5.24-5.01,4.93
		c-17.55-1.38-34.43-5.14-49.93-13.78c-32.31-18-52.21-45.03-59.14-81.51c-3.1-16.35-1.54-32.84-1.91-49.28
		c-0.21-9.53-2.02-18.73-5.31-27.63c-2.45-6.63-6.77-11.53-13.24-14.78c-17.08-8.59-33.83-8.23-50.26,1.42
		c-9.4,5.52-14.28,14.2-15.15,24.9c-0.73,8.87,0.7,17.58,4.33,25.76c8.41,18.92,24.09,26.09,44.98,20.76
		C1291.4,380.18,1296.99,377.9,1303.09,374.65z"/>
	<path class="st0" d="M898.36,487.71c-0.06-1.66-0.16-3.32-0.16-4.99c0-87.94,0.04-175.89-0.1-263.83c-0.01-4.55,1.1-5.75,5.7-5.72
		c31.49,0.22,62.98,0.19,94.46,0.02c3.98-0.02,5.05,1.04,4.93,4.97c-0.29,9.46-0.09,18.94-0.09,29.04
		c4.89-4.84,9.2-9.51,13.93-13.71c20.23-17.98,44.02-27.12,71.01-28.47c7.47-0.37,14.93-0.85,22.41-0.93
		c2.74-0.03,3.71,0.61,3.7,3.55c-0.11,30.31-0.13,60.63,0.03,90.94c0.02,3.57-1.59,3.46-4.15,3.53
		c-17.44,0.43-34.81,1.37-51.82,5.86c-26.4,6.96-42.31,25.73-45.33,52.92c-0.98,8.82-0.2,17.63-1.16,26.4
		c-0.97,3.93-2.01,7.84-2.88,11.79C997.44,450.48,950.77,487.94,898.36,487.71z"/>
	<path class="st0" d="M421.22,349.52c0,41.11,0,82.22-0.01,123.33c0,3.83-0.31,7.67-0.07,11.48c0.2,3.09-0.76,3.98-3.87,3.92
		c-10.66-0.19-21.32-0.07-31.98-0.07c-25.98,0-51.97-0.08-77.95,0.08c-3.69,0.02-4.48-0.77-4.42-4.57
		c0.64-40.77,0.81-81.54,1.58-122.3c0.31-16.11-0.29-32.27,1.59-48.34c5.72-48.8,45.65-91.24,94.06-99.94
		c6.4-1.15,12.83-1.81,19.31-2.21c3.21-0.2,3.82,0.8,3.81,3.82c-0.1,44.94-0.07,89.87-0.07,134.81
		C422.56,349.52,421.89,349.52,421.22,349.52z"/>
	<path class="st1" d="M365.44,615.93c-29.77,1.18-57.86-24.13-57.84-57.39c0.02-32.96,25.26-57.96,57.98-58.16
		c33.2-0.2,58.73,28.36,57.88,59.84C422.64,590.28,396.11,617.52,365.44,615.93z"/>
	<path class="st1" d="M898.36,487.71c52.4,0.23,99.08-37.23,110.47-88.64c0.88-3.95,1.92-7.87,2.88-11.79
		c2.97,36.4-4.83,69.49-30.48,96.78c-17.02,18.11-37.87,29.56-62.47,33.92c-5.69,1.01-11.38,1.95-17.2,2.02
		c-2.53,0.03-3.52-0.63-3.46-3.34C898.31,507.01,898.3,497.36,898.36,487.71z"/>
	<path class="st0" d="M1534.07,457.72c1.05,13.83-10.47,30.64-30.64,30.8c-18.35,0.15-31.3-13.82-31.33-31.33
		c-0.04-17.19,13.95-31.1,31.12-31.15C1521.09,426.01,1535.58,441.59,1534.07,457.72z"/>
	<path class="st0" d="M486.38,577.8c-3.05,6.95-6.14,13.88-9.11,20.87c-0.82,1.92-1.44,3.35-4.09,3.36
		c-2.76,0.01-3.18-1.72-3.98-3.51c-2.93-6.6-5.9-13.19-9.76-19.58c0,8.7-0.06,17.4,0.04,26.1c0.03,2.5-0.17,3.92-3.38,3.91
		c-3.17-0.01-3.87-1-3.83-4c0.17-13.65,0.05-27.3,0.17-40.96c0.01-1.47-1.34-4.06,1.84-4.16c2.35-0.07,4.73-0.75,6.11,2.6
		c3.66,8.9,7.78,17.61,11.73,26.38c0.25,0.55,0.65,1.03,1.35,2.13c4.37-9.7,8.5-18.83,12.57-27.99c0.76-1.71,1.23-3.18,3.68-3.27
		c3.15-0.11,4.65,0.23,4.57,4.11c-0.28,13.65-0.14,27.3-0.06,40.95c0.01,2.56,0.07,4.22-3.51,4.22c-3.6,0-3.52-1.69-3.5-4.23
		c0.08-8.96,0.03-17.92,0.03-26.89C486.95,577.84,486.66,577.82,486.38,577.8z"/>
	<path class="st0" d="M1152.3,576.05c0-4.74,0.21-9.03-0.07-13.3c-0.23-3.46,1.82-3.19,4.08-3.22c2.21-0.03,3.73,0.07,3.7,3.09
		c-0.13,14.32-0.01,28.64-0.04,42.96c-0.01,3.05-4.5,5.07-7.09,2.76c-1.38-1.23-1.57-1.42-3.17-0.58c-8.21,4.32-16.4,0.16-17.7-8.98
		c-0.7-4.95-0.63-9.98-0.02-14.93c1.2-9.74,9.72-13.84,18.28-8.96C1150.78,575.21,1151.32,575.5,1152.3,576.05z M1152.28,591.23
		c0-1.66-0.07-3.32,0.02-4.97c0.18-3.47-1.19-5.8-4.75-6.36c-3.65-0.57-6.72,0.4-7.72,4.36c-1.18,4.67-1.33,9.44,0.13,14.1
		c1.04,3.32,3.74,4.67,6.94,4.23c3.46-0.47,5.7-2.45,5.39-6.4C1152.16,594.55,1152.27,592.88,1152.28,591.23z"/>
	<path class="st0" d="M849.06,577.21c4.71-4.28,9.48-5.59,14.58-2.96c5.4,2.79,6.62,7.86,6.53,13.51
		c-0.1,5.98-0.16,11.97,0.05,17.95c0.1,2.75-0.89,3.38-3.41,3.22c-2.23-0.14-4.21,0.29-4.05-3.17c0.27-5.81,0.14-11.63,0.08-17.45
		c-0.06-5.47-2.52-8.35-6.98-8.38c-4.71-0.03-6.76,2.47-6.77,8.3c-0.01,5.82-0.19,11.65,0.08,17.45c0.16,3.37-1.66,3.14-3.97,3.26
		c-2.58,0.13-3.44-0.63-3.42-3.3c0.14-14.3,0.18-28.59,0.06-42.89c-0.03-2.96,1.33-3.14,3.6-3.1c2.18,0.04,3.85-0.03,3.68,3.05
		C848.88,567.28,849.06,571.87,849.06,577.21z"/>
	<path class="st0" d="M1406.15,593.94c2.43,8.06,7.33,10.47,13.91,6.53c3.98-2.38,5.2,0.75,6.49,2.54c1.63,2.27-1.4,2.88-2.67,3.63
		c-5.78,3.4-11.88,3.92-17.87,0.68c-5.66-3.06-6.99-8.44-6.9-14.38c0.04-2.65-0.22-5.38,0.3-7.95c1.78-8.74,7.3-12.63,16.53-12.05
		c6.35,0.41,11.5,6.42,12.11,14.14c0.54,6.84,0.54,6.84-6.11,6.84C1416.8,593.94,1411.64,593.94,1406.15,593.94z M1406.34,587.96
		c4.29,0,8.24-0.06,12.19,0.02c2.16,0.05,3.08-0.36,2.06-2.78c-1.39-3.29-3.16-5.66-7.22-5.37
		C1408.58,580.17,1407.18,583.4,1406.34,587.96z"/>
	<path class="st0" d="M939.48,578.41c4.35-5.15,11.66-6.91,18.5-4.46c5.46,1.96,7.93,6.12,7.95,13.45
		c0.02,5.65-0.34,11.33,0.13,16.95c0.38,4.56-2.12,5.45-5.19,4.34c-2.59-0.94-4.55-0.28-6.85,0.19c-8.8,1.8-14.96-1.43-16.39-8.46
		c-1.38-6.78,2.93-12.24,9.87-12.47c2.16-0.07,4.39,0.32,6.46-0.1c1.73-0.35,4.89,2,5.05-1.68c0.13-2.93-1.4-5.61-4.65-6.21
		c-1.91-0.36-4.44-0.71-5.85,0.22C944.64,582.74,942.13,580.81,939.48,578.41z M953.17,593.89c-1.89,0-3.38-0.07-4.86,0.02
		c-2.37,0.13-3.52,1.62-3.76,3.82c-0.23,2.15,0.47,4.04,2.63,4.75c1.52,0.5,3.21,0.63,4.82,0.63c5.76,0,7.15-1.36,7.17-6.22
		C959.22,591.03,954.67,595.35,953.17,593.89z"/>
	<path class="st0" d="M1318.2,572.99c4.23-0.18,8.05,0.75,11.56,2.8c1.25,0.73,3.88,1.12,1.99,3.32c-1.32,1.53-1.86,5.2-5.55,2.97
		c-3.19-1.93-6.77-2.68-10.5-2.08c-2.37,0.38-4.14,1.72-3.92,4.3c0.19,2.32,2.17,2.55,4.1,2.7c2.81,0.22,5.61,0.57,8.4,0.95
		c5.22,0.71,7.89,3.43,8.64,8.67c0.62,4.34-1.86,9.67-5.86,11.15c-7.67,2.84-15.21,2.35-22.28-2.09c-1.33-0.83-2.79-2.03-1.09-3.47
		c1.47-1.24,1.84-4.94,5.22-2.83c4.16,2.6,8.52,4.23,13.54,2.61c2.09-0.67,3.73-1.83,3.56-4.15c-0.16-2.15-1.92-2.7-3.89-3.1
		c-2.62-0.54-5.23-0.72-7.89-0.87c-5.94-0.33-9.02-3.02-9.63-8.06c-0.71-5.87,1.99-10.14,7.38-11.96
		C1314.08,573.15,1316.18,572.85,1318.2,572.99z"/>
	<path class="st0" d="M580.72,593.91c-2.16,0-4.32-0.07-6.48,0.03c-1.26,0.06-2.99-0.7-3.68,0.47c-0.8,1.35,0.35,2.88,1.07,4.13
		c2.24,3.88,7.28,4.76,12.4,2.43c1.17-0.53,1.98-2.19,3.87-0.91c3.79,2.58,3.91,4.36-0.08,6.6c-5.73,3.22-11.74,3.62-17.55,0.53
		c-5.67-3.01-6.91-8.52-6.93-14.42c-0.01-2.81-0.09-5.61,0.63-8.41c1.9-7.43,6.31-11.2,13.63-11.38
		c7.27-0.18,11.62,3.33,13.73,11.06c2.49,9.11,1.93,9.87-7.11,9.87C583.05,593.91,581.88,593.92,580.72,593.91z M570.24,588.06
		c4.37,0,8.49-0.09,12.61,0.03c2.58,0.08,2.75-1.08,2-3.04c-1.29-3.36-3.26-5.78-7.32-5.42
		C572.57,580.07,571.01,583.43,570.24,588.06z"/>
	<path class="st0" d="M1035.15,591.31c0-4.5-0.1-8.99,0.06-13.48c0.05-1.41-1.22-3.8,1.27-4.08c1.91-0.21,4.72-1.47,5.81,0.99
		c1.05,2.37,1.76,0.97,2.82,0.42c9.25-4.82,17.72-0.32,18.33,10.06c0.41,6.97-0.04,13.99,0.18,20.97c0.11,3.36-1.98,2.68-3.89,2.76
		c-2.12,0.08-3.8,0.22-3.64-2.98c0.3-5.98,0.13-11.98,0.08-17.98c-0.05-5.13-2.48-7.94-6.81-8.05c-4.44-0.11-6.77,2.49-6.82,7.84
		c-0.06,5.99-0.18,12,0.08,17.98c0.15,3.44-1.81,3.11-4.07,3.18c-2.35,0.08-3.64-0.24-3.48-3.15
		C1035.33,600.98,1035.14,596.14,1035.15,591.31z"/>
	<path class="st0" d="M747.28,590.39c-0.39-6.13,0.78-12.16,6.97-15.52c5.58-3.03,11.58-2.83,17.15,0.27
		c1.47,0.82,4.9,1.62,2.89,4.5c-1.43,2.05-3.05,4.26-6.75,1.93c-6.85-4.32-12.88-0.54-13.08,7.64c-0.04,1.49-0.06,2.99,0.01,4.49
		c0.39,7.6,7.13,11.44,13.23,6.88c4.36-3.26,5.57,0.75,6.8,2.38c1.64,2.17-1.41,3.17-2.94,4.02c-5.77,3.21-11.82,3.33-17.58,0.24
		C747.41,603.67,747.09,597.22,747.28,590.39z"/>
	<path class="st0" d="M660.31,590.94c0-4.48-0.08-8.96,0.05-13.44c0.04-1.26-1.05-3.41,1.24-3.62c2.01-0.19,5.23-1.34,5.92,0.76
		c1.18,3.58,2.14,1.04,3.07,0.34c2.43-1.82,5.16-2.23,8.01-1.83c1.95,0.28,4.39,0.71,5.18,2.48c0.79,1.78-1.59,3-2.43,4.54
		c-0.89,1.65-1.85,1.46-3.53,0.73c-6.1-2.63-9.88,0.06-9.93,6.85c-0.04,5.81-0.19,11.62,0.09,17.42c0.16,3.32-1.23,3.77-4.07,3.76
		c-2.72,0-3.84-0.61-3.69-3.56c0.23-4.8,0.06-9.62,0.06-14.43C660.29,590.94,660.3,590.94,660.31,590.94z"/>
	<path class="st0" d="M1229.11,590.94c0-4.82,0.23-9.65-0.08-14.45c-0.2-3.14,1.45-3.01,3.6-3.04c2.23-0.03,3.62,0.04,3.55,3.09
		c-0.23,9.79-0.23,19.6,0,29.4c0.07,3.13-1.47,2.95-3.61,3.02c-2.29,0.07-3.7-0.11-3.54-3.08
		C1229.3,600.91,1229.11,595.92,1229.11,590.94z"/>
	<path class="st0" d="M1236.02,562.96c0.55,2.82-0.1,4.19-3.44,4.07c-2.77-0.1-3.61-0.81-3.55-3.59c0.06-2.67,0.19-4.25,3.62-4.04
		C1235.34,559.58,1236.77,560.04,1236.02,562.96z"/>
</g>
</svg>
