<svg id="Layer_1" data-name="Layer 1" xmlns="http://www.w3.org/2000/svg" viewBox="0 0 1387 342"><defs><style>.cls-1{fill:#fcfcfc;}.cls-2{fill:#d8d8d8;}</style></defs><path class="cls-1" d="M380.82,171.15c0,18.62-15,33.6-34.29,33.6h-14.7v30.79H309.44v-98h37.09C365.84,137.56,380.82,152.54,380.82,171.15Zm-22.39,0c0-7.14-5-12.6-11.9-12.6h-14.7v25.2h14.7C353.39,183.75,358.43,178.29,358.43,171.15Z"/><path class="cls-1" d="M457.68,203.35H447v32.19H424.65v-98h39.19a33.51,33.51,0,0,1,33.59,33.59c0,12-7.28,23-18.05,28.42l20.85,36H476.16ZM447,183.75h16.8c6.16,0,11.2-5.46,11.2-12.6s-5-12.6-11.2-12.6H447Z"/><path class="cls-1" d="M537.76,186.55a51,51,0,1,1,51,50.95A50.51,50.51,0,0,1,537.76,186.55Zm79.5,0c0-17.5-12.59-29.12-28.55-29.12s-28.56,11.62-28.56,29.12,12.6,29.11,28.56,29.11S617.26,204,617.26,186.55Z"/><path class="cls-1" d="M676.49,213.28l19.32-11.19c3.5,8.11,9.51,13.57,20.57,13.57,10.64,0,13.3-4.2,13.3-8,0-6-5.6-8.39-20.3-12.45-14.55-4.06-28.83-11.06-28.83-29.82s16-29.81,32.89-29.81c16.1,0,28.7,7.7,35.83,22.12l-18.89,11.05c-3.36-7-8-11.34-16.94-11.34-7,0-10.5,3.5-10.5,7.42,0,4.48,2.38,7.56,17.64,12.18,14.84,4.48,31.5,9.66,31.5,30.37,0,18.9-15.12,30.1-36.4,30.1C695.11,237.5,682,227.7,676.49,213.28Z"/><path class="cls-1" d="M866.59,171.15c0,18.62-15,33.6-34.3,33.6H817.6v30.79H795.2v-98h37.09C851.61,137.56,866.59,152.54,866.59,171.15Zm-22.4,0c0-7.14-5-12.6-11.9-12.6H817.6v25.2h14.69C839.15,183.75,844.19,178.29,844.19,171.15Z"/><path class="cls-1" d="M972,214v21.56H910.41v-98H971.3v21.55H932.81v16.24h35v21.28h-35V214Z"/><path class="cls-1" d="M1074.61,214v21.56h-57.39v-98h22.4V214Z"/><path class="cls-1" d="M1174.43,214v21.56H1117v-98h22.39V214Z"/><path class="cls-1" d="M1207.05,186.55a51,51,0,1,1,51,50.95A50.52,50.52,0,0,1,1207.05,186.55Zm79.51,0c0-17.5-12.6-29.12-28.56-29.12s-28.55,11.62-28.55,29.12,12.6,29.11,28.55,29.11S1286.56,204,1286.56,186.55Z"/><path class="cls-1" d="M33.19,164.08c1.82-7.57,6.94-12.58,13.54-15.82,19-9.36,38.25-18.35,57.39-27.51,10.93-5.24,21.83-10.54,32.77-15.78q32.67-15.63,65.35-31.22l35.28-16.83c9.19-4.38,18.17-9.3,27.63-13,20.14-7.91,41.66,2.61,45.54,25,2.1,12.1-1.77,23-11.37,31.32-1.27,1.1-2.44,2.32-3.65,3.49-5,1.35-9,4.56-13.55,6.73-10.57,5-21.15,10-31.77,15-6.5,3-12.82,6.38-19.41,9.22-6.1,2.63-11.92,5.92-17.94,8.76a20.28,20.28,0,0,0-5.2,3c-.36-1.73-1.3-1-2.24-.58Q190.7,153,175.83,160.06c-8.19,3.9-16.49,7.58-24.57,11.7-4.55,2.32-9.49,3.87-13.65,6.94-6.4-1.46-11.85-5.11-17.77-7.68-5.38-2.33-10.57-5.06-15.86-7.58-7.65-3.66-15.27-7.4-23-10.91-5.2-2.37-10.28-5.27-16.22-5.5-11.74-.45-20.88,4.43-28,13.6C35.78,161.9,35.32,163.93,33.19,164.08Z"/><path class="cls-1" d="M33.19,164.08c2.13-.15,2.59-2.18,3.57-3.45,7.12-9.17,16.26-14,28-13.6,5.94.23,11,3.13,16.22,5.5,7.73,3.51,15.35,7.25,23,10.91,5.29,2.52,10.48,5.25,15.86,7.58,5.92,2.57,11.37,6.22,17.77,7.68,5.66,2.64,11.33,5.24,17,7.93,13.65,6.51,27.24,13.18,41,19.53,4.55,2.1,8.77,5,13.72,6.16.5,1.43,1.08,2.84,1.48,4.29,1.61,5.74,2.9,11.57,4.77,17.22a213.44,213.44,0,0,0,22.63,47.61c6.11,9.6,11.54,19.79,20.48,27.31.26.22.28.74.41,1.12-4.23-1.16-7.88-3.6-11.81-5.41-10.83-5-21.5-10.27-32.25-15.42q-28-13.4-56-26.76-16.82-8-33.65-16c-19.88-9.43-39.84-18.7-59.6-28.36C57.65,214,49,211.11,41.88,205.42a30.35,30.35,0,0,1-11.8-23.23c-.23-5.78-.24-11.57,2.55-16.91.15-.3.29-.61.44-.91l0-.19Z"/><path class="cls-2" d="M259,309.87c-.13-.38-.15-.9-.41-1.12-8.94-7.52-14.37-17.71-20.48-27.31a213.44,213.44,0,0,1-22.63-47.61c-1.87-5.65-3.16-11.48-4.77-17.22-.4-1.45-1-2.86-1.48-4.29-3.57-15.94-4.1-32.12-3.61-48.36a84.67,84.67,0,0,1,2.14-17.57,20.28,20.28,0,0,1,5.2-3c6-2.84,11.84-6.13,17.94-8.76,6.59-2.84,12.91-6.22,19.41-9.22,10.62-4.92,21.2-9.93,31.77-15,4.55-2.17,8.59-5.38,13.55-6.73-3.07,4.71-6.4,9.28-9.17,14.16-7.37,13-12.6,26.79-14.22,41.79a125.49,125.49,0,0,0-1.09,13.84,125.32,125.32,0,0,0,10.2,48.72,182.67,182.67,0,0,0,22.88,39.46c12.67,16.77,7.74,43.31-14.19,51.74a32.44,32.44,0,0,1-26.79-1.32C261.86,311.4,260.46,310.62,259,309.87Z"/><path class="cls-1" d="M33.07,164.37c-.15.3-.29.61-.44.91A.68.68,0,0,1,33.07,164.37Z"/></svg>