<svg id="Layer_1" data-name="Layer 1" xmlns="http://www.w3.org/2000/svg" viewBox="0 0 638.33 255.12"><defs><style>.cls-1{fill:#000}</style></defs><path class="cls-1" d="M231.41 108h10.28v78.82h39.6v9.75h-49.88zM316.6 197.05a7.05 7.05 0 01-7-7.1 7 7 0 1113.93-.07 7 7 0 01-6.93 7.17zm4.61-30.05h-9.54l-.31-58.54h9.53zM361.73 108H377l29.34 69.44h.24L436.19 108h14.92v88.57h-10.28v-74.3h-.24l-31.06 74.3h-6.22l-31.06-74.3H372v74.3h-10.27zM492.22 108h22.13c16.75 0 34.48 2.5 34.48 24.4 0 12.89-8.19 21.27-21.64 23.39l24.57 40.78h-12.59l-23.47-39.76h-13.2v39.78h-10.28zm10.28 39h9.17c11.36 0 26.16 0 26.16-14.63 0-12.77-10.88-14.64-20.91-14.64H502.5zM231.41 230H243c6.3 0 12.66 2.45 12.66 9.7a8.85 8.85 0 01-6.68 8.91v.11a9.52 9.52 0 018.61 9.71c0 8.69-7.8 11-14.85 11h-11.33zm4.53 16.72h6.24c4.26 0 8.67-.94 8.67-6.4 0-4.86-4.09-6-8.18-6h-6.73zm0 18.39h7.64c4.42 0 9.21-1.83 9.21-6.85 0-5.52-4.52-7.19-9.1-7.19h-7.75zM299.27 254.46c0 8.57-3.88 16-14.37 16s-14.38-7.47-14.38-16V230H275v23.74c0 6.36 2.26 12.37 9.86 12.37s9.85-6 9.85-12.37V230h4.52zM313.93 230h4.53v39.5h-4.53zM333.31 230h4.52v35.11h17.44v4.35h-22zM364.88 230h14.64c7.49 0 18.68 5.19 18.68 19.73S387 269.5 379.52 269.5h-14.64zm4.52 35.11h8.6c8.73 0 15.35-4.57 15.35-15.38s-6.62-15.38-15.35-15.38h-8.6zM437.52 238.18a11.6 11.6 0 00-9.52-4.79c-8.52 0-14.55 7.74-14.55 16.38 0 9.14 6 16.38 14.55 16.38a13.27 13.27 0 0011-5.51l3.39 2.95c-3.39 4.73-8.35 6.91-14.42 6.91-10.94 0-19.39-8.75-19.39-20.73 0-11.59 8.07-20.73 19.39-20.73 5.16 0 10.22 1.84 13.45 6.19zM451.86 249.77c0-11.93 8.34-20.73 19.92-20.73s19.92 8.8 19.92 20.73-8.35 20.73-19.92 20.73-19.92-8.8-19.92-20.73zm35 0c0-9.08-6.13-16.38-15.07-16.38s-15.08 7.3-15.08 16.38 6.14 16.38 15.08 16.38 15.06-7.3 15.06-16.38zM504.31 230H510l22.08 32.77h.1V230h4.53v39.5H531l-22.08-32.77h-.1v32.77h-4.53zM571.87 230h4.53v35.11h17.45v4.35h-22zM604.15 230h4.53v35.11h17.44v4.35h-22zM636.44 230h11.3c7 0 13.36 2.56 13.36 10.81 0 8.64-7.12 10.93-12.5 10.93H641v17.76h-4.52zm4.56 17.43h7.64c4.52 0 7.64-2.12 7.64-6.52s-3.12-6.52-7.64-6.52H641z" transform="translate(-22.77 -15.39)"/><path class="cls-1" d="M601.52 92.64h-9.65l-38.14 88.57h11.62l8.92-21.77h.05l4.01-9.76h-.03l17.97-43.53h.24l12.94 32.9 16.89 42.16h11.99l-36.81-88.57z"/><path class="cls-1" d="M432.08 71.06H432c-1.78 3.34-5.9 6-11.07 6-8 0-14.38-6.65-14.38-15.44s6.09-15.45 15.12-15.45a13.21 13.21 0 0110.33 5h.12V28.81h4.8v47.47h-4.8zm-10.2-20.4c-6.21 0-10.21 4.78-10.21 10.93s4 10.92 10.21 10.92 10.2-4.77 10.2-10.92-4-10.93-10.2-10.93zM477.52 70.94c-3.38 4.47-7.44 6.09-12.78 6.09-9 0-14.57-6.9-14.57-15.44 0-9.11 6.27-15.45 14.75-15.45 8.11 0 13.65 5.65 13.65 15.39v1.56h-23.24c.37 5.09 4.19 9.42 9.41 9.42a10.68 10.68 0 009.16-4.45zM473.4 59c-.18-5-3.37-8.29-8.66-8.29a9 9 0 00-9.41 8.29zM66 256a5.17 5.17 0 001.52-3.42v-.41a4.84 4.84 0 00-.57-2.34 5.55 5.55 0 00-1.28-1.53 4.38 4.38 0 00-2.84-1H32.87v3.55h30.31a1 1 0 110 2.09H32.87v4.43h29.86A4.63 4.63 0 0066 256zM66.34 229v-.37a4.38 4.38 0 00-.54-2.13 4.85 4.85 0 00-1.23-1.41 4.3 4.3 0 00-2.73-.95h-29v3.16h29.39a1 1 0 110 2.09H32.87v4H61.8a4.62 4.62 0 004.54-4.39z" transform="translate(-22.77 -15.39)"/><path class="cls-1" d="M72 228.87v-.81a9.34 9.34 0 00-1.25-4.77 11.35 11.35 0 00-2.75-3.14 10.26 10.26 0 00-6.35-2.15H32.87v4h29a6.47 6.47 0 014.08 1.42 7.24 7.24 0 011.73 2 6.41 6.41 0 01.8 3.15v.49a6.72 6.72 0 01-6.65 6.35H32.87v3.2h28.67A10.5 10.5 0 0072 228.87z" transform="translate(-22.77 -15.39)"/><path class="cls-1" d="M192.85 212.7v-2.14H83.43V15.39h-2.17v195.17h-2.7V15.39h-2.17v195.17h-2.71V15.39h-2.16v195.17h-2.71V15.39h-2.17v195.17h-2.71V15.39h-2.16v195.17h-2.71V15.39h-2.17v195.17h-2.71V15.39H52v195.17h-2.69V15.39h-2.17v195.17h-2.71V15.39h-2.16v195.17h-2.71V15.39h-2.17v195.17h-2.71V15.39h-2.16v195.17h-2.71V15.39h-2.17v195.17h-2.71V15.39h-2.16V270.5h170.08v-2.14H83.43v-2.67h109.42v-2.14H83.43v-2.68h109.42v-2.14H83.43v-2.68h109.42v-2.14H83.43v-2.67h109.42v-2.14H83.43v-2.68h109.42v-2.14H83.43v-2.68h109.42v-2.14H83.43v-2.67h109.42v-2.15H83.43V232h109.42v-2.14H83.43v-2.68h109.42V225H83.43v-2.68h109.42v-2.14H83.43v-2.67h109.42v-2.14H83.43v-2.67zM75.48 252.61a13.2 13.2 0 01-13 12.54H30.7v-49.24h31a12.36 12.36 0 017.68 2.61 13.22 13.22 0 013.3 3.74 11.4 11.4 0 011.53 5.8v.94a12.48 12.48 0 01-7.07 10.46 12.66 12.66 0 013.47 2 14 14 0 013.4 4 12.43 12.43 0 011.58 6.18z" transform="translate(-22.77 -15.39)"/><path class="cls-1" d="M69.18 243.05a10.41 10.41 0 00-6.6-2.31H32.87v4.48h29.92a6.54 6.54 0 014.21 1.51 7.62 7.62 0 011.78 2.15 7 7 0 01.82 3.32v.52a7.29 7.29 0 01-2.15 4.79 6.72 6.72 0 01-4.71 2H32.87v3.59h29.59a11.09 11.09 0 0010.9-10.57v-.87a10.36 10.36 0 00-1.31-5.18 12 12 0 00-2.87-3.43z" transform="translate(-22.77 -15.39)"/><path class="cls-1" d="M143.54 0v109.36h2.16V0M85.04 0v109.36h2.16V0M114.29 0v109.36h2.16V0M109.41 0v109.36h2.17V0M104.54 0v109.36h2.16V0M99.66 0v109.36h2.17V0M94.79 0v109.36h2.16V0M89.91 0v109.36h2.17V0M138.66 0v109.36h2.17V0M133.79 0v109.36h2.16V0M128.91 0v109.36h2.17V0M124.04 0v109.36h2.16V0M119.16 0v109.36h2.17V0M145.71 178.84H85.04v2.14h60.67M145.71 121.04H85.04v2.14h60.67M145.71 149.94H85.04v2.14h60.67M145.71 145.12H85.04v2.14h60.67M145.71 140.3H85.04v2.14h60.67M145.71 135.49H85.04v2.14h60.67M145.71 130.67H85.04v2.14h60.67M145.71 125.85H85.04v2.14h60.67M145.71 174.02H85.04v2.14h60.67M145.71 169.21H85.04v2.14h60.67M145.71 164.39H85.04v2.14h60.67M145.71 159.57H85.04v2.14h60.67M145.71 154.75H85.04v2.15h60.67"/></svg>
